M48
;Layer_Color=9474304
;FILE_FORMAT=4:4
METRIC,LZ
;TYPE=PLATED
T1F00S00C0.2000
T2F00S00C0.3000
T3F00S00C0.4000
T4F00S00C0.7500
T5F00S00C0.8000
T6F00S00C1.1000
T7F00S00C1.2000
T8F00S00C1.2200
T9F00S00C1.7000
%
T01
X-00635308Y-0002008
X-00626309
X-00630808Y-0001408
X-00626309Y-0000808
X-00635308
T02
X-0083275Y-0070029
X-0078275
X-0068275
X-0066167Y-0067056
X-0053275Y-0070029
X-0038275
X-0028275
X-0023275
X-0018275
X-0013275
X-0003275
X0001725
X0004225Y-0065029
X-0000775
X-0005775
X-0003302Y-0058585
X000127Y-0060706
X-0013275Y-0060029
X-0012954Y-0058293
X-0010922Y-0056896
X-0010775Y-0065029
X-0015775
X-0020775
X-0025775
X-0030775
X-0035775
X-0037846Y-0064135
X-0039751
X-0041656
X-0043275Y-0060029
X-0038275
X-0033275
X-0028275
X-0023275
X-0018275
Y-0050029
X-0023275
X-0028275
X-0033275
X-0030775Y-0055029
X-0025775
X-0035775
X-0040775
X-0045775
X-00462749Y-0048537
X-00452749
X-00442749
X-00432749
X-00422749
X-00402749
X-00412749Y-0046537
Y-0044537
Y-0042537
X-00432749
X-00442749
X-00452749
X-00437749Y-0041537
X-00425389Y-0038013
X-00412749Y-0038537
X-00402749
X-00407749Y-0039537
X-00467749
X-00477749
X-00487749
X-00482749Y-0038537
X-00472749
X-00467749Y-0037537
X-00477749
X-00487749
X-00482749Y-0036537
X-00472749
Y-0032537
X-00462749
X-00457749Y-0031537
X-00467749
X-00477749
X-0048768Y-003175
X-004826Y-0032385
X-0048275Y-0030537
X-00472749Y-0030537
X-0045775Y-0030537
X-00442749Y-0030537
X-0044525Y-0028037
X-00437749Y-0027537
X-00442749Y-0026537
X-00432749
X-00482749
X-00487749Y-0027537
X-00482749Y-0028537
X-00402749Y-0030537
X-00407749Y-0031537
X-0033275Y-0040029
X-0029591Y-0038227
X-00432749Y-0046537
X-00437749Y-0047537
X-00447749
X-00472749Y-0048537
X-0048641Y-0048387
X-00487749Y-0049537
X-00482749Y-0050537
X-0047879Y-0043942
X-0048275Y-0060029
X-0014732Y-0030861
X-0017145Y-0028448
X-0049525Y-0028037
X-00497749Y-0029537
X-0049403Y-0031242
X-00522749Y-0032537
X-0054525Y-0033037
X-00552749Y-0032537
X-00547749Y-0031537
X-00557749
X-0055775Y-0030537
X-00557749Y-0029537
X-00547749
X-00537749
X-00527749
X-00532749Y-0028537
X-00537749Y-0027537
X-0054525Y-0028037
X-00542749Y-0026537
X-00532749
X-00492749
X-00542749Y-0030537
X-00567749Y-0029537
X-00577749
X-0058275Y-0030029
X-00582749Y-0028537
X-00587749Y-0027537
X-0059525Y-0028037
X-00602749Y-0028537
X-00612749
X-0062025Y-0028037
X-00627749Y-0027537
X-00637749
X-0064525Y-0028037
X-00652749Y-0028537
X-00662749
X-00672749
X-00682749
X-00692749
X-00687749Y-0027537
X-00692749Y-0026537
X-00652749
X-00642749
X-00632749
X-00622749
X-00607749Y-0027537
X-00592749Y-0026537
X-00582749
X-00632749Y-0028537
X-0063275Y-0040029
X-006477Y-0038608
X-0068275Y-0040029
X-0073275
X-0078275
X-0083275
X-0080775Y-0035029
X-0075775
Y-0045029
X-0070775
X-0068275Y-0050029
X-0063275
X-0060775Y-0045029
X-0055775Y-0045537
X-00547749Y-0045537
X-00552749Y-0044537
X-00542749
X-00547749Y-0043537
X-00557749
X-00527749
X-00523509Y-0044109
X-00522749Y-0042537
X-00492749Y-0044537
X-00512749Y-0046537
Y-0048537
X-00522749
X-00517749Y-0049537
X-00527749
X-00537749
X-00542749Y-0050537
X-00532749
X-00522749
X-00512749
X-00492749
X-0055118Y-0049911
X-0056007Y-005207
X-0056769Y-0051689
X-0055775Y-0055029
X-0053275Y-0060029
X-0050775Y-0065029
X-0055775
X-0060775
X-0070775
X-0075775
X-0080775
X-0078275Y-0060029
X-0073275
X-0068275
X-0070775Y-0055029
X-0075775
X-0080775
X-0078275Y-0050029
X-0073275
X-0083275
X-0080775Y-0045029
X-0083275Y-0030029
Y-0060029
X-0054864Y-0040005
X-00497749Y-0039537
X-00502749Y-0038537
X-00492749
X-00497749Y-0037537
X-00502749Y-0036537
X-00492749
X-00557749Y-0033537
X-0053275Y-0020029
X-0058275
Y-0010029
X-0063275
X-00651808Y-0004445
X-00604443Y-00044609
X-0060775Y-0005029
X-00663828Y00002761
X-00655977Y00014191
X-00742397Y00002069
X-0075775Y-0005029
X-0075565Y-0016002
Y-0017272
X-0076962
Y-0016002
X-0078359
Y-0017272
X-0079756
Y-0016002
X-0083275Y-0020029
X-0080775Y-0025029
X-0065775Y-0015029
X-0050775
X-0053275Y-0000029
X-0048275Y-0020029
X-0043275
X-0038275
X-0017588Y-00230848
X-0014478Y-0021971
T03
X-0048387Y-0072263
X-0033528Y-00692537
X-0005461Y-0061468
X-0001016Y-0061595
X-0002032Y-0058293
X-0004064Y-0055029
X-00092953Y-0055499
X-0008153Y-005244
X-0006731Y-0046101
X-0008382Y-0044196
X-0002921Y-0049657
X000254Y-0043688
X-001397Y-0045847
X-0013843Y-0037084
X-0020574Y-0035941
Y-0038354
X-003048Y-0042037
X-0036311Y-00422148
X-003847Y-004826
X-0028829Y-0047117
X-0032385Y-0031369
X-0034544Y-0030607
X-0036322Y-0033274
X-0038354Y-0032766
X-0038989Y-0033909
X-0040005Y-0033528
X-0053086Y-0033147
X-0073025Y-0016383
X-0071755Y-0002159
X-00785422Y00015461
X-0011684Y-0000889
T04
X-0043905Y-0015113
X-0038825
Y0000127
X-0043905
X-0023585
X-0021045
X-0018505
X-0021045Y-0015113
X-0023585
T05
X-0080645Y-0070856
X0002091Y-0052348
Y-0050348
Y-0048348
X-0080645Y-0063256
T06
X-0066129Y-00728435
X-0063589
X-0061049
X-0058509
X-0055969
X-0053429
X0004953Y-0001016
Y0001524
T07
X-0074699Y-004951
Y-004701
T08
X-0010418Y-00372441
Y-0035073
Y-00328883
Y-0030673
X-0009552Y-0018111
Y-0015911
Y-0013711
Y-0011511
X-0012092
Y-0013711
Y-0015911
Y-0018111
T09
X-0081879Y-004951
Y-004701
M30
