G04*
G04 #@! TF.GenerationSoftware,Altium Limited,Altium Designer,21.0.9 (235)*
G04*
G04 Layer_Physical_Order=1*
G04 Layer_Color=255*
%FSLAX44Y44*%
%MOMM*%
G71*
G04*
G04 #@! TF.SameCoordinates,2E686BC6-EAB9-49F2-94FE-736710D6270B*
G04*
G04*
G04 #@! TF.FilePolarity,Positive*
G04*
G01*
G75*
%ADD12C,0.2540*%
%ADD14C,0.2500*%
%ADD17C,0.5000*%
%ADD18C,0.5000*%
%ADD53C,1.1000*%
%ADD58C,1.8000*%
%ADD70R,1.0000X0.8000*%
%ADD71R,1.5000X3.2000*%
%ADD72R,2.6000X2.4000*%
%ADD73R,0.8000X1.0000*%
%ADD74R,1.3970X0.2794*%
%ADD75R,0.6000X1.3000*%
G04:AMPARAMS|DCode=76|XSize=0.62mm|YSize=0.5mm|CornerRadius=0mm|HoleSize=0mm|Usage=FLASHONLY|Rotation=135.000|XOffset=0mm|YOffset=0mm|HoleType=Round|Shape=Rectangle|*
%AMROTATEDRECTD76*
4,1,4,0.3960,-0.0424,0.0424,-0.3960,-0.3960,0.0424,-0.0424,0.3960,0.3960,-0.0424,0.0*
%
%ADD76ROTATEDRECTD76*%

G04:AMPARAMS|DCode=77|XSize=1.57mm|YSize=0.6mm|CornerRadius=0.075mm|HoleSize=0mm|Usage=FLASHONLY|Rotation=0.000|XOffset=0mm|YOffset=0mm|HoleType=Round|Shape=RoundedRectangle|*
%AMROUNDEDRECTD77*
21,1,1.5700,0.4500,0,0,0.0*
21,1,1.4200,0.6000,0,0,0.0*
1,1,0.1500,0.7100,-0.2250*
1,1,0.1500,-0.7100,-0.2250*
1,1,0.1500,-0.7100,0.2250*
1,1,0.1500,0.7100,0.2250*
%
%ADD77ROUNDEDRECTD77*%
%ADD78R,2.2000X2.6000*%
%ADD79O,1.8000X0.2500*%
%ADD80O,0.2500X1.8000*%
G04:AMPARAMS|DCode=81|XSize=1mm|YSize=0.8mm|CornerRadius=0mm|HoleSize=0mm|Usage=FLASHONLY|Rotation=315.000|XOffset=0mm|YOffset=0mm|HoleType=Round|Shape=Rectangle|*
%AMROTATEDRECTD81*
4,1,4,-0.6364,0.0707,-0.0707,0.6364,0.6364,-0.0707,0.0707,-0.6364,-0.6364,0.0707,0.0*
%
%ADD81ROTATEDRECTD81*%

%ADD82R,1.2000X1.8000*%
%ADD83R,0.8000X1.1000*%
G04:AMPARAMS|DCode=84|XSize=1mm|YSize=0.8mm|CornerRadius=0mm|HoleSize=0mm|Usage=FLASHONLY|Rotation=225.000|XOffset=0mm|YOffset=0mm|HoleType=Round|Shape=Rectangle|*
%AMROTATEDRECTD84*
4,1,4,0.0707,0.6364,0.6364,0.0707,-0.0707,-0.6364,-0.6364,-0.0707,0.0707,0.6364,0.0*
%
%ADD84ROTATEDRECTD84*%

%ADD85R,0.6200X0.5000*%
%ADD86R,0.5000X0.6200*%
%ADD87R,1.2500X1.7500*%
%ADD88R,3.2000X1.2000*%
%ADD89R,1.0000X0.8000*%
%ADD90R,1.6000X0.3000*%
%ADD91R,1.5700X1.8800*%
%ADD92R,2.0000X2.5000*%
%ADD93R,2.4000X1.5500*%
G04:AMPARAMS|DCode=94|XSize=1.55mm|YSize=0.6mm|CornerRadius=0.3mm|HoleSize=0mm|Usage=FLASHONLY|Rotation=270.000|XOffset=0mm|YOffset=0mm|HoleType=Round|Shape=RoundedRectangle|*
%AMROUNDEDRECTD94*
21,1,1.5500,0.0000,0,0,270.0*
21,1,0.9500,0.6000,0,0,270.0*
1,1,0.6000,0.0000,-0.4750*
1,1,0.6000,0.0000,0.4750*
1,1,0.6000,0.0000,0.4750*
1,1,0.6000,0.0000,-0.4750*
%
%ADD94ROUNDEDRECTD94*%
%ADD95R,1.7500X1.2500*%
%ADD96O,2.3000X0.6000*%
%ADD97R,2.3000X0.6000*%
%ADD98R,2.4000X2.6000*%
%ADD99C,0.4000*%
%ADD100C,0.1250*%
%ADD101C,1.0000*%
%ADD102C,1.5000*%
%ADD103C,1.0000*%
%ADD104R,1.8000X1.8000*%
%ADD105C,4.0000*%
%ADD106C,1.6500*%
%ADD107C,1.7000*%
%ADD108R,2.0000X2.0000*%
%ADD109C,2.0000*%
%ADD110R,1.1500X1.1500*%
%ADD111C,1.1500*%
%ADD112C,3.5000*%
%ADD113C,0.4000*%
%ADD114R,1.7000X1.7000*%
G04:AMPARAMS|DCode=115|XSize=1.5mm|YSize=1.5mm|CornerRadius=0.075mm|HoleSize=0mm|Usage=FLASHONLY|Rotation=180.000|XOffset=0mm|YOffset=0mm|HoleType=Round|Shape=RoundedRectangle|*
%AMROUNDEDRECTD115*
21,1,1.5000,1.3500,0,0,180.0*
21,1,1.3500,1.5000,0,0,180.0*
1,1,0.1500,-0.6750,0.6750*
1,1,0.1500,0.6750,0.6750*
1,1,0.1500,0.6750,-0.6750*
1,1,0.1500,-0.6750,-0.6750*
%
%ADD115ROUNDEDRECTD115*%
%ADD116C,1.5000*%
%ADD117O,2.6160X1.3080*%
%ADD118C,0.7000*%
G36*
X-502419Y-146834D02*
X-502689Y-146987D01*
X-503689Y-147223D01*
X-504895Y-146017D01*
X-504912Y-145941D01*
X-505071Y-144628D01*
X-504995Y-144442D01*
X-504988Y-144432D01*
X-504986Y-144421D01*
X-504852Y-144099D01*
X-504846Y-144090D01*
X-504844Y-144078D01*
X-504767Y-143893D01*
X-504730Y-143707D01*
Y-143506D01*
X-504691Y-143309D01*
X-504691Y-56081D01*
X-504730Y-55884D01*
X-504730Y-55683D01*
X-504767Y-55497D01*
X-504844Y-55312D01*
X-504846Y-55300D01*
X-504853Y-55291D01*
X-504986Y-54969D01*
X-504988Y-54958D01*
X-504995Y-54948D01*
X-505071Y-54762D01*
X-505176Y-54605D01*
X-505318Y-54463D01*
X-505430Y-54296D01*
X-524112Y-35615D01*
X-524279Y-35503D01*
X-524421Y-35361D01*
X-524633Y-35219D01*
X-524707Y-35189D01*
X-525635Y-34260D01*
X-525802Y-34148D01*
X-525944Y-34006D01*
X-526101Y-33901D01*
X-526287Y-33825D01*
X-526297Y-33818D01*
X-526308Y-33816D01*
X-526630Y-33682D01*
X-526640Y-33676D01*
X-526651Y-33674D01*
X-526837Y-33597D01*
X-526837D01*
X-527022Y-33560D01*
X-527223D01*
X-527420Y-33521D01*
X-540064D01*
X-541259Y-33339D01*
Y-21339D01*
X-544945D01*
Y-8699D01*
X-541259D01*
Y3301D01*
X-555258D01*
Y-8699D01*
X-551572D01*
Y-11072D01*
X-571846D01*
X-572332Y-9898D01*
X-570863Y-8429D01*
X-561578D01*
Y3571D01*
X-575578D01*
Y-3714D01*
X-577610Y-5745D01*
X-582638D01*
Y3935D01*
X-596638D01*
Y-746D01*
X-599809D01*
Y-580D01*
X-619808D01*
Y-7580D01*
Y-17580D01*
Y-27580D01*
X-606399D01*
X-605799Y-27699D01*
X-597168D01*
Y-32339D01*
X-583168D01*
Y-22699D01*
X-581040D01*
Y-32450D01*
X-575702D01*
Y-35339D01*
X-575450Y-36607D01*
X-574731Y-37682D01*
X-573657Y-38401D01*
X-572388Y-38653D01*
X-557029D01*
Y-102101D01*
X-559869D01*
X-560066Y-102140D01*
X-560267D01*
X-560434Y-102173D01*
X-560435D01*
X-560620Y-102250D01*
X-560649Y-102256D01*
X-560675Y-102273D01*
X-561170Y-102478D01*
X-561732Y-103041D01*
X-561937Y-103535D01*
X-561954Y-103560D01*
X-561960Y-103590D01*
X-562037Y-103776D01*
Y-103776D01*
X-562070Y-103943D01*
Y-104144D01*
X-562109Y-104341D01*
Y-184233D01*
X-562109Y-184233D01*
X-561954Y-185014D01*
X-561512Y-185675D01*
X-561512Y-185675D01*
X-560325Y-186862D01*
X-559664Y-187304D01*
X-558883Y-187459D01*
X-536183Y-187459D01*
X-528521D01*
X-528324Y-187420D01*
X-528123D01*
X-527938Y-187383D01*
X-527937Y-187383D01*
X-527937D01*
X-527752Y-187306D01*
X-527740Y-187304D01*
X-527731Y-187297D01*
X-527409Y-187164D01*
X-527398Y-187162D01*
X-527388Y-187155D01*
X-527202Y-187079D01*
X-527202Y-187079D01*
X-527045Y-186973D01*
X-526903Y-186832D01*
X-526736Y-186720D01*
X-523210Y-183194D01*
X-523098Y-183027D01*
X-522956Y-182885D01*
X-522851Y-182728D01*
X-522775Y-182542D01*
X-522768Y-182532D01*
X-522766Y-182521D01*
X-522632Y-182199D01*
X-522626Y-182190D01*
X-522624Y-182178D01*
X-522547Y-181993D01*
X-522510Y-181807D01*
Y-181606D01*
X-522471Y-181409D01*
Y-162135D01*
X-513239Y-152903D01*
X-512023Y-153145D01*
X-510605Y-154563D01*
X-509020Y-155219D01*
Y-150290D01*
X-506480D01*
Y-155219D01*
X-504895Y-154563D01*
X-503689Y-153357D01*
X-502689Y-153593D01*
X-502419Y-153746D01*
Y-184150D01*
X-502264Y-184930D01*
X-501822Y-185592D01*
X-501160Y-186034D01*
X-500380Y-186189D01*
X-327660D01*
X-326390Y-186690D01*
Y-186690D01*
X-262890D01*
X-259080Y-190500D01*
X-259080Y-406400D01*
X-251460Y-414020D01*
X-137688D01*
X-137202Y-415193D01*
X-142944Y-420936D01*
X-143939Y-422424D01*
X-144288Y-424180D01*
Y-455280D01*
X-144363Y-455354D01*
X-145200Y-457376D01*
Y-459564D01*
X-144363Y-461586D01*
X-142816Y-463133D01*
X-140794Y-463970D01*
X-138606D01*
X-136585Y-463133D01*
X-135037Y-461586D01*
X-134200Y-459564D01*
Y-457376D01*
X-135037Y-455354D01*
X-135112Y-455280D01*
Y-426081D01*
X-123959Y-414928D01*
X-122689Y-415454D01*
Y-627380D01*
X-122534Y-628160D01*
X-122092Y-628822D01*
X-121430Y-629264D01*
X-120650Y-629419D01*
X58420D01*
X59200Y-629264D01*
X59862Y-628822D01*
X60304Y-628160D01*
X60459Y-627380D01*
Y-460509D01*
X66040D01*
X66040Y-460509D01*
X66820Y-460354D01*
X67482Y-459912D01*
X67482Y-459912D01*
X76331Y-451063D01*
X76506Y-451071D01*
X77601Y-451468D01*
Y-751261D01*
X-867301D01*
Y43641D01*
X-502419D01*
X-502419Y-146834D01*
D02*
G37*
G36*
X-327660Y-162560D02*
X-328930Y-163830D01*
X-327660D01*
X-327660Y-184150D01*
X-500380D01*
X-500380Y43641D01*
X-327660D01*
Y-162560D01*
D02*
G37*
G36*
X-527234Y-35597D02*
X-527077Y-35702D01*
X-525865Y-36915D01*
X-525766D01*
X-525554Y-37057D01*
X-506872Y-55738D01*
X-506767Y-55895D01*
X-506730Y-56081D01*
X-506730Y-143309D01*
X-506767Y-143495D01*
X-506872Y-143652D01*
X-509268Y-146048D01*
X-510299Y-146475D01*
X-511565Y-147741D01*
X-511992Y-148772D01*
X-524510Y-161290D01*
Y-181409D01*
X-524547Y-181595D01*
X-524652Y-181752D01*
X-528178Y-185278D01*
X-528335Y-185383D01*
X-528521Y-185420D01*
X-536183D01*
X-558883Y-185420D01*
X-560070Y-184233D01*
Y-104341D01*
X-560037Y-104173D01*
X-559869Y-104140D01*
X-554990D01*
Y-35560D01*
X-527420D01*
X-527234Y-35597D01*
D02*
G37*
G36*
X-140485Y-188834D02*
X-138174Y-189791D01*
X-135694Y-190118D01*
X-134620D01*
Y-240034D01*
X-135793Y-240520D01*
X-137417Y-238897D01*
X-138492Y-238179D01*
X-139760Y-237926D01*
X-142210D01*
Y-230490D01*
X-154210D01*
Y-244490D01*
X-153584D01*
Y-249930D01*
X-157270D01*
Y-261930D01*
X-143270D01*
Y-249930D01*
X-146956D01*
Y-244591D01*
X-145686Y-244509D01*
X-145460Y-244554D01*
X-141132D01*
X-134620Y-251066D01*
Y-263284D01*
X-142000Y-270664D01*
X-143270Y-270138D01*
Y-268930D01*
X-157270D01*
Y-277244D01*
X-158173Y-278147D01*
X-158891Y-279222D01*
X-159144Y-280490D01*
Y-286370D01*
X-161830D01*
Y-300370D01*
X-149830D01*
Y-286370D01*
X-152516D01*
Y-281863D01*
X-151677Y-281023D01*
X-151615Y-280930D01*
X-143270D01*
Y-278244D01*
X-141580D01*
X-140312Y-277991D01*
X-139237Y-277273D01*
X-135793Y-273830D01*
X-134620Y-274316D01*
Y-340360D01*
X-213360Y-340360D01*
Y-187960D01*
X-141624D01*
X-140485Y-188834D01*
D02*
G37*
G36*
X-196604Y-354078D02*
Y-357850D01*
X-196390Y-358923D01*
X-195783Y-359833D01*
X-195580Y-359968D01*
Y-363718D01*
X-194170Y-365127D01*
X-169918Y-365127D01*
X-168910Y-366135D01*
X-168910Y-372110D01*
X-169548Y-372747D01*
X-208280D01*
X-210820Y-370207D01*
Y-364791D01*
X-209550Y-364128D01*
X-208097Y-365099D01*
X-207010Y-365316D01*
Y-359410D01*
X-205740D01*
Y-358140D01*
X-199834D01*
X-200051Y-357053D01*
X-201385Y-355055D01*
X-202707Y-354172D01*
X-202322Y-352902D01*
X-197780D01*
X-196604Y-354078D01*
D02*
G37*
G36*
X-169615Y-385375D02*
X-194875Y-385375D01*
X-196285Y-386785D01*
Y-390219D01*
X-196390Y-390377D01*
X-196604Y-391450D01*
Y-395719D01*
X-198485Y-397600D01*
X-208830D01*
X-211525Y-394905D01*
Y-388040D01*
X-210255Y-387654D01*
X-210095Y-387895D01*
X-208097Y-389230D01*
X-207010Y-389446D01*
Y-383540D01*
X-205740D01*
Y-382270D01*
X-199834D01*
X-200051Y-381183D01*
X-201385Y-379185D01*
X-201625Y-379025D01*
X-201240Y-377755D01*
X-169615Y-377755D01*
X-169615Y-385375D01*
D02*
G37*
G36*
X74930Y-449580D02*
X66040Y-458470D01*
X58420D01*
Y-627380D01*
X-120650D01*
Y-414020D01*
X-45599D01*
X-45113Y-415193D01*
X-79813Y-449893D01*
X-80531Y-450968D01*
X-80784Y-452236D01*
Y-517550D01*
X-80768Y-517630D01*
X-81784Y-518894D01*
X-81810Y-518900D01*
X-82624D01*
X-84646Y-519737D01*
X-86193Y-521284D01*
X-87030Y-523306D01*
Y-525494D01*
X-86193Y-527515D01*
X-85788Y-527920D01*
Y-531717D01*
X-88200D01*
Y-543717D01*
X-74200D01*
Y-531717D01*
X-76612D01*
Y-526899D01*
X-76030Y-525494D01*
Y-525335D01*
X-74857Y-524849D01*
X-72340Y-527367D01*
X-72408Y-527710D01*
Y-537210D01*
X-72020Y-539161D01*
X-70915Y-540815D01*
X-70624Y-541009D01*
Y-569367D01*
X-76170Y-574914D01*
X-77440Y-574388D01*
Y-572120D01*
X-89440D01*
Y-586120D01*
X-77440D01*
Y-582434D01*
X-75690D01*
X-74422Y-582181D01*
X-73347Y-581463D01*
X-64967Y-573083D01*
X-64249Y-572008D01*
X-63996Y-570740D01*
Y-541808D01*
X-62784Y-541440D01*
X-62657Y-541526D01*
X-62453Y-541831D01*
X-61674Y-542611D01*
Y-556050D01*
X-61610Y-556370D01*
Y-564800D01*
X-47610D01*
Y-552800D01*
X-55046D01*
Y-542666D01*
X-54610Y-542308D01*
X-52659Y-541920D01*
X-51005Y-540815D01*
X-49900Y-539161D01*
X-49512Y-537210D01*
Y-535774D01*
X-47008D01*
Y-537210D01*
X-46620Y-539161D01*
X-45515Y-540815D01*
X-43861Y-541920D01*
X-41910Y-542308D01*
X-41567Y-542240D01*
X-40286Y-543520D01*
X-40812Y-544790D01*
X-41734D01*
X-43755Y-545627D01*
X-45303Y-547174D01*
X-46140Y-549196D01*
Y-551384D01*
X-45303Y-553405D01*
X-44845Y-553863D01*
Y-555373D01*
X-44496Y-557128D01*
X-43830Y-558126D01*
Y-564800D01*
X-29830D01*
Y-552800D01*
X-34352D01*
X-35201Y-551530D01*
X-35140Y-551384D01*
Y-550211D01*
X-34155Y-549536D01*
X-33870Y-549466D01*
X-32743Y-549690D01*
X-17925D01*
X-17799Y-549880D01*
X-18477Y-551150D01*
X-27320D01*
Y-563150D01*
X-18035D01*
X-15208Y-565977D01*
X-15694Y-567150D01*
X-27320D01*
Y-579150D01*
X-25977D01*
X-25234Y-580420D01*
X-25820Y-581836D01*
Y-584024D01*
X-24983Y-586045D01*
X-24703Y-586325D01*
Y-587750D01*
X-26910D01*
Y-598465D01*
X-28180Y-598991D01*
X-34786Y-592386D01*
X-34997Y-592245D01*
X-36506Y-590736D01*
X-37994Y-589741D01*
X-39130Y-589515D01*
Y-586480D01*
X-52386D01*
X-53130Y-586480D01*
X-53656Y-585428D01*
Y-580800D01*
X-47610D01*
Y-573754D01*
X-43830D01*
Y-580800D01*
X-36434D01*
Y-582900D01*
X-36835Y-583301D01*
X-37520Y-584955D01*
Y-586745D01*
X-36835Y-588399D01*
X-35569Y-589665D01*
X-33915Y-590350D01*
X-32125D01*
X-30471Y-589665D01*
X-29205Y-588399D01*
X-28520Y-586745D01*
Y-584955D01*
X-29205Y-583301D01*
X-29766Y-582740D01*
Y-577530D01*
X-29830Y-577208D01*
Y-568800D01*
X-37710D01*
X-38203Y-568062D01*
X-39284Y-567340D01*
X-40560Y-567086D01*
X-51880D01*
X-53156Y-567340D01*
X-54237Y-568062D01*
X-54730Y-568800D01*
X-61610D01*
Y-580800D01*
X-60324D01*
Y-595980D01*
X-72880D01*
Y-607980D01*
X-58880D01*
Y-605314D01*
X-58478D01*
X-57202Y-605060D01*
X-56120Y-604338D01*
X-54633Y-602850D01*
X-53910Y-601768D01*
X-53656Y-600492D01*
Y-599532D01*
X-53130Y-598480D01*
X-52386Y-598480D01*
X-44073D01*
X-43630Y-598568D01*
X-41651D01*
X-41344Y-598874D01*
X-41133Y-599015D01*
X-26910Y-613239D01*
Y-618750D01*
X-17853D01*
X-17410Y-618838D01*
X-14917D01*
X-14823Y-619066D01*
X-13276Y-620613D01*
X-11254Y-621450D01*
X-9066D01*
X-7045Y-620613D01*
X-5497Y-619066D01*
X-4660Y-617044D01*
Y-614856D01*
X-5497Y-612835D01*
X-7045Y-611287D01*
X-9066Y-610450D01*
X-9988D01*
X-10645Y-610011D01*
X-12401Y-609662D01*
X-12910D01*
Y-606750D01*
X-20421D01*
X-26151Y-601020D01*
X-25625Y-599750D01*
X-12910D01*
Y-587750D01*
X-15527D01*
Y-585730D01*
X-14820Y-584024D01*
Y-581836D01*
X-15407Y-580420D01*
X-14662Y-579150D01*
X-13320D01*
Y-569524D01*
X-12147Y-569038D01*
X-10874Y-570311D01*
Y-570420D01*
X-10810Y-570742D01*
Y-579150D01*
X3190D01*
Y-577851D01*
X4460Y-577325D01*
X7044Y-579909D01*
Y-596064D01*
X6840Y-597250D01*
X-7160D01*
Y-609250D01*
X6840D01*
Y-608955D01*
X8110Y-607935D01*
X8200Y-607955D01*
X8885Y-609609D01*
X10151Y-610875D01*
X11805Y-611560D01*
X13595D01*
X15249Y-610875D01*
X16515Y-609609D01*
X17200Y-607955D01*
Y-606165D01*
X16515Y-604511D01*
X15249Y-603245D01*
X13595Y-602560D01*
X13561Y-602519D01*
X13712Y-601762D01*
Y-578528D01*
X13458Y-577252D01*
X12736Y-576170D01*
X7358Y-570793D01*
X6276Y-570070D01*
X5000Y-569816D01*
X3190D01*
Y-567150D01*
X-4797D01*
X-5182Y-566572D01*
X-7432Y-564323D01*
X-6946Y-563150D01*
X3190D01*
Y-551150D01*
X-6124D01*
X-13240Y-544034D01*
X-14315Y-543315D01*
X-15583Y-543063D01*
X-31371D01*
X-36880Y-537553D01*
X-36812Y-537210D01*
Y-527710D01*
X-37200Y-525759D01*
X-38305Y-524105D01*
X-39959Y-523000D01*
X-41910Y-522612D01*
X-43861Y-523000D01*
X-45515Y-524105D01*
X-46620Y-525759D01*
X-47008Y-527710D01*
Y-529146D01*
X-49512D01*
Y-527710D01*
X-49900Y-525759D01*
X-51005Y-524105D01*
X-52659Y-523000D01*
X-54610Y-522612D01*
X-55526Y-522794D01*
X-56796Y-521752D01*
Y-502783D01*
X-42253Y-488240D01*
X-41910Y-488308D01*
X-39959Y-487920D01*
X-38305Y-486815D01*
X-37200Y-485161D01*
X-36812Y-483210D01*
Y-481774D01*
X-34308D01*
Y-483210D01*
X-33920Y-485161D01*
X-32815Y-486815D01*
X-31161Y-487920D01*
X-29210Y-488308D01*
X-27259Y-487920D01*
X-25605Y-486815D01*
X-24500Y-485161D01*
X-24112Y-483210D01*
Y-473710D01*
X-24500Y-471759D01*
X-25605Y-470105D01*
X-27259Y-469000D01*
X-29210Y-468612D01*
X-31161Y-469000D01*
X-32815Y-470105D01*
X-33920Y-471759D01*
X-34308Y-473710D01*
Y-475146D01*
X-36812D01*
Y-473710D01*
X-37200Y-471759D01*
X-38305Y-470105D01*
X-39959Y-469000D01*
X-41910Y-468612D01*
X-43861Y-469000D01*
X-45515Y-470105D01*
X-46620Y-471759D01*
X-47008Y-473710D01*
Y-483210D01*
X-46940Y-483553D01*
X-48620Y-485233D01*
X-49790Y-484608D01*
X-49512Y-483210D01*
Y-473710D01*
X-49900Y-471759D01*
X-50022Y-471577D01*
Y-466740D01*
X-45560D01*
Y-457426D01*
X-42733Y-454599D01*
X-41560Y-455086D01*
Y-466740D01*
X-29560D01*
Y-465598D01*
X-22220D01*
X-5858Y-481960D01*
Y-491348D01*
X-6970Y-491730D01*
X-7128Y-491730D01*
X-16027D01*
X-16470Y-491642D01*
X-16913Y-491730D01*
X-20970D01*
Y-492365D01*
X-25637D01*
X-26095Y-491907D01*
X-28116Y-491070D01*
X-30304D01*
X-32325Y-491907D01*
X-33873Y-493455D01*
X-34710Y-495476D01*
Y-497664D01*
X-33873Y-499686D01*
X-32325Y-501233D01*
X-30304Y-502070D01*
X-28116D01*
X-26839Y-501541D01*
X-20970D01*
Y-503730D01*
X-7128D01*
X-6970Y-503730D01*
X-5858Y-504112D01*
Y-507840D01*
X-5509Y-509596D01*
X-4514Y-511084D01*
X6004Y-521602D01*
X5756Y-523480D01*
X6050Y-525709D01*
X6910Y-527787D01*
X8279Y-529571D01*
X10063Y-530940D01*
X12141Y-531800D01*
X14370Y-532094D01*
X27450D01*
X29679Y-531800D01*
X31757Y-530940D01*
X33541Y-529571D01*
X34910Y-527787D01*
X35770Y-525709D01*
X36064Y-523480D01*
X35770Y-521251D01*
X34910Y-519173D01*
X33541Y-517389D01*
X31757Y-516020D01*
X29679Y-515160D01*
X27450Y-514866D01*
X14370D01*
X12492Y-515113D01*
X9339Y-511960D01*
X10063Y-510940D01*
X12141Y-511800D01*
X14370Y-512094D01*
X27450D01*
X29679Y-511800D01*
X31757Y-510940D01*
X33541Y-509571D01*
X34910Y-507787D01*
X35770Y-505709D01*
X36064Y-503480D01*
X35770Y-501251D01*
X34910Y-499173D01*
X33541Y-497389D01*
X31757Y-496020D01*
X29679Y-495160D01*
X27450Y-494866D01*
X14370D01*
X12141Y-495160D01*
X10063Y-496020D01*
X8279Y-497389D01*
X6910Y-499173D01*
X6050Y-501251D01*
X5756Y-503480D01*
X6050Y-505709D01*
X6910Y-507787D01*
X5890Y-508511D01*
X3318Y-505939D01*
Y-480060D01*
X2969Y-478304D01*
X1974Y-476816D01*
X-17076Y-457766D01*
X-18564Y-456771D01*
X-20320Y-456422D01*
X-29560D01*
Y-452740D01*
X-29560D01*
X-29488Y-451500D01*
X-29180D01*
Y-440194D01*
X-14460D01*
Y-442880D01*
X-460D01*
Y-430880D01*
X-14460D01*
Y-433566D01*
X-40096D01*
X-41364Y-433819D01*
X-42439Y-434537D01*
X-45402Y-437500D01*
X-56251D01*
X-56777Y-436230D01*
X-39151Y-418604D01*
X46887D01*
X55806Y-427523D01*
Y-431540D01*
X52120D01*
Y-443540D01*
X66120D01*
Y-431540D01*
X62434D01*
Y-426150D01*
X62181Y-424882D01*
X61463Y-423807D01*
X52850Y-415193D01*
X53336Y-414020D01*
X74930D01*
Y-449580D01*
D02*
G37*
G36*
X-46494Y-439964D02*
Y-448987D01*
X-50246Y-452740D01*
X-56541D01*
X-56780Y-452581D01*
X-58050Y-452055D01*
X-58830Y-451899D01*
X-59610Y-452055D01*
X-60272Y-452497D01*
X-63777Y-456002D01*
X-63889Y-455890D01*
X-66040Y-454998D01*
Y-461010D01*
X-68580D01*
Y-454318D01*
X-68743Y-453962D01*
X-68781Y-453797D01*
X-59094Y-444110D01*
X-58110Y-443452D01*
X-56782Y-443188D01*
X-56597Y-443111D01*
X-56400Y-443072D01*
X-56233Y-442960D01*
X-56047Y-442883D01*
X-55905Y-442741D01*
X-55738Y-442630D01*
X-55627Y-442463D01*
X-55484Y-442321D01*
X-55408Y-442135D01*
X-55296Y-441968D01*
X-55257Y-441771D01*
X-55180Y-441586D01*
Y-441385D01*
X-55141Y-441188D01*
Y-439539D01*
X-46843D01*
X-46494Y-439964D01*
D02*
G37*
G36*
X-57180Y-438429D02*
Y-441188D01*
X-58906Y-441531D01*
X-60394Y-442526D01*
X-70554Y-452686D01*
X-71549Y-454174D01*
X-71898Y-455930D01*
Y-457820D01*
X-71973Y-457895D01*
X-72810Y-459916D01*
Y-462104D01*
X-71973Y-464126D01*
X-71898Y-464200D01*
Y-471577D01*
X-72020Y-471759D01*
X-72408Y-473710D01*
Y-483210D01*
X-72020Y-485161D01*
X-70915Y-486815D01*
X-69261Y-487920D01*
X-67310Y-488308D01*
X-65359Y-487920D01*
X-63705Y-486815D01*
X-62600Y-485161D01*
X-62212Y-483210D01*
Y-473710D01*
X-62600Y-471759D01*
X-62722Y-471577D01*
Y-464200D01*
X-62647Y-464126D01*
X-61810Y-462104D01*
Y-459916D01*
X-62647Y-457895D01*
X-62717Y-457825D01*
X-58830Y-453939D01*
X-57560Y-454465D01*
Y-460251D01*
X-57854Y-460546D01*
X-58849Y-462034D01*
X-59198Y-463790D01*
Y-471577D01*
X-59320Y-471759D01*
X-59708Y-473710D01*
Y-483210D01*
X-59320Y-485161D01*
X-58215Y-486815D01*
X-56561Y-487920D01*
X-54610Y-488308D01*
X-53212Y-488030D01*
X-52587Y-489200D01*
X-62453Y-499067D01*
X-63171Y-500142D01*
X-63424Y-501410D01*
Y-522766D01*
X-64694Y-523445D01*
X-65359Y-523000D01*
X-67310Y-522612D01*
X-67653Y-522680D01*
X-74156Y-516177D01*
Y-453609D01*
X-58450Y-437903D01*
X-57180Y-438429D01*
D02*
G37*
%LPC*%
G36*
X-531480Y4639D02*
Y980D01*
X-527821D01*
X-528477Y2565D01*
X-529895Y3983D01*
X-531480Y4639D01*
D02*
G37*
G36*
X-534020D02*
X-535605Y3983D01*
X-537023Y2565D01*
X-537679Y980D01*
X-534020D01*
Y4639D01*
D02*
G37*
G36*
X-527821Y-1560D02*
X-531480D01*
Y-5219D01*
X-529895Y-4563D01*
X-528477Y-3145D01*
X-527821Y-1560D01*
D02*
G37*
G36*
X-534020D02*
X-537679D01*
X-537023Y-3145D01*
X-535605Y-4563D01*
X-534020Y-5219D01*
Y-1560D01*
D02*
G37*
G36*
X-849078Y37000D02*
X-850922D01*
X-852702Y36523D01*
X-854298Y35601D01*
X-855601Y34298D01*
X-856523Y32702D01*
X-857000Y30922D01*
Y29078D01*
X-856523Y27298D01*
X-855601Y25702D01*
X-854298Y24399D01*
X-852702Y23477D01*
X-850922Y23000D01*
X-849078D01*
X-847298Y23477D01*
X-846932Y23688D01*
X-846152Y22672D01*
X-846395Y22429D01*
X-848584Y19153D01*
X-850091Y15514D01*
X-850860Y11650D01*
Y7710D01*
X-850091Y3846D01*
X-848584Y206D01*
X-846395Y-3069D01*
X-843609Y-5855D01*
X-840333Y-8044D01*
X-836694Y-9551D01*
X-832830Y-10320D01*
X-828890D01*
X-825026Y-9551D01*
X-821386Y-8044D01*
X-818111Y-5855D01*
X-815325Y-3069D01*
X-813136Y206D01*
X-811629Y3846D01*
X-810860Y7710D01*
Y11650D01*
X-811629Y15514D01*
X-813136Y19153D01*
X-815325Y22429D01*
X-818111Y25215D01*
X-821386Y27404D01*
X-825026Y28911D01*
X-828890Y29680D01*
X-832830D01*
X-836694Y28911D01*
X-840333Y27404D01*
X-842964Y25646D01*
X-843916Y26537D01*
X-843477Y27298D01*
X-843000Y29078D01*
Y30922D01*
X-843477Y32702D01*
X-844399Y34298D01*
X-845702Y35601D01*
X-847298Y36523D01*
X-849078Y37000D01*
D02*
G37*
G36*
X-789940Y33789D02*
X-790720Y33634D01*
X-791382Y33192D01*
X-791382Y33192D01*
X-800272Y24302D01*
X-800714Y23640D01*
X-800869Y22860D01*
Y845D01*
X-822535Y-20821D01*
X-844550D01*
X-844550Y-20821D01*
X-845330Y-20976D01*
X-845992Y-21418D01*
X-845992Y-21418D01*
X-851072Y-26498D01*
X-851514Y-27160D01*
X-851669Y-27940D01*
Y-143510D01*
X-851669Y-143510D01*
X-851514Y-144290D01*
X-851072Y-144952D01*
X-851072Y-144952D01*
X-804679Y-191345D01*
X-804679Y-244732D01*
X-805949Y-245581D01*
X-806480Y-245361D01*
Y-250290D01*
Y-255219D01*
X-804895Y-254563D01*
X-803477Y-253145D01*
X-802710Y-251292D01*
Y-250930D01*
X-801440Y-249688D01*
X-758959Y-249689D01*
Y-279400D01*
Y-295910D01*
Y-306070D01*
X-760088Y-306906D01*
X-822306D01*
X-823582Y-307160D01*
X-824664Y-307882D01*
X-829128Y-312346D01*
X-829850Y-313428D01*
X-830104Y-314704D01*
Y-317066D01*
X-831410D01*
X-832686Y-317320D01*
X-833767Y-318042D01*
X-836645Y-320920D01*
X-841930D01*
Y-337920D01*
X-831930D01*
Y-325635D01*
X-830500Y-324205D01*
X-829230Y-324731D01*
Y-337920D01*
X-819230D01*
Y-324731D01*
X-817960Y-324205D01*
X-816530Y-325635D01*
Y-337920D01*
X-806530D01*
Y-320920D01*
X-811815D01*
X-812908Y-319827D01*
X-812421Y-318654D01*
X-744805D01*
X-743809Y-319650D01*
X-744335Y-320920D01*
X-753030D01*
Y-337920D01*
X-743030D01*
Y-322225D01*
X-741760Y-321699D01*
X-725822Y-337637D01*
X-724740Y-338360D01*
X-723464Y-338614D01*
X-717570D01*
Y-341740D01*
X-707370D01*
Y-338614D01*
X-687661D01*
X-687353Y-338767D01*
X-686819Y-339295D01*
X-686569Y-339634D01*
Y-341241D01*
X-686521Y-341482D01*
X-686510Y-341727D01*
X-686444Y-341869D01*
X-686414Y-342021D01*
X-686277Y-342226D01*
X-686173Y-342448D01*
X-686059Y-342553D01*
X-685972Y-342683D01*
X-685768Y-342820D01*
X-685680Y-342900D01*
X-685652D01*
X-685134Y-343374D01*
X-685003Y-343453D01*
X-684974Y-343479D01*
X-684933Y-343505D01*
X-684814Y-343614D01*
X-684683Y-343693D01*
X-684560Y-343737D01*
X-684378Y-343859D01*
X-684333Y-343868D01*
X-684294Y-343892D01*
X-684076Y-343925D01*
X-683956Y-343975D01*
X-683879Y-343990D01*
X-683806Y-344005D01*
X-683645D01*
X-683597Y-344014D01*
X-683558D01*
X-683408Y-344044D01*
X-667678D01*
Y-351790D01*
Y-352012D01*
X-674429D01*
X-674751Y-351948D01*
X-682503D01*
X-682773Y-351678D01*
X-684289Y-350163D01*
X-685370Y-349440D01*
X-686646Y-349186D01*
X-694170D01*
X-695446Y-349440D01*
X-696527Y-350163D01*
X-699405Y-353040D01*
X-703690D01*
Y-354806D01*
X-707370D01*
Y-353640D01*
X-717570D01*
Y-362640D01*
X-707370D01*
Y-361474D01*
X-703690D01*
Y-363240D01*
X-695960D01*
X-694690Y-363240D01*
Y-363240D01*
X-694690D01*
Y-363240D01*
X-689572D01*
X-689193Y-363494D01*
X-687917Y-363747D01*
X-687684D01*
X-687503Y-363819D01*
D01*
D01*
X-686877Y-364316D01*
D01*
D01*
X-686569Y-364653D01*
Y-380799D01*
X-686530Y-380996D01*
Y-381197D01*
X-686493Y-381383D01*
X-686493Y-381384D01*
Y-381385D01*
X-686493Y-381385D01*
X-686416Y-381570D01*
X-686414Y-381580D01*
X-686408Y-381588D01*
X-686402Y-381603D01*
X-686367Y-381780D01*
X-686266Y-381932D01*
X-686189Y-382117D01*
X-686189Y-382118D01*
X-686188Y-382119D01*
X-686187Y-382120D01*
X-686177Y-382135D01*
X-686150Y-382162D01*
Y-389210D01*
X-669650D01*
Y-383039D01*
X-666249D01*
X-666249Y-383039D01*
X-666249Y-383039D01*
X-652682D01*
X-651837Y-384309D01*
X-652200Y-385185D01*
Y-386975D01*
X-651515Y-388629D01*
X-650249Y-389895D01*
X-648595Y-390580D01*
X-646805D01*
X-645151Y-389895D01*
X-644650Y-389394D01*
X-587602D01*
X-586334Y-389141D01*
X-585259Y-388423D01*
X-575359Y-378524D01*
X-563379D01*
Y-414007D01*
X-563224Y-414788D01*
X-562782Y-415449D01*
X-562782Y-416517D01*
X-562941Y-416754D01*
X-563224Y-417178D01*
X-563379Y-417959D01*
X-563379Y-488100D01*
Y-490224D01*
X-563224Y-491005D01*
X-562782Y-491666D01*
X-562655Y-493199D01*
X-714733Y-645276D01*
X-725790D01*
Y-642590D01*
X-739790D01*
Y-654590D01*
X-725790D01*
Y-651904D01*
X-713360D01*
X-712599Y-651752D01*
X-712023Y-653145D01*
X-710605Y-654563D01*
X-709020Y-655219D01*
Y-650290D01*
X-707750D01*
Y-649020D01*
X-702821D01*
X-703477Y-647435D01*
X-704600Y-646312D01*
X-704850Y-644766D01*
X-652207Y-592124D01*
X-651034Y-592610D01*
Y-694579D01*
X-653497Y-697042D01*
X-654670Y-696556D01*
Y-696360D01*
X-668670D01*
Y-708360D01*
X-664624D01*
Y-717935D01*
X-671790D01*
Y-738935D01*
X-650790D01*
Y-717935D01*
X-657956D01*
Y-708360D01*
X-654670D01*
Y-705694D01*
X-654100D01*
X-652824Y-705440D01*
X-651742Y-704717D01*
X-645342Y-698317D01*
X-644620Y-697236D01*
X-644366Y-695960D01*
Y-590828D01*
X-640397Y-586860D01*
X-639224Y-587346D01*
Y-681415D01*
X-642890D01*
Y-693415D01*
X-628890D01*
Y-681415D01*
X-632556D01*
Y-586471D01*
X-568270Y-522185D01*
X-568071Y-522219D01*
X-567637Y-523581D01*
X-587623Y-543567D01*
X-588341Y-544642D01*
X-588594Y-545910D01*
Y-681036D01*
X-592090D01*
Y-693035D01*
X-578090D01*
Y-681036D01*
X-581966D01*
Y-547282D01*
X-559884Y-525200D01*
X-559175D01*
X-557521Y-524515D01*
X-556255Y-523249D01*
X-555570Y-521595D01*
Y-519805D01*
X-556255Y-518151D01*
X-557521Y-516885D01*
X-559175Y-516200D01*
X-560965D01*
X-561920Y-516595D01*
X-563156Y-516011D01*
X-563241Y-515873D01*
X-563875Y-514341D01*
X-564979Y-513237D01*
X-565242Y-512569D01*
X-565372Y-511914D01*
X-564505Y-511052D01*
X-563314Y-511302D01*
X-563159Y-511417D01*
X-562782Y-511982D01*
X-562120Y-512424D01*
X-561340Y-512579D01*
X-507364D01*
Y-622440D01*
X-507112Y-623708D01*
X-506393Y-624783D01*
X-467163Y-664013D01*
X-466088Y-664731D01*
X-464820Y-664984D01*
X-460450D01*
Y-675670D01*
X-458039D01*
Y-677610D01*
X-502734Y-722306D01*
X-503729Y-723794D01*
X-504078Y-725550D01*
Y-728330D01*
X-505490D01*
Y-742330D01*
X-493490D01*
Y-728330D01*
X-493985D01*
X-494511Y-727060D01*
X-491083Y-723632D01*
X-489786Y-724131D01*
X-488991Y-726051D01*
X-487291Y-727750D01*
X-485140Y-728642D01*
Y-722630D01*
X-483870D01*
Y-721360D01*
X-477858D01*
X-478750Y-719209D01*
X-480449Y-717510D01*
X-482369Y-716714D01*
X-482868Y-715417D01*
X-450206Y-682755D01*
X-449212Y-681266D01*
X-448862Y-679510D01*
Y-675670D01*
X-446451D01*
Y-664984D01*
X-444500D01*
X-443232Y-664731D01*
X-442988Y-664568D01*
X-441718Y-665247D01*
Y-675670D01*
X-439306D01*
Y-681738D01*
X-468127Y-710558D01*
X-469121Y-712047D01*
X-469471Y-713802D01*
Y-728330D01*
X-470882D01*
Y-742330D01*
X-458882D01*
Y-728330D01*
X-460294D01*
Y-715703D01*
X-431474Y-686882D01*
X-430479Y-685394D01*
X-430130Y-683638D01*
Y-675670D01*
X-427718D01*
Y-663670D01*
X-440018D01*
X-440544Y-662400D01*
X-437878Y-659734D01*
X-437468D01*
X-437148Y-659670D01*
X-427718D01*
Y-647670D01*
X-441718D01*
Y-654202D01*
X-445181Y-657664D01*
X-446451Y-657138D01*
Y-647670D01*
X-454764D01*
X-454823Y-647582D01*
X-495716Y-606690D01*
Y-512579D01*
X-368300D01*
X-367520Y-512424D01*
X-366858Y-511982D01*
X-366416Y-511320D01*
X-366261Y-510540D01*
Y-470550D01*
X-359540D01*
Y-456550D01*
X-360856D01*
Y-455180D01*
X-354650D01*
Y-433180D01*
X-365935D01*
X-366985Y-432130D01*
X-366858Y-430597D01*
X-366416Y-429936D01*
X-366261Y-429156D01*
Y-428523D01*
X-365205Y-427818D01*
X-364380Y-428160D01*
Y-422148D01*
Y-416136D01*
X-365205Y-416478D01*
X-366261Y-415773D01*
Y-415180D01*
X-366416Y-414400D01*
X-366858Y-413738D01*
X-367520Y-413296D01*
X-368300Y-413141D01*
X-368611D01*
Y-395219D01*
X-368300D01*
X-367520Y-395064D01*
X-366858Y-394622D01*
X-366416Y-393960D01*
X-366261Y-393180D01*
Y-391810D01*
X-366416Y-391030D01*
X-366858Y-390368D01*
X-367520Y-389926D01*
X-368300Y-389771D01*
X-370881D01*
Y-379044D01*
X-370910Y-378899D01*
X-370902Y-378752D01*
X-371080Y-377520D01*
X-371165Y-377281D01*
X-371193Y-377138D01*
X-370741Y-376836D01*
X-365775Y-371870D01*
X-352410D01*
Y-359870D01*
X-366261D01*
X-366261Y-338577D01*
X-365205Y-337871D01*
X-364314Y-338240D01*
X-362126D01*
X-360104Y-337403D01*
X-358557Y-335855D01*
X-357720Y-333834D01*
Y-331646D01*
X-358557Y-329624D01*
X-360104Y-328077D01*
X-362126Y-327240D01*
X-364005D01*
X-366985Y-324260D01*
X-366858Y-322728D01*
X-366416Y-322066D01*
X-366261Y-321286D01*
Y-311090D01*
Y-293370D01*
X-366261Y-293370D01*
X-366416Y-292590D01*
X-366858Y-291928D01*
X-366858Y-291928D01*
X-372339Y-286447D01*
X-371853Y-285274D01*
X-335310D01*
Y-288940D01*
X-323310D01*
Y-274940D01*
X-335310D01*
Y-278606D01*
X-381205D01*
X-382198Y-277433D01*
X-382353Y-276652D01*
X-382795Y-275991D01*
X-382795Y-275991D01*
X-389310Y-269476D01*
X-371294Y-251459D01*
X-371022Y-251278D01*
X-370220Y-250475D01*
X-368950Y-251001D01*
Y-260380D01*
X-354950D01*
Y-258968D01*
X-352440D01*
Y-260380D01*
X-344383D01*
X-343940Y-260468D01*
X-342232D01*
X-341767Y-260779D01*
X-340011Y-261128D01*
X-314695D01*
Y-262573D01*
X-314346Y-264329D01*
X-313352Y-265818D01*
X-306685Y-272484D01*
X-305196Y-273479D01*
X-303441Y-273828D01*
X-297683D01*
X-297501Y-273950D01*
X-295550Y-274338D01*
X-278550D01*
X-276599Y-273950D01*
X-274945Y-272845D01*
X-273840Y-271191D01*
X-273452Y-269240D01*
X-273840Y-267289D01*
X-274945Y-265635D01*
X-276599Y-264530D01*
X-278550Y-264142D01*
X-295550D01*
X-297501Y-264530D01*
X-297683Y-264652D01*
X-301540D01*
X-303890Y-262302D01*
X-303405Y-261128D01*
X-297683D01*
X-297501Y-261250D01*
X-295550Y-261638D01*
X-278550D01*
X-276599Y-261250D01*
X-274945Y-260145D01*
X-273840Y-258491D01*
X-273452Y-256540D01*
X-273840Y-254589D01*
X-274945Y-252935D01*
X-276599Y-251830D01*
X-278550Y-251442D01*
X-295550D01*
X-297501Y-251830D01*
X-297683Y-251952D01*
X-305658D01*
X-306040Y-250840D01*
X-306040Y-250682D01*
Y-248619D01*
X-297151D01*
X-295550Y-248938D01*
X-278550D01*
X-276599Y-248550D01*
X-274945Y-247445D01*
X-273840Y-245791D01*
X-273452Y-243840D01*
X-273840Y-241889D01*
X-274945Y-240235D01*
X-276599Y-239130D01*
X-278550Y-238742D01*
X-295550D01*
X-297501Y-239130D01*
X-297969Y-239443D01*
X-306040D01*
Y-236840D01*
X-318040D01*
Y-250682D01*
X-318040Y-250840D01*
X-318422Y-251952D01*
X-321658D01*
X-322040Y-250840D01*
X-322040D01*
Y-236840D01*
X-334040D01*
Y-243046D01*
X-354950D01*
Y-232380D01*
X-368950D01*
Y-234546D01*
X-382660D01*
X-383936Y-234800D01*
X-385018Y-235523D01*
X-403644Y-254149D01*
X-404748Y-254080D01*
X-405119Y-253828D01*
X-405345Y-253677D01*
X-405550Y-253499D01*
X-405673Y-253458D01*
X-405781Y-253386D01*
X-406047Y-253333D01*
X-406305Y-253247D01*
X-406434Y-253256D01*
X-406561Y-253231D01*
X-431800D01*
X-701040Y-253231D01*
X-701820Y-253386D01*
X-702482Y-253828D01*
X-702924Y-254490D01*
X-703079Y-255270D01*
X-703079Y-278750D01*
X-708200D01*
Y-292750D01*
X-703079D01*
Y-297180D01*
X-702924Y-297960D01*
X-702482Y-298622D01*
X-701820Y-299064D01*
X-701040Y-299219D01*
X-587836D01*
X-587790Y-299287D01*
Y-301292D01*
X-587023Y-303145D01*
X-585605Y-304563D01*
X-584020Y-305219D01*
Y-300290D01*
X-581480D01*
Y-305219D01*
X-579895Y-304563D01*
X-578791Y-303459D01*
X-577237Y-303217D01*
X-563379Y-317075D01*
Y-342726D01*
X-564552Y-343212D01*
X-580360Y-327405D01*
Y-318120D01*
X-592360D01*
Y-332090D01*
X-592360Y-332120D01*
X-592360D01*
Y-333360D01*
X-592360D01*
Y-347330D01*
X-592360Y-347360D01*
X-592360D01*
Y-348600D01*
X-592360D01*
Y-362570D01*
X-592360Y-362600D01*
X-592360D01*
Y-363840D01*
X-592360D01*
Y-377840D01*
X-585707D01*
X-585221Y-379013D01*
X-588974Y-382766D01*
X-618277D01*
X-618585Y-382417D01*
X-619090Y-381496D01*
X-618991Y-381000D01*
Y-364014D01*
X-617817Y-363528D01*
X-608360Y-372985D01*
Y-377840D01*
X-596360D01*
Y-363870D01*
X-596360Y-363840D01*
X-596360D01*
Y-362600D01*
X-596360D01*
Y-348600D01*
X-596360D01*
Y-347360D01*
X-596360D01*
Y-333360D01*
X-596360D01*
Y-332120D01*
X-596360D01*
X-596360Y-332090D01*
Y-318120D01*
X-608360D01*
Y-327405D01*
X-617417Y-336462D01*
X-618866Y-336295D01*
X-618991Y-336158D01*
Y-303530D01*
X-619146Y-302750D01*
X-619588Y-302088D01*
X-620250Y-301646D01*
X-621030Y-301491D01*
X-684530D01*
X-685310Y-301646D01*
X-685972Y-302088D01*
X-686414Y-302750D01*
X-686423Y-302793D01*
X-687717D01*
X-687726Y-302750D01*
X-688168Y-302088D01*
X-688830Y-301646D01*
X-689610Y-301491D01*
X-701465D01*
X-708488Y-294468D01*
X-714200Y-288756D01*
Y-278750D01*
X-724206D01*
X-724401Y-278555D01*
X-724401Y-262890D01*
Y-177299D01*
X-683260D01*
X-682480Y-177144D01*
X-681818Y-176702D01*
X-681376Y-176040D01*
X-681221Y-175260D01*
Y-104140D01*
X-681376Y-103360D01*
X-681818Y-102698D01*
X-682480Y-102256D01*
X-683260Y-102101D01*
X-781551D01*
Y-36329D01*
X-750619D01*
X-750069Y-36999D01*
Y-88900D01*
X-749914Y-89680D01*
X-749472Y-90342D01*
X-748810Y-90784D01*
X-748030Y-90939D01*
X-645452D01*
X-644671Y-90784D01*
X-644010Y-90342D01*
X-643568Y-89680D01*
X-643412Y-88900D01*
Y-76420D01*
X-643568Y-75639D01*
X-644010Y-74978D01*
X-644671Y-74536D01*
X-645452Y-74380D01*
X-653249D01*
Y-58959D01*
X-645452D01*
X-644671Y-58804D01*
X-644010Y-58362D01*
X-643568Y-57700D01*
X-643412Y-56920D01*
Y-47843D01*
X-613335D01*
X-612629Y-48899D01*
X-612679Y-49020D01*
X-607750D01*
Y-50290D01*
X-606480D01*
Y-55219D01*
X-604895Y-54563D01*
X-603477Y-53145D01*
X-602710Y-51293D01*
Y-49288D01*
X-602896Y-48839D01*
X-601894Y-48424D01*
X-601393Y-47923D01*
X-597168D01*
Y-50339D01*
X-583168D01*
Y-38339D01*
X-597168D01*
Y-41296D01*
X-601393D01*
X-601894Y-40795D01*
X-603548Y-40109D01*
X-605338D01*
X-606992Y-40795D01*
X-607414Y-41216D01*
X-643412D01*
Y-27580D01*
X-641808D01*
Y-20580D01*
X-661808D01*
Y-27580D01*
X-660921D01*
Y-34960D01*
X-665431D01*
X-665981Y-34290D01*
Y-27476D01*
X-666026Y-27250D01*
X-666033Y-27018D01*
X-666103Y-26863D01*
X-666136Y-26696D01*
X-666264Y-26504D01*
X-666359Y-26293D01*
X-666483Y-26176D01*
X-666578Y-26034D01*
X-666770Y-25906D01*
X-666939Y-25747D01*
X-667947Y-25117D01*
X-668107Y-25056D01*
X-668248Y-24961D01*
X-668475Y-24916D01*
X-668691Y-24834D01*
X-668862Y-24839D01*
X-669029Y-24806D01*
X-681059D01*
X-681145Y-24375D01*
X-681587Y-23714D01*
X-682248Y-23271D01*
X-683029Y-23116D01*
X-711293D01*
X-711464Y-22860D01*
X-723636D01*
X-723714Y-22977D01*
X-724909D01*
X-725689Y-23132D01*
X-726351Y-23574D01*
X-726793Y-24236D01*
X-726795Y-24249D01*
X-736887D01*
X-737025Y-23557D01*
X-737467Y-22895D01*
X-738128Y-22453D01*
X-738909Y-22298D01*
X-753348D01*
X-754129Y-22453D01*
X-754790Y-22895D01*
X-754974Y-23170D01*
X-765309D01*
Y-15249D01*
X-755370D01*
X-755232Y-15941D01*
X-754790Y-16603D01*
X-754129Y-17045D01*
X-753348Y-17200D01*
X-738909D01*
X-738128Y-17045D01*
X-737467Y-16603D01*
X-737283Y-16328D01*
X-726851D01*
X-726793Y-16620D01*
X-726351Y-17282D01*
X-725689Y-17724D01*
X-724909Y-17879D01*
X-723925D01*
X-723077Y-19149D01*
X-723562Y-20320D01*
X-711538D01*
X-711966Y-19288D01*
X-711117Y-18018D01*
X-683029D01*
X-682248Y-17863D01*
X-681587Y-17421D01*
X-681228Y-16885D01*
X-669511D01*
X-669150Y-16813D01*
X-668787Y-16752D01*
X-668761Y-16735D01*
X-668731Y-16729D01*
X-668425Y-16525D01*
X-668113Y-16330D01*
X-668095Y-16305D01*
X-668069Y-16287D01*
X-667046Y-16013D01*
X-666528Y-16033D01*
X-666138Y-16423D01*
X-665063Y-17141D01*
X-663794Y-17393D01*
X-661808D01*
Y-17580D01*
X-641808D01*
Y-12580D01*
Y-580D01*
X-648495D01*
Y8805D01*
X-648747Y10073D01*
X-649465Y11148D01*
X-651517Y13199D01*
X-651477Y13296D01*
Y15086D01*
X-652162Y16740D01*
X-653428Y18005D01*
X-655082Y18691D01*
X-656872D01*
X-658526Y18005D01*
X-659027Y17504D01*
X-667682D01*
X-668264Y18618D01*
X-667998Y19557D01*
X-667852Y19890D01*
X-667598Y19941D01*
X-667527Y19988D01*
X-667445Y20012D01*
X-667198Y20208D01*
X-666937Y20383D01*
X-666889Y20454D01*
X-666822Y20507D01*
X-666670Y20782D01*
X-666495Y21044D01*
X-666478Y21128D01*
X-666436Y21203D01*
X-666078Y22325D01*
X-666042Y22637D01*
X-665981Y22946D01*
Y29210D01*
X-666136Y29990D01*
X-666578Y30652D01*
X-666578Y30652D01*
X-669118Y33192D01*
X-669780Y33634D01*
X-670560Y33789D01*
X-789940D01*
X-789940Y33789D01*
D02*
G37*
G36*
X-636714Y-15766D02*
X-636758D01*
X-637880Y-16231D01*
X-639157Y-17508D01*
X-639697Y-18810D01*
X-635308D01*
Y-20080D01*
X-634039D01*
Y-23140D01*
X-632965Y-22423D01*
X-632247Y-21348D01*
X-631995Y-20080D01*
X-632247Y-18812D01*
X-632965Y-17737D01*
X-634040Y-17018D01*
X-634102Y-17006D01*
X-634371Y-16737D01*
X-635446Y-16018D01*
X-635657Y-15976D01*
X-636714Y-15766D01*
D02*
G37*
G36*
X-636578Y-21350D02*
X-639696D01*
X-639264Y-22393D01*
X-638087D01*
X-638057Y-22423D01*
X-636982Y-23141D01*
X-636578Y-23221D01*
Y-21350D01*
D02*
G37*
G36*
X-756480Y-45361D02*
Y-49020D01*
X-752821D01*
X-753477Y-47435D01*
X-754895Y-46017D01*
X-756480Y-45361D01*
D02*
G37*
G36*
X-759020D02*
X-760605Y-46017D01*
X-762023Y-47435D01*
X-762679Y-49020D01*
X-759020D01*
Y-45361D01*
D02*
G37*
G36*
X-609020Y-51560D02*
X-612679D01*
X-612023Y-53145D01*
X-610605Y-54563D01*
X-609020Y-55219D01*
Y-51560D01*
D02*
G37*
G36*
X-752821D02*
X-756480D01*
Y-55219D01*
X-754895Y-54563D01*
X-753477Y-53145D01*
X-752821Y-51560D01*
D02*
G37*
G36*
X-759020D02*
X-762679D01*
X-762023Y-53145D01*
X-760605Y-54563D01*
X-759020Y-55219D01*
Y-51560D01*
D02*
G37*
G36*
X-408140Y-190320D02*
X-412080D01*
X-415944Y-191089D01*
X-419584Y-192596D01*
X-422859Y-194785D01*
X-425645Y-197571D01*
X-426537Y-198905D01*
X-427943Y-198724D01*
X-428477Y-197435D01*
X-429895Y-196017D01*
X-431480Y-195361D01*
Y-200290D01*
Y-205219D01*
X-430719Y-204904D01*
X-429606Y-205818D01*
X-430110Y-208350D01*
Y-212290D01*
X-429341Y-216154D01*
X-427834Y-219793D01*
X-425645Y-223069D01*
X-422859Y-225855D01*
X-419584Y-228044D01*
X-415944Y-229551D01*
X-412080Y-230320D01*
X-408140D01*
X-404276Y-229551D01*
X-400636Y-228044D01*
X-397361Y-225855D01*
X-394575Y-223069D01*
X-392386Y-219793D01*
X-390879Y-216154D01*
X-390110Y-212290D01*
Y-208350D01*
X-390879Y-204486D01*
X-392386Y-200847D01*
X-394575Y-197571D01*
X-397361Y-194785D01*
X-400636Y-192596D01*
X-404276Y-191089D01*
X-408140Y-190320D01*
D02*
G37*
G36*
X-381480Y-195361D02*
Y-199020D01*
X-377821D01*
X-378477Y-197435D01*
X-379895Y-196017D01*
X-381480Y-195361D01*
D02*
G37*
G36*
X-384020D02*
X-385605Y-196017D01*
X-387023Y-197435D01*
X-387679Y-199020D01*
X-384020D01*
Y-195361D01*
D02*
G37*
G36*
X-831480D02*
Y-199020D01*
X-827821D01*
X-828477Y-197435D01*
X-829895Y-196017D01*
X-831480Y-195361D01*
D02*
G37*
G36*
X-834020D02*
X-835605Y-196017D01*
X-837023Y-197435D01*
X-837679Y-199020D01*
X-834020D01*
Y-195361D01*
D02*
G37*
G36*
X-377821Y-201560D02*
X-381480D01*
Y-205219D01*
X-379895Y-204563D01*
X-378477Y-203145D01*
X-377821Y-201560D01*
D02*
G37*
G36*
X-384020D02*
X-387679D01*
X-387023Y-203145D01*
X-385605Y-204563D01*
X-384020Y-205219D01*
Y-201560D01*
D02*
G37*
G36*
X-827821D02*
X-831480D01*
Y-205219D01*
X-829895Y-204563D01*
X-828477Y-203145D01*
X-827821Y-201560D01*
D02*
G37*
G36*
X-834020D02*
X-837679D01*
X-837023Y-203145D01*
X-835605Y-204563D01*
X-834020Y-205219D01*
Y-201560D01*
D02*
G37*
G36*
X-621217Y-190320D02*
X-623182D01*
X-625138Y-190513D01*
X-627065Y-190896D01*
X-628946Y-191466D01*
X-630761Y-192218D01*
X-632494Y-193145D01*
X-634128Y-194237D01*
X-635647Y-195483D01*
X-637037Y-196873D01*
X-638284Y-198392D01*
X-639375Y-200026D01*
X-640302Y-201759D01*
X-641054Y-203574D01*
X-641624Y-205455D01*
X-642007Y-207382D01*
X-642200Y-209338D01*
Y-211303D01*
X-642007Y-213258D01*
X-641624Y-215185D01*
X-641054Y-217066D01*
X-640302Y-218881D01*
X-639375Y-220614D01*
X-638284Y-222248D01*
X-637037Y-223767D01*
X-635647Y-225157D01*
X-634128Y-226404D01*
X-632494Y-227495D01*
X-630761Y-228422D01*
X-628946Y-229174D01*
X-627065Y-229744D01*
X-625138Y-230127D01*
X-623182Y-230320D01*
X-621217D01*
X-619262Y-230127D01*
X-617335Y-229744D01*
X-615454Y-229174D01*
X-613639Y-228422D01*
X-611906Y-227495D01*
X-610272Y-226404D01*
X-608753Y-225157D01*
X-607363Y-223767D01*
X-606116Y-222248D01*
X-605025Y-220614D01*
X-604098Y-218881D01*
X-603346Y-217066D01*
X-602776Y-215185D01*
X-602393Y-213258D01*
X-602200Y-211303D01*
Y-209338D01*
X-602393Y-207382D01*
X-602776Y-205455D01*
X-603346Y-203574D01*
X-604098Y-201759D01*
X-605025Y-200026D01*
X-606116Y-198392D01*
X-607363Y-196873D01*
X-608753Y-195483D01*
X-610272Y-194237D01*
X-611906Y-193145D01*
X-613639Y-192218D01*
X-615454Y-191466D01*
X-617335Y-190896D01*
X-619262Y-190513D01*
X-621217Y-190320D01*
D02*
G37*
G36*
X-809020Y-245361D02*
X-810605Y-246017D01*
X-812023Y-247435D01*
X-812679Y-249020D01*
X-809020D01*
Y-245361D01*
D02*
G37*
G36*
Y-251560D02*
X-812679D01*
X-812023Y-253145D01*
X-810605Y-254563D01*
X-809020Y-255219D01*
Y-251560D01*
D02*
G37*
G36*
X-326750Y-201340D02*
X-343250D01*
Y-222840D01*
X-326750D01*
Y-219218D01*
X-301531D01*
X-300062Y-220688D01*
X-299155Y-222045D01*
X-297501Y-223150D01*
X-295550Y-223538D01*
X-278550D01*
X-276599Y-223150D01*
X-276417Y-223028D01*
X-274890D01*
X-271227Y-226691D01*
Y-287598D01*
X-273680Y-290052D01*
X-276417D01*
X-276599Y-289930D01*
X-278550Y-289542D01*
X-295550D01*
X-297501Y-289930D01*
X-297683Y-290052D01*
X-306928D01*
X-307310Y-288940D01*
X-307310Y-288782D01*
Y-286674D01*
X-297379D01*
X-295550Y-287038D01*
X-278550D01*
X-276599Y-286650D01*
X-274945Y-285545D01*
X-273840Y-283891D01*
X-273452Y-281940D01*
X-273840Y-279989D01*
X-274945Y-278335D01*
X-276599Y-277230D01*
X-278550Y-276842D01*
X-295550D01*
X-297501Y-277230D01*
X-297902Y-277498D01*
X-307310D01*
Y-274940D01*
X-319310D01*
Y-288940D01*
X-310890D01*
X-310765Y-290210D01*
X-311726Y-290401D01*
X-313214Y-291396D01*
X-313720Y-291902D01*
X-335880D01*
X-336323Y-291990D01*
X-340380D01*
Y-296047D01*
X-340468Y-296490D01*
X-340380Y-296933D01*
Y-300902D01*
X-343545D01*
X-344346Y-300570D01*
X-346534D01*
X-348555Y-301407D01*
X-350103Y-302955D01*
X-350940Y-304976D01*
Y-307164D01*
X-350103Y-309186D01*
X-348555Y-310733D01*
X-346534Y-311570D01*
X-344346D01*
X-342324Y-310733D01*
X-341670Y-310078D01*
X-339288D01*
Y-325089D01*
X-347414Y-333216D01*
X-348409Y-334704D01*
X-348758Y-336460D01*
Y-415290D01*
X-348409Y-417046D01*
X-347414Y-418534D01*
X-293790Y-472159D01*
Y-472264D01*
X-292953Y-474286D01*
X-291406Y-475833D01*
X-289384Y-476670D01*
X-287196D01*
X-285175Y-475833D01*
X-283627Y-474286D01*
X-282790Y-472264D01*
Y-470076D01*
X-283627Y-468055D01*
X-285175Y-466507D01*
X-287196Y-465670D01*
X-287301D01*
X-339582Y-413390D01*
Y-367620D01*
X-337608D01*
Y-370670D01*
X-337259Y-372426D01*
X-336264Y-373914D01*
X-331230Y-378949D01*
Y-385460D01*
X-331230D01*
Y-386700D01*
X-331230D01*
Y-394904D01*
X-331480Y-395071D01*
Y-400290D01*
Y-405219D01*
X-329895Y-404563D01*
X-328477Y-403145D01*
X-327710Y-401292D01*
Y-400700D01*
X-319230D01*
Y-386700D01*
X-319230D01*
Y-385460D01*
X-319230D01*
Y-371460D01*
X-325741D01*
X-328311Y-368890D01*
X-328141Y-367620D01*
X-324770D01*
Y-346120D01*
X-324770Y-346120D01*
X-324770D01*
X-324469Y-344928D01*
X-323219Y-343678D01*
X-294000D01*
X-288403Y-349276D01*
X-288929Y-350546D01*
X-290300D01*
X-291373Y-350760D01*
X-292283Y-351367D01*
X-292890Y-352277D01*
X-293104Y-353350D01*
Y-357850D01*
X-292890Y-358923D01*
X-292283Y-359833D01*
X-291373Y-360440D01*
X-290300Y-360654D01*
X-276100D01*
X-275027Y-360440D01*
X-274117Y-359833D01*
X-273510Y-358923D01*
X-273296Y-357850D01*
Y-353350D01*
X-273510Y-352277D01*
X-274117Y-351367D01*
X-275027Y-350760D01*
X-276100Y-350546D01*
X-278612D01*
Y-347990D01*
X-278961Y-346234D01*
X-279956Y-344746D01*
X-288856Y-335846D01*
X-290344Y-334851D01*
X-292100Y-334502D01*
X-321112D01*
Y-326390D01*
X-321200Y-325947D01*
Y-321290D01*
X-330112D01*
Y-317629D01*
X-329444Y-317326D01*
X-328842Y-317240D01*
X-327271Y-318811D01*
X-325120Y-319702D01*
Y-313690D01*
Y-307678D01*
X-327271Y-308570D01*
X-328842Y-310140D01*
X-329444Y-310054D01*
X-330112Y-309751D01*
Y-305490D01*
X-330180Y-305147D01*
Y-301078D01*
X-312420D01*
X-312120Y-301019D01*
X-311820Y-301078D01*
X-311377Y-300990D01*
X-307320D01*
Y-299228D01*
X-297683D01*
X-297501Y-299350D01*
X-295550Y-299738D01*
X-278550D01*
X-276599Y-299350D01*
X-276417Y-299228D01*
X-271780D01*
X-270024Y-298879D01*
X-268536Y-297884D01*
X-263395Y-292743D01*
X-262400Y-291255D01*
X-262051Y-289499D01*
Y-224790D01*
X-262400Y-223034D01*
X-263395Y-221546D01*
X-269745Y-215196D01*
X-271233Y-214201D01*
X-272989Y-213852D01*
X-276417D01*
X-276599Y-213730D01*
X-278550Y-213342D01*
X-294430D01*
X-296386Y-211386D01*
X-297875Y-210391D01*
X-299631Y-210042D01*
X-326750D01*
Y-201340D01*
D02*
G37*
G36*
X-831480Y-295361D02*
Y-299020D01*
X-827821D01*
X-828477Y-297435D01*
X-829895Y-296017D01*
X-831480Y-295361D01*
D02*
G37*
G36*
X-834020D02*
X-835605Y-296017D01*
X-837023Y-297435D01*
X-837679Y-299020D01*
X-834020D01*
Y-295361D01*
D02*
G37*
G36*
X-827821Y-301560D02*
X-831480D01*
Y-305219D01*
X-829895Y-304563D01*
X-828477Y-303145D01*
X-827821Y-301560D01*
D02*
G37*
G36*
X-834020D02*
X-837679D01*
X-837023Y-303145D01*
X-835605Y-304563D01*
X-834020Y-305219D01*
Y-301560D01*
D02*
G37*
G36*
X-322580Y-307678D02*
Y-312420D01*
X-317838D01*
X-318729Y-310269D01*
X-320429Y-308570D01*
X-322580Y-307678D01*
D02*
G37*
G36*
X-317838Y-314960D02*
X-322580D01*
Y-319702D01*
X-320429Y-318811D01*
X-318729Y-317111D01*
X-317838Y-314960D01*
D02*
G37*
G36*
X-755730Y-320920D02*
X-765730D01*
Y-337920D01*
X-755730D01*
Y-320920D01*
D02*
G37*
G36*
X-768430D02*
X-778430D01*
Y-337920D01*
X-768430D01*
Y-320920D01*
D02*
G37*
G36*
X-781130D02*
X-791130D01*
Y-337920D01*
X-781130D01*
Y-320920D01*
D02*
G37*
G36*
X-793830D02*
X-803830D01*
Y-337920D01*
X-793830D01*
Y-320920D01*
D02*
G37*
G36*
X-756480Y-345361D02*
Y-349020D01*
X-752821D01*
X-753477Y-347435D01*
X-754895Y-346017D01*
X-756480Y-345361D01*
D02*
G37*
G36*
X-759020D02*
X-760605Y-346017D01*
X-762023Y-347435D01*
X-762679Y-349020D01*
X-759020D01*
Y-345361D01*
D02*
G37*
G36*
X-806480D02*
Y-349020D01*
X-802821D01*
X-803477Y-347435D01*
X-804895Y-346017D01*
X-806480Y-345361D01*
D02*
G37*
G36*
X-809020D02*
X-810605Y-346017D01*
X-812023Y-347435D01*
X-812679Y-349020D01*
X-809020D01*
Y-345361D01*
D02*
G37*
G36*
X-752821Y-351560D02*
X-756480D01*
Y-355219D01*
X-754895Y-354563D01*
X-753477Y-353145D01*
X-752821Y-351560D01*
D02*
G37*
G36*
X-759020D02*
X-762679D01*
X-762023Y-353145D01*
X-760605Y-354563D01*
X-759020Y-355219D01*
Y-351560D01*
D02*
G37*
G36*
X-802821D02*
X-806480D01*
Y-355219D01*
X-804895Y-354563D01*
X-803477Y-353145D01*
X-802821Y-351560D01*
D02*
G37*
G36*
X-809020D02*
X-812679D01*
X-812023Y-353145D01*
X-810605Y-354563D01*
X-809020Y-355219D01*
Y-351560D01*
D02*
G37*
G36*
X-276100Y-375946D02*
X-290300D01*
X-291373Y-376160D01*
X-292283Y-376767D01*
X-292890Y-377677D01*
X-294254Y-378085D01*
X-295015Y-377770D01*
X-296805D01*
X-298459Y-378455D01*
X-299725Y-379721D01*
X-300410Y-381375D01*
Y-383165D01*
X-299725Y-384819D01*
X-298459Y-386085D01*
X-296805Y-386770D01*
X-295015D01*
X-293361Y-386085D01*
X-292488Y-385212D01*
X-292283Y-385233D01*
X-291373Y-385840D01*
X-290300Y-386054D01*
X-276100D01*
X-275027Y-385840D01*
X-274117Y-385233D01*
X-273510Y-384323D01*
X-273296Y-383250D01*
Y-378750D01*
X-273510Y-377677D01*
X-274117Y-376767D01*
X-275027Y-376160D01*
X-276100Y-375946D01*
D02*
G37*
G36*
X-334020Y-395361D02*
X-335605Y-396017D01*
X-337023Y-397435D01*
X-337679Y-399020D01*
X-334020D01*
Y-395361D01*
D02*
G37*
G36*
X-734020D02*
X-735605Y-396017D01*
X-737023Y-397435D01*
X-737679Y-399020D01*
X-734020D01*
Y-395361D01*
D02*
G37*
G36*
X-781480D02*
Y-399020D01*
X-777821D01*
X-778477Y-397435D01*
X-779895Y-396017D01*
X-781480Y-395361D01*
D02*
G37*
G36*
X-784020D02*
X-785605Y-396017D01*
X-787023Y-397435D01*
X-787679Y-399020D01*
X-784020D01*
Y-395361D01*
D02*
G37*
G36*
X-831480D02*
Y-399020D01*
X-827821D01*
X-828477Y-397435D01*
X-829895Y-396017D01*
X-831480Y-395361D01*
D02*
G37*
G36*
X-834020D02*
X-835605Y-396017D01*
X-837023Y-397435D01*
X-837679Y-399020D01*
X-834020D01*
Y-395361D01*
D02*
G37*
G36*
X-629432Y-401560D02*
X-631480D01*
Y-404100D01*
X-629432D01*
X-628477Y-403145D01*
X-628347Y-402830D01*
X-628477Y-402515D01*
X-629432Y-401560D01*
D02*
G37*
G36*
X-634020D02*
X-636068D01*
X-637023Y-402515D01*
X-637153Y-402830D01*
X-637023Y-403145D01*
X-636068Y-404100D01*
X-634020D01*
Y-401560D01*
D02*
G37*
G36*
X-679432D02*
X-681480D01*
Y-404100D01*
X-679432D01*
X-678477Y-403145D01*
X-678347Y-402830D01*
X-678477Y-402515D01*
X-679432Y-401560D01*
D02*
G37*
G36*
X-684020D02*
X-686068D01*
X-687023Y-402515D01*
X-687153Y-402830D01*
X-687023Y-403145D01*
X-686068Y-404100D01*
X-684020D01*
Y-401560D01*
D02*
G37*
G36*
X-729432D02*
X-731480D01*
Y-404100D01*
X-729432D01*
X-728477Y-403145D01*
X-728347Y-402830D01*
X-728477Y-402515D01*
X-729432Y-401560D01*
D02*
G37*
G36*
X-334020D02*
X-337679D01*
X-337023Y-403145D01*
X-335605Y-404563D01*
X-334020Y-405219D01*
Y-401560D01*
D02*
G37*
G36*
X-734020D02*
X-737679D01*
X-737023Y-403145D01*
X-735605Y-404563D01*
X-734020Y-405219D01*
Y-401560D01*
D02*
G37*
G36*
X-777821D02*
X-781480D01*
Y-405219D01*
X-779895Y-404563D01*
X-778477Y-403145D01*
X-777821Y-401560D01*
D02*
G37*
G36*
X-784020D02*
X-787679D01*
X-787023Y-403145D01*
X-785605Y-404563D01*
X-784020Y-405219D01*
Y-401560D01*
D02*
G37*
G36*
X-827821D02*
X-831480D01*
Y-405219D01*
X-829895Y-404563D01*
X-828477Y-403145D01*
X-827821Y-401560D01*
D02*
G37*
G36*
X-834020D02*
X-837679D01*
X-837023Y-403145D01*
X-835605Y-404563D01*
X-834020Y-405219D01*
Y-401560D01*
D02*
G37*
G36*
X-361840Y-416136D02*
Y-420878D01*
X-357098D01*
X-357989Y-418727D01*
X-359688Y-417028D01*
X-361840Y-416136D01*
D02*
G37*
G36*
X-357098Y-423418D02*
X-361840D01*
Y-428160D01*
X-359688Y-427268D01*
X-357989Y-425569D01*
X-357098Y-423418D01*
D02*
G37*
G36*
X-793830Y-413920D02*
X-803830D01*
Y-429454D01*
X-805100Y-430132D01*
X-805508Y-429860D01*
X-806530Y-429657D01*
Y-413920D01*
X-816530D01*
Y-424802D01*
X-817264Y-425293D01*
X-817960Y-425989D01*
X-819230Y-425463D01*
Y-413920D01*
X-829230D01*
Y-427109D01*
X-830500Y-427635D01*
X-831930Y-426205D01*
Y-413920D01*
X-841930D01*
Y-430920D01*
X-836645D01*
X-833767Y-433798D01*
X-832686Y-434520D01*
X-831410Y-434774D01*
X-825872D01*
X-820269Y-440378D01*
X-819187Y-441100D01*
X-817911Y-441354D01*
X-811043D01*
X-810517Y-442624D01*
X-811968Y-444076D01*
X-811094Y-444950D01*
X-811134Y-446546D01*
X-812023Y-447435D01*
X-812679Y-449020D01*
X-807750D01*
Y-450290D01*
X-806480D01*
Y-455219D01*
X-804895Y-454563D01*
X-803477Y-453145D01*
X-802710Y-451292D01*
Y-450709D01*
X-801440Y-450183D01*
X-764126Y-487497D01*
X-763044Y-488220D01*
X-761768Y-488474D01*
X-758331D01*
X-756768Y-490037D01*
X-757240Y-490854D01*
X-757990Y-493652D01*
Y-496548D01*
X-757240Y-499346D01*
X-755792Y-501854D01*
X-753744Y-503902D01*
X-751236Y-505350D01*
X-748438Y-506100D01*
X-745542D01*
X-742744Y-505350D01*
X-740236Y-503902D01*
X-738714Y-502380D01*
X-737238Y-502626D01*
X-737023Y-503145D01*
X-735605Y-504563D01*
X-734020Y-505219D01*
Y-500290D01*
Y-495361D01*
X-734720Y-495651D01*
X-735990Y-494802D01*
Y-493652D01*
X-736740Y-490854D01*
X-738188Y-488346D01*
X-740236Y-486298D01*
X-742744Y-484850D01*
X-745542Y-484100D01*
X-748438D01*
X-751236Y-484850D01*
X-752053Y-485322D01*
X-753896Y-483479D01*
X-753952Y-483393D01*
Y-481807D01*
X-753896Y-481721D01*
X-752053Y-479878D01*
X-751236Y-480350D01*
X-748438Y-481100D01*
X-745542D01*
X-742744Y-480350D01*
X-740236Y-478902D01*
X-738188Y-476854D01*
X-736740Y-474346D01*
X-735990Y-471548D01*
Y-468652D01*
X-736740Y-465854D01*
X-738188Y-463346D01*
X-740236Y-461298D01*
X-742744Y-459850D01*
X-745542Y-459100D01*
X-748438D01*
X-751236Y-459850D01*
X-753744Y-461298D01*
X-755792Y-463346D01*
X-757240Y-465854D01*
X-757990Y-468652D01*
Y-471548D01*
X-757240Y-474346D01*
X-756768Y-475163D01*
X-758307Y-476702D01*
X-794238Y-440771D01*
X-792028Y-438560D01*
X-798398Y-432190D01*
X-797872Y-430920D01*
X-793830D01*
Y-413920D01*
D02*
G37*
G36*
X-743030D02*
X-753030D01*
Y-430920D01*
X-743030D01*
Y-413920D01*
D02*
G37*
G36*
X-755730D02*
X-765730D01*
Y-430920D01*
X-755730D01*
Y-413920D01*
D02*
G37*
G36*
X-768430D02*
X-778430D01*
Y-430920D01*
X-768430D01*
Y-413920D01*
D02*
G37*
G36*
X-781130D02*
X-791130D01*
Y-430920D01*
X-781130D01*
Y-413920D01*
D02*
G37*
G36*
X-606480Y-445361D02*
Y-449020D01*
X-602821D01*
X-603477Y-447435D01*
X-604895Y-446017D01*
X-606480Y-445361D01*
D02*
G37*
G36*
X-609020D02*
X-610605Y-446017D01*
X-612023Y-447435D01*
X-612679Y-449020D01*
X-609020D01*
Y-445361D01*
D02*
G37*
G36*
X-706480D02*
Y-449020D01*
X-702821D01*
X-703477Y-447435D01*
X-704895Y-446017D01*
X-706480Y-445361D01*
D02*
G37*
G36*
X-709020D02*
X-710605Y-446017D01*
X-712023Y-447435D01*
X-712679Y-449020D01*
X-709020D01*
Y-445361D01*
D02*
G37*
G36*
X-756480D02*
Y-449020D01*
X-752821D01*
X-753477Y-447435D01*
X-754895Y-446017D01*
X-756480Y-445361D01*
D02*
G37*
G36*
X-759020D02*
X-760605Y-446017D01*
X-762023Y-447435D01*
X-762679Y-449020D01*
X-759020D01*
Y-445361D01*
D02*
G37*
G36*
X-602821Y-451560D02*
X-606480D01*
Y-455219D01*
X-604895Y-454563D01*
X-603477Y-453145D01*
X-602821Y-451560D01*
D02*
G37*
G36*
X-609020D02*
X-612679D01*
X-612023Y-453145D01*
X-610605Y-454563D01*
X-609020Y-455219D01*
Y-451560D01*
D02*
G37*
G36*
X-702821D02*
X-706480D01*
Y-455219D01*
X-704895Y-454563D01*
X-703477Y-453145D01*
X-702821Y-451560D01*
D02*
G37*
G36*
X-709020D02*
X-712679D01*
X-712023Y-453145D01*
X-710605Y-454563D01*
X-709020Y-455219D01*
Y-451560D01*
D02*
G37*
G36*
X-752821D02*
X-756480D01*
Y-455219D01*
X-754895Y-454563D01*
X-753477Y-453145D01*
X-752821Y-451560D01*
D02*
G37*
G36*
X-759020D02*
X-762679D01*
X-762023Y-453145D01*
X-760605Y-454563D01*
X-759020Y-455219D01*
Y-451560D01*
D02*
G37*
G36*
X-809020D02*
X-812679D01*
X-812023Y-453145D01*
X-810605Y-454563D01*
X-809020Y-455219D01*
Y-451560D01*
D02*
G37*
G36*
X-817342Y-459100D02*
X-820238D01*
X-823036Y-459850D01*
X-825544Y-461298D01*
X-827592Y-463346D01*
X-829040Y-465854D01*
X-829790Y-468652D01*
Y-471548D01*
X-829040Y-474346D01*
X-827592Y-476854D01*
X-825544Y-478902D01*
X-823036Y-480350D01*
X-820238Y-481100D01*
X-817342D01*
X-814544Y-480350D01*
X-812036Y-478902D01*
X-809988Y-476854D01*
X-808540Y-474346D01*
X-807790Y-471548D01*
Y-468652D01*
X-808540Y-465854D01*
X-809988Y-463346D01*
X-812036Y-461298D01*
X-814544Y-459850D01*
X-817342Y-459100D01*
D02*
G37*
G36*
Y-484100D02*
X-820238D01*
X-823036Y-484850D01*
X-825544Y-486298D01*
X-827592Y-488346D01*
X-829040Y-490854D01*
X-829790Y-493652D01*
Y-494686D01*
X-831060Y-495535D01*
X-831480Y-495361D01*
Y-500290D01*
Y-505219D01*
X-829895Y-504563D01*
X-828477Y-503145D01*
X-828366Y-502876D01*
X-826868Y-502578D01*
X-825544Y-503902D01*
X-823036Y-505350D01*
X-820238Y-506100D01*
X-817342D01*
X-814544Y-505350D01*
X-812036Y-503902D01*
X-809988Y-501854D01*
X-808540Y-499346D01*
X-807790Y-496548D01*
Y-493652D01*
X-808540Y-490854D01*
X-809988Y-488346D01*
X-812036Y-486298D01*
X-814544Y-484850D01*
X-817342Y-484100D01*
D02*
G37*
G36*
X-181480Y-495361D02*
Y-499020D01*
X-177821D01*
X-178477Y-497435D01*
X-179895Y-496017D01*
X-181480Y-495361D01*
D02*
G37*
G36*
X-184020D02*
X-185605Y-496017D01*
X-187023Y-497435D01*
X-187679Y-499020D01*
X-184020D01*
Y-495361D01*
D02*
G37*
G36*
X-281480D02*
Y-499020D01*
X-277821D01*
X-278477Y-497435D01*
X-279895Y-496017D01*
X-281480Y-495361D01*
D02*
G37*
G36*
X-284020D02*
X-285605Y-496017D01*
X-287023Y-497435D01*
X-287679Y-499020D01*
X-284020D01*
Y-495361D01*
D02*
G37*
G36*
X-331480D02*
Y-499020D01*
X-327821D01*
X-328477Y-497435D01*
X-329895Y-496017D01*
X-331480Y-495361D01*
D02*
G37*
G36*
X-334020D02*
X-335605Y-496017D01*
X-337023Y-497435D01*
X-337679Y-499020D01*
X-334020D01*
Y-495361D01*
D02*
G37*
G36*
X-631480D02*
Y-499020D01*
X-627821D01*
X-628477Y-497435D01*
X-629895Y-496017D01*
X-631480Y-495361D01*
D02*
G37*
G36*
X-634020D02*
X-635605Y-496017D01*
X-637023Y-497435D01*
X-637679Y-499020D01*
X-634020D01*
Y-495361D01*
D02*
G37*
G36*
X-681480D02*
Y-499020D01*
X-677821D01*
X-678477Y-497435D01*
X-679895Y-496017D01*
X-681480Y-495361D01*
D02*
G37*
G36*
X-684020D02*
X-685605Y-496017D01*
X-687023Y-497435D01*
X-687679Y-499020D01*
X-684020D01*
Y-495361D01*
D02*
G37*
G36*
X-731480D02*
Y-499020D01*
X-727821D01*
X-728477Y-497435D01*
X-729895Y-496017D01*
X-731480Y-495361D01*
D02*
G37*
G36*
X-781480D02*
Y-499020D01*
X-777821D01*
X-778477Y-497435D01*
X-779895Y-496017D01*
X-781480Y-495361D01*
D02*
G37*
G36*
X-784020D02*
X-785605Y-496017D01*
X-787023Y-497435D01*
X-787679Y-499020D01*
X-784020D01*
Y-495361D01*
D02*
G37*
G36*
X-834020D02*
X-835605Y-496017D01*
X-837023Y-497435D01*
X-837679Y-499020D01*
X-834020D01*
Y-495361D01*
D02*
G37*
G36*
X-177821Y-501560D02*
X-181480D01*
Y-505219D01*
X-179895Y-504563D01*
X-178477Y-503145D01*
X-177821Y-501560D01*
D02*
G37*
G36*
X-184020D02*
X-187679D01*
X-187023Y-503145D01*
X-185605Y-504563D01*
X-184020Y-505219D01*
Y-501560D01*
D02*
G37*
G36*
X-234020D02*
X-237679D01*
X-237023Y-503145D01*
X-235605Y-504563D01*
X-234020Y-505219D01*
Y-501560D01*
D02*
G37*
G36*
X-277821D02*
X-281480D01*
Y-505219D01*
X-279895Y-504563D01*
X-278477Y-503145D01*
X-277821Y-501560D01*
D02*
G37*
G36*
X-284020D02*
X-287679D01*
X-287023Y-503145D01*
X-285605Y-504563D01*
X-284020Y-505219D01*
Y-501560D01*
D02*
G37*
G36*
X-327821D02*
X-331480D01*
Y-505219D01*
X-329895Y-504563D01*
X-328477Y-503145D01*
X-327821Y-501560D01*
D02*
G37*
G36*
X-334020D02*
X-337679D01*
X-337023Y-503145D01*
X-335605Y-504563D01*
X-334020Y-505219D01*
Y-501560D01*
D02*
G37*
G36*
X-627821D02*
X-631480D01*
Y-505219D01*
X-629895Y-504563D01*
X-628477Y-503145D01*
X-627821Y-501560D01*
D02*
G37*
G36*
X-634020D02*
X-637679D01*
X-637023Y-503145D01*
X-635605Y-504563D01*
X-634020Y-505219D01*
Y-501560D01*
D02*
G37*
G36*
X-677821D02*
X-681480D01*
Y-505219D01*
X-679895Y-504563D01*
X-678477Y-503145D01*
X-677821Y-501560D01*
D02*
G37*
G36*
X-684020D02*
X-687679D01*
X-687023Y-503145D01*
X-685605Y-504563D01*
X-684020Y-505219D01*
Y-501560D01*
D02*
G37*
G36*
X-727821D02*
X-731480D01*
Y-505219D01*
X-729895Y-504563D01*
X-728477Y-503145D01*
X-727821Y-501560D01*
D02*
G37*
G36*
X-777821D02*
X-781480D01*
Y-505219D01*
X-779895Y-504563D01*
X-778477Y-503145D01*
X-777821Y-501560D01*
D02*
G37*
G36*
X-784020D02*
X-787679D01*
X-787023Y-503145D01*
X-785605Y-504563D01*
X-784020Y-505219D01*
Y-501560D01*
D02*
G37*
G36*
X-834020D02*
X-837679D01*
X-837023Y-503145D01*
X-835605Y-504563D01*
X-834020Y-505219D01*
Y-501560D01*
D02*
G37*
G36*
X-256480Y-545361D02*
Y-549020D01*
X-252821D01*
X-253477Y-547435D01*
X-254895Y-546017D01*
X-256480Y-545361D01*
D02*
G37*
G36*
X-259020D02*
X-260605Y-546017D01*
X-262023Y-547435D01*
X-262679Y-549020D01*
X-259020D01*
Y-545361D01*
D02*
G37*
G36*
X-306480D02*
Y-549020D01*
X-302821D01*
X-303477Y-547435D01*
X-304895Y-546017D01*
X-306480Y-545361D01*
D02*
G37*
G36*
X-309020D02*
X-310605Y-546017D01*
X-312023Y-547435D01*
X-312679Y-549020D01*
X-309020D01*
Y-545361D01*
D02*
G37*
G36*
X-356480D02*
Y-549020D01*
X-352821D01*
X-353477Y-547435D01*
X-354895Y-546017D01*
X-356480Y-545361D01*
D02*
G37*
G36*
X-359020D02*
X-360605Y-546017D01*
X-362023Y-547435D01*
X-362679Y-549020D01*
X-359020D01*
Y-545361D01*
D02*
G37*
G36*
X-406480D02*
Y-549020D01*
X-402821D01*
X-403477Y-547435D01*
X-404895Y-546017D01*
X-406480Y-545361D01*
D02*
G37*
G36*
X-409020D02*
X-410605Y-546017D01*
X-412023Y-547435D01*
X-412679Y-549020D01*
X-409020D01*
Y-545361D01*
D02*
G37*
G36*
X-456480D02*
Y-549020D01*
X-452821D01*
X-453477Y-547435D01*
X-454895Y-546017D01*
X-456480Y-545361D01*
D02*
G37*
G36*
X-459020D02*
X-460605Y-546017D01*
X-462023Y-547435D01*
X-462679Y-549020D01*
X-459020D01*
Y-545361D01*
D02*
G37*
G36*
X-556480D02*
Y-549020D01*
X-552821D01*
X-553477Y-547435D01*
X-554895Y-546017D01*
X-556480Y-545361D01*
D02*
G37*
G36*
X-559020D02*
X-560605Y-546017D01*
X-562023Y-547435D01*
X-562679Y-549020D01*
X-559020D01*
Y-545361D01*
D02*
G37*
G36*
X-706480D02*
Y-549020D01*
X-702821D01*
X-703477Y-547435D01*
X-704895Y-546017D01*
X-706480Y-545361D01*
D02*
G37*
G36*
X-709020D02*
X-710605Y-546017D01*
X-712023Y-547435D01*
X-712679Y-549020D01*
X-709020D01*
Y-545361D01*
D02*
G37*
G36*
X-756480D02*
Y-549020D01*
X-752821D01*
X-753477Y-547435D01*
X-754895Y-546017D01*
X-756480Y-545361D01*
D02*
G37*
G36*
X-759020D02*
X-760605Y-546017D01*
X-762023Y-547435D01*
X-762679Y-549020D01*
X-759020D01*
Y-545361D01*
D02*
G37*
G36*
X-806480D02*
Y-549020D01*
X-802821D01*
X-803477Y-547435D01*
X-804895Y-546017D01*
X-806480Y-545361D01*
D02*
G37*
G36*
X-809020D02*
X-810605Y-546017D01*
X-812023Y-547435D01*
X-812679Y-549020D01*
X-809020D01*
Y-545361D01*
D02*
G37*
G36*
X-252821Y-551560D02*
X-256480D01*
Y-555219D01*
X-254895Y-554563D01*
X-253477Y-553145D01*
X-252821Y-551560D01*
D02*
G37*
G36*
X-259020D02*
X-262679D01*
X-262023Y-553145D01*
X-260605Y-554563D01*
X-259020Y-555219D01*
Y-551560D01*
D02*
G37*
G36*
X-302821D02*
X-306480D01*
Y-555219D01*
X-304895Y-554563D01*
X-303477Y-553145D01*
X-302821Y-551560D01*
D02*
G37*
G36*
X-309020D02*
X-312679D01*
X-312023Y-553145D01*
X-310605Y-554563D01*
X-309020Y-555219D01*
Y-551560D01*
D02*
G37*
G36*
X-352821D02*
X-356480D01*
Y-555219D01*
X-354895Y-554563D01*
X-353477Y-553145D01*
X-352821Y-551560D01*
D02*
G37*
G36*
X-359020D02*
X-362679D01*
X-362023Y-553145D01*
X-360605Y-554563D01*
X-359020Y-555219D01*
Y-551560D01*
D02*
G37*
G36*
X-402821D02*
X-406480D01*
Y-555219D01*
X-404895Y-554563D01*
X-403477Y-553145D01*
X-402821Y-551560D01*
D02*
G37*
G36*
X-409020D02*
X-412679D01*
X-412023Y-553145D01*
X-410605Y-554563D01*
X-409020Y-555219D01*
Y-551560D01*
D02*
G37*
G36*
X-452821D02*
X-456480D01*
Y-555219D01*
X-454895Y-554563D01*
X-453477Y-553145D01*
X-452821Y-551560D01*
D02*
G37*
G36*
X-459020D02*
X-462679D01*
X-462023Y-553145D01*
X-460605Y-554563D01*
X-459020Y-555219D01*
Y-551560D01*
D02*
G37*
G36*
X-552821D02*
X-556480D01*
Y-555219D01*
X-554895Y-554563D01*
X-553477Y-553145D01*
X-552821Y-551560D01*
D02*
G37*
G36*
X-559020D02*
X-562679D01*
X-562023Y-553145D01*
X-560605Y-554563D01*
X-559020Y-555219D01*
Y-551560D01*
D02*
G37*
G36*
X-702821D02*
X-706480D01*
Y-555219D01*
X-704895Y-554563D01*
X-703477Y-553145D01*
X-702821Y-551560D01*
D02*
G37*
G36*
X-709020D02*
X-712679D01*
X-712023Y-553145D01*
X-710605Y-554563D01*
X-709020Y-555219D01*
Y-551560D01*
D02*
G37*
G36*
X-752821D02*
X-756480D01*
Y-555219D01*
X-754895Y-554563D01*
X-753477Y-553145D01*
X-752821Y-551560D01*
D02*
G37*
G36*
X-759020D02*
X-762679D01*
X-762023Y-553145D01*
X-760605Y-554563D01*
X-759020Y-555219D01*
Y-551560D01*
D02*
G37*
G36*
X-802821D02*
X-806480D01*
Y-555219D01*
X-804895Y-554563D01*
X-803477Y-553145D01*
X-802821Y-551560D01*
D02*
G37*
G36*
X-809020D02*
X-812679D01*
X-812023Y-553145D01*
X-810605Y-554563D01*
X-809020Y-555219D01*
Y-551560D01*
D02*
G37*
G36*
X-303706Y-414870D02*
X-305894D01*
X-307915Y-415707D01*
X-309463Y-417254D01*
X-310300Y-419276D01*
Y-421464D01*
X-309463Y-423485D01*
X-307915Y-425033D01*
X-305894Y-425870D01*
X-304015D01*
X-235185Y-494700D01*
X-235432Y-495946D01*
X-235605Y-496017D01*
X-237023Y-497435D01*
X-237679Y-499020D01*
X-232750D01*
Y-500290D01*
X-231480D01*
Y-505219D01*
X-229895Y-504563D01*
X-228477Y-503145D01*
X-228406Y-502973D01*
X-227160Y-502725D01*
X-144598Y-585288D01*
X-143516Y-586010D01*
X-142240Y-586264D01*
X-132570D01*
X-132089Y-586745D01*
X-130435Y-587430D01*
X-128645D01*
X-126991Y-586745D01*
X-125725Y-585479D01*
X-125040Y-583825D01*
Y-582035D01*
X-125725Y-580381D01*
X-126991Y-579115D01*
X-128645Y-578430D01*
X-130435D01*
X-132089Y-579115D01*
X-132570Y-579596D01*
X-140859D01*
X-299300Y-421155D01*
Y-419276D01*
X-300137Y-417254D01*
X-301684Y-415707D01*
X-303706Y-414870D01*
D02*
G37*
G36*
X-131480Y-595361D02*
Y-599020D01*
X-127821D01*
X-128477Y-597435D01*
X-129895Y-596017D01*
X-131480Y-595361D01*
D02*
G37*
G36*
X-134020D02*
X-135605Y-596017D01*
X-137023Y-597435D01*
X-137679Y-599020D01*
X-134020D01*
Y-595361D01*
D02*
G37*
G36*
X-181480D02*
Y-599020D01*
X-177821D01*
X-178477Y-597435D01*
X-179895Y-596017D01*
X-181480Y-595361D01*
D02*
G37*
G36*
X-184020D02*
X-185605Y-596017D01*
X-187023Y-597435D01*
X-187679Y-599020D01*
X-184020D01*
Y-595361D01*
D02*
G37*
G36*
X-231480D02*
Y-599020D01*
X-227821D01*
X-228477Y-597435D01*
X-229895Y-596017D01*
X-231480Y-595361D01*
D02*
G37*
G36*
X-234020D02*
X-235605Y-596017D01*
X-237023Y-597435D01*
X-237679Y-599020D01*
X-234020D01*
Y-595361D01*
D02*
G37*
G36*
X-281480D02*
Y-599020D01*
X-277821D01*
X-278477Y-597435D01*
X-279895Y-596017D01*
X-281480Y-595361D01*
D02*
G37*
G36*
X-284020D02*
X-285605Y-596017D01*
X-287023Y-597435D01*
X-287679Y-599020D01*
X-284020D01*
Y-595361D01*
D02*
G37*
G36*
X-331480D02*
Y-599020D01*
X-327821D01*
X-328477Y-597435D01*
X-329895Y-596017D01*
X-331480Y-595361D01*
D02*
G37*
G36*
X-334020D02*
X-335605Y-596017D01*
X-337023Y-597435D01*
X-337679Y-599020D01*
X-334020D01*
Y-595361D01*
D02*
G37*
G36*
X-381480D02*
Y-599020D01*
X-377821D01*
X-378477Y-597435D01*
X-379895Y-596017D01*
X-381480Y-595361D01*
D02*
G37*
G36*
X-384020D02*
X-385605Y-596017D01*
X-387023Y-597435D01*
X-387679Y-599020D01*
X-384020D01*
Y-595361D01*
D02*
G37*
G36*
X-431480D02*
Y-599020D01*
X-427821D01*
X-428477Y-597435D01*
X-429895Y-596017D01*
X-431480Y-595361D01*
D02*
G37*
G36*
X-434020D02*
X-435605Y-596017D01*
X-437023Y-597435D01*
X-437679Y-599020D01*
X-434020D01*
Y-595361D01*
D02*
G37*
G36*
X-481480D02*
Y-599020D01*
X-477821D01*
X-478477Y-597435D01*
X-479895Y-596017D01*
X-481480Y-595361D01*
D02*
G37*
G36*
X-484020D02*
X-485605Y-596017D01*
X-487023Y-597435D01*
X-487679Y-599020D01*
X-484020D01*
Y-595361D01*
D02*
G37*
G36*
X-531480D02*
Y-599020D01*
X-527821D01*
X-528477Y-597435D01*
X-529895Y-596017D01*
X-531480Y-595361D01*
D02*
G37*
G36*
X-534020D02*
X-535605Y-596017D01*
X-537023Y-597435D01*
X-537679Y-599020D01*
X-534020D01*
Y-595361D01*
D02*
G37*
G36*
X-681480D02*
Y-599020D01*
X-677821D01*
X-678477Y-597435D01*
X-679895Y-596017D01*
X-681480Y-595361D01*
D02*
G37*
G36*
X-684020D02*
X-685605Y-596017D01*
X-687023Y-597435D01*
X-687679Y-599020D01*
X-684020D01*
Y-595361D01*
D02*
G37*
G36*
X-731480D02*
Y-599020D01*
X-727821D01*
X-728477Y-597435D01*
X-729895Y-596017D01*
X-731480Y-595361D01*
D02*
G37*
G36*
X-734020D02*
X-735605Y-596017D01*
X-737023Y-597435D01*
X-737679Y-599020D01*
X-734020D01*
Y-595361D01*
D02*
G37*
G36*
X-781480D02*
Y-599020D01*
X-777821D01*
X-778477Y-597435D01*
X-779895Y-596017D01*
X-781480Y-595361D01*
D02*
G37*
G36*
X-784020D02*
X-785605Y-596017D01*
X-787023Y-597435D01*
X-787679Y-599020D01*
X-784020D01*
Y-595361D01*
D02*
G37*
G36*
X-831480D02*
Y-599020D01*
X-827821D01*
X-828477Y-597435D01*
X-829895Y-596017D01*
X-831480Y-595361D01*
D02*
G37*
G36*
X-834020D02*
X-835605Y-596017D01*
X-837023Y-597435D01*
X-837679Y-599020D01*
X-834020D01*
Y-595361D01*
D02*
G37*
G36*
X-127821Y-601560D02*
X-131480D01*
Y-605219D01*
X-129895Y-604563D01*
X-128477Y-603145D01*
X-127821Y-601560D01*
D02*
G37*
G36*
X-134020D02*
X-137679D01*
X-137023Y-603145D01*
X-135605Y-604563D01*
X-134020Y-605219D01*
Y-601560D01*
D02*
G37*
G36*
X-177821D02*
X-181480D01*
Y-605219D01*
X-179895Y-604563D01*
X-178477Y-603145D01*
X-177821Y-601560D01*
D02*
G37*
G36*
X-184020D02*
X-187679D01*
X-187023Y-603145D01*
X-185605Y-604563D01*
X-184020Y-605219D01*
Y-601560D01*
D02*
G37*
G36*
X-227821D02*
X-231480D01*
Y-605219D01*
X-229895Y-604563D01*
X-228477Y-603145D01*
X-227821Y-601560D01*
D02*
G37*
G36*
X-234020D02*
X-237679D01*
X-237023Y-603145D01*
X-235605Y-604563D01*
X-234020Y-605219D01*
Y-601560D01*
D02*
G37*
G36*
X-277821D02*
X-281480D01*
Y-605219D01*
X-279895Y-604563D01*
X-278477Y-603145D01*
X-277821Y-601560D01*
D02*
G37*
G36*
X-284020D02*
X-287679D01*
X-287023Y-603145D01*
X-285605Y-604563D01*
X-284020Y-605219D01*
Y-601560D01*
D02*
G37*
G36*
X-327821D02*
X-331480D01*
Y-605219D01*
X-329895Y-604563D01*
X-328477Y-603145D01*
X-327821Y-601560D01*
D02*
G37*
G36*
X-334020D02*
X-337679D01*
X-337023Y-603145D01*
X-335605Y-604563D01*
X-334020Y-605219D01*
Y-601560D01*
D02*
G37*
G36*
X-377821D02*
X-381480D01*
Y-605219D01*
X-379895Y-604563D01*
X-378477Y-603145D01*
X-377821Y-601560D01*
D02*
G37*
G36*
X-384020D02*
X-387679D01*
X-387023Y-603145D01*
X-385605Y-604563D01*
X-384020Y-605219D01*
Y-601560D01*
D02*
G37*
G36*
X-427821D02*
X-431480D01*
Y-605219D01*
X-429895Y-604563D01*
X-428477Y-603145D01*
X-427821Y-601560D01*
D02*
G37*
G36*
X-434020D02*
X-437679D01*
X-437023Y-603145D01*
X-435605Y-604563D01*
X-434020Y-605219D01*
Y-601560D01*
D02*
G37*
G36*
X-477821D02*
X-481480D01*
Y-605219D01*
X-479895Y-604563D01*
X-478477Y-603145D01*
X-477821Y-601560D01*
D02*
G37*
G36*
X-484020D02*
X-487679D01*
X-487023Y-603145D01*
X-485605Y-604563D01*
X-484020Y-605219D01*
Y-601560D01*
D02*
G37*
G36*
X-527821D02*
X-531480D01*
Y-605219D01*
X-529895Y-604563D01*
X-528477Y-603145D01*
X-527821Y-601560D01*
D02*
G37*
G36*
X-534020D02*
X-537679D01*
X-537023Y-603145D01*
X-535605Y-604563D01*
X-534020Y-605219D01*
Y-601560D01*
D02*
G37*
G36*
X-677821D02*
X-681480D01*
Y-605219D01*
X-679895Y-604563D01*
X-678477Y-603145D01*
X-677821Y-601560D01*
D02*
G37*
G36*
X-684020D02*
X-687679D01*
X-687023Y-603145D01*
X-685605Y-604563D01*
X-684020Y-605219D01*
Y-601560D01*
D02*
G37*
G36*
X-727821D02*
X-731480D01*
Y-605219D01*
X-729895Y-604563D01*
X-728477Y-603145D01*
X-727821Y-601560D01*
D02*
G37*
G36*
X-734020D02*
X-737679D01*
X-737023Y-603145D01*
X-735605Y-604563D01*
X-734020Y-605219D01*
Y-601560D01*
D02*
G37*
G36*
X-777821D02*
X-781480D01*
Y-605219D01*
X-779895Y-604563D01*
X-778477Y-603145D01*
X-777821Y-601560D01*
D02*
G37*
G36*
X-784020D02*
X-787679D01*
X-787023Y-603145D01*
X-785605Y-604563D01*
X-784020Y-605219D01*
Y-601560D01*
D02*
G37*
G36*
X-827821D02*
X-831480D01*
Y-605219D01*
X-829895Y-604563D01*
X-828477Y-603145D01*
X-827821Y-601560D01*
D02*
G37*
G36*
X-834020D02*
X-837679D01*
X-837023Y-603145D01*
X-835605Y-604563D01*
X-834020Y-605219D01*
Y-601560D01*
D02*
G37*
G36*
X-805128Y-622520D02*
X-805180D01*
Y-631290D01*
X-796410D01*
Y-631238D01*
X-797094Y-628685D01*
X-798416Y-626395D01*
X-800285Y-624526D01*
X-802575Y-623204D01*
X-805128Y-622520D01*
D02*
G37*
G36*
X-807720D02*
X-807772D01*
X-810325Y-623204D01*
X-812615Y-624526D01*
X-814484Y-626395D01*
X-815806Y-628685D01*
X-816490Y-631238D01*
Y-631290D01*
X-807720D01*
Y-622520D01*
D02*
G37*
G36*
X-796410Y-633830D02*
X-805180D01*
Y-642600D01*
X-805128D01*
X-802575Y-641916D01*
X-800285Y-640594D01*
X-798416Y-638725D01*
X-797094Y-636435D01*
X-796410Y-633882D01*
Y-633830D01*
D02*
G37*
G36*
X-807720D02*
X-816490D01*
Y-633882D01*
X-815806Y-636435D01*
X-814484Y-638725D01*
X-812615Y-640594D01*
X-810325Y-641916D01*
X-807772Y-642600D01*
X-807720D01*
Y-633830D01*
D02*
G37*
G36*
X43520Y-645361D02*
Y-649020D01*
X47179D01*
X46523Y-647435D01*
X45105Y-646017D01*
X43520Y-645361D01*
D02*
G37*
G36*
X40980D02*
X39395Y-646017D01*
X37977Y-647435D01*
X37321Y-649020D01*
X40980D01*
Y-645361D01*
D02*
G37*
G36*
X-6480D02*
Y-649020D01*
X-2821D01*
X-3477Y-647435D01*
X-4895Y-646017D01*
X-6480Y-645361D01*
D02*
G37*
G36*
X-9020D02*
X-10605Y-646017D01*
X-12023Y-647435D01*
X-12679Y-649020D01*
X-9020D01*
Y-645361D01*
D02*
G37*
G36*
X-56480D02*
Y-649020D01*
X-52821D01*
X-53477Y-647435D01*
X-54895Y-646017D01*
X-56480Y-645361D01*
D02*
G37*
G36*
X-59020D02*
X-60605Y-646017D01*
X-62023Y-647435D01*
X-62679Y-649020D01*
X-59020D01*
Y-645361D01*
D02*
G37*
G36*
X-106480D02*
Y-649020D01*
X-102821D01*
X-103477Y-647435D01*
X-104895Y-646017D01*
X-106480Y-645361D01*
D02*
G37*
G36*
X-109020D02*
X-110605Y-646017D01*
X-112023Y-647435D01*
X-112679Y-649020D01*
X-109020D01*
Y-645361D01*
D02*
G37*
G36*
X-156480D02*
Y-649020D01*
X-152821D01*
X-153477Y-647435D01*
X-154895Y-646017D01*
X-156480Y-645361D01*
D02*
G37*
G36*
X-159020D02*
X-160605Y-646017D01*
X-162023Y-647435D01*
X-162679Y-649020D01*
X-159020D01*
Y-645361D01*
D02*
G37*
G36*
X-206480D02*
Y-649020D01*
X-202821D01*
X-203477Y-647435D01*
X-204895Y-646017D01*
X-206480Y-645361D01*
D02*
G37*
G36*
X-209020D02*
X-210605Y-646017D01*
X-212023Y-647435D01*
X-212679Y-649020D01*
X-209020D01*
Y-645361D01*
D02*
G37*
G36*
X-256480D02*
Y-649020D01*
X-252821D01*
X-253477Y-647435D01*
X-254895Y-646017D01*
X-256480Y-645361D01*
D02*
G37*
G36*
X-259020D02*
X-260605Y-646017D01*
X-262023Y-647435D01*
X-262679Y-649020D01*
X-259020D01*
Y-645361D01*
D02*
G37*
G36*
X-306480D02*
Y-649020D01*
X-302821D01*
X-303477Y-647435D01*
X-304895Y-646017D01*
X-306480Y-645361D01*
D02*
G37*
G36*
X-309020D02*
X-310605Y-646017D01*
X-312023Y-647435D01*
X-312679Y-649020D01*
X-309020D01*
Y-645361D01*
D02*
G37*
G36*
X-356480D02*
Y-649020D01*
X-352821D01*
X-353477Y-647435D01*
X-354895Y-646017D01*
X-356480Y-645361D01*
D02*
G37*
G36*
X-359020D02*
X-360605Y-646017D01*
X-362023Y-647435D01*
X-362679Y-649020D01*
X-359020D01*
Y-645361D01*
D02*
G37*
G36*
X-506480D02*
Y-649020D01*
X-502821D01*
X-503477Y-647435D01*
X-504895Y-646017D01*
X-506480Y-645361D01*
D02*
G37*
G36*
X-509020D02*
X-510605Y-646017D01*
X-512023Y-647435D01*
X-512679Y-649020D01*
X-509020D01*
Y-645361D01*
D02*
G37*
G36*
X-556480D02*
Y-649020D01*
X-552821D01*
X-553477Y-647435D01*
X-554895Y-646017D01*
X-556480Y-645361D01*
D02*
G37*
G36*
X-559020D02*
X-560605Y-646017D01*
X-562023Y-647435D01*
X-562679Y-649020D01*
X-559020D01*
Y-645361D01*
D02*
G37*
G36*
X-606480D02*
Y-649020D01*
X-602821D01*
X-603477Y-647435D01*
X-604895Y-646017D01*
X-606480Y-645361D01*
D02*
G37*
G36*
X-609020D02*
X-610605Y-646017D01*
X-612023Y-647435D01*
X-612679Y-649020D01*
X-609020D01*
Y-645361D01*
D02*
G37*
G36*
X-756480D02*
Y-649020D01*
X-752821D01*
X-753477Y-647435D01*
X-754895Y-646017D01*
X-756480Y-645361D01*
D02*
G37*
G36*
X-759020D02*
X-760605Y-646017D01*
X-762023Y-647435D01*
X-762679Y-649020D01*
X-759020D01*
Y-645361D01*
D02*
G37*
G36*
X-806480D02*
Y-649020D01*
X-802821D01*
X-803477Y-647435D01*
X-804895Y-646017D01*
X-806480Y-645361D01*
D02*
G37*
G36*
X-809020D02*
X-810605Y-646017D01*
X-812023Y-647435D01*
X-812679Y-649020D01*
X-809020D01*
Y-645361D01*
D02*
G37*
G36*
X47179Y-651560D02*
X43520D01*
Y-655219D01*
X45105Y-654563D01*
X46523Y-653145D01*
X47179Y-651560D01*
D02*
G37*
G36*
X40980D02*
X37321D01*
X37977Y-653145D01*
X39395Y-654563D01*
X40980Y-655219D01*
Y-651560D01*
D02*
G37*
G36*
X-2821D02*
X-6480D01*
Y-655219D01*
X-4895Y-654563D01*
X-3477Y-653145D01*
X-2821Y-651560D01*
D02*
G37*
G36*
X-9020D02*
X-12679D01*
X-12023Y-653145D01*
X-10605Y-654563D01*
X-9020Y-655219D01*
Y-651560D01*
D02*
G37*
G36*
X-52821D02*
X-56480D01*
Y-655219D01*
X-54895Y-654563D01*
X-53477Y-653145D01*
X-52821Y-651560D01*
D02*
G37*
G36*
X-59020D02*
X-62679D01*
X-62023Y-653145D01*
X-60605Y-654563D01*
X-59020Y-655219D01*
Y-651560D01*
D02*
G37*
G36*
X-102821D02*
X-106480D01*
Y-655219D01*
X-104895Y-654563D01*
X-103477Y-653145D01*
X-102821Y-651560D01*
D02*
G37*
G36*
X-109020D02*
X-112679D01*
X-112023Y-653145D01*
X-110605Y-654563D01*
X-109020Y-655219D01*
Y-651560D01*
D02*
G37*
G36*
X-152821D02*
X-156480D01*
Y-655219D01*
X-154895Y-654563D01*
X-153477Y-653145D01*
X-152821Y-651560D01*
D02*
G37*
G36*
X-159020D02*
X-162679D01*
X-162023Y-653145D01*
X-160605Y-654563D01*
X-159020Y-655219D01*
Y-651560D01*
D02*
G37*
G36*
X-202821D02*
X-206480D01*
Y-655219D01*
X-204895Y-654563D01*
X-203477Y-653145D01*
X-202821Y-651560D01*
D02*
G37*
G36*
X-209020D02*
X-212679D01*
X-212023Y-653145D01*
X-210605Y-654563D01*
X-209020Y-655219D01*
Y-651560D01*
D02*
G37*
G36*
X-252821D02*
X-256480D01*
Y-655219D01*
X-254895Y-654563D01*
X-253477Y-653145D01*
X-252821Y-651560D01*
D02*
G37*
G36*
X-259020D02*
X-262679D01*
X-262023Y-653145D01*
X-260605Y-654563D01*
X-259020Y-655219D01*
Y-651560D01*
D02*
G37*
G36*
X-302821D02*
X-306480D01*
Y-655219D01*
X-304895Y-654563D01*
X-303477Y-653145D01*
X-302821Y-651560D01*
D02*
G37*
G36*
X-309020D02*
X-312679D01*
X-312023Y-653145D01*
X-310605Y-654563D01*
X-309020Y-655219D01*
Y-651560D01*
D02*
G37*
G36*
X-352821D02*
X-356480D01*
Y-655219D01*
X-354895Y-654563D01*
X-353477Y-653145D01*
X-352821Y-651560D01*
D02*
G37*
G36*
X-359020D02*
X-362679D01*
X-362023Y-653145D01*
X-360605Y-654563D01*
X-359020Y-655219D01*
Y-651560D01*
D02*
G37*
G36*
X-502821D02*
X-506480D01*
Y-655219D01*
X-504895Y-654563D01*
X-503477Y-653145D01*
X-502821Y-651560D01*
D02*
G37*
G36*
X-509020D02*
X-512679D01*
X-512023Y-653145D01*
X-510605Y-654563D01*
X-509020Y-655219D01*
Y-651560D01*
D02*
G37*
G36*
X-552821D02*
X-556480D01*
Y-655219D01*
X-554895Y-654563D01*
X-553477Y-653145D01*
X-552821Y-651560D01*
D02*
G37*
G36*
X-559020D02*
X-562679D01*
X-562023Y-653145D01*
X-560605Y-654563D01*
X-559020Y-655219D01*
Y-651560D01*
D02*
G37*
G36*
X-602821D02*
X-606480D01*
Y-655219D01*
X-604895Y-654563D01*
X-603477Y-653145D01*
X-602821Y-651560D01*
D02*
G37*
G36*
X-609020D02*
X-612679D01*
X-612023Y-653145D01*
X-610605Y-654563D01*
X-609020Y-655219D01*
Y-651560D01*
D02*
G37*
G36*
X-702821D02*
X-706480D01*
Y-655219D01*
X-704895Y-654563D01*
X-703477Y-653145D01*
X-702821Y-651560D01*
D02*
G37*
G36*
X-752821D02*
X-756480D01*
Y-655219D01*
X-754895Y-654563D01*
X-753477Y-653145D01*
X-752821Y-651560D01*
D02*
G37*
G36*
X-759020D02*
X-762679D01*
X-762023Y-653145D01*
X-760605Y-654563D01*
X-759020Y-655219D01*
Y-651560D01*
D02*
G37*
G36*
X-802821D02*
X-806480D01*
Y-655219D01*
X-804895Y-654563D01*
X-803477Y-653145D01*
X-802821Y-651560D01*
D02*
G37*
G36*
X-809020D02*
X-812679D01*
X-812023Y-653145D01*
X-810605Y-654563D01*
X-809020Y-655219D01*
Y-651560D01*
D02*
G37*
G36*
X-377565Y-636850D02*
X-379355D01*
X-381009Y-637535D01*
X-382275Y-638801D01*
X-382960Y-640455D01*
Y-642245D01*
X-382275Y-643899D01*
X-381794Y-644380D01*
Y-647670D01*
X-385520D01*
Y-659670D01*
X-371521D01*
Y-647670D01*
X-375126D01*
Y-644380D01*
X-374645Y-643899D01*
X-373960Y-642245D01*
Y-640455D01*
X-374645Y-638801D01*
X-375911Y-637535D01*
X-377565Y-636850D01*
D02*
G37*
G36*
X-396615D02*
X-398405D01*
X-400059Y-637535D01*
X-401325Y-638801D01*
X-402010Y-640455D01*
Y-642245D01*
X-401325Y-643899D01*
X-400844Y-644380D01*
Y-647670D01*
X-404253D01*
Y-659670D01*
X-390253D01*
Y-647670D01*
X-394176D01*
Y-644380D01*
X-393695Y-643899D01*
X-393010Y-642245D01*
Y-640455D01*
X-393695Y-638801D01*
X-394961Y-637535D01*
X-396615Y-636850D01*
D02*
G37*
G36*
X-415665D02*
X-417455D01*
X-419109Y-637535D01*
X-420375Y-638801D01*
X-421060Y-640455D01*
Y-642245D01*
X-420375Y-643899D01*
X-419894Y-644380D01*
Y-647670D01*
X-422985D01*
Y-659670D01*
X-408985D01*
Y-647670D01*
X-413226D01*
Y-644380D01*
X-412745Y-643899D01*
X-412060Y-642245D01*
Y-640455D01*
X-412745Y-638801D01*
X-414011Y-637535D01*
X-415665Y-636850D01*
D02*
G37*
G36*
X-694150Y-658480D02*
X-706150D01*
Y-660447D01*
X-725790D01*
Y-658590D01*
X-739790D01*
Y-660002D01*
X-762480D01*
X-764236Y-660351D01*
X-765724Y-661346D01*
X-803385Y-699006D01*
X-813200D01*
X-814273Y-699220D01*
X-815183Y-699827D01*
X-815790Y-700737D01*
X-816004Y-701810D01*
Y-715310D01*
X-815790Y-716383D01*
X-815183Y-717293D01*
X-814273Y-717900D01*
X-813200Y-718114D01*
X-799700D01*
X-798627Y-717900D01*
X-797717Y-717293D01*
X-797110Y-716383D01*
X-796896Y-715310D01*
Y-705495D01*
X-760580Y-669178D01*
X-739790D01*
Y-670590D01*
X-725790D01*
Y-669623D01*
X-706150D01*
Y-672480D01*
X-694150D01*
Y-658480D01*
D02*
G37*
G36*
X-334010Y-686526D02*
Y-691267D01*
X-329268D01*
X-330159Y-689116D01*
X-331859Y-687417D01*
X-334010Y-686526D01*
D02*
G37*
G36*
X-336550D02*
X-338701Y-687417D01*
X-340401Y-689116D01*
X-341292Y-691267D01*
X-336550D01*
Y-686526D01*
D02*
G37*
G36*
X-661670Y-665972D02*
X-662113Y-666060D01*
X-662565D01*
X-662983Y-666233D01*
X-663426Y-666321D01*
X-663802Y-666572D01*
X-664219Y-666745D01*
X-664538Y-667065D01*
X-664914Y-667316D01*
X-665165Y-667691D01*
X-665485Y-668011D01*
X-665658Y-668428D01*
X-665909Y-668804D01*
X-665997Y-669247D01*
X-666170Y-669665D01*
Y-670117D01*
X-666258Y-670560D01*
Y-680360D01*
X-668670D01*
Y-692360D01*
X-654670D01*
Y-680360D01*
X-657082D01*
Y-670560D01*
X-657170Y-670117D01*
Y-669665D01*
X-657343Y-669247D01*
X-657431Y-668804D01*
X-657682Y-668428D01*
X-657855Y-668011D01*
X-658175Y-667691D01*
X-658426Y-667316D01*
X-658801Y-667065D01*
X-659121Y-666745D01*
X-659538Y-666572D01*
X-659914Y-666321D01*
X-660357Y-666233D01*
X-660775Y-666060D01*
X-661227D01*
X-661670Y-665972D01*
D02*
G37*
G36*
X-329268Y-693807D02*
X-334010D01*
Y-698549D01*
X-331859Y-697658D01*
X-330159Y-695959D01*
X-329268Y-693807D01*
D02*
G37*
G36*
X-336550D02*
X-341292D01*
X-340401Y-695959D01*
X-338701Y-697658D01*
X-336550Y-698549D01*
Y-693807D01*
D02*
G37*
G36*
X18520Y-695361D02*
Y-699020D01*
X22179D01*
X21523Y-697435D01*
X20105Y-696017D01*
X18520Y-695361D01*
D02*
G37*
G36*
X15980D02*
X14395Y-696017D01*
X12977Y-697435D01*
X12321Y-699020D01*
X15980D01*
Y-695361D01*
D02*
G37*
G36*
X-31480D02*
Y-699020D01*
X-27821D01*
X-28477Y-697435D01*
X-29895Y-696017D01*
X-31480Y-695361D01*
D02*
G37*
G36*
X-34020D02*
X-35605Y-696017D01*
X-37023Y-697435D01*
X-37679Y-699020D01*
X-34020D01*
Y-695361D01*
D02*
G37*
G36*
X-131480D02*
Y-699020D01*
X-127821D01*
X-128477Y-697435D01*
X-129895Y-696017D01*
X-131480Y-695361D01*
D02*
G37*
G36*
X-134020D02*
X-135605Y-696017D01*
X-137023Y-697435D01*
X-137679Y-699020D01*
X-134020D01*
Y-695361D01*
D02*
G37*
G36*
X-181480D02*
Y-699020D01*
X-177821D01*
X-178477Y-697435D01*
X-179895Y-696017D01*
X-181480Y-695361D01*
D02*
G37*
G36*
X-184020D02*
X-185605Y-696017D01*
X-187023Y-697435D01*
X-187679Y-699020D01*
X-184020D01*
Y-695361D01*
D02*
G37*
G36*
X-231480D02*
Y-699020D01*
X-227821D01*
X-228477Y-697435D01*
X-229895Y-696017D01*
X-231480Y-695361D01*
D02*
G37*
G36*
X-234020D02*
X-235605Y-696017D01*
X-237023Y-697435D01*
X-237679Y-699020D01*
X-234020D01*
Y-695361D01*
D02*
G37*
G36*
X-281480D02*
Y-699020D01*
X-277821D01*
X-278477Y-697435D01*
X-279895Y-696017D01*
X-281480Y-695361D01*
D02*
G37*
G36*
X-284020D02*
X-285605Y-696017D01*
X-287023Y-697435D01*
X-287679Y-699020D01*
X-284020D01*
Y-695361D01*
D02*
G37*
G36*
X-381480D02*
Y-699020D01*
X-377821D01*
X-378477Y-697435D01*
X-379895Y-696017D01*
X-381480Y-695361D01*
D02*
G37*
G36*
X-384020D02*
X-385605Y-696017D01*
X-387023Y-697435D01*
X-387679Y-699020D01*
X-384020D01*
Y-695361D01*
D02*
G37*
G36*
X-531480D02*
Y-699020D01*
X-527821D01*
X-528477Y-697435D01*
X-529895Y-696017D01*
X-531480Y-695361D01*
D02*
G37*
G36*
X-534020D02*
X-535605Y-696017D01*
X-537023Y-697435D01*
X-537679Y-699020D01*
X-534020D01*
Y-695361D01*
D02*
G37*
G36*
X-681480D02*
Y-699020D01*
X-677821D01*
X-678477Y-697435D01*
X-679895Y-696017D01*
X-681480Y-695361D01*
D02*
G37*
G36*
X-684020D02*
X-685605Y-696017D01*
X-687023Y-697435D01*
X-687679Y-699020D01*
X-684020D01*
Y-695361D01*
D02*
G37*
G36*
X-781480D02*
Y-699020D01*
X-777821D01*
X-778477Y-697435D01*
X-779895Y-696017D01*
X-781480Y-695361D01*
D02*
G37*
G36*
X-784020D02*
X-785605Y-696017D01*
X-787023Y-697435D01*
X-787679Y-699020D01*
X-784020D01*
Y-695361D01*
D02*
G37*
G36*
X-831480D02*
Y-699020D01*
X-827821D01*
X-828477Y-697435D01*
X-829895Y-696017D01*
X-831480Y-695361D01*
D02*
G37*
G36*
X-834020D02*
X-835605Y-696017D01*
X-837023Y-697435D01*
X-837679Y-699020D01*
X-834020D01*
Y-695361D01*
D02*
G37*
G36*
X22179Y-701560D02*
X18520D01*
Y-705219D01*
X20105Y-704563D01*
X21523Y-703145D01*
X22179Y-701560D01*
D02*
G37*
G36*
X15980D02*
X12321D01*
X12977Y-703145D01*
X14395Y-704563D01*
X15980Y-705219D01*
Y-701560D01*
D02*
G37*
G36*
X-27821D02*
X-31480D01*
Y-705219D01*
X-29895Y-704563D01*
X-28477Y-703145D01*
X-27821Y-701560D01*
D02*
G37*
G36*
X-34020D02*
X-37679D01*
X-37023Y-703145D01*
X-35605Y-704563D01*
X-34020Y-705219D01*
Y-701560D01*
D02*
G37*
G36*
X-127821D02*
X-131480D01*
Y-705219D01*
X-129895Y-704563D01*
X-128477Y-703145D01*
X-127821Y-701560D01*
D02*
G37*
G36*
X-134020D02*
X-137679D01*
X-137023Y-703145D01*
X-135605Y-704563D01*
X-134020Y-705219D01*
Y-701560D01*
D02*
G37*
G36*
X-177821D02*
X-181480D01*
Y-705219D01*
X-179895Y-704563D01*
X-178477Y-703145D01*
X-177821Y-701560D01*
D02*
G37*
G36*
X-184020D02*
X-187679D01*
X-187023Y-703145D01*
X-185605Y-704563D01*
X-184020Y-705219D01*
Y-701560D01*
D02*
G37*
G36*
X-227821D02*
X-231480D01*
Y-705219D01*
X-229895Y-704563D01*
X-228477Y-703145D01*
X-227821Y-701560D01*
D02*
G37*
G36*
X-234020D02*
X-237679D01*
X-237023Y-703145D01*
X-235605Y-704563D01*
X-234020Y-705219D01*
Y-701560D01*
D02*
G37*
G36*
X-277821D02*
X-281480D01*
Y-705219D01*
X-279895Y-704563D01*
X-278477Y-703145D01*
X-277821Y-701560D01*
D02*
G37*
G36*
X-284020D02*
X-287679D01*
X-287023Y-703145D01*
X-285605Y-704563D01*
X-284020Y-705219D01*
Y-701560D01*
D02*
G37*
G36*
X-377821D02*
X-381480D01*
Y-705219D01*
X-379895Y-704563D01*
X-378477Y-703145D01*
X-377821Y-701560D01*
D02*
G37*
G36*
X-384020D02*
X-387679D01*
X-387023Y-703145D01*
X-385605Y-704563D01*
X-384020Y-705219D01*
Y-701560D01*
D02*
G37*
G36*
X-527821D02*
X-531480D01*
Y-705219D01*
X-529895Y-704563D01*
X-528477Y-703145D01*
X-527821Y-701560D01*
D02*
G37*
G36*
X-534020D02*
X-537679D01*
X-537023Y-703145D01*
X-535605Y-704563D01*
X-534020Y-705219D01*
Y-701560D01*
D02*
G37*
G36*
X-677821D02*
X-681480D01*
Y-705219D01*
X-679895Y-704563D01*
X-678477Y-703145D01*
X-677821Y-701560D01*
D02*
G37*
G36*
X-684020D02*
X-687679D01*
X-687023Y-703145D01*
X-685605Y-704563D01*
X-684020Y-705219D01*
Y-701560D01*
D02*
G37*
G36*
X-777821D02*
X-781480D01*
Y-705219D01*
X-779895Y-704563D01*
X-778477Y-703145D01*
X-777821Y-701560D01*
D02*
G37*
G36*
X-784020D02*
X-787679D01*
X-787023Y-703145D01*
X-785605Y-704563D01*
X-784020Y-705219D01*
Y-701560D01*
D02*
G37*
G36*
X-827821D02*
X-831480D01*
Y-705219D01*
X-829895Y-704563D01*
X-828477Y-703145D01*
X-827821Y-701560D01*
D02*
G37*
G36*
X-834020D02*
X-837679D01*
X-837023Y-703145D01*
X-835605Y-704563D01*
X-834020Y-705219D01*
Y-701560D01*
D02*
G37*
G36*
X-93890Y-680320D02*
X-97830D01*
X-101694Y-681089D01*
X-105333Y-682596D01*
X-108609Y-684785D01*
X-111395Y-687571D01*
X-113584Y-690846D01*
X-115091Y-694486D01*
X-115860Y-698350D01*
Y-702290D01*
X-115091Y-706154D01*
X-113584Y-709793D01*
X-111395Y-713069D01*
X-108609Y-715855D01*
X-105333Y-718044D01*
X-101694Y-719551D01*
X-97830Y-720320D01*
X-93890D01*
X-90026Y-719551D01*
X-86386Y-718044D01*
X-83111Y-715855D01*
X-80325Y-713069D01*
X-78136Y-709793D01*
X-76629Y-706154D01*
X-75860Y-702290D01*
Y-698350D01*
X-76629Y-694486D01*
X-78136Y-690846D01*
X-80325Y-687571D01*
X-83111Y-684785D01*
X-86386Y-682596D01*
X-90026Y-681089D01*
X-93890Y-680320D01*
D02*
G37*
G36*
X-723890D02*
X-727830D01*
X-731694Y-681089D01*
X-735333Y-682596D01*
X-738609Y-684785D01*
X-741395Y-687571D01*
X-743584Y-690846D01*
X-745091Y-694486D01*
X-745860Y-698350D01*
Y-702290D01*
X-745091Y-706154D01*
X-743584Y-709793D01*
X-741395Y-713069D01*
X-738609Y-715855D01*
X-735333Y-718044D01*
X-731694Y-719551D01*
X-727830Y-720320D01*
X-723890D01*
X-720026Y-719551D01*
X-716386Y-718044D01*
X-713111Y-715855D01*
X-710325Y-713069D01*
X-708136Y-709793D01*
X-706629Y-706154D01*
X-705860Y-702290D01*
Y-698350D01*
X-706629Y-694486D01*
X-708136Y-690846D01*
X-710325Y-687571D01*
X-713111Y-684785D01*
X-716386Y-682596D01*
X-720026Y-681089D01*
X-723890Y-680320D01*
D02*
G37*
G36*
X-609037Y-717395D02*
X-609220D01*
Y-727165D01*
X-599450D01*
Y-726982D01*
X-600202Y-724174D01*
X-601656Y-721657D01*
X-603711Y-719601D01*
X-606229Y-718148D01*
X-609037Y-717395D01*
D02*
G37*
G36*
X-611760D02*
X-611944D01*
X-614751Y-718148D01*
X-617269Y-719601D01*
X-619324Y-721657D01*
X-620778Y-724174D01*
X-621530Y-726982D01*
Y-727165D01*
X-611760D01*
Y-717395D01*
D02*
G37*
G36*
X-477858Y-723900D02*
X-482600D01*
Y-728642D01*
X-480449Y-727750D01*
X-478750Y-726051D01*
X-477858Y-723900D01*
D02*
G37*
G36*
X60922Y-723000D02*
X59078D01*
X57298Y-723477D01*
X55702Y-724399D01*
X54399Y-725702D01*
X53477Y-727298D01*
X53000Y-729078D01*
Y-730922D01*
X53477Y-732702D01*
X54399Y-734298D01*
X55702Y-735601D01*
X57298Y-736523D01*
X59078Y-737000D01*
X60922D01*
X62702Y-736523D01*
X64298Y-735601D01*
X65601Y-734298D01*
X66523Y-732702D01*
X67000Y-730922D01*
Y-729078D01*
X66523Y-727298D01*
X65601Y-725702D01*
X64298Y-724399D01*
X62702Y-723477D01*
X60922Y-723000D01*
D02*
G37*
G36*
X-849078D02*
X-850922D01*
X-852702Y-723477D01*
X-854298Y-724399D01*
X-855601Y-725702D01*
X-856523Y-727298D01*
X-857000Y-729078D01*
Y-730922D01*
X-856523Y-732702D01*
X-855601Y-734298D01*
X-854298Y-735601D01*
X-852702Y-736523D01*
X-850922Y-737000D01*
X-849078D01*
X-847298Y-736523D01*
X-845702Y-735601D01*
X-844399Y-734298D01*
X-843477Y-732702D01*
X-843000Y-730922D01*
Y-729078D01*
X-843477Y-727298D01*
X-844399Y-725702D01*
X-845702Y-724399D01*
X-847298Y-723477D01*
X-849078Y-723000D01*
D02*
G37*
G36*
X-532908Y-717935D02*
X-535672D01*
X-538343Y-718651D01*
X-540737Y-720033D01*
X-542692Y-721988D01*
X-544074Y-724383D01*
X-544790Y-727053D01*
Y-729818D01*
X-544074Y-732488D01*
X-542692Y-734883D01*
X-540737Y-736837D01*
X-538343Y-738220D01*
X-535672Y-738935D01*
X-532908D01*
X-530237Y-738220D01*
X-527843Y-736837D01*
X-525888Y-734883D01*
X-524506Y-732488D01*
X-523790Y-729818D01*
Y-727053D01*
X-524506Y-724383D01*
X-525888Y-721988D01*
X-527843Y-720033D01*
X-530237Y-718651D01*
X-532908Y-717935D01*
D02*
G37*
G36*
X-558308D02*
X-561072D01*
X-563743Y-718651D01*
X-566137Y-720033D01*
X-568092Y-721988D01*
X-569474Y-724383D01*
X-570190Y-727053D01*
Y-729818D01*
X-569474Y-732488D01*
X-568092Y-734883D01*
X-566137Y-736837D01*
X-563743Y-738220D01*
X-561072Y-738935D01*
X-558308D01*
X-555637Y-738220D01*
X-553243Y-736837D01*
X-551288Y-734883D01*
X-549906Y-732488D01*
X-549190Y-729818D01*
Y-727053D01*
X-549906Y-724383D01*
X-551288Y-721988D01*
X-553243Y-720033D01*
X-555637Y-718651D01*
X-558308Y-717935D01*
D02*
G37*
G36*
X-578090Y-697036D02*
X-592090D01*
Y-709035D01*
X-588424D01*
Y-718458D01*
X-589143Y-718651D01*
X-591537Y-720033D01*
X-593492Y-721988D01*
X-594874Y-724383D01*
X-595590Y-727053D01*
Y-729818D01*
X-594874Y-732488D01*
X-593492Y-734883D01*
X-591537Y-736837D01*
X-589143Y-738220D01*
X-586472Y-738935D01*
X-583708D01*
X-581037Y-738220D01*
X-578643Y-736837D01*
X-576688Y-734883D01*
X-575306Y-732488D01*
X-574590Y-729818D01*
Y-727053D01*
X-575306Y-724383D01*
X-576688Y-721988D01*
X-578643Y-720033D01*
X-581037Y-718651D01*
X-581756Y-718458D01*
Y-709035D01*
X-578090D01*
Y-697036D01*
D02*
G37*
G36*
X-628890Y-697415D02*
X-642890D01*
Y-709415D01*
X-639224D01*
Y-718458D01*
X-639943Y-718651D01*
X-642337Y-720033D01*
X-644292Y-721988D01*
X-645674Y-724383D01*
X-646390Y-727053D01*
Y-729818D01*
X-645674Y-732488D01*
X-644292Y-734883D01*
X-642337Y-736837D01*
X-639943Y-738220D01*
X-637272Y-738935D01*
X-634508D01*
X-631837Y-738220D01*
X-629443Y-736837D01*
X-627488Y-734883D01*
X-626106Y-732488D01*
X-625390Y-729818D01*
Y-727053D01*
X-626106Y-724383D01*
X-627488Y-721988D01*
X-629443Y-720033D01*
X-631837Y-718651D01*
X-632556Y-718458D01*
Y-709415D01*
X-628890D01*
Y-697415D01*
D02*
G37*
G36*
X-599450Y-729705D02*
X-609220D01*
Y-739475D01*
X-609037D01*
X-606229Y-738723D01*
X-603711Y-737270D01*
X-601656Y-735214D01*
X-600202Y-732697D01*
X-599450Y-729889D01*
Y-729705D01*
D02*
G37*
G36*
X-611760D02*
X-621530D01*
Y-729889D01*
X-620778Y-732697D01*
X-619324Y-735214D01*
X-617269Y-737270D01*
X-614751Y-738723D01*
X-611944Y-739475D01*
X-611760D01*
Y-729705D01*
D02*
G37*
G36*
X-304000Y-700320D02*
X-307940D01*
X-311804Y-701089D01*
X-315443Y-702596D01*
X-318719Y-704785D01*
X-321505Y-707571D01*
X-323694Y-710846D01*
X-325201Y-714486D01*
X-325970Y-718350D01*
Y-722290D01*
X-325201Y-726154D01*
X-323694Y-729793D01*
X-321505Y-733069D01*
X-318719Y-735855D01*
X-315443Y-738044D01*
X-311804Y-739551D01*
X-307940Y-740320D01*
X-304000D01*
X-300136Y-739551D01*
X-296497Y-738044D01*
X-293221Y-735855D01*
X-290435Y-733069D01*
X-288246Y-729793D01*
X-286739Y-726154D01*
X-285970Y-722290D01*
Y-718350D01*
X-286739Y-714486D01*
X-288246Y-710846D01*
X-290435Y-707571D01*
X-293221Y-704785D01*
X-296497Y-702596D01*
X-300136Y-701089D01*
X-304000Y-700320D01*
D02*
G37*
G36*
X-371521Y-663670D02*
X-385520D01*
Y-675670D01*
X-383109D01*
Y-681929D01*
X-382759Y-683685D01*
X-381765Y-685174D01*
X-365648Y-701291D01*
Y-728330D01*
X-367060D01*
Y-742330D01*
X-355060D01*
Y-728330D01*
X-356472D01*
Y-699390D01*
X-356821Y-697634D01*
X-357816Y-696146D01*
X-373932Y-680029D01*
Y-675670D01*
X-371521D01*
Y-663670D01*
D02*
G37*
G36*
X-390253D02*
X-404253D01*
Y-675670D01*
X-400256D01*
Y-728330D01*
X-401668D01*
Y-742330D01*
X-389668D01*
Y-728330D01*
X-391079D01*
Y-675670D01*
X-390253D01*
Y-663670D01*
D02*
G37*
G36*
X-408985D02*
X-422985D01*
Y-675670D01*
X-420574D01*
Y-680785D01*
X-433774Y-693986D01*
X-434769Y-695474D01*
X-435118Y-697230D01*
Y-728330D01*
X-436275D01*
Y-742330D01*
X-424275D01*
Y-728330D01*
X-425942D01*
Y-699130D01*
X-412741Y-685930D01*
X-411746Y-684441D01*
X-411397Y-682685D01*
Y-675670D01*
X-408985D01*
Y-663670D01*
D02*
G37*
%LPD*%
G36*
X-668020Y29210D02*
Y22946D01*
X-668379Y21825D01*
X-680379D01*
Y7825D01*
X-681525Y7525D01*
X-728998D01*
X-730099Y7935D01*
X-730099Y8795D01*
Y21935D01*
X-742099D01*
Y18233D01*
X-750529Y18212D01*
X-751428Y19109D01*
Y22461D01*
X-763428D01*
Y8461D01*
X-751428D01*
Y11582D01*
X-742998Y11604D01*
X-742099Y10707D01*
Y7935D01*
X-742099D01*
X-742362Y6774D01*
X-742514Y6569D01*
X-743292D01*
X-744947Y5884D01*
X-746212Y4618D01*
X-746892Y2977D01*
X-749255Y614D01*
X-753348D01*
Y2791D01*
X-767348D01*
Y198D01*
X-771899D01*
Y2885D01*
X-785899D01*
Y-9115D01*
X-771899D01*
Y-6429D01*
X-767348D01*
Y-9209D01*
X-753348D01*
Y-6013D01*
X-747882D01*
X-746614Y-5761D01*
X-745539Y-5042D01*
X-742928Y-2431D01*
X-741502D01*
X-740179Y-1883D01*
X-738909Y-2466D01*
Y-8288D01*
X-724909D01*
Y-5602D01*
X-716699D01*
Y-11115D01*
X-704699D01*
Y898D01*
X-700699D01*
Y-11115D01*
X-688699D01*
Y-7429D01*
X-683029D01*
Y-8845D01*
X-673715D01*
X-668954Y-13606D01*
X-669511Y-14845D01*
X-683029D01*
Y-15979D01*
X-715986D01*
X-716544Y-16090D01*
X-717996D01*
X-719253Y-15840D01*
X-724909D01*
Y-14289D01*
X-738909D01*
Y-15161D01*
X-753348D01*
Y-13209D01*
X-767348D01*
Y-25209D01*
X-753348D01*
Y-24337D01*
X-738909D01*
Y-26288D01*
X-724909D01*
Y-25016D01*
X-721902D01*
X-720666Y-26253D01*
X-718644Y-27090D01*
X-716456D01*
X-714435Y-26253D01*
X-713337Y-25155D01*
X-683029D01*
Y-26845D01*
X-669029D01*
X-668020Y-27476D01*
Y-34290D01*
X-783590D01*
Y-104140D01*
X-683260D01*
Y-175260D01*
X-726440D01*
Y-262890D01*
X-726440Y-279400D01*
X-709930Y-295910D01*
X-702310Y-303530D01*
X-689610D01*
Y-318770D01*
X-717550D01*
X-730250Y-306070D01*
X-756920D01*
Y-295910D01*
Y-247650D01*
X-802640Y-247649D01*
X-802640Y-190500D01*
X-849630Y-143510D01*
Y-27940D01*
X-844550Y-22860D01*
X-821690D01*
X-798830Y0D01*
Y22860D01*
X-789940Y31750D01*
X-670560D01*
X-668020Y29210D01*
D02*
G37*
G36*
X-645452Y-44064D02*
X-646722Y-44189D01*
X-646854Y-43525D01*
X-647061Y-42484D01*
X-648175Y-40816D01*
X-649842Y-39702D01*
X-650538Y-39564D01*
Y-44450D01*
Y-49336D01*
X-649842Y-49198D01*
X-648175Y-48084D01*
X-647061Y-46417D01*
X-646854Y-45375D01*
X-646722Y-44711D01*
X-645452Y-44836D01*
Y-56920D01*
X-655288D01*
Y-76420D01*
X-645452D01*
Y-88900D01*
X-748030D01*
Y-36999D01*
X-658882D01*
Y-23029D01*
X-645452D01*
Y-44064D01*
D02*
G37*
G36*
X-368300Y-293370D02*
Y-311090D01*
Y-321286D01*
X-369473Y-321772D01*
X-372293Y-318953D01*
X-373374Y-318230D01*
X-374650Y-317976D01*
X-415570D01*
X-416846Y-318230D01*
X-417927Y-318952D01*
X-430327Y-331353D01*
X-431050Y-332434D01*
X-431304Y-333710D01*
Y-353919D01*
X-433516Y-356131D01*
X-434923Y-355830D01*
X-435065Y-355606D01*
X-434986Y-355210D01*
X-435239Y-353942D01*
X-435957Y-352867D01*
X-437032Y-352149D01*
X-438300Y-351896D01*
X-442716D01*
Y-338211D01*
X-389779Y-285274D01*
X-376396D01*
X-368300Y-293370D01*
D02*
G37*
G36*
X-405777Y-256282D02*
X-441191Y-291696D01*
X-485530D01*
X-486806Y-291950D01*
X-487888Y-292673D01*
X-503947Y-308732D01*
X-504670Y-309814D01*
X-504924Y-311090D01*
Y-324242D01*
X-506194Y-324595D01*
X-506707Y-323827D01*
X-511256Y-319277D01*
Y-315610D01*
X-508570D01*
Y-301610D01*
X-520570D01*
Y-315610D01*
X-517884D01*
Y-320650D01*
X-517632Y-321918D01*
X-516913Y-322993D01*
X-512364Y-327542D01*
Y-334460D01*
Y-342210D01*
Y-349960D01*
X-512364Y-349961D01*
Y-351411D01*
X-515090D01*
X-515287Y-351450D01*
X-515488Y-351450D01*
X-515673Y-351487D01*
X-515848Y-351559D01*
X-516033Y-351594D01*
X-516033Y-351594D01*
X-516044Y-351601D01*
X-516056Y-351603D01*
X-516223Y-351715D01*
X-516409Y-351792D01*
X-516409Y-351792D01*
X-516566Y-351897D01*
X-516691Y-352022D01*
X-516700Y-352028D01*
X-516707Y-352038D01*
X-516708Y-352038D01*
X-516718Y-352045D01*
X-516718Y-352045D01*
X-517946Y-352206D01*
X-518032Y-352149D01*
X-519300Y-351896D01*
X-534678D01*
X-534780Y-351876D01*
X-555889D01*
X-561340Y-346425D01*
Y-316230D01*
X-578303Y-299267D01*
X-578935Y-297741D01*
X-580201Y-296475D01*
X-581855Y-295790D01*
X-583645D01*
X-585299Y-296475D01*
X-586004Y-297180D01*
X-701040D01*
X-701040Y-255270D01*
X-431800Y-255270D01*
X-406561D01*
X-405777Y-256282D01*
D02*
G37*
G36*
X-510609Y-313571D02*
X-511256D01*
X-512037Y-313726D01*
X-512699Y-314168D01*
X-513140Y-314830D01*
X-513296Y-315610D01*
Y-319277D01*
X-513296Y-319277D01*
X-513140Y-320058D01*
X-512699Y-320719D01*
X-512698Y-320719D01*
X-508291Y-325127D01*
X-507889Y-325728D01*
X-507834Y-325783D01*
X-507799Y-325852D01*
X-507555Y-326062D01*
X-507327Y-326291D01*
X-507255Y-326320D01*
X-507196Y-326371D01*
X-506889Y-326472D01*
X-506591Y-326595D01*
X-506514D01*
X-506440Y-326619D01*
X-506118Y-326595D01*
X-505796D01*
X-504670Y-326749D01*
X-503947Y-327831D01*
X-502664Y-329114D01*
X-502728Y-330433D01*
X-503731Y-331210D01*
X-504050Y-331146D01*
X-505318Y-331399D01*
X-506393Y-332117D01*
X-507111Y-333192D01*
X-507364Y-334460D01*
Y-349960D01*
X-507111Y-351228D01*
X-506393Y-352303D01*
X-505318Y-353021D01*
X-504050Y-353274D01*
X-502782Y-353021D01*
X-501707Y-352303D01*
X-501393D01*
X-500318Y-353021D01*
X-499050Y-353274D01*
X-497782Y-353021D01*
X-496707Y-352303D01*
X-496393D01*
X-495318Y-353021D01*
X-494050Y-353274D01*
X-492782Y-353021D01*
X-491707Y-352303D01*
X-491393D01*
X-490318Y-353021D01*
X-489050Y-353274D01*
X-487782Y-353021D01*
X-486707Y-352303D01*
X-486393D01*
X-485318Y-353021D01*
X-484050Y-353274D01*
X-482782Y-353021D01*
X-481707Y-352303D01*
X-481393D01*
X-480318Y-353021D01*
X-479050Y-353274D01*
X-477782Y-353021D01*
X-476707Y-352303D01*
X-476393D01*
X-475318Y-353021D01*
X-474050Y-353274D01*
X-472782Y-353021D01*
X-471707Y-352303D01*
X-471393D01*
X-470318Y-353021D01*
X-469050Y-353274D01*
X-467782Y-353021D01*
X-466707Y-352303D01*
X-466393D01*
X-465318Y-353021D01*
X-464050Y-353274D01*
X-462782Y-353021D01*
X-461707Y-352303D01*
X-461393D01*
X-460318Y-353021D01*
X-459050Y-353274D01*
X-457782Y-353021D01*
X-457767Y-353012D01*
X-456852Y-353927D01*
X-456861Y-353942D01*
X-457114Y-355210D01*
X-456861Y-356478D01*
X-456704Y-356714D01*
D01*
X-456143Y-357553D01*
Y-357867D01*
X-456861Y-358942D01*
X-457114Y-360210D01*
X-456861Y-361478D01*
X-456143Y-362553D01*
Y-362867D01*
X-456861Y-363942D01*
X-457114Y-365210D01*
X-456861Y-366478D01*
X-456143Y-367553D01*
Y-367867D01*
D01*
X-456861Y-368942D01*
X-457114Y-370210D01*
X-456861Y-371478D01*
X-456143Y-372553D01*
X-455068Y-373271D01*
X-453800Y-373524D01*
X-446152D01*
X-446050Y-373544D01*
X-428945D01*
X-427669Y-373290D01*
X-426587Y-372567D01*
X-423224Y-369204D01*
X-418480D01*
Y-371144D01*
X-419738D01*
X-421014Y-371398D01*
X-422095Y-372121D01*
X-425604Y-375630D01*
X-426284D01*
X-427938Y-376315D01*
X-428499Y-376876D01*
X-446049D01*
X-446050Y-376876D01*
X-446050D01*
X-446153Y-376896D01*
X-453800D01*
X-455068Y-377149D01*
X-456143Y-377867D01*
X-456861Y-378942D01*
X-457114Y-380210D01*
X-456861Y-381478D01*
X-456704Y-381714D01*
D01*
X-456143Y-382553D01*
Y-382867D01*
X-456861Y-383942D01*
X-457114Y-385210D01*
X-456861Y-386478D01*
X-456143Y-387553D01*
Y-387867D01*
D01*
X-456861Y-388942D01*
X-457114Y-390210D01*
X-456861Y-391478D01*
X-456143Y-392553D01*
Y-392867D01*
X-456861Y-393942D01*
X-457114Y-395210D01*
X-456861Y-396478D01*
X-456143Y-397553D01*
Y-397867D01*
D01*
X-456861Y-398942D01*
X-457114Y-400210D01*
X-456861Y-401478D01*
X-456143Y-402553D01*
Y-402867D01*
D01*
X-456861Y-403942D01*
X-457114Y-405210D01*
X-456861Y-406478D01*
X-456144Y-407551D01*
X-456184Y-407663D01*
X-456218Y-407709D01*
X-456617Y-408532D01*
D01*
X-456640Y-408579D01*
X-456640Y-408579D01*
X-456695Y-408692D01*
Y-408693D01*
D01*
X-456861Y-408942D01*
X-456940Y-409340D01*
X-456941Y-409340D01*
X-457114Y-410210D01*
X-456862Y-411474D01*
X-456865Y-411487D01*
D01*
D01*
D01*
X-456879Y-411520D01*
X-457020Y-411662D01*
D01*
X-457767Y-412408D01*
X-457767Y-412408D01*
X-457782Y-412399D01*
X-459050Y-412146D01*
X-459448Y-412225D01*
X-459448D01*
X-459448Y-412225D01*
X-460318Y-412399D01*
X-460655Y-412624D01*
X-460656Y-412624D01*
X-460844Y-412750D01*
X-461045D01*
X-461114Y-412764D01*
X-461300Y-412841D01*
X-461497Y-412880D01*
X-461663Y-412991D01*
X-461849Y-413068D01*
X-461991Y-413210D01*
X-462158Y-413322D01*
X-462270Y-413489D01*
X-462412Y-413631D01*
X-462489Y-413816D01*
X-462600Y-413983D01*
X-462639Y-414180D01*
X-462716Y-414366D01*
Y-414567D01*
X-462755Y-414764D01*
Y-423210D01*
X-462775Y-423311D01*
Y-438766D01*
X-462776Y-438766D01*
X-462620Y-439547D01*
X-462178Y-440208D01*
X-457725Y-444662D01*
X-457655Y-444766D01*
X-457513Y-444908D01*
X-457401Y-445075D01*
X-452175Y-450301D01*
X-457777Y-455902D01*
X-461555Y-452125D01*
X-462216Y-451683D01*
X-462997Y-451527D01*
X-463777Y-451683D01*
X-463777Y-451683D01*
X-464950Y-452169D01*
X-464950Y-452169D01*
X-465612Y-452611D01*
X-466054Y-453272D01*
X-466209Y-454053D01*
Y-462051D01*
X-475456D01*
Y-442450D01*
X-474975Y-441969D01*
X-474290Y-440315D01*
Y-438525D01*
X-474975Y-436871D01*
X-475503Y-436343D01*
X-475443Y-434985D01*
X-474426Y-434199D01*
X-474050Y-434274D01*
X-472782Y-434021D01*
X-471707Y-433303D01*
X-471393D01*
X-470318Y-434021D01*
X-469050Y-434274D01*
X-467782Y-434021D01*
X-466707Y-433303D01*
X-465989Y-432228D01*
X-465736Y-430960D01*
Y-415460D01*
X-465989Y-414192D01*
X-466707Y-413117D01*
X-467256Y-412750D01*
X-467782Y-412399D01*
X-469050Y-412146D01*
X-470318Y-412399D01*
X-471393Y-413117D01*
X-471707D01*
X-472256Y-412750D01*
X-472782Y-412399D01*
X-474050Y-412146D01*
X-475318Y-412399D01*
X-476393Y-413117D01*
X-476707D01*
X-477256Y-412750D01*
X-477782Y-412399D01*
X-479050Y-412146D01*
X-480318Y-412399D01*
X-481393Y-413117D01*
X-481707D01*
X-482256Y-412750D01*
X-482782Y-412399D01*
X-484050Y-412146D01*
X-485318Y-412399D01*
X-486393Y-413117D01*
X-486707D01*
X-487256Y-412750D01*
X-487782Y-412399D01*
X-489050Y-412146D01*
X-490318Y-412399D01*
X-491393Y-413117D01*
X-491707D01*
X-492256Y-412750D01*
X-492782Y-412399D01*
X-494050Y-412146D01*
X-495318Y-412399D01*
X-496393Y-413117D01*
X-496707D01*
X-497256Y-412750D01*
X-497782Y-412399D01*
X-499050Y-412146D01*
X-500318Y-412399D01*
X-501393Y-413117D01*
X-501707D01*
X-502256Y-412750D01*
X-502782Y-412399D01*
X-504050Y-412146D01*
X-505318Y-412399D01*
X-506393Y-413117D01*
X-506707D01*
X-507256Y-412750D01*
X-507782Y-412399D01*
X-509050Y-412146D01*
X-510318Y-412399D01*
X-511393Y-413117D01*
X-511707D01*
X-512256Y-412750D01*
X-512782Y-412399D01*
X-514050Y-412146D01*
X-515272Y-412389D01*
X-515295Y-412394D01*
X-515300Y-412389D01*
X-515343Y-412326D01*
X-515555Y-411885D01*
X-515672Y-411730D01*
X-515738Y-411592D01*
X-515838Y-411493D01*
X-515924Y-411362D01*
X-515928Y-411353D01*
Y-411353D01*
X-515932Y-411344D01*
X-515940Y-411325D01*
X-515945Y-411286D01*
X-515947Y-411272D01*
X-515947Y-411272D01*
X-515950Y-411250D01*
D01*
Y-408523D01*
X-516105Y-407743D01*
X-516548Y-407082D01*
X-517209Y-406640D01*
X-517989Y-406484D01*
X-519299D01*
X-519300Y-406484D01*
X-541025D01*
X-541025Y-406484D01*
X-541806Y-406640D01*
X-542467Y-407082D01*
X-542467Y-407082D01*
X-546613Y-411227D01*
X-546613Y-411227D01*
X-547055Y-411889D01*
X-547210Y-412669D01*
X-547055Y-413450D01*
X-546613Y-414111D01*
X-546156Y-414569D01*
X-553171Y-421585D01*
X-557894Y-416861D01*
Y-415105D01*
X-551757Y-408968D01*
X-551299Y-409425D01*
X-550638Y-409867D01*
X-549857Y-410022D01*
X-549077Y-409867D01*
X-548415Y-409425D01*
X-546216Y-407226D01*
X-546196Y-407196D01*
X-546167Y-407175D01*
X-545976Y-406867D01*
X-545774Y-406564D01*
X-545767Y-406529D01*
X-545748Y-406499D01*
X-545690Y-406140D01*
X-545619Y-405784D01*
X-545626Y-405749D01*
X-545620Y-405714D01*
X-545703Y-405360D01*
X-545774Y-405004D01*
X-545851Y-404727D01*
X-545042Y-403544D01*
X-534780D01*
X-534677Y-403524D01*
X-519300D01*
X-518032Y-403271D01*
X-516957Y-402553D01*
X-516239Y-401478D01*
X-515986Y-400210D01*
X-516239Y-398942D01*
X-516957Y-397867D01*
Y-397553D01*
X-516239Y-396478D01*
X-515986Y-395210D01*
X-516239Y-393942D01*
X-516957Y-392867D01*
Y-392553D01*
X-516239Y-391478D01*
X-515986Y-390210D01*
X-516239Y-388942D01*
X-516957Y-387867D01*
Y-387553D01*
X-516239Y-386478D01*
X-515986Y-385210D01*
X-516239Y-383942D01*
X-516957Y-382867D01*
Y-382553D01*
X-516239Y-381478D01*
X-515986Y-380210D01*
X-516239Y-378942D01*
X-516957Y-377867D01*
Y-377553D01*
X-516239Y-376478D01*
X-515986Y-375210D01*
X-516239Y-373942D01*
X-516957Y-372867D01*
Y-372553D01*
X-516239Y-371478D01*
X-515986Y-370210D01*
X-516239Y-368942D01*
X-516957Y-367867D01*
Y-367553D01*
X-516239Y-366478D01*
X-515986Y-365210D01*
X-516239Y-363942D01*
X-516957Y-362867D01*
Y-362553D01*
X-516239Y-361478D01*
X-515986Y-360210D01*
X-516239Y-358942D01*
X-516957Y-357867D01*
Y-357553D01*
X-516239Y-356478D01*
X-515986Y-355210D01*
X-515990Y-355194D01*
X-515950Y-354241D01*
Y-354109D01*
X-515945Y-354104D01*
X-515937Y-353929D01*
X-515826Y-353855D01*
X-515700Y-353812D01*
X-515650Y-353769D01*
X-515594Y-353746D01*
X-515591Y-353743D01*
X-515584Y-353741D01*
X-515575Y-353734D01*
X-515433Y-353592D01*
X-515276Y-353487D01*
X-515276Y-353487D01*
X-515275Y-353487D01*
X-515090Y-353450D01*
X-512364D01*
X-511583Y-353295D01*
X-510922Y-352853D01*
X-510480Y-352191D01*
X-510324Y-351411D01*
Y-349961D01*
X-510325Y-349960D01*
Y-343834D01*
X-510282Y-343771D01*
X-509972Y-342210D01*
Y-335960D01*
X-510282Y-334399D01*
X-510325Y-334336D01*
Y-327543D01*
X-510325Y-327542D01*
X-510480Y-326762D01*
X-510922Y-326101D01*
X-510922Y-326101D01*
X-515329Y-321693D01*
X-515711Y-321122D01*
X-515845Y-320449D01*
Y-315610D01*
X-516000Y-314830D01*
X-516442Y-314168D01*
X-517104Y-313726D01*
X-517884Y-313571D01*
X-518531D01*
Y-303649D01*
X-510609D01*
Y-313571D01*
D02*
G37*
G36*
X-395467Y-266203D02*
X-460666Y-331401D01*
X-461707Y-332117D01*
X-462782Y-331399D01*
X-464050Y-331146D01*
X-465318Y-331399D01*
X-466393Y-332117D01*
X-466707D01*
X-467782Y-331399D01*
X-469050Y-331146D01*
X-470318Y-331399D01*
X-471393Y-332117D01*
X-471707D01*
X-472782Y-331399D01*
X-474050Y-331146D01*
X-475318Y-331399D01*
X-476393Y-332117D01*
X-476707D01*
X-477782Y-331399D01*
X-479050Y-331146D01*
X-479446Y-331225D01*
X-480716Y-330253D01*
Y-327940D01*
X-480051Y-327665D01*
X-478785Y-326399D01*
X-478100Y-324745D01*
Y-322955D01*
X-478785Y-321301D01*
X-480051Y-320035D01*
X-481705Y-319350D01*
X-482201D01*
X-483180Y-318395D01*
Y-316605D01*
X-483865Y-314951D01*
X-485131Y-313685D01*
X-486785Y-313000D01*
X-488575D01*
X-489530Y-312021D01*
Y-311525D01*
X-490215Y-309871D01*
X-491481Y-308605D01*
X-492268Y-308279D01*
X-492566Y-306781D01*
X-484149Y-298364D01*
X-439810D01*
X-438534Y-298110D01*
X-437453Y-297388D01*
X-400868Y-260802D01*
X-395467Y-266203D01*
D02*
G37*
G36*
X-368720Y-331955D02*
Y-333834D01*
X-368300Y-334848D01*
X-368300Y-364602D01*
X-368920Y-365089D01*
X-370190Y-364472D01*
Y-359870D01*
X-384190D01*
Y-362536D01*
X-387970D01*
Y-359870D01*
X-401970D01*
Y-362536D01*
X-404480D01*
Y-359870D01*
X-418480D01*
Y-362536D01*
X-423335D01*
X-423861Y-361266D01*
X-421823Y-359228D01*
X-421100Y-358146D01*
X-420846Y-356870D01*
Y-336661D01*
X-412639Y-328454D01*
X-389040D01*
Y-328754D01*
X-388203Y-330775D01*
X-386656Y-332323D01*
X-384634Y-333160D01*
X-382446D01*
X-380424Y-332323D01*
X-378877Y-330775D01*
X-378040Y-328754D01*
Y-326566D01*
X-378399Y-325700D01*
X-377693Y-324644D01*
X-376031D01*
X-368720Y-331955D01*
D02*
G37*
G36*
X-384237Y-277433D02*
X-384723Y-278606D01*
X-391160D01*
X-392436Y-278860D01*
X-393518Y-279583D01*
X-448408Y-334473D01*
X-449130Y-335554D01*
X-449384Y-336830D01*
Y-351896D01*
X-453800D01*
X-455068Y-352149D01*
X-455083Y-352159D01*
X-455998Y-351243D01*
X-455989Y-351228D01*
X-455736Y-349960D01*
Y-342313D01*
X-455716Y-342210D01*
Y-335881D01*
X-390752Y-270917D01*
X-384237Y-277433D01*
D02*
G37*
G36*
X-621030Y-336158D02*
X-621951Y-337001D01*
X-639921D01*
Y-347072D01*
X-640080D01*
X-641356Y-347325D01*
X-642438Y-348048D01*
X-645667Y-351278D01*
X-646390Y-352360D01*
X-646644Y-353636D01*
Y-367010D01*
X-647810D01*
Y-377210D01*
X-638810D01*
Y-367010D01*
X-639976D01*
Y-360054D01*
X-639921Y-358806D01*
X-622539D01*
X-621030Y-360315D01*
Y-381000D01*
X-666249D01*
X-666249Y-381000D01*
X-666249Y-381000D01*
X-684483D01*
X-684493Y-380985D01*
X-684530Y-380799D01*
Y-364653D01*
X-683609Y-363810D01*
X-665639D01*
Y-353803D01*
Y-342005D01*
X-683408D01*
X-683558Y-341975D01*
X-683597D01*
X-683627Y-341948D01*
X-683757Y-341869D01*
X-684275Y-341395D01*
X-684530Y-341241D01*
Y-339634D01*
X-683609Y-338791D01*
X-665639D01*
Y-326993D01*
X-674480D01*
X-674738Y-326942D01*
X-684530D01*
Y-303530D01*
X-621030D01*
Y-336158D01*
D02*
G37*
G36*
X-538031Y-379794D02*
X-538114Y-380210D01*
X-537861Y-381478D01*
X-537143Y-382553D01*
Y-382867D01*
X-537861Y-383942D01*
X-538114Y-385210D01*
X-537861Y-386478D01*
X-537143Y-387553D01*
Y-387867D01*
X-537861Y-388942D01*
X-538114Y-390210D01*
X-537861Y-391478D01*
X-537143Y-392553D01*
Y-392867D01*
X-537861Y-393942D01*
X-538114Y-395210D01*
X-538035Y-395606D01*
X-539007Y-396876D01*
X-545450D01*
X-546091Y-396235D01*
X-547745Y-395550D01*
X-549535D01*
X-551189Y-396235D01*
X-552455Y-397501D01*
X-553140Y-399155D01*
Y-400945D01*
X-552455Y-402599D01*
X-551189Y-403865D01*
X-549535Y-404550D01*
X-548220D01*
X-547658Y-405784D01*
X-549857Y-407983D01*
X-551757Y-406084D01*
X-560167Y-414493D01*
X-561340Y-414007D01*
Y-378524D01*
X-538993D01*
X-538031Y-379794D01*
D02*
G37*
G36*
X-390920Y-391810D02*
X-385524D01*
Y-393180D01*
X-394650D01*
Y-400846D01*
X-409779D01*
X-424822Y-385803D01*
X-424286Y-384543D01*
X-422840Y-383945D01*
X-421574Y-382679D01*
X-420889Y-381025D01*
Y-380345D01*
X-418357Y-377812D01*
X-390920D01*
Y-391810D01*
D02*
G37*
G36*
X-425194Y-413331D02*
Y-429380D01*
X-427860D01*
Y-444380D01*
X-425194D01*
Y-449820D01*
X-429910D01*
Y-461820D01*
X-415910D01*
Y-449820D01*
X-418526D01*
Y-444380D01*
X-415860D01*
Y-429380D01*
X-418526D01*
Y-416298D01*
X-417353Y-415812D01*
X-407194Y-425971D01*
Y-429380D01*
X-409860D01*
Y-444380D01*
X-407194D01*
Y-449820D01*
X-410860D01*
Y-461820D01*
X-396860D01*
Y-449820D01*
X-400526D01*
Y-444380D01*
X-397860D01*
Y-430341D01*
X-396590Y-429815D01*
X-394787Y-431618D01*
X-394350Y-431910D01*
X-394650Y-433180D01*
X-394650Y-433237D01*
Y-455180D01*
X-389628D01*
Y-462050D01*
X-389540Y-462493D01*
Y-470550D01*
X-388905D01*
Y-477803D01*
X-392388D01*
X-396860Y-473331D01*
Y-467820D01*
X-410860D01*
Y-469232D01*
X-415910D01*
Y-467820D01*
X-429910D01*
Y-479820D01*
X-415910D01*
Y-478408D01*
X-410860D01*
Y-479820D01*
X-403349D01*
X-397533Y-485635D01*
X-396045Y-486630D01*
X-394289Y-486979D01*
X-388099D01*
X-387816Y-487263D01*
X-385794Y-488100D01*
X-383606D01*
X-381585Y-487263D01*
X-380037Y-485715D01*
X-379200Y-483694D01*
Y-481506D01*
X-379729Y-480229D01*
Y-470550D01*
X-377540D01*
Y-456550D01*
X-380452D01*
Y-455180D01*
X-378650D01*
Y-433864D01*
X-378650Y-433180D01*
X-377623Y-432594D01*
X-375951D01*
X-370650Y-437895D01*
Y-455180D01*
X-368300D01*
X-368300Y-456550D01*
X-371540D01*
Y-470550D01*
X-368300D01*
Y-510540D01*
X-495716D01*
Y-435167D01*
X-494446Y-434195D01*
X-494050Y-434274D01*
X-492782Y-434021D01*
X-491707Y-433303D01*
X-491393D01*
X-490318Y-434021D01*
X-489050Y-434274D01*
X-488654Y-434195D01*
X-488573Y-434202D01*
X-487394Y-435173D01*
Y-452090D01*
X-493410D01*
Y-464090D01*
X-482124D01*
Y-467470D01*
X-482633Y-468090D01*
X-493410D01*
Y-480090D01*
X-490790D01*
X-490225Y-481321D01*
X-490910Y-482975D01*
Y-484765D01*
X-490225Y-486419D01*
X-488959Y-487685D01*
X-487305Y-488370D01*
X-485515D01*
X-483861Y-487685D01*
X-482595Y-486419D01*
X-481910Y-484765D01*
Y-482975D01*
X-482595Y-481321D01*
X-482030Y-480090D01*
X-479410D01*
Y-480090D01*
X-478170Y-480090D01*
Y-480090D01*
X-478140Y-480090D01*
X-464170D01*
Y-468090D01*
X-473455D01*
X-475456Y-466089D01*
Y-464090D01*
X-464170D01*
Y-454053D01*
X-462997Y-453567D01*
X-457777Y-458786D01*
X-449292Y-450301D01*
X-455959Y-443633D01*
X-456141Y-443362D01*
X-460736Y-438766D01*
Y-423311D01*
X-460716Y-423210D01*
Y-414764D01*
X-460647Y-414750D01*
X-460446D01*
X-460261Y-414673D01*
X-460064Y-414634D01*
X-459897Y-414522D01*
X-459711Y-414445D01*
X-459523Y-414319D01*
X-459522Y-414319D01*
X-459050Y-414226D01*
X-458199Y-414395D01*
X-458167Y-414408D01*
X-458166D01*
X-458165Y-414408D01*
X-457985Y-414408D01*
X-457807Y-414447D01*
X-457787Y-414444D01*
X-457767Y-414448D01*
X-457572Y-414409D01*
X-457371Y-414409D01*
X-457370Y-414408D01*
X-457369D01*
X-457229Y-414350D01*
X-457203Y-414339D01*
X-457024Y-414307D01*
X-457007Y-414296D01*
X-456987Y-414292D01*
X-456821Y-414181D01*
X-456636Y-414105D01*
X-456636Y-414105D01*
X-456634Y-414104D01*
X-456634Y-414104D01*
X-456597Y-414066D01*
X-456507Y-413977D01*
X-456354Y-413878D01*
X-456342Y-413862D01*
X-456325Y-413850D01*
X-455437Y-412962D01*
X-455287Y-412737D01*
X-455169Y-412620D01*
X-455106Y-412467D01*
X-454995Y-412300D01*
X-454995Y-412300D01*
X-454981Y-412268D01*
X-454942Y-412071D01*
X-454865Y-411885D01*
X-454862Y-411871D01*
Y-411670D01*
X-454826Y-411487D01*
X-454862Y-411304D01*
Y-411076D01*
X-455034Y-410210D01*
X-454927Y-409671D01*
X-454859Y-409581D01*
X-454383Y-408597D01*
X-454355Y-408488D01*
X-454315Y-408421D01*
X-453800Y-408524D01*
X-438300D01*
X-437032Y-408271D01*
X-435957Y-407553D01*
X-435239Y-406478D01*
X-435007Y-405314D01*
X-434613Y-405064D01*
X-433785Y-404740D01*
X-425194Y-413331D01*
D02*
G37*
G36*
X-374189Y-377812D02*
X-373098Y-377812D01*
X-372920Y-379044D01*
Y-391810D01*
X-368300D01*
Y-393180D01*
X-370650D01*
Y-415180D01*
X-368300D01*
Y-420306D01*
X-368610Y-421054D01*
Y-423242D01*
X-368300Y-423990D01*
Y-429156D01*
X-369473Y-429642D01*
X-372212Y-426903D01*
X-373294Y-426180D01*
X-374570Y-425926D01*
X-391049D01*
X-408288Y-408687D01*
X-407802Y-407514D01*
X-394650D01*
Y-415180D01*
X-378650D01*
Y-399772D01*
X-378586Y-399450D01*
X-378650Y-399128D01*
Y-393180D01*
X-378856D01*
Y-387540D01*
X-378920Y-387218D01*
Y-377812D01*
X-374189D01*
D02*
G37*
G36*
X-517989Y-411250D02*
X-517977Y-411314D01*
X-517979Y-411324D01*
X-517962Y-411408D01*
X-517969Y-411536D01*
X-517966Y-411558D01*
X-517966Y-411558D01*
X-517966Y-411559D01*
X-517959Y-411612D01*
X-517926Y-411703D01*
X-517927Y-411746D01*
X-517891Y-411836D01*
X-517879Y-411925D01*
X-517849Y-411977D01*
X-517824Y-412104D01*
X-517808Y-412142D01*
X-517733Y-412255D01*
X-517695Y-412362D01*
X-517661Y-412400D01*
X-517628Y-412483D01*
X-517542Y-412614D01*
X-517394Y-412764D01*
X-517392Y-412770D01*
X-517180Y-413210D01*
X-517140Y-413263D01*
X-517137Y-413274D01*
X-517087Y-413341D01*
X-517038Y-413459D01*
X-516996Y-413522D01*
X-516814Y-413704D01*
X-516799Y-413724D01*
X-517111Y-414192D01*
X-517364Y-415460D01*
Y-423209D01*
X-517364Y-423210D01*
Y-429587D01*
X-524366Y-436590D01*
X-524405D01*
X-526059Y-437275D01*
X-527324Y-438541D01*
X-528009Y-440195D01*
Y-441985D01*
X-527324Y-443639D01*
X-526059Y-444905D01*
X-524405Y-445590D01*
X-522614D01*
X-520961Y-444905D01*
X-519695Y-443639D01*
X-519010Y-441985D01*
Y-440606D01*
X-513537Y-435133D01*
X-512364Y-435619D01*
Y-442907D01*
X-560167Y-490710D01*
X-561340Y-490224D01*
Y-488100D01*
X-561340Y-417959D01*
X-560167Y-417473D01*
X-553171Y-424468D01*
X-543272Y-414569D01*
X-545171Y-412669D01*
X-541025Y-408524D01*
X-519300D01*
X-519299Y-408523D01*
X-517989D01*
Y-411250D01*
D02*
G37*
G36*
X-381781Y-432621D02*
X-381633Y-432697D01*
X-380689Y-433864D01*
Y-453188D01*
X-381232Y-453296D01*
X-381894Y-453738D01*
X-382336Y-454400D01*
X-382491Y-455180D01*
Y-456550D01*
X-382336Y-457330D01*
X-381894Y-457992D01*
X-381232Y-458434D01*
X-380452Y-458589D01*
X-379579D01*
Y-468511D01*
X-379729D01*
X-380509Y-468666D01*
X-381171Y-469108D01*
X-381613Y-469770D01*
X-381768Y-470550D01*
Y-476134D01*
X-382824Y-476839D01*
X-383430Y-476588D01*
Y-482600D01*
X-384700D01*
Y-483870D01*
X-390712D01*
X-390706Y-483884D01*
X-391411Y-484940D01*
X-394088D01*
X-395249Y-484709D01*
X-396233Y-484052D01*
X-401907Y-478378D01*
X-402568Y-477936D01*
X-403349Y-477781D01*
X-408946D01*
X-408976Y-477628D01*
X-409418Y-476966D01*
X-410080Y-476524D01*
X-410860Y-476369D01*
X-415910D01*
X-416690Y-476524D01*
X-417352Y-476966D01*
X-417794Y-477628D01*
X-417824Y-477781D01*
X-427871D01*
Y-469859D01*
X-417824D01*
X-417794Y-470012D01*
X-417352Y-470674D01*
X-416690Y-471116D01*
X-415910Y-471271D01*
X-410860D01*
X-410080Y-471116D01*
X-409418Y-470674D01*
X-408976Y-470012D01*
X-408946Y-469859D01*
X-398899D01*
Y-473331D01*
X-398744Y-474112D01*
X-398302Y-474773D01*
X-393830Y-479245D01*
X-393169Y-479687D01*
X-392388Y-479842D01*
X-391238D01*
X-390533Y-480898D01*
X-390712Y-481330D01*
X-385970D01*
Y-476514D01*
X-386866Y-475915D01*
Y-470550D01*
X-387021Y-469770D01*
X-387463Y-469108D01*
X-387501Y-469083D01*
Y-462493D01*
X-387540Y-462296D01*
Y-462095D01*
X-387589Y-461849D01*
Y-455180D01*
X-387744Y-454400D01*
X-388186Y-453738D01*
X-388848Y-453296D01*
X-389628Y-453141D01*
X-392611D01*
Y-433418D01*
X-392416Y-432594D01*
X-381887D01*
X-381781Y-432621D01*
D02*
G37*
G36*
X-507364Y-448939D02*
Y-510540D01*
X-561340D01*
Y-507802D01*
X-556109Y-502571D01*
X-554083D01*
X-553729Y-502925D01*
X-552075Y-503610D01*
X-550285D01*
X-548631Y-502925D01*
X-547365Y-501659D01*
X-546680Y-500005D01*
Y-498215D01*
X-547365Y-496561D01*
X-548631Y-495295D01*
X-550285Y-494610D01*
X-552075D01*
X-553479Y-495192D01*
X-554199Y-494115D01*
X-508537Y-448453D01*
X-507364Y-448939D01*
D02*
G37*
%LPC*%
G36*
X-767428Y22461D02*
X-779428D01*
Y20049D01*
X-782232D01*
X-782307Y20124D01*
X-784328Y20961D01*
X-786516D01*
X-788538Y20124D01*
X-790085Y18576D01*
X-790922Y16555D01*
Y14367D01*
X-790085Y12345D01*
X-788538Y10798D01*
X-786516Y9961D01*
X-784328D01*
X-782307Y10798D01*
X-782232Y10873D01*
X-779428D01*
Y8461D01*
X-767428D01*
Y22461D01*
D02*
G37*
G36*
X-754380Y-155091D02*
Y-158750D01*
X-750721D01*
X-751377Y-157165D01*
X-752795Y-155747D01*
X-754380Y-155091D01*
D02*
G37*
G36*
X-756920D02*
X-758505Y-155747D01*
X-759923Y-157165D01*
X-760579Y-158750D01*
X-756920D01*
Y-155091D01*
D02*
G37*
G36*
X-768350D02*
Y-158750D01*
X-764691D01*
X-765347Y-157165D01*
X-766765Y-155747D01*
X-768350Y-155091D01*
D02*
G37*
G36*
X-770890D02*
X-772475Y-155747D01*
X-773893Y-157165D01*
X-774549Y-158750D01*
X-770890D01*
Y-155091D01*
D02*
G37*
G36*
X-782320D02*
Y-158750D01*
X-778661D01*
X-779317Y-157165D01*
X-780735Y-155747D01*
X-782320Y-155091D01*
D02*
G37*
G36*
X-784860D02*
X-786445Y-155747D01*
X-787863Y-157165D01*
X-788519Y-158750D01*
X-784860D01*
Y-155091D01*
D02*
G37*
G36*
X-796290D02*
Y-158750D01*
X-792631D01*
X-793287Y-157165D01*
X-794705Y-155747D01*
X-796290Y-155091D01*
D02*
G37*
G36*
X-798830D02*
X-800415Y-155747D01*
X-801833Y-157165D01*
X-802489Y-158750D01*
X-798830D01*
Y-155091D01*
D02*
G37*
G36*
X-728980Y-157818D02*
Y-162560D01*
X-724238D01*
X-725129Y-160409D01*
X-726829Y-158709D01*
X-728980Y-157818D01*
D02*
G37*
G36*
X-731520D02*
X-733671Y-158709D01*
X-735370Y-160409D01*
X-736262Y-162560D01*
X-731520D01*
Y-157818D01*
D02*
G37*
G36*
X-750721Y-161290D02*
X-754380D01*
Y-164949D01*
X-752795Y-164293D01*
X-751377Y-162875D01*
X-750721Y-161290D01*
D02*
G37*
G36*
X-756920D02*
X-760579D01*
X-759923Y-162875D01*
X-758505Y-164293D01*
X-756920Y-164949D01*
Y-161290D01*
D02*
G37*
G36*
X-764691D02*
X-768350D01*
Y-164949D01*
X-766765Y-164293D01*
X-765347Y-162875D01*
X-764691Y-161290D01*
D02*
G37*
G36*
X-770890D02*
X-774549D01*
X-773893Y-162875D01*
X-772475Y-164293D01*
X-770890Y-164949D01*
Y-161290D01*
D02*
G37*
G36*
X-778661D02*
X-782320D01*
Y-164949D01*
X-780735Y-164293D01*
X-779317Y-162875D01*
X-778661Y-161290D01*
D02*
G37*
G36*
X-784860D02*
X-788519D01*
X-787863Y-162875D01*
X-786445Y-164293D01*
X-784860Y-164949D01*
Y-161290D01*
D02*
G37*
G36*
X-792631D02*
X-796290D01*
Y-164949D01*
X-794705Y-164293D01*
X-793287Y-162875D01*
X-792631Y-161290D01*
D02*
G37*
G36*
X-798830D02*
X-802489D01*
X-801833Y-162875D01*
X-800415Y-164293D01*
X-798830Y-164949D01*
Y-161290D01*
D02*
G37*
G36*
X-724238Y-165100D02*
X-728980D01*
Y-169842D01*
X-726829Y-168951D01*
X-725129Y-167251D01*
X-724238Y-165100D01*
D02*
G37*
G36*
X-731520D02*
X-736262D01*
X-735370Y-167251D01*
X-733671Y-168951D01*
X-731520Y-169842D01*
Y-165100D01*
D02*
G37*
G36*
X-754380Y-167791D02*
Y-171450D01*
X-750721D01*
X-751377Y-169865D01*
X-752795Y-168447D01*
X-754380Y-167791D01*
D02*
G37*
G36*
X-756920D02*
X-758505Y-168447D01*
X-759923Y-169865D01*
X-760579Y-171450D01*
X-756920D01*
Y-167791D01*
D02*
G37*
G36*
X-768350D02*
Y-171450D01*
X-764691D01*
X-765347Y-169865D01*
X-766765Y-168447D01*
X-768350Y-167791D01*
D02*
G37*
G36*
X-770890D02*
X-772475Y-168447D01*
X-773893Y-169865D01*
X-774549Y-171450D01*
X-770890D01*
Y-167791D01*
D02*
G37*
G36*
X-782320D02*
Y-171450D01*
X-778661D01*
X-779317Y-169865D01*
X-780735Y-168447D01*
X-782320Y-167791D01*
D02*
G37*
G36*
X-784860D02*
X-786445Y-168447D01*
X-787863Y-169865D01*
X-788519Y-171450D01*
X-784860D01*
Y-167791D01*
D02*
G37*
G36*
X-796290D02*
Y-171450D01*
X-792631D01*
X-793287Y-169865D01*
X-794705Y-168447D01*
X-796290Y-167791D01*
D02*
G37*
G36*
X-798830D02*
X-800415Y-168447D01*
X-801833Y-169865D01*
X-802489Y-171450D01*
X-798830D01*
Y-167791D01*
D02*
G37*
G36*
X-750721Y-173990D02*
X-754380D01*
Y-177649D01*
X-752795Y-176993D01*
X-751377Y-175575D01*
X-750721Y-173990D01*
D02*
G37*
G36*
X-756920D02*
X-760579D01*
X-759923Y-175575D01*
X-758505Y-176993D01*
X-756920Y-177649D01*
Y-173990D01*
D02*
G37*
G36*
X-764691D02*
X-768350D01*
Y-177649D01*
X-766765Y-176993D01*
X-765347Y-175575D01*
X-764691Y-173990D01*
D02*
G37*
G36*
X-770890D02*
X-774549D01*
X-773893Y-175575D01*
X-772475Y-176993D01*
X-770890Y-177649D01*
Y-173990D01*
D02*
G37*
G36*
X-778661D02*
X-782320D01*
Y-177649D01*
X-780735Y-176993D01*
X-779317Y-175575D01*
X-778661Y-173990D01*
D02*
G37*
G36*
X-784860D02*
X-788519D01*
X-787863Y-175575D01*
X-786445Y-176993D01*
X-784860Y-177649D01*
Y-173990D01*
D02*
G37*
G36*
X-792631D02*
X-796290D01*
Y-177649D01*
X-794705Y-176993D01*
X-793287Y-175575D01*
X-792631Y-173990D01*
D02*
G37*
G36*
X-798830D02*
X-802489D01*
X-801833Y-175575D01*
X-800415Y-176993D01*
X-798830Y-177649D01*
Y-173990D01*
D02*
G37*
G36*
X-653079Y-39564D02*
X-653775Y-39702D01*
X-655442Y-40816D01*
X-656556Y-42484D01*
X-656694Y-43180D01*
X-653079D01*
Y-39564D01*
D02*
G37*
G36*
Y-45720D02*
X-656694D01*
X-656556Y-46417D01*
X-655442Y-48084D01*
X-653775Y-49198D01*
X-653079Y-49336D01*
Y-45720D01*
D02*
G37*
G36*
X-388796Y-333590D02*
X-390984D01*
X-393005Y-334427D01*
X-394553Y-335975D01*
X-395390Y-337996D01*
Y-340184D01*
X-395168Y-340720D01*
X-396033Y-341870D01*
X-401970D01*
Y-343282D01*
X-404480D01*
Y-341870D01*
X-418480D01*
Y-353870D01*
X-404480D01*
Y-352458D01*
X-401970D01*
Y-353870D01*
X-387970D01*
Y-347359D01*
X-387028Y-346417D01*
X-386034Y-344929D01*
X-385685Y-343173D01*
Y-342663D01*
X-385227Y-342206D01*
X-384390Y-340184D01*
Y-337996D01*
X-385227Y-335975D01*
X-386774Y-334427D01*
X-388796Y-333590D01*
D02*
G37*
%LPD*%
G36*
X-393523Y-343999D02*
X-393311Y-344211D01*
X-391091Y-345130D01*
X-390356D01*
X-390340Y-345143D01*
X-389735Y-346400D01*
X-389854Y-346578D01*
X-390009Y-347359D01*
Y-351831D01*
X-400056D01*
X-400086Y-351678D01*
X-400528Y-351016D01*
X-401190Y-350574D01*
X-401970Y-350419D01*
X-404480D01*
X-405260Y-350574D01*
X-405922Y-351016D01*
X-406364Y-351678D01*
X-406394Y-351831D01*
X-416441D01*
Y-343909D01*
X-406394D01*
X-406364Y-344062D01*
X-405922Y-344724D01*
X-405260Y-345166D01*
X-404480Y-345321D01*
X-401970D01*
X-401190Y-345166D01*
X-400528Y-344724D01*
X-400086Y-344062D01*
X-400056Y-343909D01*
X-396033D01*
X-395892Y-343881D01*
X-395749Y-343889D01*
X-395505Y-343804D01*
X-395253Y-343754D01*
X-395133Y-343674D01*
X-394998Y-343627D01*
X-394805Y-343455D01*
X-394591Y-343312D01*
X-393523Y-343999D01*
D02*
G37*
%LPC*%
G36*
X-387230Y9020D02*
X-389270D01*
X-391241Y8492D01*
X-393009Y7472D01*
X-394451Y6029D01*
X-395472Y4261D01*
X-396000Y2290D01*
Y250D01*
X-395472Y-1721D01*
X-394451Y-3489D01*
X-393009Y-4931D01*
X-391241Y-5952D01*
X-389270Y-6480D01*
X-387230D01*
X-385259Y-5952D01*
X-383491Y-4931D01*
X-382048Y-3489D01*
X-381028Y-1721D01*
X-380500Y250D01*
Y2290D01*
X-381028Y4261D01*
X-382048Y6029D01*
X-383491Y7472D01*
X-385259Y8492D01*
X-387230Y9020D01*
D02*
G37*
G36*
X-438030D02*
X-440070D01*
X-442041Y8492D01*
X-443809Y7472D01*
X-445252Y6029D01*
X-446272Y4261D01*
X-446800Y2290D01*
Y250D01*
X-446272Y-1721D01*
X-445252Y-3489D01*
X-443809Y-4931D01*
X-442041Y-5952D01*
X-440070Y-6480D01*
X-438030D01*
X-436059Y-5952D01*
X-434291Y-4931D01*
X-432849Y-3489D01*
X-431828Y-1721D01*
X-431300Y250D01*
Y2290D01*
X-431828Y4261D01*
X-432849Y6029D01*
X-434291Y7472D01*
X-436059Y8492D01*
X-438030Y9020D01*
D02*
G37*
G36*
X-437780Y-142888D02*
Y-149860D01*
X-430808D01*
X-431325Y-147930D01*
X-432416Y-146040D01*
X-433960Y-144496D01*
X-435850Y-143405D01*
X-437780Y-142888D01*
D02*
G37*
G36*
X-440320Y-142888D02*
X-442250Y-143405D01*
X-444140Y-144496D01*
X-445684Y-146040D01*
X-446775Y-147930D01*
X-447292Y-149860D01*
X-440320D01*
Y-142888D01*
D02*
G37*
G36*
X-387230Y-143380D02*
X-389270D01*
X-391241Y-143908D01*
X-393009Y-144929D01*
X-394451Y-146371D01*
X-395472Y-148139D01*
X-396000Y-150110D01*
Y-152150D01*
X-395472Y-154121D01*
X-394451Y-155889D01*
X-393009Y-157331D01*
X-391241Y-158352D01*
X-389270Y-158880D01*
X-387230D01*
X-385259Y-158352D01*
X-383491Y-157331D01*
X-382048Y-155889D01*
X-381028Y-154121D01*
X-380500Y-152150D01*
Y-150110D01*
X-381028Y-148139D01*
X-382048Y-146371D01*
X-383491Y-144929D01*
X-385259Y-143908D01*
X-387230Y-143380D01*
D02*
G37*
G36*
X-430808Y-152400D02*
X-437780D01*
Y-159372D01*
X-435850Y-158855D01*
X-433960Y-157764D01*
X-432416Y-156220D01*
X-431325Y-154330D01*
X-430808Y-152400D01*
D02*
G37*
G36*
X-440320D02*
X-447292D01*
X-446775Y-154330D01*
X-445684Y-156220D01*
X-444140Y-157764D01*
X-442250Y-158855D01*
X-440320Y-159372D01*
Y-152400D01*
D02*
G37*
G36*
X-187050Y-213342D02*
X-204050D01*
X-206001Y-213730D01*
X-207655Y-214835D01*
X-208760Y-216489D01*
X-209148Y-218440D01*
X-208760Y-220391D01*
X-207655Y-222045D01*
X-206001Y-223150D01*
X-204050Y-223538D01*
X-187050D01*
X-185099Y-223150D01*
X-184154Y-222518D01*
X-175170D01*
X-175170Y-222518D01*
X-174374Y-222360D01*
X-173884D01*
X-173490Y-222438D01*
X-173490Y-222438D01*
X-164480D01*
Y-225820D01*
X-150480D01*
Y-223843D01*
X-146694D01*
X-146536Y-223949D01*
X-144780Y-224298D01*
X-143024Y-223949D01*
X-141536Y-222954D01*
X-140541Y-221466D01*
X-140192Y-219710D01*
X-140541Y-217954D01*
X-141536Y-216466D01*
X-143024Y-215471D01*
X-144780Y-215122D01*
X-146536Y-215471D01*
X-146858Y-215687D01*
X-150480D01*
Y-213820D01*
X-164480D01*
Y-214282D01*
X-168890D01*
Y-213360D01*
X-179090D01*
Y-214362D01*
X-184154D01*
X-185099Y-213730D01*
X-187050Y-213342D01*
D02*
G37*
G36*
Y-226042D02*
X-204050D01*
X-206001Y-226430D01*
X-207655Y-227535D01*
X-208760Y-229189D01*
X-209148Y-231140D01*
X-208760Y-233091D01*
X-207655Y-234745D01*
X-206001Y-235850D01*
X-204050Y-236238D01*
X-187050D01*
X-185099Y-235850D01*
X-183445Y-234745D01*
X-183153Y-234308D01*
X-178802D01*
X-177636Y-235087D01*
X-175880Y-235436D01*
X-174124Y-235087D01*
X-172636Y-234092D01*
X-171641Y-232604D01*
X-171480Y-231794D01*
X-170210Y-231919D01*
Y-238835D01*
X-170303Y-238897D01*
X-175964Y-244558D01*
X-177503D01*
X-177942Y-244119D01*
X-177997Y-244037D01*
X-179867Y-242167D01*
X-180942Y-241448D01*
X-182210Y-241196D01*
X-182803D01*
X-183445Y-240235D01*
X-185099Y-239130D01*
X-187050Y-238742D01*
X-204050D01*
X-206001Y-239130D01*
X-207655Y-240235D01*
X-208760Y-241889D01*
X-209148Y-243840D01*
X-208760Y-245791D01*
X-207655Y-247445D01*
X-206001Y-248550D01*
X-204050Y-248938D01*
X-187050D01*
X-185099Y-248550D01*
X-184012Y-247823D01*
X-183583D01*
X-182738Y-248668D01*
X-182683Y-248750D01*
X-182162Y-249271D01*
Y-264593D01*
X-182825Y-265257D01*
X-184012D01*
X-185099Y-264530D01*
X-187050Y-264142D01*
X-204050D01*
X-206001Y-264530D01*
X-207655Y-265635D01*
X-208760Y-267289D01*
X-209148Y-269240D01*
X-208760Y-271191D01*
X-207655Y-272845D01*
X-206001Y-273950D01*
X-204050Y-274338D01*
X-187050D01*
X-185099Y-273950D01*
X-183445Y-272845D01*
X-182803Y-271884D01*
X-181453D01*
X-180185Y-271632D01*
X-179110Y-270913D01*
X-176505Y-268309D01*
X-175787Y-267234D01*
X-175535Y-265966D01*
Y-251185D01*
X-174592D01*
X-173323Y-250933D01*
X-172248Y-250215D01*
X-166524Y-244490D01*
X-158210D01*
Y-230490D01*
X-170068D01*
X-170210Y-230490D01*
X-171401Y-230299D01*
X-171641Y-229092D01*
X-172636Y-227604D01*
X-174124Y-226609D01*
X-175880Y-226260D01*
X-177636Y-226609D01*
X-179124Y-227604D01*
X-179175Y-227680D01*
X-183348D01*
X-183445Y-227535D01*
X-185099Y-226430D01*
X-187050Y-226042D01*
D02*
G37*
G36*
X-171450Y-279892D02*
X-173206Y-280241D01*
X-174694Y-281236D01*
X-175689Y-282724D01*
X-176038Y-284480D01*
X-175915Y-285100D01*
X-176957Y-286370D01*
X-177830D01*
Y-288286D01*
X-177950D01*
X-179218Y-288539D01*
X-180293Y-289257D01*
X-181991Y-290955D01*
X-183445Y-291035D01*
X-185099Y-289930D01*
X-187050Y-289542D01*
X-204050D01*
X-206001Y-289930D01*
X-207655Y-291035D01*
X-208760Y-292689D01*
X-209148Y-294640D01*
X-208760Y-296591D01*
X-207655Y-298245D01*
X-206001Y-299350D01*
X-204050Y-299738D01*
X-187050D01*
X-185099Y-299350D01*
X-183447Y-298246D01*
X-181282D01*
X-180014Y-297993D01*
X-179100Y-297383D01*
X-177879Y-297714D01*
X-177830Y-297735D01*
Y-300370D01*
X-165830D01*
Y-286370D01*
X-165943D01*
X-166985Y-285100D01*
X-166862Y-284480D01*
X-167211Y-282724D01*
X-168206Y-281236D01*
X-169694Y-280241D01*
X-171450Y-279892D01*
D02*
G37*
G36*
X-187050Y-302242D02*
X-204050D01*
X-206001Y-302630D01*
X-207655Y-303735D01*
X-208760Y-305389D01*
X-209148Y-307340D01*
X-208760Y-309291D01*
X-207655Y-310945D01*
X-206001Y-312050D01*
X-204050Y-312438D01*
X-187050D01*
X-185099Y-312050D01*
X-184588Y-311708D01*
X-177820D01*
Y-312420D01*
X-167620D01*
Y-311998D01*
X-165120D01*
Y-312420D01*
X-154920D01*
Y-312343D01*
X-149832D01*
X-149076Y-312849D01*
X-147320Y-313198D01*
X-145564Y-312849D01*
X-144076Y-311854D01*
X-143081Y-310366D01*
X-142732Y-308610D01*
X-143081Y-306854D01*
X-144076Y-305366D01*
X-145564Y-304371D01*
X-147320Y-304022D01*
X-148149Y-304187D01*
X-154920D01*
Y-303420D01*
X-165120D01*
Y-303842D01*
X-167620D01*
Y-303420D01*
X-177820D01*
Y-303552D01*
X-183720D01*
X-185099Y-302630D01*
X-187050Y-302242D01*
D02*
G37*
G36*
X-199834Y-360680D02*
X-204470D01*
Y-365316D01*
X-203383Y-365099D01*
X-201385Y-363765D01*
X-200051Y-361767D01*
X-199834Y-360680D01*
D02*
G37*
G36*
Y-384810D02*
X-204470D01*
Y-389446D01*
X-203383Y-389230D01*
X-201385Y-387895D01*
X-200051Y-385897D01*
X-199834Y-384810D01*
D02*
G37*
G36*
X46370Y-422040D02*
X32370D01*
Y-427551D01*
X28012Y-431909D01*
X27771D01*
X26494Y-431380D01*
X24306D01*
X22285Y-432217D01*
X21683Y-432818D01*
X20652Y-433024D01*
X19163Y-434018D01*
X12801Y-440380D01*
X5290D01*
Y-452380D01*
X19290D01*
Y-446869D01*
X23933Y-442225D01*
X24306Y-442380D01*
X26494D01*
X28516Y-441543D01*
X28973Y-441086D01*
X29913D01*
X31669Y-440736D01*
X33157Y-439742D01*
X38859Y-434040D01*
X46370D01*
Y-422040D01*
D02*
G37*
G36*
X-87520Y-419047D02*
X-115520D01*
Y-449047D01*
X-87520D01*
Y-449020D01*
X-83820D01*
X-81993Y-448780D01*
X-80290Y-448074D01*
X-78828Y-446952D01*
X-77705Y-445490D01*
X-77000Y-443787D01*
X-76760Y-441960D01*
X-77000Y-440133D01*
X-77705Y-438430D01*
X-78828Y-436968D01*
X-80290Y-435845D01*
X-81993Y-435140D01*
X-83820Y-434900D01*
X-87520D01*
Y-419047D01*
D02*
G37*
G36*
X42963Y-460480D02*
X40857D01*
X38822Y-461025D01*
X36998Y-462078D01*
X35508Y-463568D01*
X34455Y-465392D01*
X33910Y-467427D01*
Y-469533D01*
X34455Y-471568D01*
X35508Y-473392D01*
X36998Y-474882D01*
X38822Y-475935D01*
X40857Y-476480D01*
X42963D01*
X44998Y-475935D01*
X46822Y-474882D01*
X48312Y-473392D01*
X49365Y-471568D01*
X49910Y-469533D01*
Y-467427D01*
X49365Y-465392D01*
X48312Y-463568D01*
X46822Y-462078D01*
X44998Y-461025D01*
X42963Y-460480D01*
D02*
G37*
G36*
X27450Y-474866D02*
X14370D01*
X12141Y-475160D01*
X10063Y-476020D01*
X8279Y-477389D01*
X6910Y-479173D01*
X6050Y-481251D01*
X5756Y-483480D01*
X6050Y-485709D01*
X6910Y-487787D01*
X8279Y-489571D01*
X10063Y-490940D01*
X12141Y-491800D01*
X14370Y-492094D01*
X27450D01*
X29679Y-491800D01*
X31757Y-490940D01*
X33541Y-489571D01*
X34910Y-487787D01*
X35770Y-485709D01*
X36064Y-483480D01*
X35770Y-481251D01*
X34910Y-479173D01*
X33541Y-477389D01*
X31757Y-476020D01*
X29679Y-475160D01*
X27450Y-474866D01*
D02*
G37*
G36*
X42963Y-530480D02*
X40857D01*
X38822Y-531025D01*
X36998Y-532078D01*
X35508Y-533568D01*
X34455Y-535392D01*
X33910Y-537427D01*
Y-539533D01*
X34455Y-541568D01*
X35508Y-543392D01*
X36998Y-544882D01*
X38822Y-545935D01*
X40857Y-546480D01*
X42963D01*
X44998Y-545935D01*
X46822Y-544882D01*
X48312Y-543392D01*
X49365Y-541568D01*
X49910Y-539533D01*
Y-537427D01*
X49365Y-535392D01*
X48312Y-533568D01*
X46822Y-532078D01*
X44998Y-531025D01*
X42963Y-530480D01*
D02*
G37*
G36*
X-98330Y-549057D02*
X-112330D01*
Y-561057D01*
X-98330D01*
Y-559165D01*
X-97060Y-558661D01*
X-96068Y-559653D01*
X-94047Y-560490D01*
X-91859D01*
X-89837Y-559653D01*
X-89470Y-559286D01*
X-88200Y-559812D01*
Y-561717D01*
X-74200D01*
Y-549717D01*
X-88200D01*
Y-550168D01*
X-89470Y-550694D01*
X-89837Y-550327D01*
X-91859Y-549490D01*
X-94047D01*
X-96068Y-550327D01*
X-97060Y-551320D01*
X-98330Y-550815D01*
Y-549057D01*
D02*
G37*
G36*
X-108600Y-564372D02*
X-109220D01*
X-109663Y-564460D01*
X-110115D01*
X-110533Y-564633D01*
X-110976Y-564721D01*
X-111352Y-564972D01*
X-111769Y-565145D01*
X-112088Y-565465D01*
X-112464Y-565716D01*
X-112715Y-566091D01*
X-113035Y-566411D01*
X-113208Y-566828D01*
X-113459Y-567204D01*
X-113547Y-567647D01*
X-113720Y-568065D01*
Y-568517D01*
X-113808Y-568960D01*
X-113720Y-569403D01*
Y-569855D01*
X-113547Y-570273D01*
X-113459Y-570716D01*
X-113208Y-571092D01*
X-113035Y-571509D01*
X-112715Y-571828D01*
X-112464Y-572204D01*
X-112088Y-572455D01*
X-111769Y-572775D01*
X-111352Y-572948D01*
X-110976Y-573199D01*
X-110818Y-573230D01*
X-105440Y-578609D01*
Y-586120D01*
X-104237D01*
Y-600060D01*
X-105859D01*
Y-614060D01*
X-93859D01*
Y-600060D01*
X-95061D01*
Y-586120D01*
X-93440D01*
Y-572120D01*
X-98951D01*
X-105356Y-565716D01*
X-106844Y-564721D01*
X-108600Y-564372D01*
D02*
G37*
G36*
X-77859Y-600060D02*
X-89859D01*
Y-614060D01*
X-83347D01*
X-79483Y-617924D01*
X-77994Y-618919D01*
X-76239Y-619268D01*
X-57800D01*
X-57726Y-619343D01*
X-55704Y-620180D01*
X-53516D01*
X-51494Y-619343D01*
X-49947Y-617795D01*
X-49853Y-617568D01*
X-47630D01*
X-47187Y-617480D01*
X-39130D01*
Y-605480D01*
X-53130D01*
Y-608543D01*
X-54125Y-608741D01*
X-54781Y-609180D01*
X-55704D01*
X-57726Y-610017D01*
X-57800Y-610092D01*
X-74338D01*
X-77859Y-606571D01*
Y-600060D01*
D02*
G37*
%LPD*%
G36*
X-89559Y-434900D02*
X-89404Y-435680D01*
X-88962Y-436342D01*
X-88709Y-436511D01*
X-88416Y-437761D01*
X-88450Y-438049D01*
X-88940Y-438539D01*
X-89832Y-440690D01*
X-83820D01*
Y-443230D01*
X-89832D01*
X-88940Y-445381D01*
X-88584Y-445738D01*
X-89110Y-447008D01*
X-113481D01*
Y-421086D01*
X-89559D01*
Y-434900D01*
D02*
G37*
G36*
X-79898Y-606571D02*
X-79898Y-606571D01*
X-79743Y-607352D01*
X-79301Y-608013D01*
X-75780Y-611534D01*
X-75118Y-611976D01*
X-74338Y-612131D01*
X-61235D01*
X-60529Y-613187D01*
X-60622Y-613410D01*
X-54610D01*
Y-615950D01*
X-60622D01*
X-60529Y-616173D01*
X-61235Y-617229D01*
X-76038D01*
X-77199Y-616998D01*
X-78183Y-616340D01*
X-81905Y-612618D01*
X-82567Y-612176D01*
X-83347Y-612021D01*
X-87819D01*
Y-602099D01*
X-79898D01*
Y-606571D01*
D02*
G37*
D12*
X-419738Y-374478D02*
X-373098D01*
X-361524Y-367984D02*
X-359410Y-365870D01*
X-366604Y-367984D02*
X-361524D01*
X-373098Y-374478D02*
X-366604Y-367984D01*
X-484050Y-434340D02*
Y-423210D01*
X-484060Y-455740D02*
Y-434350D01*
X-484050Y-434340D01*
X-486410Y-458090D02*
X-484060Y-455740D01*
X-557490Y-499237D02*
X-551307D01*
X-647700Y-589447D02*
X-557490Y-499237D01*
X-551307D02*
X-551180Y-499110D01*
X-647700Y-695960D02*
Y-589447D01*
X-608330Y-355600D02*
X-602360D01*
X-613524Y-350406D02*
X-608330Y-355600D01*
X-630936Y-350406D02*
X-613524D01*
X-630936Y-345402D02*
X-613410D01*
X-608368Y-340360D02*
X-602360D01*
X-613410Y-345402D02*
X-608368Y-340360D01*
X-616638Y-340398D02*
X-602360Y-326120D01*
Y-325120D01*
X-640080Y-350406D02*
X-630936D01*
X-643310Y-372110D02*
Y-353636D01*
X-640080Y-350406D01*
X-56990Y-577180D02*
X-51880Y-572070D01*
X-56990Y-600492D02*
Y-577180D01*
X-58478Y-601980D02*
X-56990Y-600492D01*
X-65880Y-601980D02*
X-58478D01*
X-51880Y-572070D02*
Y-570420D01*
X-37830Y-574800D02*
X-35830D01*
X-40560Y-572070D02*
X-37830Y-574800D01*
X-40560Y-572070D02*
Y-570420D01*
X-51880D02*
X-40560D01*
X-711870Y-328240D02*
X-709834Y-330276D01*
X-709910Y-335280D02*
X-680339D01*
X-680225Y-335394D01*
X-674738Y-330276D02*
X-674624Y-330391D01*
X-711870Y-337240D02*
X-709910Y-335280D01*
X-680225Y-335394D02*
X-674624D01*
X-709834Y-330276D02*
X-674738D01*
X-650215Y-335394D02*
X-630936D01*
X-652780Y-337960D02*
X-650215Y-335394D01*
X-652780Y-337960D02*
X-652172Y-338568D01*
X-652780Y-337960D02*
Y-325387D01*
X-674624D02*
X-652780D01*
X-680212Y-340398D02*
X-655218D01*
X-653660Y-338840D01*
X-652780Y-337960D01*
X-621221Y-355410D02*
X-604933Y-371698D01*
X-604075Y-370840D02*
X-602360D01*
X-604933Y-371698D02*
X-604075Y-370840D01*
X-630936Y-368136D02*
Y-360413D01*
Y-340398D02*
X-616638D01*
X-686646Y-352520D02*
X-683884Y-355283D01*
X-687917Y-360413D02*
X-674624D01*
X-690190Y-358740D02*
X-688960Y-359970D01*
X-688360D01*
X-687917Y-360413D01*
X-630936Y-335394D02*
Y-330391D01*
Y-325387D01*
Y-355410D02*
X-621221D01*
X-683884Y-355283D02*
X-674751D01*
X-674624Y-355410D01*
X-634310Y-372110D02*
Y-371510D01*
X-630936Y-368136D01*
X-699190Y-357540D02*
X-694170Y-352520D01*
X-686646D01*
X-690190Y-358740D02*
Y-358140D01*
X-699190D02*
Y-357540D01*
X-363110Y-403720D02*
X-362920Y-403531D01*
X-3810Y-573150D02*
X5000D01*
X-4810D02*
X-3810D01*
X-19320Y-557150D02*
X-7540Y-568930D01*
X-20320Y-557150D02*
X-19320D01*
X-7540Y-570420D02*
Y-568930D01*
Y-570420D02*
X-4810Y-573150D01*
X-304800Y-420370D02*
X-142240Y-582930D01*
X-129540D01*
X-415570Y-321310D02*
X-374650D01*
X-363220Y-332740D01*
X-386080Y-325120D02*
X-383540Y-327660D01*
X-427970Y-333710D02*
X-415570Y-321310D01*
X-427970Y-355300D02*
Y-333710D01*
X-446050Y-360210D02*
X-432880D01*
X-427970Y-355300D01*
X-414020Y-325120D02*
X-386080D01*
X-424180Y-335280D02*
X-414020Y-325120D01*
X-424180Y-356870D02*
Y-335280D01*
X-446050Y-365210D02*
X-432520D01*
X-424180Y-356870D01*
X-478790Y-467470D02*
Y-439420D01*
Y-467470D02*
X-472170Y-474090D01*
X-471170D01*
X-661670Y-702360D02*
X-661290Y-702740D01*
X-661670Y-702360D02*
X-654100D01*
X-661670D02*
X-661670D01*
X-654100D02*
X-647700Y-695960D01*
X-635890Y-585090D02*
X-567690Y-516890D01*
X-635890Y-687415D02*
Y-585090D01*
X-426990Y-380210D02*
X-426230Y-380970D01*
X-482600Y-324516D02*
Y-323850D01*
X-484050Y-325966D02*
X-482600Y-324516D01*
X-484050Y-342210D02*
Y-325966D01*
X-489050Y-320806D02*
X-488151Y-319906D01*
X-489050Y-334480D02*
Y-320806D01*
X-494040Y-342200D02*
Y-312430D01*
X-494030Y-312420D01*
X-501590Y-311090D02*
X-485530Y-295030D01*
X-501590Y-325473D02*
Y-311090D01*
X-485530Y-295030D02*
X-439810D01*
X-494050Y-342210D02*
X-494040Y-342200D01*
X-416560Y-653095D02*
Y-641350D01*
Y-653095D02*
X-415985Y-653670D01*
X-397510Y-653413D02*
X-397253Y-653670D01*
X-397510Y-653413D02*
Y-641350D01*
X-378521Y-653670D02*
X-378460Y-653609D01*
Y-641350D01*
X-499050Y-608071D02*
Y-423210D01*
X-457180Y-650940D02*
X-454450Y-653670D01*
X-453451D01*
X-457180Y-650940D02*
Y-649940D01*
X-499050Y-608071D02*
X-457180Y-649940D01*
X-422910Y-455820D02*
X-421860Y-454770D01*
Y-436880D01*
X-446050Y-385210D02*
X-430130D01*
X-411160Y-404180D01*
X-386650D01*
X-374570Y-429260D02*
X-362650Y-441180D01*
X-392430Y-429260D02*
X-374570D01*
X-362650Y-444180D02*
Y-441180D01*
X-431480Y-390210D02*
X-392430Y-429260D01*
X-446050Y-390210D02*
X-431480D01*
X-295910Y-382270D02*
X-295275Y-381635D01*
X-283835D02*
X-283200Y-381000D01*
X-295275Y-381635D02*
X-283835D01*
X-486410Y-483870D02*
Y-474090D01*
X-446050Y-355210D02*
Y-336830D01*
X-391160Y-281940D02*
X-329310D01*
X-446050Y-336830D02*
X-391160Y-281940D01*
X-459050Y-342210D02*
Y-334500D01*
X-373470Y-248920D01*
X-373380D01*
X-370840Y-246380D01*
X-330580D02*
X-328040Y-243840D01*
X-370840Y-246380D02*
X-330580D01*
X-382660Y-237880D02*
X-361450D01*
X-439810Y-295030D02*
X-382660Y-237880D01*
X-425389Y-380130D02*
X-419738Y-374478D01*
X-424605Y-365870D02*
X-394970D01*
X-446050Y-370210D02*
X-428945D01*
X-424605Y-365870D01*
X-394970D02*
X-377190D01*
X-479030Y-439180D02*
X-478790Y-439420D01*
X-479030Y-439180D02*
Y-430940D01*
X-487410Y-458090D02*
X-486410D01*
X-548480Y-400210D02*
X-534780D01*
X-548640Y-400050D02*
X-548480Y-400210D01*
X-446050Y-400210D02*
X-433600D01*
X-421860Y-411950D01*
Y-436880D02*
Y-411950D01*
X-585730Y-370210D02*
X-527050D01*
X-586360Y-370840D02*
X-585730Y-370210D01*
X-586360Y-356600D02*
X-577750Y-365210D01*
X-527050D01*
X-586360Y-356600D02*
Y-355600D01*
X-403860Y-455820D02*
Y-424590D01*
X-446050Y-395210D02*
X-433240D01*
X-403860Y-424590D01*
X-587320Y-325160D02*
Y-323160D01*
Y-325160D02*
X-557270Y-355210D01*
X-534780D01*
X-426230Y-380970D02*
X-425389Y-380130D01*
X-567510Y-360210D02*
X-527050D01*
X-586360Y-341360D02*
X-567510Y-360210D01*
X-586360Y-341360D02*
Y-340360D01*
X-384920Y-384810D02*
X-382190Y-387540D01*
Y-399180D02*
Y-387540D01*
Y-399180D02*
X-381920Y-399450D01*
X-386650Y-404180D02*
X-381920Y-399450D01*
X-365460Y-386270D02*
X-362920D01*
X-366920Y-384810D02*
X-365460Y-386270D01*
X-362920Y-403531D02*
Y-386270D01*
X-365540Y-463550D02*
X-364190Y-462200D01*
Y-445720D01*
X-362650Y-444180D01*
X-446050Y-380210D02*
X-446050D01*
X-446050Y-380210D02*
X-446050Y-380210D01*
X-446050Y-380210D02*
X-426990D01*
X-501590Y-325473D02*
X-499050Y-328013D01*
Y-342210D02*
Y-328013D01*
X-465089Y-375210D02*
X-446050D01*
X-446050Y-360210D02*
X-446050Y-360210D01*
X-464050Y-407030D02*
X-463820Y-406800D01*
X-464050Y-423210D02*
Y-407030D01*
X-699190Y-358140D02*
X-699190Y-358140D01*
X-712470Y-358140D02*
X-699190D01*
X-801984Y-444924D02*
X-761768Y-485140D01*
X-756950D01*
X-746990Y-495100D01*
X-805180Y-444500D02*
X-804756Y-444924D01*
X-801984D01*
X-798392Y-441332D02*
X-759664Y-480060D01*
X-756950D02*
X-746990Y-470100D01*
X-759664Y-480060D02*
X-756950D01*
X-798816Y-438136D02*
X-798392Y-438560D01*
Y-441332D02*
Y-438560D01*
X-811530Y-425920D02*
Y-422420D01*
X-813260Y-427650D02*
X-811530Y-425920D01*
X-814906Y-427650D02*
X-813260D01*
X-816604Y-429348D02*
X-814906Y-427650D01*
X-816604Y-431452D02*
Y-429348D01*
X-815116Y-432940D02*
X-806784D01*
X-816604Y-431452D02*
X-815116Y-432940D01*
X-806784D02*
X-802012Y-437712D01*
X-799240D01*
X-805604Y-444076D02*
Y-441304D01*
X-817911Y-438020D02*
X-808888D01*
X-805604Y-441304D01*
X-824491Y-431440D02*
X-817911Y-438020D01*
X-836930Y-425920D02*
X-831410Y-431440D01*
X-824491D01*
X-836930Y-425920D02*
Y-422420D01*
X-799240Y-437712D02*
X-798816Y-438136D01*
X-805604Y-444076D02*
X-805180Y-444500D01*
X-713070Y-328240D02*
X-711870D01*
X-713070Y-337240D02*
X-711870D01*
X-741320Y-310240D02*
X-721360Y-330200D01*
X-822306Y-310240D02*
X-741320D01*
X-743424Y-315320D02*
X-723464Y-335280D01*
X-820202Y-315320D02*
X-743424D01*
X-715030Y-330200D02*
X-713070Y-328240D01*
X-721360Y-330200D02*
X-715030D01*
X-826770Y-318912D02*
Y-314704D01*
X-822306Y-310240D01*
X-831410Y-320400D02*
X-828258D01*
X-826770Y-318912D01*
X-836930Y-325920D02*
X-831410Y-320400D01*
X-836930Y-329420D02*
Y-325920D01*
X-723464Y-335280D02*
X-715030D01*
X-713070Y-337240D01*
X-821690Y-318912D02*
Y-316808D01*
X-820202Y-315320D01*
X-821690Y-318912D02*
X-820202Y-320400D01*
X-811530Y-329420D02*
Y-325920D01*
X-820202Y-320400D02*
X-817050D01*
X-811530Y-325920D01*
X-672920Y-377770D02*
X-660400D01*
X-677900Y-378460D02*
X-674670Y-375230D01*
Y-375330D02*
Y-375230D01*
Y-375330D02*
X-672920Y-377080D01*
Y-377770D02*
Y-377080D01*
X-486630Y-474310D02*
X-486410Y-474090D01*
X-453451Y-653670D02*
X-453390Y-653610D01*
X-472060Y-474980D02*
X-471170Y-474090D01*
X8890Y-603250D02*
X10378Y-601762D01*
Y-578528D01*
X5000Y-573150D02*
X10378Y-578528D01*
X-33100Y-585770D02*
X-33020Y-585850D01*
X-33100Y-585770D02*
Y-577530D01*
X-35830Y-574800D02*
X-33100Y-577530D01*
X-160Y-603250D02*
X8890D01*
X12700Y-607060D01*
X-585090Y-728435D02*
Y-703035D01*
X-609808Y-4080D02*
X-591652D01*
X-576229Y-9080D02*
X-569578Y-2429D01*
X-568578D01*
X-609808Y-9080D02*
X-576229D01*
X-591652Y-4080D02*
X-589638Y-2065D01*
X-635890Y-728435D02*
Y-703415D01*
X-661290Y-728435D02*
Y-702740D01*
D14*
X-180340Y-246407D02*
Y-246380D01*
X-178876Y-247872D02*
X-178848D01*
X-180340Y-246407D02*
X-178876Y-247872D01*
X-166960Y-241240D02*
X-164210Y-238490D01*
X-167960Y-241240D02*
X-166960D01*
X-174592Y-247872D02*
X-167960Y-241240D01*
X-164210Y-238490D02*
Y-237490D01*
X-178848Y-247872D02*
X-174592D01*
X-464050Y-440139D02*
X-458484Y-445705D01*
Y-449594D02*
Y-445705D01*
X-464050Y-440139D02*
Y-423210D01*
X-58360Y-556050D02*
Y-541238D01*
Y-556050D02*
X-55610Y-558800D01*
X-54610D01*
X-41910Y-483210D02*
Y-478460D01*
X-60110Y-501410D02*
X-41910Y-483210D01*
X-60110Y-539488D02*
Y-501410D01*
Y-539488D02*
X-58360Y-541238D01*
X-572388Y-35339D02*
Y-28101D01*
X-574040Y-26450D02*
X-572388Y-28101D01*
X-574040Y-26450D02*
X-573214Y-25624D01*
X-572388Y-24798D01*
Y-35339D02*
X-548258D01*
Y-43339D02*
Y-35339D01*
X-572388Y-24798D02*
Y-19386D01*
X-605799D02*
X-572388D01*
X-647700Y-386080D02*
X-587602D01*
X-576732Y-375210D01*
X-527050D01*
X-514570Y-320650D02*
Y-308610D01*
Y-320650D02*
X-509050Y-326170D01*
X-636714Y-19080D02*
X-635714Y-20080D01*
X-509050Y-342210D02*
Y-326170D01*
X-713360Y-648590D02*
X-509050Y-444280D01*
X-732790Y-648590D02*
X-713360D01*
X-509050Y-444280D02*
Y-423210D01*
X-43180Y-439964D02*
X-40096Y-436880D01*
X-43180Y-450360D02*
Y-439964D01*
X-51560Y-458740D02*
X-43180Y-450360D01*
X-40096Y-436880D02*
X-7460D01*
X-51560Y-459740D02*
Y-458740D01*
X-77470Y-517550D02*
X-67310Y-527710D01*
X-77470Y-452236D02*
X-40524Y-415290D01*
X-77470Y-517550D02*
Y-452236D01*
X-40524Y-415290D02*
X48260D01*
X59120Y-426150D01*
Y-437540D02*
Y-426150D01*
X-67310Y-570740D02*
Y-532460D01*
Y-527710D01*
X-92953Y-554990D02*
X-81927D01*
X-105263D02*
X-92953D01*
X-585280Y-545910D02*
X-560070Y-520700D01*
X-585280Y-686845D02*
Y-545910D01*
X-504050Y-622440D02*
Y-423210D01*
Y-622440D02*
X-464820Y-661670D01*
X-439250Y-656420D02*
X-437468D01*
X-434718Y-653670D01*
X-464820Y-661670D02*
X-444500D01*
X-439250Y-656420D01*
X-86360Y-146110D02*
X-60617D01*
X-49530Y-254469D02*
Y-157197D01*
X-60617Y-146110D02*
X-49530Y-157197D01*
X-95520Y-137110D02*
X-95360D01*
X-86360Y-146110D01*
X-86270Y-149860D02*
X-62170D01*
X-95520Y-159110D02*
X-86270Y-149860D01*
X-62170D02*
X-53280Y-158750D01*
X-54141Y-259080D02*
X-49530Y-254469D01*
X-125730Y-259080D02*
X-54141D01*
X-125670Y-255330D02*
X-55694D01*
X-53280Y-252916D01*
Y-158750D01*
X-141580Y-274930D02*
X-125730Y-259080D01*
X-150270Y-274930D02*
X-141580D01*
X-148210Y-238490D02*
X-145460Y-241240D01*
X-139760D01*
X-148210Y-238490D02*
Y-237490D01*
X-139760Y-241240D02*
X-125670Y-255330D01*
X-150270Y-239550D02*
X-148210Y-237490D01*
X-150270Y-255930D02*
Y-239550D01*
X-154020Y-278680D02*
Y-277680D01*
X-155830Y-280490D02*
X-154020Y-278680D01*
X-155830Y-293370D02*
Y-280490D01*
X-151270Y-274930D02*
X-150270D01*
X-154020Y-277680D02*
X-151270Y-274930D01*
X-182210Y-244510D02*
X-180340Y-246380D01*
X-195550Y-243840D02*
X-194880Y-244510D01*
X-182210D01*
X-178848Y-265966D02*
Y-247872D01*
X-194880Y-268570D02*
X-181453D01*
X-195550Y-269240D02*
X-194880Y-268570D01*
X-181453D02*
X-178848Y-265966D01*
X-195550Y-294640D02*
X-193010D01*
X-177950Y-291600D02*
X-173600D01*
X-181282Y-294932D02*
X-177950Y-291600D01*
X-192718Y-294932D02*
X-181282D01*
X-193010Y-294640D02*
X-192718Y-294932D01*
X-527050Y-405210D02*
X-510609D01*
X-510430Y-405030D01*
X-195404Y-230994D02*
X-176026D01*
X-175880Y-230848D01*
X-195550Y-231140D02*
X-195404Y-230994D01*
X-172720Y-291480D02*
X-171450Y-290210D01*
Y-284480D01*
X-173600Y-291600D02*
X-171830Y-293370D01*
X-542398Y-405210D02*
X-527050D01*
X-552464Y-415276D02*
X-542398Y-405210D01*
X-552464Y-415276D02*
X-552464D01*
X-540299Y-418209D02*
Y-415709D01*
Y-418209D02*
X-539029Y-419479D01*
Y-427297D02*
Y-419479D01*
X-539736Y-428004D02*
X-539029Y-427297D01*
X-534800Y-410210D02*
X-527050D01*
X-540299Y-415709D02*
X-534800Y-410210D01*
X-509050Y-357790D02*
Y-342210D01*
X-459050Y-428040D02*
Y-423210D01*
Y-428040D02*
X-452929D01*
X-444930Y-436040D01*
X-445756Y-436866D02*
X-444930Y-436040D01*
X-445756Y-436866D02*
X-445756D01*
X-444930Y-436040D02*
X-439012Y-441957D01*
X-508270Y-358980D02*
Y-358570D01*
X-509050Y-357790D02*
X-508270Y-358570D01*
X-523509Y-441090D02*
Y-440419D01*
X-514050Y-430960D01*
Y-423210D01*
X-446050Y-410210D02*
X-433300D01*
X-429720Y-418359D02*
X-428859Y-419220D01*
X-429720Y-418359D02*
Y-413789D01*
X-433300Y-410210D02*
X-429720Y-413789D01*
X-434105Y-447037D02*
Y-446865D01*
X-439012Y-441957D02*
X-434105Y-446865D01*
X-434718Y-653670D02*
X-434340Y-653292D01*
X-41910Y-537210D02*
X-32743Y-546377D01*
X-15583D01*
X-4810Y-557150D01*
X-3810D01*
X-41910Y-537210D02*
Y-532460D01*
X-173008Y-307632D02*
X-172720Y-307920D01*
X-604523Y-44530D02*
X-604443Y-44609D01*
X-651729Y-44530D02*
X-604523D01*
X-651808Y-44450D02*
X-651729Y-44530D01*
X-548258Y-14385D02*
Y-2699D01*
Y-27339D02*
Y-14385D01*
X-605799D02*
X-548258D01*
X-747882Y-2699D02*
X-743114Y2069D01*
X-757808Y14879D02*
X-757427Y14880D01*
X-742868Y2540D02*
X-740709D01*
X-759838Y-2699D02*
X-747882D01*
X-743114Y2069D02*
X-742397D01*
X-757427Y14880D02*
X-736099Y14935D01*
X-681289Y-66670D02*
Y-52798D01*
X-778899Y-3115D02*
X-760442D01*
X-760348Y-3209D01*
X-759838Y-2699D01*
X-677299Y-4115D02*
X-676029Y-2845D01*
X-712526Y-2288D02*
X-710699Y-4115D01*
X-676029Y-20846D02*
X-674262Y-19080D01*
X-694699Y-4115D02*
X-677299D01*
X-681289Y-52798D02*
X-672941Y-44450D01*
X-740709Y2540D02*
X-739037Y4212D01*
X-676029Y-2845D02*
X-675029D01*
X-731909Y-2288D02*
X-712526D01*
X-739037Y4212D02*
X-666497D01*
X-674262Y-19080D02*
X-651808D01*
X-672941Y-44450D02*
X-651808D01*
X-663794Y-14080D02*
X-651808D01*
X-652058Y-8830D02*
X-651808Y-9080D01*
Y-44450D02*
Y-24080D01*
Y-19080D02*
X-636714D01*
X-635714Y-20080D02*
X-635308D01*
X-605799Y-24385D02*
X-590168D01*
X-604443Y-44609D02*
X-590438D01*
X-590168Y-44340D01*
Y-26339D02*
Y-24385D01*
X-661154Y-8830D02*
X-652058D01*
X-651808Y-4080D02*
Y8805D01*
X-674379Y14825D02*
X-673745Y14191D01*
X-675029Y-2845D02*
X-663794Y-14080D01*
X-666497Y4212D02*
X-665046Y2761D01*
X-673745Y14191D02*
X-655977D01*
X-665046Y2761D02*
X-663828D01*
Y-6155D02*
Y2761D01*
Y-6155D02*
X-661154Y-8830D01*
X-655977Y12973D02*
Y14191D01*
Y12973D02*
X-651808Y8805D01*
X-589638Y-4385D02*
Y-2065D01*
X-75690Y-579120D02*
X-67310Y-570740D01*
X-83440Y-579120D02*
X-75690D01*
X-105330Y-555057D02*
X-105263Y-554990D01*
X-81927D02*
X-81200Y-555717D01*
X-41910Y-478460D02*
X-29210D01*
X-54610Y-532460D02*
X-41910D01*
D17*
X-38030Y-595630D02*
X-20910Y-612750D01*
X-39750Y-593980D02*
X-38100Y-595630D01*
X-45130Y-592480D02*
X-43630Y-593980D01*
X-39750D01*
X-38100Y-595630D02*
X-38030D01*
X-46130Y-592480D02*
X-45130D01*
X-287050Y-218440D02*
X-272989D01*
X-317500Y-214630D02*
X-299631D01*
X-295821Y-218440D01*
X-287050D01*
X-332460Y-214630D02*
X-317500D01*
X-335000Y-212090D02*
X-332460Y-214630D01*
X-29210Y-496570D02*
X-28827Y-496953D01*
X-16470D02*
Y-496230D01*
X-28827Y-496953D02*
X-16470D01*
X-1270Y-507840D02*
Y-480060D01*
Y-507840D02*
X14370Y-523480D01*
X-20320Y-461010D02*
X-1270Y-480060D01*
X14370Y-523480D02*
X20910D01*
X-13970Y-527720D02*
Y-515730D01*
X-18710Y-532460D02*
X-13970Y-527720D01*
X-29210Y-532460D02*
X-18710D01*
X-464883Y-713802D02*
X-434718Y-683638D01*
Y-669670D01*
X-464883Y-735330D02*
Y-713802D01*
X-323850Y-313690D02*
Y-305490D01*
Y-313690D02*
X-323850Y-313690D01*
X-323850Y-305490D02*
X-312420D01*
X-411480Y-347870D02*
X-394970D01*
X-402860Y-473820D02*
X-394289Y-482391D01*
X-384909D01*
X-384700Y-482600D01*
X-422910Y-473820D02*
X-403860D01*
X-402860D01*
X-483490Y-736330D02*
Y-722630D01*
X-718091Y-21590D02*
X-717009D01*
X-732448Y-19749D02*
X-731769Y-20428D01*
X-363110Y-403720D02*
X-363110D01*
X-363110Y-422148D02*
Y-403720D01*
X-532570Y-308610D02*
X-531070Y-310110D01*
X-524741Y-324063D02*
Y-323430D01*
X-531070Y-317101D02*
Y-310110D01*
Y-317101D02*
X-531070D01*
X-524741Y-323430D01*
X-392470Y-345370D02*
X-390273Y-343173D01*
Y-339473D01*
X-389890Y-339090D01*
X-412480Y-347870D02*
X-411480D01*
X-412480Y-347870D02*
X-412480Y-347870D01*
X29913Y-436497D02*
X38370Y-428040D01*
X25400Y-436880D02*
X25783Y-436497D01*
X38370Y-428040D02*
X39370D01*
X25783Y-436497D02*
X29913D01*
X13290Y-446380D02*
X22407Y-437263D01*
X12290Y-446380D02*
X13290D01*
X-67310Y-478460D02*
Y-461010D01*
Y-455930D01*
X-57150Y-445770D01*
X-52450D02*
X-51180Y-444500D01*
X-57150Y-445770D02*
X-52450D01*
X-83859Y-608060D02*
X-82359Y-609560D01*
X-81359D01*
X-83859Y-608060D02*
Y-607060D01*
X-81359Y-609560D02*
X-76239Y-614680D01*
X-54610D01*
X-54069D01*
X-47630Y-612980D02*
X-46130Y-611480D01*
X-52369Y-612980D02*
X-47630D01*
X-54069Y-614680D02*
X-52369Y-612980D01*
X-20320Y-582930D02*
Y-573150D01*
X-39330Y-557300D02*
X-37830Y-558800D01*
X-39330Y-557300D02*
Y-556300D01*
X-40640Y-550290D02*
X-40257Y-550673D01*
X-37830Y-558800D02*
X-36830D01*
X-40257Y-555373D02*
X-39330Y-556300D01*
X-40257Y-555373D02*
Y-550673D01*
X-20115Y-593545D02*
Y-583135D01*
Y-593545D02*
X-19910Y-593750D01*
X-20320Y-582930D02*
X-20115Y-583135D01*
X-266639Y-289499D02*
Y-224790D01*
X-272989Y-218440D02*
X-266639Y-224790D01*
X-287050Y-294640D02*
X-271780D01*
X-266639Y-289499D01*
X-700595Y-665035D02*
X-700150Y-665480D01*
X-732345Y-665035D02*
X-700595D01*
X-732790Y-664590D02*
X-732345Y-665035D01*
X-762480Y-664590D02*
X-732790D01*
X-806450Y-708560D02*
X-801450Y-703560D01*
Y-703560D02*
X-762480Y-664590D01*
X-801450Y-703560D02*
Y-703560D01*
X-400050Y-335280D02*
X-399667Y-335663D01*
X-378190Y-347870D02*
X-377190D01*
X-334700Y-326390D02*
Y-305490D01*
X-344319D02*
X-335280D01*
X-344899Y-306070D02*
X-344319Y-305490D01*
X-345440Y-306070D02*
X-344899D01*
X-17410Y-614250D02*
X-12401D01*
X-10701Y-615950D01*
X-10160D01*
X-18910Y-612750D02*
X-17410Y-614250D01*
X-20910Y-612750D02*
X-18910D01*
X-88900Y-381000D02*
Y-363220D01*
X-139700Y-424180D02*
X-114300Y-398780D01*
X-106680D02*
X-88900Y-381000D01*
X-114300Y-398780D02*
X-106680D01*
X-139700Y-458470D02*
Y-424180D01*
X-101390Y-350730D02*
X-88900Y-363220D01*
X-104180Y-350730D02*
X-101390D01*
X-325700Y-334368D02*
Y-326390D01*
Y-338510D02*
Y-334368D01*
Y-338510D02*
X-325120Y-339090D01*
X-335280Y-305490D02*
X-334700D01*
X-344170Y-415290D02*
Y-336460D01*
X-334700Y-326990D01*
X-344170Y-415290D02*
X-288290Y-471170D01*
X-108600Y-568960D02*
X-99440Y-578120D01*
X-109220Y-568960D02*
X-108600D01*
X-99649Y-578329D02*
X-99440Y-578120D01*
X-35560Y-459740D02*
X-34290Y-461010D01*
X-20320D01*
X-35370Y-444690D02*
X-35180Y-444500D01*
X-35370Y-459550D02*
Y-444690D01*
X-35560Y-459740D02*
X-35370Y-459550D01*
X-51560Y-460740D02*
Y-459740D01*
X-54610Y-463790D02*
X-51560Y-460740D01*
X-54610Y-478460D02*
Y-463790D01*
X-661670Y-686360D02*
Y-670560D01*
X-325010Y-339090D02*
X-292100D01*
X-332740Y-356590D02*
Y-346710D01*
X-325120Y-339090D01*
X-333020Y-356870D02*
X-332740Y-356590D01*
X-325230Y-393700D02*
Y-378460D01*
X-333020Y-370670D02*
Y-356870D01*
Y-370670D02*
X-327730Y-375960D01*
X-292100Y-339090D02*
X-283200Y-347990D01*
Y-355600D02*
Y-347990D01*
X-343940Y-255880D02*
X-340671D01*
X-340011Y-256540D02*
X-310107D01*
X-340671Y-255880D02*
X-340011Y-256540D01*
X-345440Y-254380D02*
X-343940Y-255880D01*
X-361950Y-254380D02*
X-345440D01*
X-361950Y-254380D02*
X-361950Y-254380D01*
X-345440Y-238380D02*
X-344440D01*
X-337200Y-231140D01*
X-287050D01*
X-312040Y-244031D02*
Y-243840D01*
X-287241Y-244031D02*
X-287050Y-243840D01*
X-312040Y-244031D02*
X-287241D01*
X-335280Y-296490D02*
X-323850D01*
X-312420D01*
X-311820D02*
X-309970Y-294640D01*
X-287050D01*
X-313310Y-282086D02*
Y-281940D01*
X-287700D02*
X-287050D01*
X-287846Y-282086D02*
X-287700Y-281940D01*
X-313310Y-282086D02*
X-287846D01*
X-195550Y-320040D02*
X-193010D01*
X-184017Y-316920D02*
X-172720D01*
X-184319Y-317221D02*
X-184017Y-316920D01*
X-184319Y-319578D02*
Y-317221D01*
X-184781Y-320040D02*
X-184319Y-319578D01*
X-193010Y-320040D02*
X-184781D01*
X-310107Y-256540D02*
X-287050D01*
X-303441Y-269240D02*
X-287050D01*
X-310107Y-262573D02*
Y-256540D01*
Y-262573D02*
X-303441Y-269240D01*
X-335880Y-296490D02*
X-335280D01*
X12290Y-427380D02*
X13290D01*
X-385040Y-462050D02*
X-383540Y-463550D01*
X-385040Y-462050D02*
Y-445790D01*
X-386650Y-444180D02*
X-385040Y-445790D01*
X-384700Y-482600D02*
X-384317Y-482217D01*
Y-463632D01*
X-363110Y-403720D02*
X-362650Y-404180D01*
X-526768Y-326090D02*
X-524741Y-324063D01*
X-530860Y-330929D02*
X-526768Y-326836D01*
Y-326090D01*
X-530860Y-331470D02*
Y-330929D01*
X-361060Y-735330D02*
Y-699390D01*
X-378521Y-681929D02*
X-361060Y-699390D01*
X-378521Y-681929D02*
Y-669670D01*
X-430530Y-736459D02*
Y-697230D01*
X-415985Y-682685D02*
Y-669670D01*
X-430530Y-697230D02*
X-415985Y-682685D01*
X-499490Y-735330D02*
Y-725550D01*
X-453451Y-679510D02*
Y-669670D01*
X-499490Y-725550D02*
X-453451Y-679510D01*
X-395667Y-735330D02*
Y-671170D01*
X-397168Y-669670D02*
X-395667Y-671170D01*
X-397253Y-669670D02*
X-397168D01*
X-379730Y-744080D02*
X-352810D01*
X-414020D02*
X-379730D01*
Y-735393D02*
X-379668Y-735330D01*
X-379730Y-744080D02*
Y-735393D01*
X-448310Y-744080D02*
X-414020D01*
X-414275Y-735330D02*
X-414020Y-735585D01*
Y-744080D02*
Y-735585D01*
X-474740Y-744080D02*
X-448310D01*
X-448882Y-743508D02*
Y-735330D01*
Y-743508D02*
X-448310Y-744080D01*
X-481990Y-737830D02*
X-480990D01*
X-483490Y-736330D02*
X-481990Y-737830D01*
X-480990D02*
X-474740Y-744080D01*
X-483870Y-722630D02*
X-483490D01*
X-548258Y-77601D02*
Y-43339D01*
Y-77601D02*
X-540770Y-85090D01*
X-535690Y-80010D02*
X-511920D01*
X-540770Y-85090D02*
X-535690Y-80010D01*
X-335280Y-692537D02*
X-335259Y-692517D01*
X-335322Y-692496D02*
X-335280Y-692537D01*
X-99649Y-606851D02*
Y-578329D01*
X-101520Y-498047D02*
Y-497047D01*
X-172720Y-316920D02*
X-160020D01*
X-785532Y15571D02*
X-785422Y15461D01*
X-773428D01*
X-719253Y-20428D02*
X-718091Y-21590D01*
X-731769Y-20428D02*
X-719253D01*
X-760348Y-19209D02*
X-759809Y-19749D01*
X-732448D01*
X-717009Y-21590D02*
X-715986Y-20567D01*
X-676307D02*
X-676029Y-20846D01*
X-715986Y-20567D02*
X-676307D01*
X-690433Y14879D02*
X-690379Y14825D01*
X-720099Y14935D02*
X-720071Y14907D01*
X-705626D01*
Y15448D01*
X-705598Y14879D02*
X-690433D01*
X-345060Y-736330D02*
Y-735330D01*
X-335280Y-724550D02*
Y-692537D01*
X-345060Y-735330D02*
Y-734330D01*
X-335280Y-724550D01*
X-352810Y-744080D02*
X-345060Y-736330D01*
X-99859Y-607060D02*
X-99649Y-606851D01*
X-81530Y-524400D02*
X-81200Y-524730D01*
Y-537716D02*
Y-524730D01*
X-101520Y-498047D02*
Y-498047D01*
D18*
X-478790Y-439420D02*
D03*
X-647700Y-386080D02*
D03*
X-472749Y-365370D02*
D03*
X-467749Y-375370D02*
D03*
X-472749Y-385370D02*
D03*
X-467749Y-395370D02*
D03*
X-482749Y-365370D02*
D03*
X-477749Y-375370D02*
D03*
X-482749Y-385370D02*
D03*
X-477749Y-395370D02*
D03*
X-492749Y-365370D02*
D03*
X-487749Y-375370D02*
D03*
X-492749Y-385370D02*
D03*
X-487749Y-395370D02*
D03*
X-502749Y-365370D02*
D03*
X-497749Y-375370D02*
D03*
X-502749Y-385370D02*
D03*
X-497749Y-395370D02*
D03*
X42250Y-650290D02*
D03*
X17250Y-700290D02*
D03*
X-7750Y-650290D02*
D03*
X-32750Y-700290D02*
D03*
X-57750Y-650290D02*
D03*
X-132750Y-600290D02*
D03*
X-107750Y-650290D02*
D03*
X-132750Y-700290D02*
D03*
X-182750Y-500290D02*
D03*
Y-600290D02*
D03*
X-157750Y-650290D02*
D03*
X-182750Y-700290D02*
D03*
X-232750Y-500290D02*
D03*
Y-600290D02*
D03*
X-207750Y-650290D02*
D03*
X-232750Y-700290D02*
D03*
X-282750Y-500290D02*
D03*
X-257750Y-550290D02*
D03*
X-282750Y-600290D02*
D03*
X-257750Y-650290D02*
D03*
X-282750Y-700290D02*
D03*
X-332750Y-400290D02*
D03*
Y-500290D02*
D03*
X-307750Y-550290D02*
D03*
X-332750Y-600290D02*
D03*
X-307750Y-650290D02*
D03*
X-382750Y-200290D02*
D03*
X-357750Y-550290D02*
D03*
X-382750Y-600290D02*
D03*
X-357750Y-650290D02*
D03*
X-382750Y-700290D02*
D03*
X-432750Y-200290D02*
D03*
X-407750Y-550290D02*
D03*
X-432750Y-600290D02*
D03*
X-482750Y-200290D02*
D03*
X-457750Y-550290D02*
D03*
X-482750Y-600290D02*
D03*
X-532750Y-290D02*
D03*
X-507750Y-150290D02*
D03*
X-532750Y-200290D02*
D03*
Y-600290D02*
D03*
X-507750Y-650290D02*
D03*
X-532750Y-700290D02*
D03*
X-582750Y-100290D02*
D03*
Y-200290D02*
D03*
Y-300290D02*
D03*
X-557750Y-550290D02*
D03*
Y-650290D02*
D03*
X-607750Y-50290D02*
D03*
X-632750Y-100290D02*
D03*
Y-400290D02*
D03*
X-607750Y-450290D02*
D03*
X-632750Y-500290D02*
D03*
X-607750Y-650290D02*
D03*
X-657750Y-150290D02*
D03*
X-682750Y-400290D02*
D03*
Y-500290D02*
D03*
Y-600290D02*
D03*
Y-700290D02*
D03*
X-732750Y-400290D02*
D03*
X-707750Y-450290D02*
D03*
X-732750Y-500290D02*
D03*
X-707750Y-550290D02*
D03*
X-732750Y-600290D02*
D03*
X-707750Y-650290D02*
D03*
X-757750Y-50290D02*
D03*
Y-350290D02*
D03*
X-782750Y-400290D02*
D03*
X-757750Y-450290D02*
D03*
X-782750Y-500290D02*
D03*
X-757750Y-550290D02*
D03*
X-782750Y-600290D02*
D03*
X-757750Y-650290D02*
D03*
X-782750Y-700290D02*
D03*
X-832750Y-200290D02*
D03*
X-807750Y-250290D02*
D03*
X-832750Y-300290D02*
D03*
X-807750Y-350290D02*
D03*
X-832750Y-400290D02*
D03*
X-807750Y-450290D02*
D03*
X-832750Y-500290D02*
D03*
X-807750Y-550290D02*
D03*
X-832750Y-600290D02*
D03*
X-807750Y-650290D02*
D03*
X-832750Y-700290D02*
D03*
X-402749Y-305370D02*
D03*
Y-385370D02*
D03*
Y-485370D02*
D03*
X-407749Y-315370D02*
D03*
X-412749Y-385370D02*
D03*
X-407749Y-395370D02*
D03*
X-412749Y-425370D02*
D03*
Y-445370D02*
D03*
Y-465370D02*
D03*
X-422749Y-485370D02*
D03*
X-432749Y-265370D02*
D03*
Y-425370D02*
D03*
Y-465370D02*
D03*
Y-485370D02*
D03*
X-442749Y-265370D02*
D03*
X-437749Y-275370D02*
D03*
X-442749Y-305370D02*
D03*
X-437749Y-415370D02*
D03*
X-442749Y-425370D02*
D03*
X-437749Y-475370D02*
D03*
X-442749Y-485370D02*
D03*
X-452749Y-425370D02*
D03*
X-447749Y-475370D02*
D03*
X-452749Y-485370D02*
D03*
X-457749Y-315370D02*
D03*
X-462749Y-325370D02*
D03*
Y-485370D02*
D03*
X-472749Y-305370D02*
D03*
X-467749Y-315370D02*
D03*
X-472749Y-325370D02*
D03*
Y-485370D02*
D03*
X-482749Y-265370D02*
D03*
Y-285370D02*
D03*
X-477749Y-315370D02*
D03*
X-482749Y-505370D02*
D03*
X-492749Y-265370D02*
D03*
X-487749Y-275370D02*
D03*
X-492749Y-445370D02*
D03*
X-487749Y-495370D02*
D03*
X-492749Y-505370D02*
D03*
X-497749Y-295370D02*
D03*
X-512749Y-465370D02*
D03*
Y-485370D02*
D03*
Y-505370D02*
D03*
X-522749Y-325370D02*
D03*
Y-425370D02*
D03*
Y-485370D02*
D03*
X-517749Y-495370D02*
D03*
X-522749Y-505370D02*
D03*
X-532749Y-265370D02*
D03*
Y-285370D02*
D03*
X-527749Y-295370D02*
D03*
Y-435370D02*
D03*
Y-495370D02*
D03*
X-532749Y-505370D02*
D03*
X-542749Y-265370D02*
D03*
X-537749Y-275370D02*
D03*
Y-295370D02*
D03*
X-542749Y-305370D02*
D03*
Y-445370D02*
D03*
X-537749Y-495370D02*
D03*
X-542749Y-505370D02*
D03*
X-547749Y-295370D02*
D03*
Y-315370D02*
D03*
X-552749Y-325370D02*
D03*
X-547749Y-435370D02*
D03*
X-552749Y-445370D02*
D03*
X-547749Y-455370D02*
D03*
X-557749Y-295370D02*
D03*
Y-315370D02*
D03*
Y-335370D02*
D03*
Y-435370D02*
D03*
X-567749Y-295370D02*
D03*
X-582749Y-265370D02*
D03*
Y-285370D02*
D03*
X-577749Y-295370D02*
D03*
X-592749Y-265370D02*
D03*
X-587749Y-275370D02*
D03*
X-602749Y-285370D02*
D03*
X-607749Y-275370D02*
D03*
X-612749Y-285370D02*
D03*
X-622749Y-265370D02*
D03*
X-632749D02*
D03*
X-627749Y-275370D02*
D03*
X-632749Y-285370D02*
D03*
X-642749Y-265370D02*
D03*
X-637749Y-275370D02*
D03*
X-652749Y-265370D02*
D03*
Y-285370D02*
D03*
X-662749D02*
D03*
X-672749D02*
D03*
X-682749D02*
D03*
X-692749Y-265370D02*
D03*
X-687749Y-275370D02*
D03*
X-692749Y-285370D02*
D03*
X-129540Y-582930D02*
D03*
X-109220Y-568960D02*
D03*
X-445250Y-280370D02*
D03*
X-457750Y-305370D02*
D03*
X-482750D02*
D03*
X-495250Y-280370D02*
D03*
X-545250D02*
D03*
X-557750Y-305370D02*
D03*
X-545250Y-330370D02*
D03*
X-557750Y-455370D02*
D03*
X-595250Y-280370D02*
D03*
X-620250D02*
D03*
X-645250D02*
D03*
X-551180Y-499110D02*
D03*
X-661670Y-670560D02*
D03*
X-560070Y-520700D02*
D03*
X-567690Y-516890D02*
D03*
X-482600Y-323850D02*
D03*
X-487680Y-317500D02*
D03*
X-494030Y-312420D02*
D03*
X-416560Y-641350D02*
D03*
X-397510D02*
D03*
X-378460D02*
D03*
X-295910Y-382270D02*
D03*
X-486410Y-483870D02*
D03*
X-147320Y-308610D02*
D03*
X-144780Y-219710D02*
D03*
X-175880Y-230848D02*
D03*
X-171450Y-284480D02*
D03*
X-548640Y-400050D02*
D03*
X-425389Y-380130D02*
D03*
X-523509Y-441090D02*
D03*
X-797560Y-160020D02*
D03*
X-33020Y-585850D02*
D03*
X12700Y-607060D02*
D03*
X-742397Y2069D02*
D03*
X-663828Y2761D02*
D03*
X-655977Y14191D02*
D03*
X-783590Y-160020D02*
D03*
X-797560Y-172720D02*
D03*
X-783590D02*
D03*
X-769620Y-160020D02*
D03*
Y-172720D02*
D03*
X-755650Y-160020D02*
D03*
Y-172720D02*
D03*
X-651808Y-44450D02*
D03*
X-604443Y-44609D02*
D03*
D53*
X41910Y-538480D02*
D03*
Y-468480D02*
D03*
D58*
X-104180Y-372441D02*
D03*
Y-350730D02*
D03*
Y-328883D02*
D03*
X-120920Y-137110D02*
D03*
Y-159110D02*
D03*
Y-181110D02*
D03*
X-95520Y-115110D02*
D03*
Y-137110D02*
D03*
Y-159110D02*
D03*
Y-181110D02*
D03*
X-746990Y-495100D02*
D03*
Y-470100D02*
D03*
D70*
X-13970Y-497730D02*
D03*
Y-515730D02*
D03*
X-411480Y-347870D02*
D03*
Y-365870D02*
D03*
X-394970Y-347870D02*
D03*
Y-365870D02*
D03*
X-377190D02*
D03*
Y-347870D02*
D03*
X-361950Y-254380D02*
D03*
Y-238380D02*
D03*
X-359410Y-365870D02*
D03*
Y-347870D02*
D03*
X-422910Y-455820D02*
D03*
Y-473820D02*
D03*
X-403860Y-455820D02*
D03*
Y-473820D02*
D03*
X-345440Y-254380D02*
D03*
Y-238380D02*
D03*
X-486410Y-458090D02*
D03*
Y-474090D02*
D03*
X-471170Y-474090D02*
D03*
Y-458090D02*
D03*
X-778899Y-3115D02*
D03*
Y-19115D02*
D03*
X-760348Y-19209D02*
D03*
Y-3209D02*
D03*
X-731909Y-20289D02*
D03*
Y-2289D02*
D03*
X-676029Y-20845D02*
D03*
Y-2845D02*
D03*
X-590168Y-26339D02*
D03*
Y-44339D02*
D03*
X-589638Y13935D02*
D03*
Y-2065D02*
D03*
X-574040Y-44450D02*
D03*
Y-26450D02*
D03*
X-548258Y-27339D02*
D03*
Y-43339D02*
D03*
X-604520Y-242460D02*
D03*
Y-260460D02*
D03*
X-568578Y15571D02*
D03*
Y-2429D02*
D03*
X-548258Y13301D02*
D03*
Y-2699D02*
D03*
X-434718Y-653670D02*
D03*
Y-669670D02*
D03*
X-415985Y-653670D02*
D03*
Y-669670D02*
D03*
X-397253Y-653670D02*
D03*
Y-669670D02*
D03*
X-661670Y-702360D02*
D03*
Y-686360D02*
D03*
X-453451Y-653670D02*
D03*
Y-669670D02*
D03*
X-378521Y-653670D02*
D03*
Y-669670D02*
D03*
X-635890Y-703415D02*
D03*
Y-687415D02*
D03*
X-585090Y-703035D02*
D03*
Y-687036D02*
D03*
X-3810Y-573150D02*
D03*
Y-557150D02*
D03*
X-20320Y-557150D02*
D03*
Y-573150D02*
D03*
X-105330Y-555057D02*
D03*
Y-537057D02*
D03*
X-81200Y-555717D02*
D03*
Y-537717D02*
D03*
X-36830Y-574800D02*
D03*
Y-558800D02*
D03*
X-54610Y-574800D02*
D03*
Y-558800D02*
D03*
X-732790Y-664590D02*
D03*
Y-648590D02*
D03*
X-157480Y-219820D02*
D03*
Y-201820D02*
D03*
D71*
X-47850Y-8890D02*
D03*
X-90850D02*
D03*
D72*
X-543310Y-151130D02*
D03*
X-607310D02*
D03*
X-604770Y-85090D02*
D03*
X-540770D02*
D03*
D73*
X-720200Y-285750D02*
D03*
X-702200D02*
D03*
X-514570Y-308610D02*
D03*
X-532570D02*
D03*
X-602360Y-325120D02*
D03*
X-586360D02*
D03*
X-602360Y-370840D02*
D03*
X-586360D02*
D03*
X-602360Y-340360D02*
D03*
X-586360D02*
D03*
X-602360Y-355600D02*
D03*
X-586360D02*
D03*
X-384920Y-384810D02*
D03*
X-366920D02*
D03*
X-365540Y-463550D02*
D03*
X-383540D02*
D03*
X-513190Y-176530D02*
D03*
X-495190D02*
D03*
X-164210Y-237490D02*
D03*
X-148210D02*
D03*
X-171830Y-293370D02*
D03*
X-155830D02*
D03*
X-328040Y-243840D02*
D03*
X-312040D02*
D03*
X-329310Y-281940D02*
D03*
X-313310D02*
D03*
X-757428Y15461D02*
D03*
X-773428D02*
D03*
X-714900Y-256540D02*
D03*
X-732900D02*
D03*
X-736099Y14935D02*
D03*
X-720099D02*
D03*
X-710699Y-4115D02*
D03*
X-694699D02*
D03*
X-690379Y14825D02*
D03*
X-674379D02*
D03*
X-511920Y-80010D02*
D03*
X-493920D02*
D03*
X-430275Y-735330D02*
D03*
X-414275D02*
D03*
X-395667D02*
D03*
X-379668D02*
D03*
X-345060D02*
D03*
X-361060D02*
D03*
X-464883D02*
D03*
X-448882D02*
D03*
X-483490D02*
D03*
X-499490D02*
D03*
X-684150Y-665480D02*
D03*
X-700150D02*
D03*
X-99859Y-607060D02*
D03*
X-83859D02*
D03*
X-83440Y-579120D02*
D03*
X-99440D02*
D03*
X-157590Y-350520D02*
D03*
X-139590D02*
D03*
X-307230Y-378460D02*
D03*
X-325230D02*
D03*
X-307230Y-393700D02*
D03*
X-325230D02*
D03*
X-51560Y-459740D02*
D03*
X-35560D02*
D03*
X-35180Y-444500D02*
D03*
X-51180D02*
D03*
D74*
X-674624Y-360413D02*
D03*
Y-355410D02*
D03*
Y-350406D02*
D03*
Y-345402D02*
D03*
Y-340398D02*
D03*
Y-335394D02*
D03*
Y-330391D02*
D03*
Y-325387D02*
D03*
X-630936D02*
D03*
Y-330391D02*
D03*
Y-335394D02*
D03*
Y-340398D02*
D03*
Y-345402D02*
D03*
Y-350406D02*
D03*
Y-355410D02*
D03*
Y-360413D02*
D03*
D75*
X-824230Y-422420D02*
D03*
X-798830Y-329420D02*
D03*
X-836930Y-422420D02*
D03*
X-811530D02*
D03*
X-798830D02*
D03*
X-811530Y-329420D02*
D03*
X-786130D02*
D03*
X-773430D02*
D03*
Y-422420D02*
D03*
X-748030Y-329420D02*
D03*
X-786130Y-422420D02*
D03*
X-760730D02*
D03*
Y-329420D02*
D03*
X-748030Y-422420D02*
D03*
X-824230Y-329420D02*
D03*
X-836930D02*
D03*
D76*
X-805180Y-444500D02*
D03*
X-798816Y-438136D02*
D03*
D77*
X-283200Y-355600D02*
D03*
Y-368300D02*
D03*
Y-381000D02*
D03*
Y-393700D02*
D03*
X-186700D02*
D03*
Y-381000D02*
D03*
Y-368300D02*
D03*
Y-355600D02*
D03*
D78*
X-464820Y-220110D02*
D03*
Y-270110D02*
D03*
X-514350D02*
D03*
Y-220110D02*
D03*
X-563880Y-270110D02*
D03*
Y-220110D02*
D03*
X-669290Y-268840D02*
D03*
Y-218840D02*
D03*
D79*
X-446050Y-410210D02*
D03*
Y-405210D02*
D03*
Y-400210D02*
D03*
Y-395210D02*
D03*
Y-390210D02*
D03*
Y-385210D02*
D03*
Y-380210D02*
D03*
Y-375210D02*
D03*
Y-370210D02*
D03*
Y-365210D02*
D03*
Y-360210D02*
D03*
Y-355210D02*
D03*
X-527050D02*
D03*
Y-360210D02*
D03*
Y-365210D02*
D03*
Y-370210D02*
D03*
Y-375210D02*
D03*
Y-380210D02*
D03*
Y-385210D02*
D03*
Y-390210D02*
D03*
Y-395210D02*
D03*
Y-400210D02*
D03*
Y-405210D02*
D03*
Y-410210D02*
D03*
D80*
X-459050Y-342210D02*
D03*
X-464050D02*
D03*
X-469050D02*
D03*
X-474050D02*
D03*
X-479050D02*
D03*
X-484050D02*
D03*
X-489050D02*
D03*
X-494050D02*
D03*
X-499050D02*
D03*
X-504050D02*
D03*
X-509050D02*
D03*
X-514050D02*
D03*
Y-423210D02*
D03*
X-509050D02*
D03*
X-504050D02*
D03*
X-499050D02*
D03*
X-494050D02*
D03*
X-489050D02*
D03*
X-484050D02*
D03*
X-479050D02*
D03*
X-474050D02*
D03*
X-469050D02*
D03*
X-464050D02*
D03*
X-459050D02*
D03*
D81*
X-445756Y-436866D02*
D03*
X-458484Y-449594D02*
D03*
D82*
X-362650Y-444180D02*
D03*
Y-404180D02*
D03*
X-386650D02*
D03*
Y-444180D02*
D03*
D83*
X-421860Y-436880D02*
D03*
X-403860D02*
D03*
D84*
X-539736Y-428004D02*
D03*
X-552464Y-415276D02*
D03*
D85*
X-660400Y-377770D02*
D03*
Y-386770D02*
D03*
X-712470Y-337240D02*
D03*
Y-328240D02*
D03*
X-712470Y-358140D02*
D03*
Y-349140D02*
D03*
X-312420Y-305490D02*
D03*
Y-296490D02*
D03*
X-323850D02*
D03*
Y-305490D02*
D03*
X-172720Y-307920D02*
D03*
Y-316920D02*
D03*
X-160020D02*
D03*
Y-307920D02*
D03*
X-173990Y-208860D02*
D03*
Y-217860D02*
D03*
X-317500Y-214630D02*
D03*
Y-205630D02*
D03*
X-335280Y-296490D02*
D03*
Y-305490D02*
D03*
D86*
X-643310Y-372110D02*
D03*
X-634310D02*
D03*
X-690190Y-358140D02*
D03*
X-699190D02*
D03*
X-683840Y-312420D02*
D03*
X-692840D02*
D03*
X-334700Y-326390D02*
D03*
X-325700D02*
D03*
D87*
X-706400Y-378460D02*
D03*
X-677900D02*
D03*
X-304520Y-356870D02*
D03*
X-333020D02*
D03*
X-363500Y-212090D02*
D03*
X-335000D02*
D03*
D88*
X-760290Y-205740D02*
D03*
X-705290D02*
D03*
X-712918Y-132190D02*
D03*
X-657918D02*
D03*
D89*
X-150270Y-274930D02*
D03*
Y-255930D02*
D03*
X-170020Y-265430D02*
D03*
X-19910Y-593750D02*
D03*
Y-612750D02*
D03*
X-160Y-603250D02*
D03*
X-46130Y-611480D02*
D03*
Y-592480D02*
D03*
X-65880Y-601980D02*
D03*
X39370Y-428040D02*
D03*
Y-447040D02*
D03*
X59120Y-437540D02*
D03*
X12290Y-446380D02*
D03*
Y-427380D02*
D03*
X-7460Y-436880D02*
D03*
D90*
X-609808Y-24080D02*
D03*
Y-19080D02*
D03*
Y-14080D02*
D03*
Y-9080D02*
D03*
Y-4080D02*
D03*
X-651808D02*
D03*
Y-9080D02*
D03*
Y-14080D02*
D03*
Y-19080D02*
D03*
Y-24080D02*
D03*
D91*
X-630808Y-14080D02*
D03*
D92*
X-802120Y-69850D02*
D03*
X-737120D02*
D03*
D93*
X-681289Y-66670D02*
D03*
X-641288D02*
D03*
D94*
X-29210Y-532460D02*
D03*
X-41910D02*
D03*
X-54610D02*
D03*
X-67310D02*
D03*
Y-478460D02*
D03*
X-54610D02*
D03*
X-41910D02*
D03*
X-29210D02*
D03*
D95*
X-152400Y-370560D02*
D03*
Y-399060D02*
D03*
D96*
X-195550Y-320040D02*
D03*
X-287050D02*
D03*
X-195550Y-307340D02*
D03*
X-287050D02*
D03*
Y-218440D02*
D03*
Y-231140D02*
D03*
Y-243840D02*
D03*
Y-256540D02*
D03*
Y-269240D02*
D03*
Y-281940D02*
D03*
Y-294640D02*
D03*
X-195550Y-205740D02*
D03*
Y-218440D02*
D03*
Y-231140D02*
D03*
Y-243840D02*
D03*
Y-256540D02*
D03*
Y-269240D02*
D03*
Y-281940D02*
D03*
Y-294640D02*
D03*
D97*
X-287050Y-205740D02*
D03*
D98*
X-101520Y-498047D02*
D03*
Y-434047D02*
D03*
D99*
X-524741Y-323430D02*
X-520457Y-327714D01*
X-174590Y-217860D02*
X-173990D01*
X-195550Y-218440D02*
X-175170D01*
X-174590Y-217860D01*
X-195550Y-307340D02*
X-193010D01*
X-173010Y-307630D02*
X-173008Y-307632D01*
X-192720Y-307630D02*
X-173010D01*
X-193010Y-307340D02*
X-192720Y-307630D01*
X-159675Y-308265D02*
X-147665D01*
X-160020Y-307920D02*
X-159675Y-308265D01*
X-147665D02*
X-147320Y-308610D01*
X-157480Y-219820D02*
X-157425Y-219765D01*
X-144835D02*
X-144780Y-219710D01*
X-157425Y-219765D02*
X-144835D01*
X-158940Y-218360D02*
X-157480Y-219820D01*
X-173490Y-218360D02*
X-158940D01*
X-173990Y-217860D02*
X-173490Y-218360D01*
X-520457Y-329553D02*
Y-327714D01*
Y-329553D02*
X-514050Y-335960D01*
Y-342210D02*
Y-335960D01*
X-172720Y-307920D02*
X-160020D01*
D100*
X-730250Y-163830D02*
X-712918Y-146498D01*
Y-132190D01*
D101*
X-94520Y-441960D02*
X-83820D01*
X-116840Y-8890D02*
X-90850D01*
X-152120Y-370840D02*
X-138430D01*
X-152400Y-370560D02*
X-152120Y-370840D01*
X-124460Y-350520D02*
Y-334741D01*
Y-391160D02*
Y-350520D01*
X-139590D02*
X-124460D01*
X-120133Y-330414D02*
X-105711D01*
X-104180Y-328883D01*
X-124460Y-334741D02*
X-120133Y-330414D01*
X-132360Y-399060D02*
X-124460Y-391160D01*
X-152400Y-399060D02*
X-132360D01*
X-186700Y-393700D02*
X-160260D01*
X-154900Y-399060D01*
X-152400D01*
X-154900Y-370560D02*
X-152400D01*
X-156150Y-369310D02*
Y-351960D01*
Y-369310D02*
X-154900Y-370560D01*
X-157590Y-350520D02*
X-156150Y-351960D01*
X-186700Y-355600D02*
X-162670D01*
X-157590Y-350520D01*
X-120920Y-115110D02*
X-95520D01*
X-464820Y-222110D02*
Y-220110D01*
X-495190Y-176530D02*
X-493920Y-175260D01*
Y-80010D01*
X-543310Y-151130D02*
X-542040Y-149860D01*
Y-86360D01*
X-540770Y-85090D01*
X-567420Y-223650D02*
X-563880Y-220110D01*
X-105330Y-537057D02*
Y-537057D01*
X-101520Y-434960D02*
X-94520Y-441960D01*
X-105330Y-501857D02*
X-101520Y-498047D01*
X-105330Y-537057D02*
Y-501857D01*
D102*
X-120920Y-181110D02*
X-95520D01*
X-210450Y-105780D02*
X-135694Y-180536D01*
X-210450Y-105780D02*
Y1270D01*
X-121494Y-180536D02*
X-120920Y-181110D01*
X-135694Y-180536D02*
X-121494D01*
X-95520Y-115110D02*
X-94946Y-114536D01*
X-68816D01*
X-47850Y-93570D01*
Y-8890D01*
D103*
X0Y30000D02*
D03*
X-850000D02*
D03*
Y-730000D02*
D03*
X60000D02*
D03*
D104*
X-104180Y-306730D02*
D03*
X-120920Y-115110D02*
D03*
D105*
X-43180Y-379730D02*
D03*
Y-299730D02*
D03*
X-89020Y-73110D02*
D03*
Y-223110D02*
D03*
D106*
X-33020Y-118110D02*
D03*
D107*
X-818790Y-495100D02*
D03*
Y-470100D02*
D03*
X-585090Y-728435D02*
D03*
X-610490D02*
D03*
X-635890D02*
D03*
X-559690D02*
D03*
X-534290D02*
D03*
D108*
X49530Y-10160D02*
D03*
D109*
Y15240D02*
D03*
D110*
X-185050Y1270D02*
D03*
D111*
X-388250D02*
D03*
X-235850Y-151130D02*
D03*
Y1270D02*
D03*
X-439050Y-151130D02*
D03*
X-388250D02*
D03*
X-210450D02*
D03*
X-439050Y1270D02*
D03*
X-210450D02*
D03*
D112*
X-622200Y-210320D02*
D03*
X-410110D02*
D03*
X-95860Y-700320D02*
D03*
X0Y-20320D02*
D03*
X-725860Y-700320D02*
D03*
X-830860Y9680D02*
D03*
X-305970Y-720320D02*
D03*
D113*
X-626309Y-20080D02*
D03*
X-635308D02*
D03*
X-630808Y-14080D02*
D03*
X-626309Y-8080D02*
D03*
X-635308D02*
D03*
D114*
X-661290Y-728435D02*
D03*
D115*
X-806450Y-708560D02*
D03*
D116*
Y-632560D02*
D03*
D117*
X20910Y-503480D02*
D03*
Y-523480D02*
D03*
Y-483480D02*
D03*
D118*
X-29210Y-496570D02*
D03*
X-323850Y-313690D02*
D03*
X-389890Y-339090D02*
D03*
X25400Y-436880D02*
D03*
X-67310Y-461010D02*
D03*
X-54610Y-614680D02*
D03*
X-20320Y-582930D02*
D03*
X-40640Y-550290D02*
D03*
X-400050Y-335280D02*
D03*
X-730250Y-163830D02*
D03*
X-345440Y-306070D02*
D03*
X-10160Y-615950D02*
D03*
X-288290Y-471170D02*
D03*
X-139700Y-458470D02*
D03*
X-83820Y-441960D02*
D03*
X-116840Y-8890D02*
D03*
X-363220Y-332740D02*
D03*
X-304800Y-420370D02*
D03*
X-383540Y-327660D02*
D03*
X-205740Y-359410D02*
D03*
X-138430Y-370840D02*
D03*
X-384700Y-482600D02*
D03*
X-530860Y-331470D02*
D03*
X-363110Y-422148D02*
D03*
X-785422Y15461D02*
D03*
X-717550Y-21590D02*
D03*
X-335280Y-692537D02*
D03*
X-483870Y-722630D02*
D03*
X-205740Y-383540D02*
D03*
X-92953Y-554990D02*
D03*
X-81530Y-524400D02*
D03*
M02*
