G04*
G04 #@! TF.GenerationSoftware,Altium Limited,Altium Designer,21.0.9 (235)*
G04*
G04 Layer_Color=16711935*
%FSLAX44Y44*%
%MOMM*%
G71*
G04*
G04 #@! TF.SameCoordinates,FA964728-6FA9-4AF5-8778-7C994F639020*
G04*
G04*
G04 #@! TF.FilePolarity,Negative*
G04*
G01*
G75*
%ADD43R,1.3500X1.8500*%
%ADD54C,1.8000*%
%ADD55R,1.8000X1.8000*%
%ADD56C,1.1000*%
%ADD57C,1.9000*%
%ADD58R,1.9000X1.9000*%
%ADD59C,4.1000*%
%ADD60C,1.7500*%
%ADD61R,2.1000X2.1000*%
%ADD62C,2.1000*%
%ADD63R,1.2500X1.2500*%
%ADD64C,1.2500*%
%ADD65C,3.6000*%
G04:AMPARAMS|DCode=66|XSize=1.6mm|YSize=1.6mm|CornerRadius=0.125mm|HoleSize=0mm|Usage=FLASHONLY|Rotation=180.000|XOffset=0mm|YOffset=0mm|HoleType=Round|Shape=RoundedRectangle|*
%AMROUNDEDRECTD66*
21,1,1.6000,1.3500,0,0,180.0*
21,1,1.3500,1.6000,0,0,180.0*
1,1,0.2500,-0.6750,0.6750*
1,1,0.2500,0.6750,0.6750*
1,1,0.2500,0.6750,-0.6750*
1,1,0.2500,-0.6750,-0.6750*
%
%ADD66ROUNDEDRECTD66*%
%ADD67C,1.6000*%
%ADD68O,2.7160X1.4080*%
%ADD69C,1.2000*%
%ADD70C,0.6000*%
%ADD122R,1.3000X1.8500*%
D43*
X-221260Y-339090D02*
D03*
Y-416560D02*
D03*
Y-360680D02*
D03*
Y-386080D02*
D03*
D54*
X-601980Y-585470D02*
D03*
X-576580D02*
D03*
X-551180D02*
D03*
X-627380D02*
D03*
X-652780D02*
D03*
X-818790Y-495100D02*
D03*
Y-470100D02*
D03*
D55*
X-525780Y-585470D02*
D03*
D56*
X0Y30000D02*
D03*
X-850000D02*
D03*
Y-730000D02*
D03*
X60000D02*
D03*
D57*
X-105450Y-369891D02*
D03*
Y-348180D02*
D03*
Y-326333D02*
D03*
X-120920Y-137110D02*
D03*
Y-159110D02*
D03*
Y-181110D02*
D03*
X-95520Y-115110D02*
D03*
Y-137110D02*
D03*
Y-159110D02*
D03*
Y-181110D02*
D03*
X-746990Y-495100D02*
D03*
Y-470100D02*
D03*
D58*
X-105450Y-304180D02*
D03*
X-120920Y-115110D02*
D03*
D59*
X-44450Y-377180D02*
D03*
Y-297180D02*
D03*
X-89020Y-73110D02*
D03*
Y-223110D02*
D03*
D60*
X-33020Y-118110D02*
D03*
D61*
X49530Y-10160D02*
D03*
D62*
Y15240D02*
D03*
D63*
X-185050Y1270D02*
D03*
D64*
X-388250D02*
D03*
X-235850Y-151130D02*
D03*
Y1270D02*
D03*
X-439050Y-151130D02*
D03*
X-388250D02*
D03*
X-210450D02*
D03*
X-439050Y1270D02*
D03*
X-210450D02*
D03*
D65*
X-622200Y-210320D02*
D03*
X-410110D02*
D03*
X-95860Y-700320D02*
D03*
X0Y-20320D02*
D03*
X-725860Y-700320D02*
D03*
X-830860Y9680D02*
D03*
X-305970Y-720320D02*
D03*
D66*
X-806450Y-708560D02*
D03*
D67*
Y-632560D02*
D03*
D68*
X29800Y-452830D02*
D03*
Y-472830D02*
D03*
Y-432830D02*
D03*
D69*
X50800Y-487830D02*
D03*
Y-417830D02*
D03*
D70*
X-472749Y-365370D02*
D03*
X-467749Y-375370D02*
D03*
X-472749Y-385370D02*
D03*
X-467749Y-395370D02*
D03*
X-482749Y-365370D02*
D03*
X-477749Y-375370D02*
D03*
X-482749Y-385370D02*
D03*
X-477749Y-395370D02*
D03*
X-492749Y-365370D02*
D03*
X-487749Y-375370D02*
D03*
X-492749Y-385370D02*
D03*
X-487749Y-395370D02*
D03*
X-502749Y-365370D02*
D03*
X-497749Y-375370D02*
D03*
X-502749Y-385370D02*
D03*
X-497749Y-395370D02*
D03*
X40800Y-653530D02*
D03*
X15800Y-703530D02*
D03*
X-9200Y-653530D02*
D03*
X-34200Y-703530D02*
D03*
X-59200Y-653530D02*
D03*
X-134200Y-603530D02*
D03*
X-109200Y-653530D02*
D03*
X-134200Y-703530D02*
D03*
X-184200Y-503530D02*
D03*
Y-603530D02*
D03*
X-159200Y-653530D02*
D03*
X-184200Y-703530D02*
D03*
X-234200Y-503530D02*
D03*
Y-603530D02*
D03*
X-209200Y-653530D02*
D03*
X-234200Y-703530D02*
D03*
X-284200Y-503530D02*
D03*
X-259200Y-553530D02*
D03*
X-284200Y-603530D02*
D03*
X-259200Y-653530D02*
D03*
X-284200Y-703530D02*
D03*
X-334200Y-403530D02*
D03*
Y-503530D02*
D03*
X-309200Y-553530D02*
D03*
X-334200Y-603530D02*
D03*
X-309200Y-653530D02*
D03*
X-384200Y-203530D02*
D03*
X-359200Y-553530D02*
D03*
X-384200Y-603530D02*
D03*
X-434200Y-203530D02*
D03*
X-409200Y-553530D02*
D03*
X-434200Y-603530D02*
D03*
X-484200Y-203530D02*
D03*
X-459200Y-553530D02*
D03*
X-484200Y-603530D02*
D03*
X-534200Y-3530D02*
D03*
X-509200Y-153530D02*
D03*
X-534200Y-203530D02*
D03*
Y-603530D02*
D03*
X-584200Y-103530D02*
D03*
Y-203530D02*
D03*
Y-303530D02*
D03*
X-559200Y-553530D02*
D03*
X-609200Y-53530D02*
D03*
X-634200Y-103530D02*
D03*
Y-403530D02*
D03*
X-609200Y-453530D02*
D03*
X-634200Y-503530D02*
D03*
X-659200Y-153530D02*
D03*
X-684200Y-403530D02*
D03*
Y-503530D02*
D03*
Y-603530D02*
D03*
X-734200Y-403530D02*
D03*
X-709200Y-453530D02*
D03*
X-734200Y-503530D02*
D03*
X-709200Y-553530D02*
D03*
X-734200Y-603530D02*
D03*
X-709200Y-653530D02*
D03*
X-759200Y-53530D02*
D03*
Y-353530D02*
D03*
X-784200Y-403530D02*
D03*
X-759200Y-453530D02*
D03*
X-784200Y-503530D02*
D03*
X-759200Y-553530D02*
D03*
X-784200Y-603530D02*
D03*
X-759200Y-653530D02*
D03*
X-784200Y-703530D02*
D03*
X-834200Y-203530D02*
D03*
X-809200Y-253530D02*
D03*
X-834200Y-303530D02*
D03*
X-809200Y-353530D02*
D03*
X-834200Y-403530D02*
D03*
X-809200Y-453530D02*
D03*
X-834200Y-503530D02*
D03*
X-809200Y-553530D02*
D03*
X-834200Y-603530D02*
D03*
X-809200Y-653530D02*
D03*
X-834200Y-703530D02*
D03*
X-402749Y-305370D02*
D03*
Y-385370D02*
D03*
Y-485370D02*
D03*
X-407749Y-315370D02*
D03*
X-412749Y-385370D02*
D03*
X-407749Y-395370D02*
D03*
X-412749Y-425370D02*
D03*
Y-445370D02*
D03*
Y-465370D02*
D03*
X-422749Y-485370D02*
D03*
X-432749Y-265370D02*
D03*
Y-425370D02*
D03*
Y-465370D02*
D03*
Y-485370D02*
D03*
X-442749Y-265370D02*
D03*
X-437749Y-275370D02*
D03*
X-442749Y-305370D02*
D03*
X-437749Y-415370D02*
D03*
X-442749Y-425370D02*
D03*
X-437749Y-475370D02*
D03*
X-442749Y-485370D02*
D03*
X-452749Y-425370D02*
D03*
X-447749Y-475370D02*
D03*
X-452749Y-485370D02*
D03*
X-457749Y-315370D02*
D03*
X-462749Y-325370D02*
D03*
Y-485370D02*
D03*
X-472749Y-305370D02*
D03*
X-467749Y-315370D02*
D03*
X-472749Y-325370D02*
D03*
Y-485370D02*
D03*
X-482749Y-265370D02*
D03*
Y-285370D02*
D03*
X-477749Y-315370D02*
D03*
X-482749Y-505370D02*
D03*
X-492749Y-265370D02*
D03*
X-487749Y-275370D02*
D03*
X-492749Y-445370D02*
D03*
X-487749Y-495370D02*
D03*
X-492749Y-505370D02*
D03*
X-497749Y-295370D02*
D03*
X-512749Y-465370D02*
D03*
Y-485370D02*
D03*
Y-505370D02*
D03*
X-522749Y-325370D02*
D03*
Y-425370D02*
D03*
Y-485370D02*
D03*
X-517749Y-495370D02*
D03*
X-522749Y-505370D02*
D03*
X-532749Y-265370D02*
D03*
Y-285370D02*
D03*
X-527749Y-295370D02*
D03*
Y-435370D02*
D03*
Y-495370D02*
D03*
X-532749Y-505370D02*
D03*
X-542749Y-265370D02*
D03*
X-537749Y-275370D02*
D03*
Y-295370D02*
D03*
X-542749Y-305370D02*
D03*
Y-445370D02*
D03*
X-537749Y-495370D02*
D03*
X-542749Y-505370D02*
D03*
X-547749Y-295370D02*
D03*
Y-315370D02*
D03*
X-552749Y-325370D02*
D03*
X-547749Y-435370D02*
D03*
X-552749Y-445370D02*
D03*
X-547749Y-455370D02*
D03*
X-557749Y-295370D02*
D03*
Y-315370D02*
D03*
Y-335370D02*
D03*
Y-435370D02*
D03*
X-567749Y-295370D02*
D03*
X-582749Y-265370D02*
D03*
Y-285370D02*
D03*
X-577749Y-295370D02*
D03*
X-592749Y-265370D02*
D03*
X-587749Y-275370D02*
D03*
X-602749Y-285370D02*
D03*
X-607749Y-275370D02*
D03*
X-612749Y-285370D02*
D03*
X-622749Y-265370D02*
D03*
X-632749D02*
D03*
X-627749Y-275370D02*
D03*
X-632749Y-285370D02*
D03*
X-642749Y-265370D02*
D03*
X-637749Y-275370D02*
D03*
X-652749Y-265370D02*
D03*
Y-285370D02*
D03*
X-662749D02*
D03*
X-672749D02*
D03*
X-682749D02*
D03*
X-692749Y-265370D02*
D03*
X-687749Y-275370D02*
D03*
X-692749Y-285370D02*
D03*
X-445250Y-280370D02*
D03*
X-457750Y-305370D02*
D03*
X-482750D02*
D03*
X-495250Y-280370D02*
D03*
X-545250D02*
D03*
X-557750Y-305370D02*
D03*
X-545250Y-330370D02*
D03*
X-557750Y-455370D02*
D03*
X-595250Y-280370D02*
D03*
X-620250D02*
D03*
X-645250D02*
D03*
D122*
X-192760Y-339090D02*
D03*
Y-416560D02*
D03*
Y-360680D02*
D03*
Y-386080D02*
D03*
M02*
