G04*
G04 #@! TF.GenerationSoftware,Altium Limited,Altium Designer,21.0.9 (235)*
G04*
G04 Layer_Physical_Order=2*
G04 Layer_Color=16711680*
%FSLAX44Y44*%
%MOMM*%
G71*
G04*
G04 #@! TF.SameCoordinates,2E686BC6-EAB9-49F2-94FE-736710D6270B*
G04*
G04*
G04 #@! TF.FilePolarity,Positive*
G04*
G01*
G75*
%ADD12C,0.2540*%
%ADD14C,0.2500*%
%ADD16C,2.0000*%
%ADD17C,0.5000*%
%ADD18C,0.5000*%
%ADD53C,1.1000*%
%ADD58C,1.8000*%
%ADD87R,1.2500X1.7500*%
%ADD99C,0.4000*%
%ADD101C,1.0000*%
%ADD103C,1.0000*%
%ADD104R,1.8000X1.8000*%
%ADD105C,4.0000*%
%ADD106C,1.6500*%
%ADD107C,1.7000*%
%ADD108R,2.0000X2.0000*%
%ADD109C,2.0000*%
%ADD110R,1.1500X1.1500*%
%ADD111C,1.1500*%
%ADD112C,3.5000*%
%ADD113C,0.4000*%
%ADD114R,1.7000X1.7000*%
G04:AMPARAMS|DCode=115|XSize=1.5mm|YSize=1.5mm|CornerRadius=0.075mm|HoleSize=0mm|Usage=FLASHONLY|Rotation=180.000|XOffset=0mm|YOffset=0mm|HoleType=Round|Shape=RoundedRectangle|*
%AMROUNDEDRECTD115*
21,1,1.5000,1.3500,0,0,180.0*
21,1,1.3500,1.5000,0,0,180.0*
1,1,0.1500,-0.6750,0.6750*
1,1,0.1500,0.6750,0.6750*
1,1,0.1500,0.6750,-0.6750*
1,1,0.1500,-0.6750,-0.6750*
%
%ADD115ROUNDEDRECTD115*%
%ADD116C,1.5000*%
%ADD117O,2.6160X1.3080*%
%ADD118C,0.7000*%
%ADD119R,1.2000X1.7500*%
G36*
X-362195Y-325970D02*
X-362721Y-327240D01*
X-364314D01*
X-366335Y-328077D01*
X-367883Y-329624D01*
X-368720Y-331646D01*
Y-333834D01*
X-367883Y-335855D01*
X-366335Y-337403D01*
X-364314Y-338240D01*
X-362435D01*
X-341477Y-359198D01*
X-340396Y-359921D01*
X-339120Y-360174D01*
X-315268D01*
X-298215Y-377227D01*
X-298459Y-378455D01*
X-299725Y-379721D01*
X-300410Y-381375D01*
Y-383165D01*
X-299725Y-384819D01*
X-299244Y-385300D01*
Y-416352D01*
X-300514Y-416878D01*
X-301466Y-415926D01*
Y-406400D01*
X-301720Y-405124D01*
X-302442Y-404043D01*
X-378040Y-328445D01*
Y-326566D01*
X-378877Y-324544D01*
X-380424Y-322997D01*
X-382446Y-322160D01*
X-384634D01*
X-386656Y-322997D01*
X-388203Y-324544D01*
X-389040Y-326566D01*
Y-328754D01*
X-388203Y-330775D01*
X-386656Y-332323D01*
X-384634Y-333160D01*
X-382755D01*
X-308134Y-407781D01*
Y-415926D01*
X-309463Y-417254D01*
X-310300Y-419276D01*
Y-421464D01*
X-309463Y-423485D01*
X-307915Y-425033D01*
X-305894Y-425870D01*
X-303706D01*
X-301684Y-425033D01*
X-300514Y-423862D01*
X-299244Y-424388D01*
Y-438039D01*
X-358251Y-497046D01*
X-394201D01*
X-394201Y-344980D01*
X-392931Y-344368D01*
X-391160Y-345102D01*
Y-339090D01*
Y-333078D01*
X-392931Y-333812D01*
X-394201Y-333200D01*
Y-328350D01*
X-394201Y-295623D01*
X-393027Y-295137D01*
X-362195Y-325970D01*
D02*
G37*
G36*
X-327660Y37000D02*
Y16662D01*
Y9691D01*
Y-3540D01*
Y-18169D01*
X-327660Y-143908D01*
Y-186690D01*
X-259080Y-186690D01*
Y-419100D01*
X-229510D01*
Y-427310D01*
X-213010D01*
Y-419100D01*
X-200760D01*
Y-427310D01*
X-184760D01*
Y-419100D01*
X-111240D01*
Y-433630D01*
X-257425D01*
X-271070Y-419986D01*
Y-383540D01*
X-271170Y-382781D01*
Y-381862D01*
X-271410Y-380035D01*
X-272115Y-378332D01*
X-273237Y-376870D01*
X-307120Y-342988D01*
X-308582Y-341866D01*
X-310285Y-341160D01*
X-312112Y-340920D01*
X-327276D01*
X-448870Y-219326D01*
Y-170935D01*
X-436371Y-158435D01*
X-436059Y-158352D01*
X-434291Y-157331D01*
X-432849Y-155889D01*
X-431828Y-154121D01*
X-431300Y-152150D01*
Y-150110D01*
X-431828Y-148139D01*
X-432849Y-146371D01*
X-434291Y-144929D01*
X-436059Y-143908D01*
X-438030Y-143380D01*
X-440070D01*
X-442041Y-143908D01*
X-443809Y-144929D01*
X-445252Y-146371D01*
X-446272Y-148139D01*
X-446355Y-148451D01*
X-460922Y-163018D01*
X-462044Y-164480D01*
X-462750Y-166183D01*
X-462990Y-168010D01*
Y-222250D01*
X-462750Y-224077D01*
X-462044Y-225780D01*
X-460922Y-227242D01*
X-436107Y-252057D01*
X-436593Y-253231D01*
X-701040Y-253231D01*
X-701040Y-253231D01*
X-701820Y-253386D01*
X-702482Y-253828D01*
X-702482Y-253828D01*
X-702924Y-254490D01*
X-703079Y-255270D01*
X-703079Y-297180D01*
X-702924Y-297960D01*
X-702482Y-298622D01*
X-701820Y-299064D01*
X-701040Y-299219D01*
X-587836D01*
X-587790Y-299287D01*
Y-301292D01*
X-587023Y-303145D01*
X-585605Y-304563D01*
X-584020Y-305219D01*
Y-300290D01*
X-581480D01*
Y-305219D01*
X-579895Y-304563D01*
X-578791Y-303459D01*
X-577237Y-303217D01*
X-565327Y-315127D01*
X-565327Y-315127D01*
X-563379Y-317075D01*
Y-339090D01*
X-563224Y-339870D01*
X-562782Y-340532D01*
X-562120Y-340974D01*
X-561340Y-341129D01*
X-530384D01*
X-529898Y-342303D01*
X-537321Y-349726D01*
X-607060D01*
X-608336Y-349980D01*
X-609417Y-350703D01*
X-625928Y-367212D01*
X-626650Y-368294D01*
X-626904Y-369570D01*
Y-397914D01*
X-628174Y-398167D01*
X-628477Y-397435D01*
X-629895Y-396017D01*
X-631480Y-395361D01*
Y-400290D01*
Y-405219D01*
X-629895Y-404563D01*
X-628477Y-403145D01*
X-628174Y-402413D01*
X-626904Y-402665D01*
Y-497914D01*
X-628174Y-498167D01*
X-628477Y-497435D01*
X-629895Y-496017D01*
X-631480Y-495361D01*
Y-500290D01*
Y-505219D01*
X-629895Y-504563D01*
X-628477Y-503145D01*
X-628174Y-502413D01*
X-626904Y-502665D01*
Y-603250D01*
X-626650Y-604526D01*
X-625928Y-605607D01*
X-591678Y-639857D01*
X-590596Y-640580D01*
X-589320Y-640834D01*
X-422457D01*
X-421060Y-642231D01*
Y-642245D01*
X-420375Y-643899D01*
X-419109Y-645165D01*
X-417455Y-645850D01*
X-415665D01*
X-414011Y-645165D01*
X-412745Y-643899D01*
X-412060Y-642245D01*
Y-640455D01*
X-412745Y-638801D01*
X-413232Y-638314D01*
X-412706Y-637044D01*
X-406531D01*
X-402010Y-641565D01*
Y-642245D01*
X-401325Y-643899D01*
X-400059Y-645165D01*
X-398405Y-645850D01*
X-396615D01*
X-394961Y-645165D01*
X-393695Y-643899D01*
X-393010Y-642245D01*
Y-640455D01*
X-393695Y-638801D01*
X-394961Y-637535D01*
X-396615Y-636850D01*
X-397295D01*
X-399718Y-634427D01*
X-399231Y-633254D01*
X-391271D01*
X-382960Y-641565D01*
Y-642245D01*
X-382275Y-643899D01*
X-381009Y-645165D01*
X-379355Y-645850D01*
X-377565D01*
X-375911Y-645165D01*
X-374645Y-643899D01*
X-373960Y-642245D01*
Y-640455D01*
X-374645Y-638801D01*
X-375911Y-637535D01*
X-377565Y-636850D01*
X-378245D01*
X-387533Y-627562D01*
X-388614Y-626840D01*
X-389890Y-626586D01*
X-584799D01*
X-612656Y-598729D01*
Y-454308D01*
X-611386Y-453782D01*
X-610605Y-454563D01*
X-609020Y-455219D01*
Y-450290D01*
Y-445361D01*
X-610605Y-446017D01*
X-611386Y-446798D01*
X-612656Y-446272D01*
Y-374091D01*
X-602539Y-363974D01*
X-519390D01*
X-518114Y-363720D01*
X-517033Y-362998D01*
X-494440Y-340405D01*
X-492907Y-340532D01*
X-492246Y-340974D01*
X-491466Y-341129D01*
X-458045D01*
X-441459Y-357715D01*
X-441459Y-411905D01*
X-447885Y-418331D01*
X-560410D01*
X-560936Y-417061D01*
X-548425Y-404550D01*
X-547745D01*
X-546091Y-403865D01*
X-544825Y-402599D01*
X-544140Y-400945D01*
Y-399155D01*
X-544825Y-397501D01*
X-546091Y-396235D01*
X-547745Y-395550D01*
X-549535D01*
X-551189Y-396235D01*
X-552455Y-397501D01*
X-553140Y-399155D01*
Y-399835D01*
X-570047Y-416743D01*
X-570770Y-417824D01*
X-571024Y-419100D01*
Y-513860D01*
X-571505Y-514341D01*
X-572190Y-515995D01*
Y-517785D01*
X-571505Y-519439D01*
X-570239Y-520705D01*
X-568585Y-521390D01*
X-566795D01*
X-565840Y-520994D01*
X-564604Y-521579D01*
X-564519Y-521717D01*
X-563885Y-523249D01*
X-562619Y-524515D01*
X-560965Y-525200D01*
X-559175D01*
X-557521Y-524515D01*
X-556255Y-523249D01*
X-555570Y-521595D01*
Y-519805D01*
X-556255Y-518151D01*
X-556756Y-517650D01*
Y-512579D01*
X-396240Y-512579D01*
X-395460Y-512424D01*
X-394798Y-511982D01*
X-394356Y-511320D01*
X-394201Y-510540D01*
Y-503714D01*
X-356870D01*
X-355594Y-503460D01*
X-354512Y-502738D01*
X-293552Y-441777D01*
X-292830Y-440696D01*
X-292576Y-439420D01*
Y-385300D01*
X-292257Y-384981D01*
X-291589Y-384718D01*
X-290867Y-384575D01*
X-289084Y-386358D01*
Y-435234D01*
X-288830Y-436510D01*
X-288107Y-437591D01*
X-231698Y-494000D01*
X-232245Y-495250D01*
X-233752D01*
X-235605Y-496017D01*
X-237023Y-497435D01*
X-237679Y-499020D01*
X-232750D01*
Y-500290D01*
X-231480D01*
Y-505219D01*
X-229895Y-504563D01*
X-228477Y-503145D01*
X-227710Y-501292D01*
Y-499785D01*
X-226460Y-499238D01*
X-131698Y-594000D01*
X-132245Y-595250D01*
X-133752D01*
X-135605Y-596017D01*
X-137023Y-597435D01*
X-137679Y-599020D01*
X-132750D01*
Y-600290D01*
X-131480D01*
Y-605219D01*
X-129895Y-604563D01*
X-128477Y-603145D01*
X-127710Y-601292D01*
Y-599785D01*
X-126460Y-599238D01*
X-125171Y-600527D01*
X-124089Y-601250D01*
X-122814Y-601504D01*
X2429D01*
X8200Y-607275D01*
Y-607955D01*
X8885Y-609609D01*
X10151Y-610875D01*
X11805Y-611560D01*
X13595D01*
X15249Y-610875D01*
X16515Y-609609D01*
X17200Y-607955D01*
Y-606165D01*
X16515Y-604511D01*
X15249Y-603245D01*
X13595Y-602560D01*
X12915D01*
X6168Y-595812D01*
X5086Y-595090D01*
X3810Y-594836D01*
X-121433D01*
X-125815Y-590454D01*
X-125288Y-589184D01*
X-36050D01*
X-35569Y-589665D01*
X-33915Y-590350D01*
X-32125D01*
X-30471Y-589665D01*
X-29205Y-588399D01*
X-28520Y-586745D01*
Y-584955D01*
X-29205Y-583301D01*
X-30471Y-582035D01*
X-32125Y-581350D01*
X-33915D01*
X-35569Y-582035D01*
X-36050Y-582516D01*
X-124573D01*
X-125040Y-582049D01*
Y-582035D01*
X-125725Y-580381D01*
X-126991Y-579115D01*
X-128645Y-578430D01*
X-130435D01*
X-132089Y-579115D01*
X-133355Y-580381D01*
X-133571Y-580902D01*
X-135069Y-581200D01*
X-282416Y-433853D01*
Y-430268D01*
X-281243Y-429782D01*
X-265342Y-445682D01*
X-263880Y-446805D01*
X-262177Y-447510D01*
X-260350Y-447750D01*
X-111240D01*
Y-451302D01*
X-111000Y-453130D01*
X-110294Y-454832D01*
X-109172Y-456295D01*
X-104545Y-460922D01*
X-96044Y-469423D01*
X-92480Y-472987D01*
X-76995Y-488472D01*
X-75532Y-489594D01*
X-73829Y-490300D01*
X-72002Y-490540D01*
X-60464D01*
Y-528217D01*
X-83923Y-551676D01*
X-88488D01*
X-89837Y-550327D01*
X-91859Y-549490D01*
X-94047D01*
X-96068Y-550327D01*
X-97615Y-551875D01*
X-98453Y-553896D01*
Y-556084D01*
X-97615Y-558106D01*
X-96068Y-559653D01*
X-94047Y-560490D01*
X-91859D01*
X-89837Y-559653D01*
X-88488Y-558304D01*
X-82550D01*
X-81282Y-558051D01*
X-80207Y-557333D01*
X-54807Y-531933D01*
X-54089Y-530858D01*
X-53836Y-529590D01*
Y-490540D01*
X-33503D01*
X-32992Y-491810D01*
X-34330Y-493149D01*
X-35222Y-495300D01*
X-23198D01*
X-24090Y-493149D01*
X-25428Y-491810D01*
X-24918Y-490540D01*
X9543D01*
X10063Y-490940D01*
X12141Y-491800D01*
X14370Y-492094D01*
X27450D01*
X29679Y-491800D01*
X31757Y-490940D01*
X33541Y-489571D01*
X34910Y-487787D01*
X35770Y-485709D01*
X36064Y-483480D01*
X35770Y-481251D01*
X34910Y-479173D01*
X33541Y-477389D01*
X31757Y-476020D01*
X29679Y-475160D01*
X27450Y-474866D01*
X14370D01*
X12141Y-475160D01*
X10063Y-476020D01*
X9543Y-476420D01*
X-69078D01*
X-82495Y-463003D01*
X-86059Y-459439D01*
X-94560Y-450938D01*
X-97120Y-448378D01*
Y-440690D01*
Y-419100D01*
X77601D01*
Y-751261D01*
X-867301D01*
Y43641D01*
X-327660D01*
Y37000D01*
D02*
G37*
G36*
X-396240Y-291925D02*
X-396240Y-328350D01*
X-396240Y-497046D01*
X-468519D01*
X-481910Y-483655D01*
Y-482975D01*
X-482595Y-481321D01*
X-483861Y-480055D01*
X-485515Y-479370D01*
X-487305D01*
X-488959Y-480055D01*
X-490225Y-481321D01*
X-490910Y-482975D01*
Y-484765D01*
X-490225Y-486419D01*
X-488959Y-487685D01*
X-487305Y-488370D01*
X-486625D01*
X-472257Y-502738D01*
X-471176Y-503460D01*
X-469900Y-503714D01*
X-396240D01*
Y-510540D01*
X-556756Y-510540D01*
Y-500725D01*
X-555486Y-500473D01*
X-554995Y-501659D01*
X-553729Y-502925D01*
X-552075Y-503610D01*
X-550285D01*
X-548631Y-502925D01*
X-547365Y-501659D01*
X-546680Y-500005D01*
Y-499325D01*
X-526939Y-479584D01*
X-496570D01*
X-495294Y-479330D01*
X-494212Y-478607D01*
X-457119Y-441514D01*
X-430560D01*
X-429284Y-441261D01*
X-428203Y-440538D01*
X-423032Y-435367D01*
X-422309Y-434285D01*
X-422055Y-433009D01*
Y-383160D01*
X-421574Y-382679D01*
X-420889Y-381025D01*
Y-379235D01*
X-421574Y-377581D01*
X-422840Y-376315D01*
X-424494Y-375630D01*
X-426284D01*
X-427938Y-376315D01*
X-429204Y-377581D01*
X-429889Y-379235D01*
Y-381025D01*
X-429204Y-382679D01*
X-428723Y-383160D01*
Y-431628D01*
X-431941Y-434846D01*
X-458500D01*
X-459776Y-435100D01*
X-460858Y-435823D01*
X-497951Y-472916D01*
X-528320D01*
X-529596Y-473170D01*
X-530677Y-473893D01*
X-551395Y-494610D01*
X-552075D01*
X-553729Y-495295D01*
X-554995Y-496561D01*
X-555486Y-497747D01*
X-556756Y-497495D01*
Y-479023D01*
X-523323Y-445590D01*
X-522614D01*
X-520961Y-444905D01*
X-519695Y-443639D01*
X-519010Y-441985D01*
Y-440195D01*
X-519695Y-438541D01*
X-520961Y-437275D01*
X-522614Y-436590D01*
X-524405D01*
X-526059Y-437275D01*
X-527324Y-438541D01*
X-528009Y-440195D01*
Y-440904D01*
X-560070Y-472964D01*
X-561340Y-472438D01*
X-561340Y-420370D01*
X-447040D01*
X-439420Y-412750D01*
X-439420Y-356870D01*
X-457200Y-339090D01*
X-491466D01*
X-491952Y-337917D01*
X-482385Y-328350D01*
X-481705D01*
X-480051Y-327665D01*
X-478785Y-326399D01*
X-478100Y-324745D01*
Y-322955D01*
X-478785Y-321301D01*
X-480051Y-320035D01*
X-481705Y-319350D01*
X-482201D01*
X-483180Y-318395D01*
Y-316605D01*
X-483865Y-314951D01*
X-485131Y-313685D01*
X-486785Y-313000D01*
X-488575D01*
X-489530Y-312021D01*
Y-311525D01*
X-490215Y-309871D01*
X-491481Y-308605D01*
X-493135Y-307920D01*
X-494925D01*
X-496579Y-308605D01*
X-497845Y-309871D01*
X-498260Y-310873D01*
X-498887Y-311292D01*
X-526685Y-339090D01*
X-561340D01*
Y-316230D01*
X-563885Y-313685D01*
X-578303Y-299267D01*
X-578935Y-297741D01*
X-580201Y-296475D01*
X-581855Y-295790D01*
X-583645D01*
X-585299Y-296475D01*
X-586004Y-297180D01*
X-701040D01*
X-701040Y-255270D01*
X-701040Y-255270D01*
X-432895Y-255270D01*
X-396240Y-291925D01*
D02*
G37*
%LPC*%
G36*
X-388620Y-333078D02*
Y-337820D01*
X-383878D01*
X-384770Y-335669D01*
X-386469Y-333969D01*
X-388620Y-333078D01*
D02*
G37*
G36*
X-383878Y-340360D02*
X-388620D01*
Y-345102D01*
X-386469Y-344211D01*
X-384770Y-342511D01*
X-383878Y-340360D01*
D02*
G37*
G36*
X-331480Y-395361D02*
Y-399020D01*
X-327821D01*
X-328477Y-397435D01*
X-329895Y-396017D01*
X-331480Y-395361D01*
D02*
G37*
G36*
X-334020D02*
X-335605Y-396017D01*
X-337023Y-397435D01*
X-337679Y-399020D01*
X-334020D01*
Y-395361D01*
D02*
G37*
G36*
X-327821Y-401560D02*
X-331480D01*
Y-405219D01*
X-329895Y-404563D01*
X-328477Y-403145D01*
X-327821Y-401560D01*
D02*
G37*
G36*
X-334020D02*
X-337679D01*
X-337023Y-403145D01*
X-335605Y-404563D01*
X-334020Y-405219D01*
Y-401560D01*
D02*
G37*
G36*
X-361840Y-416136D02*
Y-420878D01*
X-357098D01*
X-357989Y-418727D01*
X-359688Y-417028D01*
X-361840Y-416136D01*
D02*
G37*
G36*
X-364380D02*
X-366531Y-417028D01*
X-368230Y-418727D01*
X-369121Y-420878D01*
X-364380D01*
Y-416136D01*
D02*
G37*
G36*
X-357098Y-423418D02*
X-361840D01*
Y-428160D01*
X-359688Y-427268D01*
X-357989Y-425569D01*
X-357098Y-423418D01*
D02*
G37*
G36*
X-364380D02*
X-369121D01*
X-368230Y-425569D01*
X-366531Y-427268D01*
X-364380Y-428160D01*
Y-423418D01*
D02*
G37*
G36*
X-383430Y-476588D02*
Y-481330D01*
X-378688D01*
X-379580Y-479179D01*
X-381279Y-477480D01*
X-383430Y-476588D01*
D02*
G37*
G36*
X-385970D02*
X-388121Y-477480D01*
X-389821Y-479179D01*
X-390712Y-481330D01*
X-385970D01*
Y-476588D01*
D02*
G37*
G36*
X-378688Y-483870D02*
X-383430D01*
Y-488612D01*
X-381279Y-487720D01*
X-379580Y-486021D01*
X-378688Y-483870D01*
D02*
G37*
G36*
X-385970D02*
X-390712D01*
X-389821Y-486021D01*
X-388121Y-487720D01*
X-385970Y-488612D01*
Y-483870D01*
D02*
G37*
G36*
X-784152Y21472D02*
Y16731D01*
X-779410D01*
X-780302Y18882D01*
X-782001Y20581D01*
X-784152Y21472D01*
D02*
G37*
G36*
X-786692D02*
X-788843Y20581D01*
X-790543Y18882D01*
X-791434Y16731D01*
X-786692D01*
Y21472D01*
D02*
G37*
G36*
X-655082Y18691D02*
X-656872D01*
X-658526Y18005D01*
X-659027Y17504D01*
X-702089D01*
X-703357Y17252D01*
X-704433Y16534D01*
X-749103Y-28137D01*
X-749821Y-29212D01*
X-750074Y-30480D01*
Y-158405D01*
X-751344Y-158657D01*
X-751835Y-157471D01*
X-753101Y-156205D01*
X-754755Y-155520D01*
X-756545D01*
X-758199Y-156205D01*
X-759465Y-157471D01*
X-760150Y-159125D01*
Y-160915D01*
X-759465Y-162569D01*
X-758199Y-163835D01*
X-756545Y-164520D01*
X-754755D01*
X-753101Y-163835D01*
X-751835Y-162569D01*
X-751344Y-161383D01*
X-750074Y-161635D01*
Y-171105D01*
X-751344Y-171357D01*
X-751835Y-170171D01*
X-753101Y-168905D01*
X-754755Y-168220D01*
X-756545D01*
X-758199Y-168905D01*
X-759465Y-170171D01*
X-760150Y-171825D01*
Y-173615D01*
X-759465Y-175269D01*
X-758199Y-176535D01*
X-756545Y-177220D01*
X-754755D01*
X-753101Y-176535D01*
X-751835Y-175269D01*
X-751344Y-174083D01*
X-750074Y-174335D01*
Y-267970D01*
X-749821Y-269238D01*
X-749103Y-270313D01*
X-651014Y-368403D01*
Y-383030D01*
X-651515Y-383531D01*
X-652200Y-385185D01*
Y-386975D01*
X-651515Y-388629D01*
X-650249Y-389895D01*
X-648595Y-390580D01*
X-646805D01*
X-645151Y-389895D01*
X-643885Y-388629D01*
X-643200Y-386975D01*
Y-385185D01*
X-643885Y-383531D01*
X-644386Y-383030D01*
Y-367030D01*
X-644639Y-365762D01*
X-645357Y-364687D01*
X-743446Y-266597D01*
Y-31853D01*
X-700717Y10877D01*
X-659027D01*
X-658526Y10376D01*
X-656872Y9691D01*
X-655082D01*
X-653428Y10376D01*
X-652162Y11642D01*
X-651477Y13296D01*
Y15086D01*
X-652162Y16740D01*
X-653428Y18005D01*
X-655082Y18691D01*
D02*
G37*
G36*
X-779410Y14191D02*
X-784152D01*
Y9449D01*
X-782001Y10340D01*
X-780302Y12040D01*
X-779410Y14191D01*
D02*
G37*
G36*
X-786692D02*
X-791434D01*
X-790543Y12040D01*
X-788843Y10340D01*
X-786692Y9449D01*
Y14191D01*
D02*
G37*
G36*
X-531480Y4639D02*
Y980D01*
X-527821D01*
X-528477Y2565D01*
X-529895Y3983D01*
X-531480Y4639D01*
D02*
G37*
G36*
X-534020D02*
X-535605Y3983D01*
X-537023Y2565D01*
X-537679Y980D01*
X-534020D01*
Y4639D01*
D02*
G37*
G36*
X-662933Y7261D02*
X-664724D01*
X-666377Y6575D01*
X-667643Y5310D01*
X-668328Y3656D01*
Y1866D01*
X-667643Y212D01*
X-666377Y-1054D01*
X-664724Y-1739D01*
X-662933D01*
X-661279Y-1054D01*
X-660014Y212D01*
X-659329Y1866D01*
Y3656D01*
X-660014Y5310D01*
X-661279Y6575D01*
X-662933Y7261D01*
D02*
G37*
G36*
X-741502Y6569D02*
X-743292D01*
X-744947Y5884D01*
X-746212Y4618D01*
X-746897Y2964D01*
Y1174D01*
X-746212Y-480D01*
X-744947Y-1746D01*
X-743292Y-2431D01*
X-741502D01*
X-739848Y-1746D01*
X-738583Y-480D01*
X-737897Y1174D01*
Y2964D01*
X-738583Y4618D01*
X-739848Y5884D01*
X-741502Y6569D01*
D02*
G37*
G36*
X-527821Y-1560D02*
X-531480D01*
Y-5219D01*
X-529895Y-4563D01*
X-528477Y-3145D01*
X-527821Y-1560D01*
D02*
G37*
G36*
X-534020D02*
X-537679D01*
X-537023Y-3145D01*
X-535605Y-4563D01*
X-534020Y-5219D01*
Y-1560D01*
D02*
G37*
G36*
X-387230Y9020D02*
X-389270D01*
X-391241Y8492D01*
X-393009Y7472D01*
X-394451Y6029D01*
X-395472Y4261D01*
X-396000Y2290D01*
Y250D01*
X-395472Y-1721D01*
X-394451Y-3489D01*
X-393009Y-4931D01*
X-391241Y-5952D01*
X-389270Y-6480D01*
X-387230D01*
X-385259Y-5952D01*
X-383491Y-4931D01*
X-382048Y-3489D01*
X-381028Y-1721D01*
X-380500Y250D01*
Y2290D01*
X-381028Y4261D01*
X-382048Y6029D01*
X-383491Y7472D01*
X-385259Y8492D01*
X-387230Y9020D01*
D02*
G37*
G36*
X-438030D02*
X-440070D01*
X-442041Y8492D01*
X-443809Y7472D01*
X-445252Y6029D01*
X-446272Y4261D01*
X-446800Y2290D01*
Y250D01*
X-446272Y-1721D01*
X-445252Y-3489D01*
X-443809Y-4931D01*
X-442041Y-5952D01*
X-440070Y-6480D01*
X-438030D01*
X-436059Y-5952D01*
X-434291Y-4931D01*
X-432849Y-3489D01*
X-431828Y-1721D01*
X-431300Y250D01*
Y2290D01*
X-431828Y4261D01*
X-432849Y6029D01*
X-434291Y7472D01*
X-436059Y8492D01*
X-438030Y9020D01*
D02*
G37*
G36*
X-625038Y-3692D02*
Y-6810D01*
X-621920D01*
X-622460Y-5508D01*
X-623737Y-4231D01*
X-625038Y-3692D01*
D02*
G37*
G36*
X-636578D02*
X-637880Y-4231D01*
X-639157Y-5508D01*
X-639697Y-6810D01*
X-636578D01*
Y-3692D01*
D02*
G37*
G36*
X-849078Y37000D02*
X-850922D01*
X-852702Y36523D01*
X-854298Y35601D01*
X-855601Y34298D01*
X-856523Y32702D01*
X-857000Y30922D01*
Y29078D01*
X-856523Y27298D01*
X-855601Y25702D01*
X-854298Y24399D01*
X-852702Y23477D01*
X-850922Y23000D01*
X-849078D01*
X-847298Y23477D01*
X-846932Y23688D01*
X-846152Y22672D01*
X-846395Y22429D01*
X-848584Y19153D01*
X-850091Y15514D01*
X-850860Y11650D01*
Y7710D01*
X-850091Y3846D01*
X-848584Y206D01*
X-846395Y-3069D01*
X-843609Y-5855D01*
X-840333Y-8044D01*
X-836694Y-9551D01*
X-832830Y-10320D01*
X-828890D01*
X-825026Y-9551D01*
X-821386Y-8044D01*
X-818111Y-5855D01*
X-815325Y-3069D01*
X-813136Y206D01*
X-811629Y3846D01*
X-810860Y7710D01*
Y11650D01*
X-811629Y15514D01*
X-813136Y19153D01*
X-815325Y22429D01*
X-818111Y25215D01*
X-821386Y27404D01*
X-825026Y28911D01*
X-828890Y29680D01*
X-832830D01*
X-836694Y28911D01*
X-840333Y27404D01*
X-842964Y25646D01*
X-843916Y26537D01*
X-843477Y27298D01*
X-843000Y29078D01*
Y30922D01*
X-843477Y32702D01*
X-844399Y34298D01*
X-845702Y35601D01*
X-847298Y36523D01*
X-849078Y37000D01*
D02*
G37*
G36*
X-634039Y-3692D02*
Y-8080D01*
X-635308D01*
Y-9350D01*
X-639696D01*
X-639157Y-10651D01*
X-637880Y-11928D01*
X-636451Y-12520D01*
X-635965Y-12809D01*
X-630808D01*
X-625652D01*
X-625166Y-12520D01*
X-623737Y-11928D01*
X-622460Y-10651D01*
X-621921Y-9350D01*
X-626308D01*
Y-8080D01*
X-627578D01*
Y-3692D01*
X-628880Y-4231D01*
X-630157Y-5508D01*
X-630173Y-5547D01*
X-631443D01*
X-631460Y-5508D01*
X-632737Y-4231D01*
X-634039Y-3692D01*
D02*
G37*
G36*
X-716280Y-15578D02*
Y-20320D01*
X-711538D01*
X-712430Y-18169D01*
X-714129Y-16470D01*
X-716280Y-15578D01*
D02*
G37*
G36*
X-718820D02*
X-720971Y-16470D01*
X-722671Y-18169D01*
X-723562Y-20320D01*
X-718820D01*
Y-15578D01*
D02*
G37*
G36*
X-621921Y-21350D02*
X-625038D01*
Y-24468D01*
X-623737Y-23928D01*
X-622460Y-22651D01*
X-621921Y-21350D01*
D02*
G37*
G36*
X-636578D02*
X-639696D01*
X-639157Y-22651D01*
X-637880Y-23928D01*
X-636578Y-24468D01*
Y-21350D01*
D02*
G37*
G36*
X-625652Y-15350D02*
X-630808D01*
X-635965D01*
X-636451Y-15639D01*
X-637880Y-16231D01*
X-639157Y-17508D01*
X-639697Y-18810D01*
X-635308D01*
Y-20080D01*
X-634039D01*
Y-24468D01*
X-632737Y-23928D01*
X-631460Y-22651D01*
X-631443Y-22612D01*
X-630173D01*
X-630157Y-22651D01*
X-628880Y-23928D01*
X-627578Y-24468D01*
Y-20080D01*
X-626308D01*
Y-18810D01*
X-621920D01*
X-622460Y-17508D01*
X-623737Y-16231D01*
X-625166Y-15639D01*
X-625652Y-15350D01*
D02*
G37*
G36*
X-711538Y-22860D02*
X-716280D01*
Y-27602D01*
X-714129Y-26711D01*
X-712430Y-25011D01*
X-711538Y-22860D01*
D02*
G37*
G36*
X-718820D02*
X-723562D01*
X-722671Y-25011D01*
X-720971Y-26711D01*
X-718820Y-27602D01*
Y-22860D01*
D02*
G37*
G36*
X-650913Y-39950D02*
X-652703D01*
X-654358Y-40635D01*
X-655623Y-41901D01*
X-656308Y-43555D01*
Y-45345D01*
X-655623Y-46999D01*
X-654358Y-48265D01*
X-652703Y-48950D01*
X-650913D01*
X-649259Y-48265D01*
X-647993Y-46999D01*
X-647309Y-45345D01*
Y-43555D01*
X-647993Y-41901D01*
X-649259Y-40635D01*
X-650913Y-39950D01*
D02*
G37*
G36*
X-756480Y-45361D02*
Y-49020D01*
X-752821D01*
X-753477Y-47435D01*
X-754895Y-46017D01*
X-756480Y-45361D01*
D02*
G37*
G36*
X-759020D02*
X-760605Y-46017D01*
X-762023Y-47435D01*
X-762679Y-49020D01*
X-759020D01*
Y-45361D01*
D02*
G37*
G36*
X-603548Y-40109D02*
X-605338D01*
X-606992Y-40795D01*
X-608258Y-42060D01*
X-608943Y-43714D01*
Y-45329D01*
X-610605Y-46017D01*
X-612023Y-47435D01*
X-612679Y-49020D01*
X-607750D01*
Y-50290D01*
X-606480D01*
Y-55219D01*
X-604895Y-54563D01*
X-603477Y-53145D01*
X-602710Y-51293D01*
Y-49288D01*
X-602896Y-48839D01*
X-601894Y-48424D01*
X-600628Y-47158D01*
X-599943Y-45504D01*
Y-43714D01*
X-600628Y-42060D01*
X-601894Y-40795D01*
X-603548Y-40109D01*
D02*
G37*
G36*
X-609020Y-51560D02*
X-612679D01*
X-612023Y-53145D01*
X-610605Y-54563D01*
X-609020Y-55219D01*
Y-51560D01*
D02*
G37*
G36*
X-752821D02*
X-756480D01*
Y-55219D01*
X-754895Y-54563D01*
X-753477Y-53145D01*
X-752821Y-51560D01*
D02*
G37*
G36*
X-759020D02*
X-762679D01*
X-762023Y-53145D01*
X-760605Y-54563D01*
X-759020Y-55219D01*
Y-51560D01*
D02*
G37*
G36*
X-581480Y-95361D02*
Y-99020D01*
X-577821D01*
X-578477Y-97435D01*
X-579895Y-96017D01*
X-581480Y-95361D01*
D02*
G37*
G36*
X-584020D02*
X-585605Y-96017D01*
X-587023Y-97435D01*
X-587679Y-99020D01*
X-584020D01*
Y-95361D01*
D02*
G37*
G36*
X-631480D02*
Y-99020D01*
X-627821D01*
X-628477Y-97435D01*
X-629895Y-96017D01*
X-631480Y-95361D01*
D02*
G37*
G36*
X-634020D02*
X-635605Y-96017D01*
X-637023Y-97435D01*
X-637679Y-99020D01*
X-634020D01*
Y-95361D01*
D02*
G37*
G36*
X-577821Y-101560D02*
X-581480D01*
Y-105219D01*
X-579895Y-104563D01*
X-578477Y-103145D01*
X-577821Y-101560D01*
D02*
G37*
G36*
X-584020D02*
X-587679D01*
X-587023Y-103145D01*
X-585605Y-104563D01*
X-584020Y-105219D01*
Y-101560D01*
D02*
G37*
G36*
X-627821D02*
X-631480D01*
Y-105219D01*
X-629895Y-104563D01*
X-628477Y-103145D01*
X-627821Y-101560D01*
D02*
G37*
G36*
X-634020D02*
X-637679D01*
X-637023Y-103145D01*
X-635605Y-104563D01*
X-634020Y-105219D01*
Y-101560D01*
D02*
G37*
G36*
X-506480Y-145361D02*
Y-149020D01*
X-502821D01*
X-503477Y-147435D01*
X-504895Y-146017D01*
X-506480Y-145361D01*
D02*
G37*
G36*
X-509020D02*
X-510605Y-146017D01*
X-512023Y-147435D01*
X-512679Y-149020D01*
X-509020D01*
Y-145361D01*
D02*
G37*
G36*
X-656480D02*
Y-149020D01*
X-652821D01*
X-653477Y-147435D01*
X-654895Y-146017D01*
X-656480Y-145361D01*
D02*
G37*
G36*
X-659020D02*
X-660605Y-146017D01*
X-662023Y-147435D01*
X-662679Y-149020D01*
X-659020D01*
Y-145361D01*
D02*
G37*
G36*
X-386980Y-142888D02*
Y-149860D01*
X-380008D01*
X-380525Y-147930D01*
X-381616Y-146040D01*
X-383160Y-144496D01*
X-385050Y-143405D01*
X-386980Y-142888D01*
D02*
G37*
G36*
X-389520Y-142888D02*
X-391450Y-143405D01*
X-393340Y-144496D01*
X-394884Y-146040D01*
X-395975Y-147930D01*
X-396492Y-149860D01*
X-389520D01*
Y-142888D01*
D02*
G37*
G36*
X-502821Y-151560D02*
X-506480D01*
Y-155219D01*
X-504895Y-154563D01*
X-503477Y-153145D01*
X-502821Y-151560D01*
D02*
G37*
G36*
X-509020D02*
X-512679D01*
X-512023Y-153145D01*
X-510605Y-154563D01*
X-509020Y-155219D01*
Y-151560D01*
D02*
G37*
G36*
X-652821D02*
X-656480D01*
Y-155219D01*
X-654895Y-154563D01*
X-653477Y-153145D01*
X-652821Y-151560D01*
D02*
G37*
G36*
X-659020D02*
X-662679D01*
X-662023Y-153145D01*
X-660605Y-154563D01*
X-659020Y-155219D01*
Y-151560D01*
D02*
G37*
G36*
X-380008Y-152400D02*
X-386980D01*
Y-159372D01*
X-385050Y-158855D01*
X-383160Y-157764D01*
X-381616Y-156220D01*
X-380525Y-154330D01*
X-380008Y-152400D01*
D02*
G37*
G36*
X-389520D02*
X-396492D01*
X-395975Y-154330D01*
X-394884Y-156220D01*
X-393340Y-157764D01*
X-391450Y-158855D01*
X-389520Y-159372D01*
Y-152400D01*
D02*
G37*
G36*
X-768725Y-155520D02*
X-770515D01*
X-772169Y-156205D01*
X-773435Y-157471D01*
X-774120Y-159125D01*
Y-160915D01*
X-773435Y-162569D01*
X-772169Y-163835D01*
X-770515Y-164520D01*
X-768725D01*
X-767071Y-163835D01*
X-765805Y-162569D01*
X-765120Y-160915D01*
Y-159125D01*
X-765805Y-157471D01*
X-767071Y-156205D01*
X-768725Y-155520D01*
D02*
G37*
G36*
X-782695D02*
X-784485D01*
X-786139Y-156205D01*
X-787405Y-157471D01*
X-788090Y-159125D01*
Y-160915D01*
X-787405Y-162569D01*
X-786139Y-163835D01*
X-784485Y-164520D01*
X-782695D01*
X-781041Y-163835D01*
X-779775Y-162569D01*
X-779090Y-160915D01*
Y-159125D01*
X-779775Y-157471D01*
X-781041Y-156205D01*
X-782695Y-155520D01*
D02*
G37*
G36*
X-796665D02*
X-798455D01*
X-800109Y-156205D01*
X-801375Y-157471D01*
X-802060Y-159125D01*
Y-160915D01*
X-801375Y-162569D01*
X-800109Y-163835D01*
X-798455Y-164520D01*
X-796665D01*
X-795011Y-163835D01*
X-793745Y-162569D01*
X-793060Y-160915D01*
Y-159125D01*
X-793745Y-157471D01*
X-795011Y-156205D01*
X-796665Y-155520D01*
D02*
G37*
G36*
X-782695Y-168220D02*
X-784485D01*
X-786139Y-168905D01*
X-787405Y-170171D01*
X-788090Y-171825D01*
Y-173615D01*
X-787405Y-175269D01*
X-786139Y-176535D01*
X-784485Y-177220D01*
X-782695D01*
X-781041Y-176535D01*
X-779775Y-175269D01*
X-779090Y-173615D01*
Y-171825D01*
X-779775Y-170171D01*
X-781041Y-168905D01*
X-782695Y-168220D01*
D02*
G37*
G36*
X-796665D02*
X-798455D01*
X-800109Y-168905D01*
X-801375Y-170171D01*
X-802060Y-171825D01*
Y-173615D01*
X-801375Y-175269D01*
X-800109Y-176535D01*
X-798455Y-177220D01*
X-796665D01*
X-795011Y-176535D01*
X-793745Y-175269D01*
X-793060Y-173615D01*
Y-171825D01*
X-793745Y-170171D01*
X-795011Y-168905D01*
X-796665Y-168220D01*
D02*
G37*
G36*
X-408140Y-190320D02*
X-412080D01*
X-415944Y-191089D01*
X-419584Y-192596D01*
X-422859Y-194785D01*
X-425645Y-197571D01*
X-426537Y-198905D01*
X-427943Y-198724D01*
X-428477Y-197435D01*
X-429895Y-196017D01*
X-431480Y-195361D01*
Y-200290D01*
Y-205219D01*
X-430719Y-204904D01*
X-429606Y-205818D01*
X-430110Y-208350D01*
Y-212290D01*
X-429341Y-216154D01*
X-427834Y-219793D01*
X-425645Y-223069D01*
X-422859Y-225855D01*
X-419584Y-228044D01*
X-415944Y-229551D01*
X-412080Y-230320D01*
X-408140D01*
X-404276Y-229551D01*
X-400636Y-228044D01*
X-397361Y-225855D01*
X-394575Y-223069D01*
X-392386Y-219793D01*
X-390879Y-216154D01*
X-390110Y-212290D01*
Y-208350D01*
X-390879Y-204486D01*
X-392386Y-200847D01*
X-394575Y-197571D01*
X-397361Y-194785D01*
X-400636Y-192596D01*
X-404276Y-191089D01*
X-408140Y-190320D01*
D02*
G37*
G36*
X-381480Y-195361D02*
Y-199020D01*
X-377821D01*
X-378477Y-197435D01*
X-379895Y-196017D01*
X-381480Y-195361D01*
D02*
G37*
G36*
X-384020D02*
X-385605Y-196017D01*
X-387023Y-197435D01*
X-387679Y-199020D01*
X-384020D01*
Y-195361D01*
D02*
G37*
G36*
X-434020D02*
X-435605Y-196017D01*
X-437023Y-197435D01*
X-437679Y-199020D01*
X-434020D01*
Y-195361D01*
D02*
G37*
G36*
X-481480D02*
Y-199020D01*
X-477821D01*
X-478477Y-197435D01*
X-479895Y-196017D01*
X-481480Y-195361D01*
D02*
G37*
G36*
X-484020D02*
X-485605Y-196017D01*
X-487023Y-197435D01*
X-487679Y-199020D01*
X-484020D01*
Y-195361D01*
D02*
G37*
G36*
X-531480D02*
Y-199020D01*
X-527821D01*
X-528477Y-197435D01*
X-529895Y-196017D01*
X-531480Y-195361D01*
D02*
G37*
G36*
X-534020D02*
X-535605Y-196017D01*
X-537023Y-197435D01*
X-537679Y-199020D01*
X-534020D01*
Y-195361D01*
D02*
G37*
G36*
X-581480D02*
Y-199020D01*
X-577821D01*
X-578477Y-197435D01*
X-579895Y-196017D01*
X-581480Y-195361D01*
D02*
G37*
G36*
X-584020D02*
X-585605Y-196017D01*
X-587023Y-197435D01*
X-587679Y-199020D01*
X-584020D01*
Y-195361D01*
D02*
G37*
G36*
X-831480D02*
Y-199020D01*
X-827821D01*
X-828477Y-197435D01*
X-829895Y-196017D01*
X-831480Y-195361D01*
D02*
G37*
G36*
X-834020D02*
X-835605Y-196017D01*
X-837023Y-197435D01*
X-837679Y-199020D01*
X-834020D01*
Y-195361D01*
D02*
G37*
G36*
X-377821Y-201560D02*
X-381480D01*
Y-205219D01*
X-379895Y-204563D01*
X-378477Y-203145D01*
X-377821Y-201560D01*
D02*
G37*
G36*
X-384020D02*
X-387679D01*
X-387023Y-203145D01*
X-385605Y-204563D01*
X-384020Y-205219D01*
Y-201560D01*
D02*
G37*
G36*
X-434020D02*
X-437679D01*
X-437023Y-203145D01*
X-435605Y-204563D01*
X-434020Y-205219D01*
Y-201560D01*
D02*
G37*
G36*
X-477821D02*
X-481480D01*
Y-205219D01*
X-479895Y-204563D01*
X-478477Y-203145D01*
X-477821Y-201560D01*
D02*
G37*
G36*
X-484020D02*
X-487679D01*
X-487023Y-203145D01*
X-485605Y-204563D01*
X-484020Y-205219D01*
Y-201560D01*
D02*
G37*
G36*
X-527821D02*
X-531480D01*
Y-205219D01*
X-529895Y-204563D01*
X-528477Y-203145D01*
X-527821Y-201560D01*
D02*
G37*
G36*
X-534020D02*
X-537679D01*
X-537023Y-203145D01*
X-535605Y-204563D01*
X-534020Y-205219D01*
Y-201560D01*
D02*
G37*
G36*
X-577821D02*
X-581480D01*
Y-205219D01*
X-579895Y-204563D01*
X-578477Y-203145D01*
X-577821Y-201560D01*
D02*
G37*
G36*
X-584020D02*
X-587679D01*
X-587023Y-203145D01*
X-585605Y-204563D01*
X-584020Y-205219D01*
Y-201560D01*
D02*
G37*
G36*
X-827821D02*
X-831480D01*
Y-205219D01*
X-829895Y-204563D01*
X-828477Y-203145D01*
X-827821Y-201560D01*
D02*
G37*
G36*
X-834020D02*
X-837679D01*
X-837023Y-203145D01*
X-835605Y-204563D01*
X-834020Y-205219D01*
Y-201560D01*
D02*
G37*
G36*
X-620230Y-190320D02*
X-624170D01*
X-628034Y-191089D01*
X-631674Y-192596D01*
X-634949Y-194785D01*
X-637735Y-197571D01*
X-639924Y-200847D01*
X-641431Y-204486D01*
X-642200Y-208350D01*
Y-212290D01*
X-641431Y-216154D01*
X-639924Y-219793D01*
X-637735Y-223069D01*
X-634949Y-225855D01*
X-631674Y-228044D01*
X-628034Y-229551D01*
X-624170Y-230320D01*
X-620230D01*
X-616366Y-229551D01*
X-612727Y-228044D01*
X-609451Y-225855D01*
X-606665Y-223069D01*
X-604476Y-219793D01*
X-602969Y-216154D01*
X-602200Y-212290D01*
Y-208350D01*
X-602969Y-204486D01*
X-604476Y-200847D01*
X-606665Y-197571D01*
X-609451Y-194785D01*
X-612727Y-192596D01*
X-616366Y-191089D01*
X-620230Y-190320D01*
D02*
G37*
G36*
X-806480Y-245361D02*
Y-249020D01*
X-802821D01*
X-803477Y-247435D01*
X-804895Y-246017D01*
X-806480Y-245361D01*
D02*
G37*
G36*
X-809020D02*
X-810605Y-246017D01*
X-812023Y-247435D01*
X-812679Y-249020D01*
X-809020D01*
Y-245361D01*
D02*
G37*
G36*
X-802821Y-251560D02*
X-806480D01*
Y-255219D01*
X-804895Y-254563D01*
X-803477Y-253145D01*
X-802821Y-251560D01*
D02*
G37*
G36*
X-809020D02*
X-812679D01*
X-812023Y-253145D01*
X-810605Y-254563D01*
X-809020Y-255219D01*
Y-251560D01*
D02*
G37*
G36*
X-831480Y-295361D02*
Y-299020D01*
X-827821D01*
X-828477Y-297435D01*
X-829895Y-296017D01*
X-831480Y-295361D01*
D02*
G37*
G36*
X-834020D02*
X-835605Y-296017D01*
X-837023Y-297435D01*
X-837679Y-299020D01*
X-834020D01*
Y-295361D01*
D02*
G37*
G36*
X-827821Y-301560D02*
X-831480D01*
Y-305219D01*
X-829895Y-304563D01*
X-828477Y-303145D01*
X-827821Y-301560D01*
D02*
G37*
G36*
X-834020D02*
X-837679D01*
X-837023Y-303145D01*
X-835605Y-304563D01*
X-834020Y-305219D01*
Y-301560D01*
D02*
G37*
G36*
X-322580Y-307678D02*
Y-312420D01*
X-317838D01*
X-318729Y-310269D01*
X-320429Y-308570D01*
X-322580Y-307678D01*
D02*
G37*
G36*
X-325120D02*
X-327271Y-308570D01*
X-328970Y-310269D01*
X-329862Y-312420D01*
X-325120D01*
Y-307678D01*
D02*
G37*
G36*
X-370840Y-126290D02*
X-699770D01*
X-701597Y-126530D01*
X-703300Y-127235D01*
X-704762Y-128358D01*
X-735242Y-158838D01*
X-736365Y-160300D01*
X-737070Y-162003D01*
X-737310Y-163830D01*
X-737070Y-165657D01*
X-736365Y-167360D01*
X-735242Y-168822D01*
X-733780Y-169944D01*
X-732077Y-170650D01*
X-730250Y-170890D01*
X-728423Y-170650D01*
X-726720Y-169944D01*
X-725258Y-168822D01*
X-696845Y-140410D01*
X-373764D01*
X-352500Y-161674D01*
Y-306070D01*
X-352260Y-307897D01*
X-351554Y-309600D01*
X-350432Y-311062D01*
X-348970Y-312185D01*
X-347267Y-312890D01*
X-345440Y-313130D01*
X-343613Y-312890D01*
X-341910Y-312185D01*
X-340448Y-311062D01*
X-339325Y-309600D01*
X-338620Y-307897D01*
X-338380Y-306070D01*
Y-158750D01*
X-338620Y-156923D01*
X-339325Y-155220D01*
X-340448Y-153758D01*
X-365848Y-128358D01*
X-367310Y-127235D01*
X-369013Y-126530D01*
X-370840Y-126290D01*
D02*
G37*
G36*
X-317838Y-314960D02*
X-322580D01*
Y-319702D01*
X-320429Y-318811D01*
X-318729Y-317111D01*
X-317838Y-314960D01*
D02*
G37*
G36*
X-325120D02*
X-329862D01*
X-328970Y-317111D01*
X-327271Y-318811D01*
X-325120Y-319702D01*
Y-314960D01*
D02*
G37*
G36*
X-756480Y-345361D02*
Y-349020D01*
X-752821D01*
X-753477Y-347435D01*
X-754895Y-346017D01*
X-756480Y-345361D01*
D02*
G37*
G36*
X-759020D02*
X-760605Y-346017D01*
X-762023Y-347435D01*
X-762679Y-349020D01*
X-759020D01*
Y-345361D01*
D02*
G37*
G36*
X-806480D02*
Y-349020D01*
X-802821D01*
X-803477Y-347435D01*
X-804895Y-346017D01*
X-806480Y-345361D01*
D02*
G37*
G36*
X-809020D02*
X-810605Y-346017D01*
X-812023Y-347435D01*
X-812679Y-349020D01*
X-809020D01*
Y-345361D01*
D02*
G37*
G36*
X-752821Y-351560D02*
X-756480D01*
Y-355219D01*
X-754895Y-354563D01*
X-753477Y-353145D01*
X-752821Y-351560D01*
D02*
G37*
G36*
X-759020D02*
X-762679D01*
X-762023Y-353145D01*
X-760605Y-354563D01*
X-759020Y-355219D01*
Y-351560D01*
D02*
G37*
G36*
X-802821D02*
X-806480D01*
Y-355219D01*
X-804895Y-354563D01*
X-803477Y-353145D01*
X-802821Y-351560D01*
D02*
G37*
G36*
X-809020D02*
X-812679D01*
X-812023Y-353145D01*
X-810605Y-354563D01*
X-809020Y-355219D01*
Y-351560D01*
D02*
G37*
G36*
X-634020Y-395361D02*
X-635605Y-396017D01*
X-637023Y-397435D01*
X-637679Y-399020D01*
X-634020D01*
Y-395361D01*
D02*
G37*
G36*
X-681480D02*
Y-399020D01*
X-677821D01*
X-678477Y-397435D01*
X-679895Y-396017D01*
X-681480Y-395361D01*
D02*
G37*
G36*
X-684020D02*
X-685605Y-396017D01*
X-687023Y-397435D01*
X-687679Y-399020D01*
X-684020D01*
Y-395361D01*
D02*
G37*
G36*
X-731480D02*
Y-399020D01*
X-727821D01*
X-728477Y-397435D01*
X-729895Y-396017D01*
X-731480Y-395361D01*
D02*
G37*
G36*
X-734020D02*
X-735605Y-396017D01*
X-737023Y-397435D01*
X-737679Y-399020D01*
X-734020D01*
Y-395361D01*
D02*
G37*
G36*
X-781480D02*
Y-399020D01*
X-777821D01*
X-778477Y-397435D01*
X-779895Y-396017D01*
X-781480Y-395361D01*
D02*
G37*
G36*
X-784020D02*
X-785605Y-396017D01*
X-787023Y-397435D01*
X-787679Y-399020D01*
X-784020D01*
Y-395361D01*
D02*
G37*
G36*
X-831480D02*
Y-399020D01*
X-827821D01*
X-828477Y-397435D01*
X-829895Y-396017D01*
X-831480Y-395361D01*
D02*
G37*
G36*
X-834020D02*
X-835605Y-396017D01*
X-837023Y-397435D01*
X-837679Y-399020D01*
X-834020D01*
Y-395361D01*
D02*
G37*
G36*
X-634020Y-401560D02*
X-637679D01*
X-637023Y-403145D01*
X-635605Y-404563D01*
X-634020Y-405219D01*
Y-401560D01*
D02*
G37*
G36*
X-677821D02*
X-681480D01*
Y-405219D01*
X-679895Y-404563D01*
X-678477Y-403145D01*
X-677821Y-401560D01*
D02*
G37*
G36*
X-684020D02*
X-687679D01*
X-687023Y-403145D01*
X-685605Y-404563D01*
X-684020Y-405219D01*
Y-401560D01*
D02*
G37*
G36*
X-727821D02*
X-731480D01*
Y-405219D01*
X-729895Y-404563D01*
X-728477Y-403145D01*
X-727821Y-401560D01*
D02*
G37*
G36*
X-734020D02*
X-737679D01*
X-737023Y-403145D01*
X-735605Y-404563D01*
X-734020Y-405219D01*
Y-401560D01*
D02*
G37*
G36*
X-777821D02*
X-781480D01*
Y-405219D01*
X-779895Y-404563D01*
X-778477Y-403145D01*
X-777821Y-401560D01*
D02*
G37*
G36*
X-784020D02*
X-787679D01*
X-787023Y-403145D01*
X-785605Y-404563D01*
X-784020Y-405219D01*
Y-401560D01*
D02*
G37*
G36*
X-827821D02*
X-831480D01*
Y-405219D01*
X-829895Y-404563D01*
X-828477Y-403145D01*
X-827821Y-401560D01*
D02*
G37*
G36*
X-834020D02*
X-837679D01*
X-837023Y-403145D01*
X-835605Y-404563D01*
X-834020Y-405219D01*
Y-401560D01*
D02*
G37*
G36*
X26670Y-430868D02*
Y-435610D01*
X31412D01*
X30521Y-433459D01*
X28821Y-431759D01*
X26670Y-430868D01*
D02*
G37*
G36*
X24130D02*
X21979Y-431759D01*
X20280Y-433459D01*
X19388Y-435610D01*
X24130D01*
Y-430868D01*
D02*
G37*
G36*
X-82550Y-435948D02*
Y-440690D01*
X-77808D01*
X-78699Y-438539D01*
X-80399Y-436839D01*
X-82550Y-435948D01*
D02*
G37*
G36*
X-85090D02*
X-87241Y-436839D01*
X-88940Y-438539D01*
X-89832Y-440690D01*
X-85090D01*
Y-435948D01*
D02*
G37*
G36*
X31412Y-438150D02*
X26670D01*
Y-442892D01*
X28821Y-442001D01*
X30521Y-440301D01*
X31412Y-438150D01*
D02*
G37*
G36*
X24130D02*
X19388D01*
X20280Y-440301D01*
X21979Y-442001D01*
X24130Y-442892D01*
Y-438150D01*
D02*
G37*
G36*
X-77808Y-443230D02*
X-82550D01*
Y-447972D01*
X-80399Y-447080D01*
X-78699Y-445381D01*
X-77808Y-443230D01*
D02*
G37*
G36*
X-85090D02*
X-89832D01*
X-88940Y-445381D01*
X-87241Y-447080D01*
X-85090Y-447972D01*
Y-443230D01*
D02*
G37*
G36*
X-606480Y-445361D02*
Y-449020D01*
X-602821D01*
X-603477Y-447435D01*
X-604895Y-446017D01*
X-606480Y-445361D01*
D02*
G37*
G36*
X-706480D02*
Y-449020D01*
X-702821D01*
X-703477Y-447435D01*
X-704895Y-446017D01*
X-706480Y-445361D01*
D02*
G37*
G36*
X-709020D02*
X-710605Y-446017D01*
X-712023Y-447435D01*
X-712679Y-449020D01*
X-709020D01*
Y-445361D01*
D02*
G37*
G36*
X-756480D02*
Y-449020D01*
X-752821D01*
X-753477Y-447435D01*
X-754895Y-446017D01*
X-756480Y-445361D01*
D02*
G37*
G36*
X-759020D02*
X-760605Y-446017D01*
X-762023Y-447435D01*
X-762679Y-449020D01*
X-759020D01*
Y-445361D01*
D02*
G37*
G36*
X-806480D02*
Y-449020D01*
X-802821D01*
X-803477Y-447435D01*
X-804895Y-446017D01*
X-806480Y-445361D01*
D02*
G37*
G36*
X-809020D02*
X-810605Y-446017D01*
X-812023Y-447435D01*
X-812679Y-449020D01*
X-809020D01*
Y-445361D01*
D02*
G37*
G36*
X-602821Y-451560D02*
X-606480D01*
Y-455219D01*
X-604895Y-454563D01*
X-603477Y-453145D01*
X-602821Y-451560D01*
D02*
G37*
G36*
X-702821D02*
X-706480D01*
Y-455219D01*
X-704895Y-454563D01*
X-703477Y-453145D01*
X-702821Y-451560D01*
D02*
G37*
G36*
X-709020D02*
X-712679D01*
X-712023Y-453145D01*
X-710605Y-454563D01*
X-709020Y-455219D01*
Y-451560D01*
D02*
G37*
G36*
X-752821D02*
X-756480D01*
Y-455219D01*
X-754895Y-454563D01*
X-753477Y-453145D01*
X-752821Y-451560D01*
D02*
G37*
G36*
X-759020D02*
X-762679D01*
X-762023Y-453145D01*
X-760605Y-454563D01*
X-759020Y-455219D01*
Y-451560D01*
D02*
G37*
G36*
X-802821D02*
X-806480D01*
Y-455219D01*
X-804895Y-454563D01*
X-803477Y-453145D01*
X-802821Y-451560D01*
D02*
G37*
G36*
X-809020D02*
X-812679D01*
X-812023Y-453145D01*
X-810605Y-454563D01*
X-809020Y-455219D01*
Y-451560D01*
D02*
G37*
G36*
X-66040Y-454998D02*
Y-459740D01*
X-61298D01*
X-62189Y-457589D01*
X-63889Y-455890D01*
X-66040Y-454998D01*
D02*
G37*
G36*
X-68580D02*
X-70731Y-455890D01*
X-72431Y-457589D01*
X-73322Y-459740D01*
X-68580D01*
Y-454998D01*
D02*
G37*
G36*
X-61298Y-462280D02*
X-66040D01*
Y-467022D01*
X-63889Y-466130D01*
X-62189Y-464431D01*
X-61298Y-462280D01*
D02*
G37*
G36*
X-68580D02*
X-73322D01*
X-72431Y-464431D01*
X-70731Y-466130D01*
X-68580Y-467022D01*
Y-462280D01*
D02*
G37*
G36*
X42963Y-460480D02*
X40857D01*
X38822Y-461025D01*
X36998Y-462078D01*
X35508Y-463568D01*
X34455Y-465392D01*
X33910Y-467427D01*
Y-469533D01*
X34455Y-471568D01*
X35508Y-473392D01*
X36998Y-474882D01*
X38822Y-475935D01*
X40857Y-476480D01*
X42963D01*
X44998Y-475935D01*
X46822Y-474882D01*
X48312Y-473392D01*
X49365Y-471568D01*
X49910Y-469533D01*
Y-467427D01*
X49365Y-465392D01*
X48312Y-463568D01*
X46822Y-462078D01*
X44998Y-461025D01*
X42963Y-460480D01*
D02*
G37*
G36*
X-745542Y-459100D02*
X-748438D01*
X-751236Y-459850D01*
X-753744Y-461298D01*
X-755792Y-463346D01*
X-757240Y-465854D01*
X-757990Y-468652D01*
Y-471548D01*
X-757240Y-474346D01*
X-755792Y-476854D01*
X-753744Y-478902D01*
X-751236Y-480350D01*
X-748438Y-481100D01*
X-745542D01*
X-742744Y-480350D01*
X-740236Y-478902D01*
X-738188Y-476854D01*
X-736740Y-474346D01*
X-735990Y-471548D01*
Y-468652D01*
X-736740Y-465854D01*
X-738188Y-463346D01*
X-740236Y-461298D01*
X-742744Y-459850D01*
X-745542Y-459100D01*
D02*
G37*
G36*
X-817342Y-459100D02*
X-820238D01*
X-823036Y-459850D01*
X-825544Y-461298D01*
X-827592Y-463346D01*
X-829040Y-465854D01*
X-829790Y-468652D01*
Y-471548D01*
X-829040Y-474346D01*
X-827592Y-476854D01*
X-825544Y-478902D01*
X-823036Y-480350D01*
X-820238Y-481100D01*
X-817342D01*
X-814544Y-480350D01*
X-812036Y-478902D01*
X-809988Y-476854D01*
X-808540Y-474346D01*
X-807790Y-471548D01*
Y-468652D01*
X-808540Y-465854D01*
X-809988Y-463346D01*
X-812036Y-461298D01*
X-814544Y-459850D01*
X-817342Y-459100D01*
D02*
G37*
G36*
Y-484100D02*
X-820238D01*
X-823036Y-484850D01*
X-825544Y-486298D01*
X-827592Y-488346D01*
X-829040Y-490854D01*
X-829790Y-493652D01*
Y-494686D01*
X-831060Y-495535D01*
X-831480Y-495361D01*
Y-500290D01*
Y-505219D01*
X-829895Y-504563D01*
X-828477Y-503145D01*
X-828366Y-502876D01*
X-826868Y-502578D01*
X-825544Y-503902D01*
X-823036Y-505350D01*
X-820238Y-506100D01*
X-817342D01*
X-814544Y-505350D01*
X-812036Y-503902D01*
X-809988Y-501854D01*
X-808540Y-499346D01*
X-807790Y-496548D01*
Y-493652D01*
X-808540Y-490854D01*
X-809988Y-488346D01*
X-812036Y-486298D01*
X-814544Y-484850D01*
X-817342Y-484100D01*
D02*
G37*
G36*
X-181480Y-495361D02*
Y-499020D01*
X-177821D01*
X-178477Y-497435D01*
X-179895Y-496017D01*
X-181480Y-495361D01*
D02*
G37*
G36*
X-184020D02*
X-185605Y-496017D01*
X-187023Y-497435D01*
X-187679Y-499020D01*
X-184020D01*
Y-495361D01*
D02*
G37*
G36*
X-281480D02*
Y-499020D01*
X-277821D01*
X-278477Y-497435D01*
X-279895Y-496017D01*
X-281480Y-495361D01*
D02*
G37*
G36*
X-284020D02*
X-285605Y-496017D01*
X-287023Y-497435D01*
X-287679Y-499020D01*
X-284020D01*
Y-495361D01*
D02*
G37*
G36*
X-331480D02*
Y-499020D01*
X-327821D01*
X-328477Y-497435D01*
X-329895Y-496017D01*
X-331480Y-495361D01*
D02*
G37*
G36*
X-334020D02*
X-335605Y-496017D01*
X-337023Y-497435D01*
X-337679Y-499020D01*
X-334020D01*
Y-495361D01*
D02*
G37*
G36*
X-634020D02*
X-635605Y-496017D01*
X-637023Y-497435D01*
X-637679Y-499020D01*
X-634020D01*
Y-495361D01*
D02*
G37*
G36*
X-681480D02*
Y-499020D01*
X-677821D01*
X-678477Y-497435D01*
X-679895Y-496017D01*
X-681480Y-495361D01*
D02*
G37*
G36*
X-684020D02*
X-685605Y-496017D01*
X-687023Y-497435D01*
X-687679Y-499020D01*
X-684020D01*
Y-495361D01*
D02*
G37*
G36*
X-731480D02*
Y-499020D01*
X-727821D01*
X-728477Y-497435D01*
X-729895Y-496017D01*
X-731480Y-495361D01*
D02*
G37*
G36*
X-781480D02*
Y-499020D01*
X-777821D01*
X-778477Y-497435D01*
X-779895Y-496017D01*
X-781480Y-495361D01*
D02*
G37*
G36*
X-784020D02*
X-785605Y-496017D01*
X-787023Y-497435D01*
X-787679Y-499020D01*
X-784020D01*
Y-495361D01*
D02*
G37*
G36*
X-834020D02*
X-835605Y-496017D01*
X-837023Y-497435D01*
X-837679Y-499020D01*
X-834020D01*
Y-495361D01*
D02*
G37*
G36*
X27450Y-494322D02*
X22180D01*
Y-502210D01*
X36441D01*
X36296Y-501110D01*
X35381Y-498901D01*
X33926Y-497004D01*
X32029Y-495549D01*
X29820Y-494634D01*
X27450Y-494322D01*
D02*
G37*
G36*
X19640D02*
X14370D01*
X12000Y-494634D01*
X9791Y-495549D01*
X7894Y-497004D01*
X6439Y-498901D01*
X5524Y-501110D01*
X5379Y-502210D01*
X19640D01*
Y-494322D01*
D02*
G37*
G36*
X-23198Y-497840D02*
X-27940D01*
Y-502582D01*
X-25789Y-501690D01*
X-24090Y-499991D01*
X-23198Y-497840D01*
D02*
G37*
G36*
X-30480D02*
X-35222D01*
X-34330Y-499991D01*
X-32631Y-501690D01*
X-30480Y-502582D01*
Y-497840D01*
D02*
G37*
G36*
X-177821Y-501560D02*
X-181480D01*
Y-505219D01*
X-179895Y-504563D01*
X-178477Y-503145D01*
X-177821Y-501560D01*
D02*
G37*
G36*
X-184020D02*
X-187679D01*
X-187023Y-503145D01*
X-185605Y-504563D01*
X-184020Y-505219D01*
Y-501560D01*
D02*
G37*
G36*
X-234020D02*
X-237679D01*
X-237023Y-503145D01*
X-235605Y-504563D01*
X-234020Y-505219D01*
Y-501560D01*
D02*
G37*
G36*
X-277821D02*
X-281480D01*
Y-505219D01*
X-279895Y-504563D01*
X-278477Y-503145D01*
X-277821Y-501560D01*
D02*
G37*
G36*
X-284020D02*
X-287679D01*
X-287023Y-503145D01*
X-285605Y-504563D01*
X-284020Y-505219D01*
Y-501560D01*
D02*
G37*
G36*
X-327821D02*
X-331480D01*
Y-505219D01*
X-329895Y-504563D01*
X-328477Y-503145D01*
X-327821Y-501560D01*
D02*
G37*
G36*
X-334020D02*
X-337679D01*
X-337023Y-503145D01*
X-335605Y-504563D01*
X-334020Y-505219D01*
Y-501560D01*
D02*
G37*
G36*
X-634020D02*
X-637679D01*
X-637023Y-503145D01*
X-635605Y-504563D01*
X-634020Y-505219D01*
Y-501560D01*
D02*
G37*
G36*
X-677821D02*
X-681480D01*
Y-505219D01*
X-679895Y-504563D01*
X-678477Y-503145D01*
X-677821Y-501560D01*
D02*
G37*
G36*
X-684020D02*
X-687679D01*
X-687023Y-503145D01*
X-685605Y-504563D01*
X-684020Y-505219D01*
Y-501560D01*
D02*
G37*
G36*
X-727821D02*
X-731480D01*
Y-505219D01*
X-729895Y-504563D01*
X-728477Y-503145D01*
X-727821Y-501560D01*
D02*
G37*
G36*
X-745542Y-484100D02*
X-748438D01*
X-751236Y-484850D01*
X-753744Y-486298D01*
X-755792Y-488346D01*
X-757240Y-490854D01*
X-757990Y-493652D01*
Y-496548D01*
X-757240Y-499346D01*
X-755792Y-501854D01*
X-753744Y-503902D01*
X-751236Y-505350D01*
X-748438Y-506100D01*
X-745542D01*
X-742744Y-505350D01*
X-740236Y-503902D01*
X-738714Y-502380D01*
X-737238Y-502626D01*
X-737023Y-503145D01*
X-735605Y-504563D01*
X-734020Y-505219D01*
Y-500290D01*
Y-495361D01*
X-734720Y-495651D01*
X-735990Y-494802D01*
Y-493652D01*
X-736740Y-490854D01*
X-738188Y-488346D01*
X-740236Y-486298D01*
X-742744Y-484850D01*
X-745542Y-484100D01*
D02*
G37*
G36*
X-777821Y-501560D02*
X-781480D01*
Y-505219D01*
X-779895Y-504563D01*
X-778477Y-503145D01*
X-777821Y-501560D01*
D02*
G37*
G36*
X-784020D02*
X-787679D01*
X-787023Y-503145D01*
X-785605Y-504563D01*
X-784020Y-505219D01*
Y-501560D01*
D02*
G37*
G36*
X-834020D02*
X-837679D01*
X-837023Y-503145D01*
X-835605Y-504563D01*
X-834020Y-505219D01*
Y-501560D01*
D02*
G37*
G36*
X36441Y-504750D02*
X22180D01*
Y-512638D01*
X27450D01*
X29820Y-512326D01*
X32029Y-511411D01*
X33926Y-509956D01*
X35381Y-508059D01*
X36296Y-505850D01*
X36441Y-504750D01*
D02*
G37*
G36*
X19640D02*
X5379D01*
X5524Y-505850D01*
X6439Y-508059D01*
X7894Y-509956D01*
X9791Y-511411D01*
X12000Y-512326D01*
X14370Y-512638D01*
X19640D01*
Y-504750D01*
D02*
G37*
G36*
X-80260Y-518388D02*
Y-523130D01*
X-75519D01*
X-76410Y-520978D01*
X-78109Y-519279D01*
X-80260Y-518388D01*
D02*
G37*
G36*
X-82800D02*
X-84952Y-519279D01*
X-86651Y-520978D01*
X-87542Y-523130D01*
X-82800D01*
Y-518388D01*
D02*
G37*
G36*
X-75519Y-525670D02*
X-80260D01*
Y-530411D01*
X-78109Y-529520D01*
X-76410Y-527821D01*
X-75519Y-525670D01*
D02*
G37*
G36*
X-82800D02*
X-87542D01*
X-86651Y-527821D01*
X-84952Y-529520D01*
X-82800Y-530411D01*
Y-525670D01*
D02*
G37*
G36*
X27450Y-514866D02*
X14370D01*
X12141Y-515160D01*
X10063Y-516020D01*
X8279Y-517389D01*
X6910Y-519173D01*
X6050Y-521251D01*
X5756Y-523480D01*
X6050Y-525709D01*
X6910Y-527787D01*
X8279Y-529571D01*
X10063Y-530940D01*
X12141Y-531800D01*
X14370Y-532094D01*
X27450D01*
X29679Y-531800D01*
X31757Y-530940D01*
X33541Y-529571D01*
X34910Y-527787D01*
X35770Y-525709D01*
X36064Y-523480D01*
X35770Y-521251D01*
X34910Y-519173D01*
X33541Y-517389D01*
X31757Y-516020D01*
X29679Y-515160D01*
X27450Y-514866D01*
D02*
G37*
G36*
X42963Y-530480D02*
X40857D01*
X38822Y-531025D01*
X36998Y-532078D01*
X35508Y-533568D01*
X34455Y-535392D01*
X33910Y-537427D01*
Y-539533D01*
X34455Y-541568D01*
X35508Y-543392D01*
X36998Y-544882D01*
X38822Y-545935D01*
X40857Y-546480D01*
X42963D01*
X44998Y-545935D01*
X46822Y-544882D01*
X48312Y-543392D01*
X49365Y-541568D01*
X49910Y-539533D01*
Y-537427D01*
X49365Y-535392D01*
X48312Y-533568D01*
X46822Y-532078D01*
X44998Y-531025D01*
X42963Y-530480D01*
D02*
G37*
G36*
X-256480Y-545361D02*
Y-549020D01*
X-252821D01*
X-253477Y-547435D01*
X-254895Y-546017D01*
X-256480Y-545361D01*
D02*
G37*
G36*
X-259020D02*
X-260605Y-546017D01*
X-262023Y-547435D01*
X-262679Y-549020D01*
X-259020D01*
Y-545361D01*
D02*
G37*
G36*
X-306480D02*
Y-549020D01*
X-302821D01*
X-303477Y-547435D01*
X-304895Y-546017D01*
X-306480Y-545361D01*
D02*
G37*
G36*
X-309020D02*
X-310605Y-546017D01*
X-312023Y-547435D01*
X-312679Y-549020D01*
X-309020D01*
Y-545361D01*
D02*
G37*
G36*
X-356480D02*
Y-549020D01*
X-352821D01*
X-353477Y-547435D01*
X-354895Y-546017D01*
X-356480Y-545361D01*
D02*
G37*
G36*
X-359020D02*
X-360605Y-546017D01*
X-362023Y-547435D01*
X-362679Y-549020D01*
X-359020D01*
Y-545361D01*
D02*
G37*
G36*
X-406480D02*
Y-549020D01*
X-402821D01*
X-403477Y-547435D01*
X-404895Y-546017D01*
X-406480Y-545361D01*
D02*
G37*
G36*
X-409020D02*
X-410605Y-546017D01*
X-412023Y-547435D01*
X-412679Y-549020D01*
X-409020D01*
Y-545361D01*
D02*
G37*
G36*
X-456480D02*
Y-549020D01*
X-452821D01*
X-453477Y-547435D01*
X-454895Y-546017D01*
X-456480Y-545361D01*
D02*
G37*
G36*
X-459020D02*
X-460605Y-546017D01*
X-462023Y-547435D01*
X-462679Y-549020D01*
X-459020D01*
Y-545361D01*
D02*
G37*
G36*
X-556480D02*
Y-549020D01*
X-552821D01*
X-553477Y-547435D01*
X-554895Y-546017D01*
X-556480Y-545361D01*
D02*
G37*
G36*
X-559020D02*
X-560605Y-546017D01*
X-562023Y-547435D01*
X-562679Y-549020D01*
X-559020D01*
Y-545361D01*
D02*
G37*
G36*
X-706480D02*
Y-549020D01*
X-702821D01*
X-703477Y-547435D01*
X-704895Y-546017D01*
X-706480Y-545361D01*
D02*
G37*
G36*
X-709020D02*
X-710605Y-546017D01*
X-712023Y-547435D01*
X-712679Y-549020D01*
X-709020D01*
Y-545361D01*
D02*
G37*
G36*
X-756480D02*
Y-549020D01*
X-752821D01*
X-753477Y-547435D01*
X-754895Y-546017D01*
X-756480Y-545361D01*
D02*
G37*
G36*
X-759020D02*
X-760605Y-546017D01*
X-762023Y-547435D01*
X-762679Y-549020D01*
X-759020D01*
Y-545361D01*
D02*
G37*
G36*
X-806480D02*
Y-549020D01*
X-802821D01*
X-803477Y-547435D01*
X-804895Y-546017D01*
X-806480Y-545361D01*
D02*
G37*
G36*
X-809020D02*
X-810605Y-546017D01*
X-812023Y-547435D01*
X-812679Y-549020D01*
X-809020D01*
Y-545361D01*
D02*
G37*
G36*
X-39370Y-544278D02*
Y-549020D01*
X-34628D01*
X-35519Y-546869D01*
X-37219Y-545169D01*
X-39370Y-544278D01*
D02*
G37*
G36*
X-41910D02*
X-44061Y-545169D01*
X-45760Y-546869D01*
X-46652Y-549020D01*
X-41910D01*
Y-544278D01*
D02*
G37*
G36*
X-252821Y-551560D02*
X-256480D01*
Y-555219D01*
X-254895Y-554563D01*
X-253477Y-553145D01*
X-252821Y-551560D01*
D02*
G37*
G36*
X-259020D02*
X-262679D01*
X-262023Y-553145D01*
X-260605Y-554563D01*
X-259020Y-555219D01*
Y-551560D01*
D02*
G37*
G36*
X-302821D02*
X-306480D01*
Y-555219D01*
X-304895Y-554563D01*
X-303477Y-553145D01*
X-302821Y-551560D01*
D02*
G37*
G36*
X-309020D02*
X-312679D01*
X-312023Y-553145D01*
X-310605Y-554563D01*
X-309020Y-555219D01*
Y-551560D01*
D02*
G37*
G36*
X-352821D02*
X-356480D01*
Y-555219D01*
X-354895Y-554563D01*
X-353477Y-553145D01*
X-352821Y-551560D01*
D02*
G37*
G36*
X-359020D02*
X-362679D01*
X-362023Y-553145D01*
X-360605Y-554563D01*
X-359020Y-555219D01*
Y-551560D01*
D02*
G37*
G36*
X-402821D02*
X-406480D01*
Y-555219D01*
X-404895Y-554563D01*
X-403477Y-553145D01*
X-402821Y-551560D01*
D02*
G37*
G36*
X-409020D02*
X-412679D01*
X-412023Y-553145D01*
X-410605Y-554563D01*
X-409020Y-555219D01*
Y-551560D01*
D02*
G37*
G36*
X-452821D02*
X-456480D01*
Y-555219D01*
X-454895Y-554563D01*
X-453477Y-553145D01*
X-452821Y-551560D01*
D02*
G37*
G36*
X-459020D02*
X-462679D01*
X-462023Y-553145D01*
X-460605Y-554563D01*
X-459020Y-555219D01*
Y-551560D01*
D02*
G37*
G36*
X-552821D02*
X-556480D01*
Y-555219D01*
X-554895Y-554563D01*
X-553477Y-553145D01*
X-552821Y-551560D01*
D02*
G37*
G36*
X-559020D02*
X-562679D01*
X-562023Y-553145D01*
X-560605Y-554563D01*
X-559020Y-555219D01*
Y-551560D01*
D02*
G37*
G36*
X-702821D02*
X-706480D01*
Y-555219D01*
X-704895Y-554563D01*
X-703477Y-553145D01*
X-702821Y-551560D01*
D02*
G37*
G36*
X-709020D02*
X-712679D01*
X-712023Y-553145D01*
X-710605Y-554563D01*
X-709020Y-555219D01*
Y-551560D01*
D02*
G37*
G36*
X-752821D02*
X-756480D01*
Y-555219D01*
X-754895Y-554563D01*
X-753477Y-553145D01*
X-752821Y-551560D01*
D02*
G37*
G36*
X-759020D02*
X-762679D01*
X-762023Y-553145D01*
X-760605Y-554563D01*
X-759020Y-555219D01*
Y-551560D01*
D02*
G37*
G36*
X-802821D02*
X-806480D01*
Y-555219D01*
X-804895Y-554563D01*
X-803477Y-553145D01*
X-802821Y-551560D01*
D02*
G37*
G36*
X-809020D02*
X-812679D01*
X-812023Y-553145D01*
X-810605Y-554563D01*
X-809020Y-555219D01*
Y-551560D01*
D02*
G37*
G36*
X-34628Y-551560D02*
X-39370D01*
Y-556302D01*
X-37219Y-555410D01*
X-35519Y-553711D01*
X-34628Y-551560D01*
D02*
G37*
G36*
X-41910D02*
X-46652D01*
X-45760Y-553711D01*
X-44061Y-555410D01*
X-41910Y-556302D01*
Y-551560D01*
D02*
G37*
G36*
X-138606Y-452970D02*
X-140794D01*
X-142816Y-453807D01*
X-144363Y-455354D01*
X-145200Y-457376D01*
Y-459564D01*
X-144363Y-461586D01*
X-144288Y-461660D01*
Y-538480D01*
X-143939Y-540236D01*
X-142944Y-541724D01*
X-112464Y-572204D01*
X-112088Y-572455D01*
X-111769Y-572775D01*
X-111351Y-572948D01*
X-110976Y-573199D01*
X-110533Y-573287D01*
X-110115Y-573460D01*
X-109663D01*
X-109220Y-573548D01*
X-108777Y-573460D01*
X-108325D01*
X-107907Y-573287D01*
X-107464Y-573199D01*
X-107088Y-572948D01*
X-106671Y-572775D01*
X-106351Y-572455D01*
X-105976Y-572204D01*
X-105725Y-571828D01*
X-105405Y-571509D01*
X-105232Y-571091D01*
X-104981Y-570716D01*
X-104893Y-570273D01*
X-104720Y-569855D01*
Y-569403D01*
X-104632Y-568960D01*
X-104720Y-568517D01*
Y-568065D01*
X-104893Y-567647D01*
X-104981Y-567204D01*
X-105232Y-566828D01*
X-105405Y-566411D01*
X-105725Y-566091D01*
X-105976Y-565716D01*
X-135112Y-536580D01*
Y-461660D01*
X-135037Y-461586D01*
X-134200Y-459564D01*
Y-457376D01*
X-135037Y-455354D01*
X-136585Y-453807D01*
X-138606Y-452970D01*
D02*
G37*
G36*
X-19050Y-576918D02*
Y-581660D01*
X-14308D01*
X-15200Y-579509D01*
X-16899Y-577809D01*
X-19050Y-576918D01*
D02*
G37*
G36*
X-21590D02*
X-23741Y-577809D01*
X-25440Y-579509D01*
X-26332Y-581660D01*
X-21590D01*
Y-576918D01*
D02*
G37*
G36*
X-14308Y-584200D02*
X-19050D01*
Y-588942D01*
X-16899Y-588050D01*
X-15200Y-586351D01*
X-14308Y-584200D01*
D02*
G37*
G36*
X-21590D02*
X-26332D01*
X-25440Y-586351D01*
X-23741Y-588050D01*
X-21590Y-588942D01*
Y-584200D01*
D02*
G37*
G36*
X-181480Y-595361D02*
Y-599020D01*
X-177821D01*
X-178477Y-597435D01*
X-179895Y-596017D01*
X-181480Y-595361D01*
D02*
G37*
G36*
X-184020D02*
X-185605Y-596017D01*
X-187023Y-597435D01*
X-187679Y-599020D01*
X-184020D01*
Y-595361D01*
D02*
G37*
G36*
X-231480D02*
Y-599020D01*
X-227821D01*
X-228477Y-597435D01*
X-229895Y-596017D01*
X-231480Y-595361D01*
D02*
G37*
G36*
X-234020D02*
X-235605Y-596017D01*
X-237023Y-597435D01*
X-237679Y-599020D01*
X-234020D01*
Y-595361D01*
D02*
G37*
G36*
X-281480D02*
Y-599020D01*
X-277821D01*
X-278477Y-597435D01*
X-279895Y-596017D01*
X-281480Y-595361D01*
D02*
G37*
G36*
X-284020D02*
X-285605Y-596017D01*
X-287023Y-597435D01*
X-287679Y-599020D01*
X-284020D01*
Y-595361D01*
D02*
G37*
G36*
X-331480D02*
Y-599020D01*
X-327821D01*
X-328477Y-597435D01*
X-329895Y-596017D01*
X-331480Y-595361D01*
D02*
G37*
G36*
X-334020D02*
X-335605Y-596017D01*
X-337023Y-597435D01*
X-337679Y-599020D01*
X-334020D01*
Y-595361D01*
D02*
G37*
G36*
X-381480D02*
Y-599020D01*
X-377821D01*
X-378477Y-597435D01*
X-379895Y-596017D01*
X-381480Y-595361D01*
D02*
G37*
G36*
X-384020D02*
X-385605Y-596017D01*
X-387023Y-597435D01*
X-387679Y-599020D01*
X-384020D01*
Y-595361D01*
D02*
G37*
G36*
X-431480D02*
Y-599020D01*
X-427821D01*
X-428477Y-597435D01*
X-429895Y-596017D01*
X-431480Y-595361D01*
D02*
G37*
G36*
X-434020D02*
X-435605Y-596017D01*
X-437023Y-597435D01*
X-437679Y-599020D01*
X-434020D01*
Y-595361D01*
D02*
G37*
G36*
X-481480D02*
Y-599020D01*
X-477821D01*
X-478477Y-597435D01*
X-479895Y-596017D01*
X-481480Y-595361D01*
D02*
G37*
G36*
X-484020D02*
X-485605Y-596017D01*
X-487023Y-597435D01*
X-487679Y-599020D01*
X-484020D01*
Y-595361D01*
D02*
G37*
G36*
X-531480D02*
Y-599020D01*
X-527821D01*
X-528477Y-597435D01*
X-529895Y-596017D01*
X-531480Y-595361D01*
D02*
G37*
G36*
X-534020D02*
X-535605Y-596017D01*
X-537023Y-597435D01*
X-537679Y-599020D01*
X-534020D01*
Y-595361D01*
D02*
G37*
G36*
X-681480D02*
Y-599020D01*
X-677821D01*
X-678477Y-597435D01*
X-679895Y-596017D01*
X-681480Y-595361D01*
D02*
G37*
G36*
X-684020D02*
X-685605Y-596017D01*
X-687023Y-597435D01*
X-687679Y-599020D01*
X-684020D01*
Y-595361D01*
D02*
G37*
G36*
X-731480D02*
Y-599020D01*
X-727821D01*
X-728477Y-597435D01*
X-729895Y-596017D01*
X-731480Y-595361D01*
D02*
G37*
G36*
X-734020D02*
X-735605Y-596017D01*
X-737023Y-597435D01*
X-737679Y-599020D01*
X-734020D01*
Y-595361D01*
D02*
G37*
G36*
X-781480D02*
Y-599020D01*
X-777821D01*
X-778477Y-597435D01*
X-779895Y-596017D01*
X-781480Y-595361D01*
D02*
G37*
G36*
X-784020D02*
X-785605Y-596017D01*
X-787023Y-597435D01*
X-787679Y-599020D01*
X-784020D01*
Y-595361D01*
D02*
G37*
G36*
X-831480D02*
Y-599020D01*
X-827821D01*
X-828477Y-597435D01*
X-829895Y-596017D01*
X-831480Y-595361D01*
D02*
G37*
G36*
X-834020D02*
X-835605Y-596017D01*
X-837023Y-597435D01*
X-837679Y-599020D01*
X-834020D01*
Y-595361D01*
D02*
G37*
G36*
X-134020Y-601560D02*
X-137679D01*
X-137023Y-603145D01*
X-135605Y-604563D01*
X-134020Y-605219D01*
Y-601560D01*
D02*
G37*
G36*
X-177821D02*
X-181480D01*
Y-605219D01*
X-179895Y-604563D01*
X-178477Y-603145D01*
X-177821Y-601560D01*
D02*
G37*
G36*
X-184020D02*
X-187679D01*
X-187023Y-603145D01*
X-185605Y-604563D01*
X-184020Y-605219D01*
Y-601560D01*
D02*
G37*
G36*
X-227821D02*
X-231480D01*
Y-605219D01*
X-229895Y-604563D01*
X-228477Y-603145D01*
X-227821Y-601560D01*
D02*
G37*
G36*
X-234020D02*
X-237679D01*
X-237023Y-603145D01*
X-235605Y-604563D01*
X-234020Y-605219D01*
Y-601560D01*
D02*
G37*
G36*
X-277821D02*
X-281480D01*
Y-605219D01*
X-279895Y-604563D01*
X-278477Y-603145D01*
X-277821Y-601560D01*
D02*
G37*
G36*
X-284020D02*
X-287679D01*
X-287023Y-603145D01*
X-285605Y-604563D01*
X-284020Y-605219D01*
Y-601560D01*
D02*
G37*
G36*
X-327821D02*
X-331480D01*
Y-605219D01*
X-329895Y-604563D01*
X-328477Y-603145D01*
X-327821Y-601560D01*
D02*
G37*
G36*
X-334020D02*
X-337679D01*
X-337023Y-603145D01*
X-335605Y-604563D01*
X-334020Y-605219D01*
Y-601560D01*
D02*
G37*
G36*
X-377821D02*
X-381480D01*
Y-605219D01*
X-379895Y-604563D01*
X-378477Y-603145D01*
X-377821Y-601560D01*
D02*
G37*
G36*
X-384020D02*
X-387679D01*
X-387023Y-603145D01*
X-385605Y-604563D01*
X-384020Y-605219D01*
Y-601560D01*
D02*
G37*
G36*
X-427821D02*
X-431480D01*
Y-605219D01*
X-429895Y-604563D01*
X-428477Y-603145D01*
X-427821Y-601560D01*
D02*
G37*
G36*
X-434020D02*
X-437679D01*
X-437023Y-603145D01*
X-435605Y-604563D01*
X-434020Y-605219D01*
Y-601560D01*
D02*
G37*
G36*
X-477821D02*
X-481480D01*
Y-605219D01*
X-479895Y-604563D01*
X-478477Y-603145D01*
X-477821Y-601560D01*
D02*
G37*
G36*
X-484020D02*
X-487679D01*
X-487023Y-603145D01*
X-485605Y-604563D01*
X-484020Y-605219D01*
Y-601560D01*
D02*
G37*
G36*
X-527821D02*
X-531480D01*
Y-605219D01*
X-529895Y-604563D01*
X-528477Y-603145D01*
X-527821Y-601560D01*
D02*
G37*
G36*
X-534020D02*
X-537679D01*
X-537023Y-603145D01*
X-535605Y-604563D01*
X-534020Y-605219D01*
Y-601560D01*
D02*
G37*
G36*
X-677821D02*
X-681480D01*
Y-605219D01*
X-679895Y-604563D01*
X-678477Y-603145D01*
X-677821Y-601560D01*
D02*
G37*
G36*
X-684020D02*
X-687679D01*
X-687023Y-603145D01*
X-685605Y-604563D01*
X-684020Y-605219D01*
Y-601560D01*
D02*
G37*
G36*
X-727821D02*
X-731480D01*
Y-605219D01*
X-729895Y-604563D01*
X-728477Y-603145D01*
X-727821Y-601560D01*
D02*
G37*
G36*
X-734020D02*
X-737679D01*
X-737023Y-603145D01*
X-735605Y-604563D01*
X-734020Y-605219D01*
Y-601560D01*
D02*
G37*
G36*
X-777821D02*
X-781480D01*
Y-605219D01*
X-779895Y-604563D01*
X-778477Y-603145D01*
X-777821Y-601560D01*
D02*
G37*
G36*
X-784020D02*
X-787679D01*
X-787023Y-603145D01*
X-785605Y-604563D01*
X-784020Y-605219D01*
Y-601560D01*
D02*
G37*
G36*
X-827821D02*
X-831480D01*
Y-605219D01*
X-829895Y-604563D01*
X-828477Y-603145D01*
X-827821Y-601560D01*
D02*
G37*
G36*
X-834020D02*
X-837679D01*
X-837023Y-603145D01*
X-835605Y-604563D01*
X-834020Y-605219D01*
Y-601560D01*
D02*
G37*
G36*
X-53340Y-608668D02*
Y-613410D01*
X-48598D01*
X-49489Y-611259D01*
X-51189Y-609560D01*
X-53340Y-608668D01*
D02*
G37*
G36*
X-55880D02*
X-58031Y-609560D01*
X-59731Y-611259D01*
X-60622Y-613410D01*
X-55880D01*
Y-608668D01*
D02*
G37*
G36*
X-48598Y-615950D02*
X-53340D01*
Y-620692D01*
X-51189Y-619800D01*
X-49489Y-618101D01*
X-48598Y-615950D01*
D02*
G37*
G36*
X-55880D02*
X-60622D01*
X-59731Y-618101D01*
X-58031Y-619800D01*
X-55880Y-620692D01*
Y-615950D01*
D02*
G37*
G36*
X-805128Y-622520D02*
X-805180D01*
Y-631290D01*
X-796410D01*
Y-631238D01*
X-797094Y-628685D01*
X-798416Y-626395D01*
X-800285Y-624526D01*
X-802575Y-623204D01*
X-805128Y-622520D01*
D02*
G37*
G36*
X-807720D02*
X-807772D01*
X-810325Y-623204D01*
X-812615Y-624526D01*
X-814484Y-626395D01*
X-815806Y-628685D01*
X-816490Y-631238D01*
Y-631290D01*
X-807720D01*
Y-622520D01*
D02*
G37*
G36*
X-287196Y-465670D02*
X-289384D01*
X-291406Y-466507D01*
X-292953Y-468055D01*
X-293790Y-470076D01*
Y-472264D01*
X-292953Y-474286D01*
X-291406Y-475833D01*
X-289384Y-476670D01*
X-289279D01*
X-134054Y-631894D01*
X-132566Y-632889D01*
X-130810Y-633238D01*
X-23401D01*
X-21645Y-632889D01*
X-20157Y-631894D01*
X-9713Y-621450D01*
X-9066D01*
X-7045Y-620613D01*
X-5497Y-619066D01*
X-4660Y-617044D01*
Y-614856D01*
X-5497Y-612835D01*
X-7045Y-611287D01*
X-9066Y-610450D01*
X-11254D01*
X-13276Y-611287D01*
X-14823Y-612835D01*
X-15352Y-614112D01*
X-25302Y-624062D01*
X-128910D01*
X-282790Y-470181D01*
Y-470076D01*
X-283627Y-468055D01*
X-285175Y-466507D01*
X-287196Y-465670D01*
D02*
G37*
G36*
X-796410Y-633830D02*
X-805180D01*
Y-642600D01*
X-805128D01*
X-802575Y-641916D01*
X-800285Y-640594D01*
X-798416Y-638725D01*
X-797094Y-636435D01*
X-796410Y-633882D01*
Y-633830D01*
D02*
G37*
G36*
X-807720D02*
X-816490D01*
Y-633882D01*
X-815806Y-636435D01*
X-814484Y-638725D01*
X-812615Y-640594D01*
X-810325Y-641916D01*
X-807772Y-642600D01*
X-807720D01*
Y-633830D01*
D02*
G37*
G36*
X43520Y-645361D02*
Y-649020D01*
X47179D01*
X46523Y-647435D01*
X45105Y-646017D01*
X43520Y-645361D01*
D02*
G37*
G36*
X40980D02*
X39395Y-646017D01*
X37977Y-647435D01*
X37321Y-649020D01*
X40980D01*
Y-645361D01*
D02*
G37*
G36*
X-6480D02*
Y-649020D01*
X-2821D01*
X-3477Y-647435D01*
X-4895Y-646017D01*
X-6480Y-645361D01*
D02*
G37*
G36*
X-9020D02*
X-10605Y-646017D01*
X-12023Y-647435D01*
X-12679Y-649020D01*
X-9020D01*
Y-645361D01*
D02*
G37*
G36*
X-56480D02*
Y-649020D01*
X-52821D01*
X-53477Y-647435D01*
X-54895Y-646017D01*
X-56480Y-645361D01*
D02*
G37*
G36*
X-59020D02*
X-60605Y-646017D01*
X-62023Y-647435D01*
X-62679Y-649020D01*
X-59020D01*
Y-645361D01*
D02*
G37*
G36*
X-106480D02*
Y-649020D01*
X-102821D01*
X-103477Y-647435D01*
X-104895Y-646017D01*
X-106480Y-645361D01*
D02*
G37*
G36*
X-109020D02*
X-110605Y-646017D01*
X-112023Y-647435D01*
X-112679Y-649020D01*
X-109020D01*
Y-645361D01*
D02*
G37*
G36*
X-156480D02*
Y-649020D01*
X-152821D01*
X-153477Y-647435D01*
X-154895Y-646017D01*
X-156480Y-645361D01*
D02*
G37*
G36*
X-159020D02*
X-160605Y-646017D01*
X-162023Y-647435D01*
X-162679Y-649020D01*
X-159020D01*
Y-645361D01*
D02*
G37*
G36*
X-206480D02*
Y-649020D01*
X-202821D01*
X-203477Y-647435D01*
X-204895Y-646017D01*
X-206480Y-645361D01*
D02*
G37*
G36*
X-209020D02*
X-210605Y-646017D01*
X-212023Y-647435D01*
X-212679Y-649020D01*
X-209020D01*
Y-645361D01*
D02*
G37*
G36*
X-256480D02*
Y-649020D01*
X-252821D01*
X-253477Y-647435D01*
X-254895Y-646017D01*
X-256480Y-645361D01*
D02*
G37*
G36*
X-259020D02*
X-260605Y-646017D01*
X-262023Y-647435D01*
X-262679Y-649020D01*
X-259020D01*
Y-645361D01*
D02*
G37*
G36*
X-306480D02*
Y-649020D01*
X-302821D01*
X-303477Y-647435D01*
X-304895Y-646017D01*
X-306480Y-645361D01*
D02*
G37*
G36*
X-309020D02*
X-310605Y-646017D01*
X-312023Y-647435D01*
X-312679Y-649020D01*
X-309020D01*
Y-645361D01*
D02*
G37*
G36*
X-356480D02*
Y-649020D01*
X-352821D01*
X-353477Y-647435D01*
X-354895Y-646017D01*
X-356480Y-645361D01*
D02*
G37*
G36*
X-359020D02*
X-360605Y-646017D01*
X-362023Y-647435D01*
X-362679Y-649020D01*
X-359020D01*
Y-645361D01*
D02*
G37*
G36*
X-506480D02*
Y-649020D01*
X-502821D01*
X-503477Y-647435D01*
X-504895Y-646017D01*
X-506480Y-645361D01*
D02*
G37*
G36*
X-509020D02*
X-510605Y-646017D01*
X-512023Y-647435D01*
X-512679Y-649020D01*
X-509020D01*
Y-645361D01*
D02*
G37*
G36*
X-556480D02*
Y-649020D01*
X-552821D01*
X-553477Y-647435D01*
X-554895Y-646017D01*
X-556480Y-645361D01*
D02*
G37*
G36*
X-559020D02*
X-560605Y-646017D01*
X-562023Y-647435D01*
X-562679Y-649020D01*
X-559020D01*
Y-645361D01*
D02*
G37*
G36*
X-606480D02*
Y-649020D01*
X-602821D01*
X-603477Y-647435D01*
X-604895Y-646017D01*
X-606480Y-645361D01*
D02*
G37*
G36*
X-609020D02*
X-610605Y-646017D01*
X-612023Y-647435D01*
X-612679Y-649020D01*
X-609020D01*
Y-645361D01*
D02*
G37*
G36*
X-706480D02*
Y-649020D01*
X-702821D01*
X-703477Y-647435D01*
X-704895Y-646017D01*
X-706480Y-645361D01*
D02*
G37*
G36*
X-709020D02*
X-710605Y-646017D01*
X-712023Y-647435D01*
X-712679Y-649020D01*
X-709020D01*
Y-645361D01*
D02*
G37*
G36*
X-756480D02*
Y-649020D01*
X-752821D01*
X-753477Y-647435D01*
X-754895Y-646017D01*
X-756480Y-645361D01*
D02*
G37*
G36*
X-759020D02*
X-760605Y-646017D01*
X-762023Y-647435D01*
X-762679Y-649020D01*
X-759020D01*
Y-645361D01*
D02*
G37*
G36*
X-806480D02*
Y-649020D01*
X-802821D01*
X-803477Y-647435D01*
X-804895Y-646017D01*
X-806480Y-645361D01*
D02*
G37*
G36*
X-809020D02*
X-810605Y-646017D01*
X-812023Y-647435D01*
X-812679Y-649020D01*
X-809020D01*
Y-645361D01*
D02*
G37*
G36*
X47179Y-651560D02*
X43520D01*
Y-655219D01*
X45105Y-654563D01*
X46523Y-653145D01*
X47179Y-651560D01*
D02*
G37*
G36*
X40980D02*
X37321D01*
X37977Y-653145D01*
X39395Y-654563D01*
X40980Y-655219D01*
Y-651560D01*
D02*
G37*
G36*
X-2821D02*
X-6480D01*
Y-655219D01*
X-4895Y-654563D01*
X-3477Y-653145D01*
X-2821Y-651560D01*
D02*
G37*
G36*
X-9020D02*
X-12679D01*
X-12023Y-653145D01*
X-10605Y-654563D01*
X-9020Y-655219D01*
Y-651560D01*
D02*
G37*
G36*
X-52821D02*
X-56480D01*
Y-655219D01*
X-54895Y-654563D01*
X-53477Y-653145D01*
X-52821Y-651560D01*
D02*
G37*
G36*
X-59020D02*
X-62679D01*
X-62023Y-653145D01*
X-60605Y-654563D01*
X-59020Y-655219D01*
Y-651560D01*
D02*
G37*
G36*
X-102821D02*
X-106480D01*
Y-655219D01*
X-104895Y-654563D01*
X-103477Y-653145D01*
X-102821Y-651560D01*
D02*
G37*
G36*
X-109020D02*
X-112679D01*
X-112023Y-653145D01*
X-110605Y-654563D01*
X-109020Y-655219D01*
Y-651560D01*
D02*
G37*
G36*
X-152821D02*
X-156480D01*
Y-655219D01*
X-154895Y-654563D01*
X-153477Y-653145D01*
X-152821Y-651560D01*
D02*
G37*
G36*
X-159020D02*
X-162679D01*
X-162023Y-653145D01*
X-160605Y-654563D01*
X-159020Y-655219D01*
Y-651560D01*
D02*
G37*
G36*
X-202821D02*
X-206480D01*
Y-655219D01*
X-204895Y-654563D01*
X-203477Y-653145D01*
X-202821Y-651560D01*
D02*
G37*
G36*
X-209020D02*
X-212679D01*
X-212023Y-653145D01*
X-210605Y-654563D01*
X-209020Y-655219D01*
Y-651560D01*
D02*
G37*
G36*
X-252821D02*
X-256480D01*
Y-655219D01*
X-254895Y-654563D01*
X-253477Y-653145D01*
X-252821Y-651560D01*
D02*
G37*
G36*
X-259020D02*
X-262679D01*
X-262023Y-653145D01*
X-260605Y-654563D01*
X-259020Y-655219D01*
Y-651560D01*
D02*
G37*
G36*
X-302821D02*
X-306480D01*
Y-655219D01*
X-304895Y-654563D01*
X-303477Y-653145D01*
X-302821Y-651560D01*
D02*
G37*
G36*
X-309020D02*
X-312679D01*
X-312023Y-653145D01*
X-310605Y-654563D01*
X-309020Y-655219D01*
Y-651560D01*
D02*
G37*
G36*
X-352821D02*
X-356480D01*
Y-655219D01*
X-354895Y-654563D01*
X-353477Y-653145D01*
X-352821Y-651560D01*
D02*
G37*
G36*
X-359020D02*
X-362679D01*
X-362023Y-653145D01*
X-360605Y-654563D01*
X-359020Y-655219D01*
Y-651560D01*
D02*
G37*
G36*
X-502821D02*
X-506480D01*
Y-655219D01*
X-504895Y-654563D01*
X-503477Y-653145D01*
X-502821Y-651560D01*
D02*
G37*
G36*
X-509020D02*
X-512679D01*
X-512023Y-653145D01*
X-510605Y-654563D01*
X-509020Y-655219D01*
Y-651560D01*
D02*
G37*
G36*
X-552821D02*
X-556480D01*
Y-655219D01*
X-554895Y-654563D01*
X-553477Y-653145D01*
X-552821Y-651560D01*
D02*
G37*
G36*
X-559020D02*
X-562679D01*
X-562023Y-653145D01*
X-560605Y-654563D01*
X-559020Y-655219D01*
Y-651560D01*
D02*
G37*
G36*
X-602821D02*
X-606480D01*
Y-655219D01*
X-604895Y-654563D01*
X-603477Y-653145D01*
X-602821Y-651560D01*
D02*
G37*
G36*
X-609020D02*
X-612679D01*
X-612023Y-653145D01*
X-610605Y-654563D01*
X-609020Y-655219D01*
Y-651560D01*
D02*
G37*
G36*
X-702821D02*
X-706480D01*
Y-655219D01*
X-704895Y-654563D01*
X-703477Y-653145D01*
X-702821Y-651560D01*
D02*
G37*
G36*
X-709020D02*
X-712679D01*
X-712023Y-653145D01*
X-710605Y-654563D01*
X-709020Y-655219D01*
Y-651560D01*
D02*
G37*
G36*
X-752821D02*
X-756480D01*
Y-655219D01*
X-754895Y-654563D01*
X-753477Y-653145D01*
X-752821Y-651560D01*
D02*
G37*
G36*
X-759020D02*
X-762679D01*
X-762023Y-653145D01*
X-760605Y-654563D01*
X-759020Y-655219D01*
Y-651560D01*
D02*
G37*
G36*
X-802821D02*
X-806480D01*
Y-655219D01*
X-804895Y-654563D01*
X-803477Y-653145D01*
X-802821Y-651560D01*
D02*
G37*
G36*
X-809020D02*
X-812679D01*
X-812023Y-653145D01*
X-810605Y-654563D01*
X-809020Y-655219D01*
Y-651560D01*
D02*
G37*
G36*
X-334010Y-686526D02*
Y-691267D01*
X-329268D01*
X-330159Y-689116D01*
X-331859Y-687417D01*
X-334010Y-686526D01*
D02*
G37*
G36*
X-336550D02*
X-338701Y-687417D01*
X-340401Y-689116D01*
X-341292Y-691267D01*
X-336550D01*
Y-686526D01*
D02*
G37*
G36*
X-329268Y-693807D02*
X-334010D01*
Y-698549D01*
X-331859Y-697658D01*
X-330159Y-695959D01*
X-329268Y-693807D01*
D02*
G37*
G36*
X-336550D02*
X-341292D01*
X-340401Y-695959D01*
X-338701Y-697658D01*
X-336550Y-698549D01*
Y-693807D01*
D02*
G37*
G36*
X18520Y-695361D02*
Y-699020D01*
X22179D01*
X21523Y-697435D01*
X20105Y-696017D01*
X18520Y-695361D01*
D02*
G37*
G36*
X15980D02*
X14395Y-696017D01*
X12977Y-697435D01*
X12321Y-699020D01*
X15980D01*
Y-695361D01*
D02*
G37*
G36*
X-31480D02*
Y-699020D01*
X-27821D01*
X-28477Y-697435D01*
X-29895Y-696017D01*
X-31480Y-695361D01*
D02*
G37*
G36*
X-34020D02*
X-35605Y-696017D01*
X-37023Y-697435D01*
X-37679Y-699020D01*
X-34020D01*
Y-695361D01*
D02*
G37*
G36*
X-131480D02*
Y-699020D01*
X-127821D01*
X-128477Y-697435D01*
X-129895Y-696017D01*
X-131480Y-695361D01*
D02*
G37*
G36*
X-134020D02*
X-135605Y-696017D01*
X-137023Y-697435D01*
X-137679Y-699020D01*
X-134020D01*
Y-695361D01*
D02*
G37*
G36*
X-181480D02*
Y-699020D01*
X-177821D01*
X-178477Y-697435D01*
X-179895Y-696017D01*
X-181480Y-695361D01*
D02*
G37*
G36*
X-184020D02*
X-185605Y-696017D01*
X-187023Y-697435D01*
X-187679Y-699020D01*
X-184020D01*
Y-695361D01*
D02*
G37*
G36*
X-231480D02*
Y-699020D01*
X-227821D01*
X-228477Y-697435D01*
X-229895Y-696017D01*
X-231480Y-695361D01*
D02*
G37*
G36*
X-234020D02*
X-235605Y-696017D01*
X-237023Y-697435D01*
X-237679Y-699020D01*
X-234020D01*
Y-695361D01*
D02*
G37*
G36*
X-281480D02*
Y-699020D01*
X-277821D01*
X-278477Y-697435D01*
X-279895Y-696017D01*
X-281480Y-695361D01*
D02*
G37*
G36*
X-284020D02*
X-285605Y-696017D01*
X-287023Y-697435D01*
X-287679Y-699020D01*
X-284020D01*
Y-695361D01*
D02*
G37*
G36*
X-381480D02*
Y-699020D01*
X-377821D01*
X-378477Y-697435D01*
X-379895Y-696017D01*
X-381480Y-695361D01*
D02*
G37*
G36*
X-384020D02*
X-385605Y-696017D01*
X-387023Y-697435D01*
X-387679Y-699020D01*
X-384020D01*
Y-695361D01*
D02*
G37*
G36*
X-531480D02*
Y-699020D01*
X-527821D01*
X-528477Y-697435D01*
X-529895Y-696017D01*
X-531480Y-695361D01*
D02*
G37*
G36*
X-534020D02*
X-535605Y-696017D01*
X-537023Y-697435D01*
X-537679Y-699020D01*
X-534020D01*
Y-695361D01*
D02*
G37*
G36*
X-681480D02*
Y-699020D01*
X-677821D01*
X-678477Y-697435D01*
X-679895Y-696017D01*
X-681480Y-695361D01*
D02*
G37*
G36*
X-684020D02*
X-685605Y-696017D01*
X-687023Y-697435D01*
X-687679Y-699020D01*
X-684020D01*
Y-695361D01*
D02*
G37*
G36*
X-781480D02*
Y-699020D01*
X-777821D01*
X-778477Y-697435D01*
X-779895Y-696017D01*
X-781480Y-695361D01*
D02*
G37*
G36*
X-784020D02*
X-785605Y-696017D01*
X-787023Y-697435D01*
X-787679Y-699020D01*
X-784020D01*
Y-695361D01*
D02*
G37*
G36*
X-831480D02*
Y-699020D01*
X-827821D01*
X-828477Y-697435D01*
X-829895Y-696017D01*
X-831480Y-695361D01*
D02*
G37*
G36*
X-834020D02*
X-835605Y-696017D01*
X-837023Y-697435D01*
X-837679Y-699020D01*
X-834020D01*
Y-695361D01*
D02*
G37*
G36*
X22179Y-701560D02*
X18520D01*
Y-705219D01*
X20105Y-704563D01*
X21523Y-703145D01*
X22179Y-701560D01*
D02*
G37*
G36*
X15980D02*
X12321D01*
X12977Y-703145D01*
X14395Y-704563D01*
X15980Y-705219D01*
Y-701560D01*
D02*
G37*
G36*
X-27821D02*
X-31480D01*
Y-705219D01*
X-29895Y-704563D01*
X-28477Y-703145D01*
X-27821Y-701560D01*
D02*
G37*
G36*
X-34020D02*
X-37679D01*
X-37023Y-703145D01*
X-35605Y-704563D01*
X-34020Y-705219D01*
Y-701560D01*
D02*
G37*
G36*
X-127821D02*
X-131480D01*
Y-705219D01*
X-129895Y-704563D01*
X-128477Y-703145D01*
X-127821Y-701560D01*
D02*
G37*
G36*
X-134020D02*
X-137679D01*
X-137023Y-703145D01*
X-135605Y-704563D01*
X-134020Y-705219D01*
Y-701560D01*
D02*
G37*
G36*
X-177821D02*
X-181480D01*
Y-705219D01*
X-179895Y-704563D01*
X-178477Y-703145D01*
X-177821Y-701560D01*
D02*
G37*
G36*
X-184020D02*
X-187679D01*
X-187023Y-703145D01*
X-185605Y-704563D01*
X-184020Y-705219D01*
Y-701560D01*
D02*
G37*
G36*
X-227821D02*
X-231480D01*
Y-705219D01*
X-229895Y-704563D01*
X-228477Y-703145D01*
X-227821Y-701560D01*
D02*
G37*
G36*
X-234020D02*
X-237679D01*
X-237023Y-703145D01*
X-235605Y-704563D01*
X-234020Y-705219D01*
Y-701560D01*
D02*
G37*
G36*
X-277821D02*
X-281480D01*
Y-705219D01*
X-279895Y-704563D01*
X-278477Y-703145D01*
X-277821Y-701560D01*
D02*
G37*
G36*
X-284020D02*
X-287679D01*
X-287023Y-703145D01*
X-285605Y-704563D01*
X-284020Y-705219D01*
Y-701560D01*
D02*
G37*
G36*
X-377821D02*
X-381480D01*
Y-705219D01*
X-379895Y-704563D01*
X-378477Y-703145D01*
X-377821Y-701560D01*
D02*
G37*
G36*
X-384020D02*
X-387679D01*
X-387023Y-703145D01*
X-385605Y-704563D01*
X-384020Y-705219D01*
Y-701560D01*
D02*
G37*
G36*
X-527821D02*
X-531480D01*
Y-705219D01*
X-529895Y-704563D01*
X-528477Y-703145D01*
X-527821Y-701560D01*
D02*
G37*
G36*
X-534020D02*
X-537679D01*
X-537023Y-703145D01*
X-535605Y-704563D01*
X-534020Y-705219D01*
Y-701560D01*
D02*
G37*
G36*
X-677821D02*
X-681480D01*
Y-705219D01*
X-679895Y-704563D01*
X-678477Y-703145D01*
X-677821Y-701560D01*
D02*
G37*
G36*
X-684020D02*
X-687679D01*
X-687023Y-703145D01*
X-685605Y-704563D01*
X-684020Y-705219D01*
Y-701560D01*
D02*
G37*
G36*
X-777821D02*
X-781480D01*
Y-705219D01*
X-779895Y-704563D01*
X-778477Y-703145D01*
X-777821Y-701560D01*
D02*
G37*
G36*
X-784020D02*
X-787679D01*
X-787023Y-703145D01*
X-785605Y-704563D01*
X-784020Y-705219D01*
Y-701560D01*
D02*
G37*
G36*
X-827821D02*
X-831480D01*
Y-705219D01*
X-829895Y-704563D01*
X-828477Y-703145D01*
X-827821Y-701560D01*
D02*
G37*
G36*
X-834020D02*
X-837679D01*
X-837023Y-703145D01*
X-835605Y-704563D01*
X-834020Y-705219D01*
Y-701560D01*
D02*
G37*
G36*
X-799700Y-699006D02*
X-813200D01*
X-814273Y-699220D01*
X-815183Y-699827D01*
X-815790Y-700737D01*
X-816004Y-701810D01*
Y-715310D01*
X-815790Y-716383D01*
X-815183Y-717293D01*
X-814273Y-717900D01*
X-813200Y-718114D01*
X-799700D01*
X-798627Y-717900D01*
X-797717Y-717293D01*
X-797110Y-716383D01*
X-796896Y-715310D01*
Y-701810D01*
X-797110Y-700737D01*
X-797717Y-699827D01*
X-798627Y-699220D01*
X-799700Y-699006D01*
D02*
G37*
G36*
X-93890Y-680320D02*
X-97830D01*
X-101694Y-681089D01*
X-105333Y-682596D01*
X-108609Y-684785D01*
X-111395Y-687571D01*
X-113584Y-690846D01*
X-115091Y-694486D01*
X-115860Y-698350D01*
Y-702290D01*
X-115091Y-706154D01*
X-113584Y-709793D01*
X-111395Y-713069D01*
X-108609Y-715855D01*
X-105333Y-718044D01*
X-101694Y-719551D01*
X-97830Y-720320D01*
X-93890D01*
X-90026Y-719551D01*
X-86386Y-718044D01*
X-83111Y-715855D01*
X-80325Y-713069D01*
X-78136Y-709793D01*
X-76629Y-706154D01*
X-75860Y-702290D01*
Y-698350D01*
X-76629Y-694486D01*
X-78136Y-690846D01*
X-80325Y-687571D01*
X-83111Y-684785D01*
X-86386Y-682596D01*
X-90026Y-681089D01*
X-93890Y-680320D01*
D02*
G37*
G36*
X-723890D02*
X-727830D01*
X-731694Y-681089D01*
X-735333Y-682596D01*
X-738609Y-684785D01*
X-741395Y-687571D01*
X-743584Y-690846D01*
X-745091Y-694486D01*
X-745860Y-698350D01*
Y-702290D01*
X-745091Y-706154D01*
X-743584Y-709793D01*
X-741395Y-713069D01*
X-738609Y-715855D01*
X-735333Y-718044D01*
X-731694Y-719551D01*
X-727830Y-720320D01*
X-723890D01*
X-720026Y-719551D01*
X-716386Y-718044D01*
X-713111Y-715855D01*
X-710325Y-713069D01*
X-708136Y-709793D01*
X-706629Y-706154D01*
X-705860Y-702290D01*
Y-698350D01*
X-706629Y-694486D01*
X-708136Y-690846D01*
X-710325Y-687571D01*
X-713111Y-684785D01*
X-716386Y-682596D01*
X-720026Y-681089D01*
X-723890Y-680320D01*
D02*
G37*
G36*
X-482600Y-716618D02*
Y-721360D01*
X-477858D01*
X-478750Y-719209D01*
X-480449Y-717510D01*
X-482600Y-716618D01*
D02*
G37*
G36*
X-485140D02*
X-487291Y-717510D01*
X-488991Y-719209D01*
X-489882Y-721360D01*
X-485140D01*
Y-716618D01*
D02*
G37*
G36*
X-609037Y-717395D02*
X-609220D01*
Y-727165D01*
X-599450D01*
Y-726982D01*
X-600202Y-724174D01*
X-601656Y-721657D01*
X-603711Y-719601D01*
X-606229Y-718148D01*
X-609037Y-717395D01*
D02*
G37*
G36*
X-611760D02*
X-611944D01*
X-614751Y-718148D01*
X-617269Y-719601D01*
X-619324Y-721657D01*
X-620778Y-724174D01*
X-621530Y-726982D01*
Y-727165D01*
X-611760D01*
Y-717395D01*
D02*
G37*
G36*
X-477858Y-723900D02*
X-482600D01*
Y-728642D01*
X-480449Y-727750D01*
X-478750Y-726051D01*
X-477858Y-723900D01*
D02*
G37*
G36*
X-485140D02*
X-489882D01*
X-488991Y-726051D01*
X-487291Y-727750D01*
X-485140Y-728642D01*
Y-723900D01*
D02*
G37*
G36*
X60922Y-723000D02*
X59078D01*
X57298Y-723477D01*
X55702Y-724399D01*
X54399Y-725702D01*
X53477Y-727298D01*
X53000Y-729078D01*
Y-730922D01*
X53477Y-732702D01*
X54399Y-734298D01*
X55702Y-735601D01*
X57298Y-736523D01*
X59078Y-737000D01*
X60922D01*
X62702Y-736523D01*
X64298Y-735601D01*
X65601Y-734298D01*
X66523Y-732702D01*
X67000Y-730922D01*
Y-729078D01*
X66523Y-727298D01*
X65601Y-725702D01*
X64298Y-724399D01*
X62702Y-723477D01*
X60922Y-723000D01*
D02*
G37*
G36*
X-849078D02*
X-850922D01*
X-852702Y-723477D01*
X-854298Y-724399D01*
X-855601Y-725702D01*
X-856523Y-727298D01*
X-857000Y-729078D01*
Y-730922D01*
X-856523Y-732702D01*
X-855601Y-734298D01*
X-854298Y-735601D01*
X-852702Y-736523D01*
X-850922Y-737000D01*
X-849078D01*
X-847298Y-736523D01*
X-845702Y-735601D01*
X-844399Y-734298D01*
X-843477Y-732702D01*
X-843000Y-730922D01*
Y-729078D01*
X-843477Y-727298D01*
X-844399Y-725702D01*
X-845702Y-724399D01*
X-847298Y-723477D01*
X-849078Y-723000D01*
D02*
G37*
G36*
X-532908Y-717935D02*
X-535672D01*
X-538343Y-718651D01*
X-540737Y-720033D01*
X-542692Y-721988D01*
X-544074Y-724383D01*
X-544790Y-727053D01*
Y-729818D01*
X-544074Y-732488D01*
X-542692Y-734883D01*
X-540737Y-736837D01*
X-538343Y-738220D01*
X-535672Y-738935D01*
X-532908D01*
X-530237Y-738220D01*
X-527843Y-736837D01*
X-525888Y-734883D01*
X-524506Y-732488D01*
X-523790Y-729818D01*
Y-727053D01*
X-524506Y-724383D01*
X-525888Y-721988D01*
X-527843Y-720033D01*
X-530237Y-718651D01*
X-532908Y-717935D01*
D02*
G37*
G36*
X-769620Y-168132D02*
X-770063Y-168220D01*
X-770515D01*
X-770933Y-168393D01*
X-771376Y-168481D01*
X-771752Y-168732D01*
X-772169Y-168905D01*
X-772488Y-169225D01*
X-772864Y-169476D01*
X-773115Y-169851D01*
X-773435Y-170171D01*
X-773608Y-170588D01*
X-773859Y-170964D01*
X-773947Y-171407D01*
X-774120Y-171825D01*
Y-172277D01*
X-774208Y-172720D01*
Y-267970D01*
X-773859Y-269726D01*
X-772864Y-271214D01*
X-666258Y-377821D01*
Y-670560D01*
Y-673100D01*
X-665909Y-674856D01*
X-664914Y-676344D01*
X-639514Y-701744D01*
X-638026Y-702739D01*
X-636270Y-703088D01*
X-569590D01*
X-564278Y-708400D01*
Y-718960D01*
X-566137Y-720033D01*
X-568092Y-721988D01*
X-569474Y-724383D01*
X-570190Y-727053D01*
Y-729818D01*
X-569474Y-732488D01*
X-568092Y-734883D01*
X-566137Y-736837D01*
X-563743Y-738220D01*
X-561072Y-738935D01*
X-558308D01*
X-555637Y-738220D01*
X-553243Y-736837D01*
X-551288Y-734883D01*
X-549906Y-732488D01*
X-549190Y-729818D01*
Y-727053D01*
X-549906Y-724383D01*
X-551288Y-721988D01*
X-553243Y-720033D01*
X-555102Y-718960D01*
Y-706500D01*
X-555451Y-704744D01*
X-556446Y-703256D01*
X-564446Y-695256D01*
X-565934Y-694261D01*
X-567690Y-693912D01*
X-634370D01*
X-657082Y-671199D01*
Y-670560D01*
Y-375920D01*
X-657431Y-374164D01*
X-658426Y-372676D01*
X-765032Y-266070D01*
Y-172720D01*
X-765120Y-172277D01*
Y-171825D01*
X-765293Y-171407D01*
X-765381Y-170964D01*
X-765632Y-170588D01*
X-765805Y-170171D01*
X-766125Y-169851D01*
X-766376Y-169476D01*
X-766751Y-169225D01*
X-767071Y-168905D01*
X-767488Y-168732D01*
X-767864Y-168481D01*
X-768307Y-168393D01*
X-768725Y-168220D01*
X-769177D01*
X-769620Y-168132D01*
D02*
G37*
G36*
X-583708Y-717935D02*
X-586472D01*
X-589143Y-718651D01*
X-591537Y-720033D01*
X-593492Y-721988D01*
X-594874Y-724383D01*
X-595590Y-727053D01*
Y-729818D01*
X-594874Y-732488D01*
X-593492Y-734883D01*
X-591537Y-736837D01*
X-589143Y-738220D01*
X-586472Y-738935D01*
X-583708D01*
X-581037Y-738220D01*
X-578643Y-736837D01*
X-576688Y-734883D01*
X-575306Y-732488D01*
X-574590Y-729818D01*
Y-727053D01*
X-575306Y-724383D01*
X-576688Y-721988D01*
X-578643Y-720033D01*
X-581037Y-718651D01*
X-583708Y-717935D01*
D02*
G37*
G36*
X-634508D02*
X-637272D01*
X-639943Y-718651D01*
X-642337Y-720033D01*
X-644292Y-721988D01*
X-645674Y-724383D01*
X-646390Y-727053D01*
Y-729818D01*
X-645674Y-732488D01*
X-644292Y-734883D01*
X-642337Y-736837D01*
X-639943Y-738220D01*
X-637272Y-738935D01*
X-634508D01*
X-631837Y-738220D01*
X-629443Y-736837D01*
X-627488Y-734883D01*
X-626106Y-732488D01*
X-625390Y-729818D01*
Y-727053D01*
X-626106Y-724383D01*
X-627488Y-721988D01*
X-629443Y-720033D01*
X-631837Y-718651D01*
X-634508Y-717935D01*
D02*
G37*
G36*
X-650790D02*
X-671790D01*
Y-738935D01*
X-650790D01*
Y-717935D01*
D02*
G37*
G36*
X-599450Y-729705D02*
X-609220D01*
Y-739475D01*
X-609037D01*
X-606229Y-738723D01*
X-603711Y-737270D01*
X-601656Y-735214D01*
X-600202Y-732697D01*
X-599450Y-729889D01*
Y-729705D01*
D02*
G37*
G36*
X-611760D02*
X-621530D01*
Y-729889D01*
X-620778Y-732697D01*
X-619324Y-735214D01*
X-617269Y-737270D01*
X-614751Y-738723D01*
X-611944Y-739475D01*
X-611760D01*
Y-729705D01*
D02*
G37*
G36*
X-304000Y-700320D02*
X-307940D01*
X-311804Y-701089D01*
X-315443Y-702596D01*
X-318719Y-704785D01*
X-321505Y-707571D01*
X-323694Y-710846D01*
X-325201Y-714486D01*
X-325970Y-718350D01*
Y-722290D01*
X-325201Y-726154D01*
X-323694Y-729793D01*
X-321505Y-733069D01*
X-318719Y-735855D01*
X-315443Y-738044D01*
X-311804Y-739551D01*
X-307940Y-740320D01*
X-304000D01*
X-300136Y-739551D01*
X-296497Y-738044D01*
X-293221Y-735855D01*
X-290435Y-733069D01*
X-288246Y-729793D01*
X-286739Y-726154D01*
X-285970Y-722290D01*
Y-718350D01*
X-286739Y-714486D01*
X-288246Y-710846D01*
X-290435Y-707571D01*
X-293221Y-704785D01*
X-296497Y-702596D01*
X-300136Y-701089D01*
X-304000Y-700320D01*
D02*
G37*
G36*
X-477895Y-434920D02*
X-479685D01*
X-481339Y-435605D01*
X-482605Y-436871D01*
X-483290Y-438525D01*
Y-440315D01*
X-482605Y-441969D01*
X-481339Y-443235D01*
X-479685Y-443920D01*
X-477895D01*
X-476241Y-443235D01*
X-474975Y-441969D01*
X-474290Y-440315D01*
Y-438525D01*
X-474975Y-436871D01*
X-476241Y-435605D01*
X-477895Y-434920D01*
D02*
G37*
%LPD*%
D12*
X-469900Y-500380D02*
X-356870D01*
X-295910Y-439420D02*
Y-382270D01*
X-356870Y-500380D02*
X-295910Y-439420D01*
X-285750Y-435234D02*
X-122814Y-598170D01*
X3810D01*
X12700Y-607060D01*
X-430560Y-438180D02*
X-425389Y-433009D01*
X-458500Y-438180D02*
X-430560D01*
X-425389Y-433009D02*
Y-380130D01*
X-551180Y-499110D02*
X-528320Y-476250D01*
X-496570D01*
X-458500Y-438180D01*
X-589320Y-637500D02*
X-421076D01*
X-623570Y-603250D02*
X-589320Y-637500D01*
X-421076D02*
X-417226Y-641350D01*
X-416560D01*
X-405150Y-633710D02*
X-397510Y-641350D01*
X-619780Y-601680D02*
X-587750Y-633710D01*
X-405150D01*
X-389890Y-629920D02*
X-378460Y-641350D01*
X-615990Y-600110D02*
X-586180Y-629920D01*
X-389890D01*
X-128874Y-582930D02*
X-125954Y-585850D01*
X-33020D01*
X-129540Y-582930D02*
X-128874D01*
X-519390Y-360640D02*
X-482600Y-323850D01*
X-603920Y-360640D02*
X-519390D01*
X-615990Y-372710D02*
X-603920Y-360640D01*
X-615990Y-600110D02*
Y-372710D01*
X-619780Y-601680D02*
Y-371140D01*
X-527030Y-356850D02*
X-487680Y-317500D01*
X-605490Y-356850D02*
X-527030D01*
X-619780Y-371140D02*
X-605490Y-356850D01*
X-535940Y-353060D02*
X-496530Y-313650D01*
X-623570Y-603250D02*
Y-369570D01*
X-607060Y-353060D01*
X-535940D01*
X-495926Y-313650D02*
X-494696Y-312420D01*
X-496530Y-313650D02*
X-495926D01*
X-494696Y-312420D02*
X-494030D01*
X-285750Y-435234D02*
Y-384977D01*
X-313887Y-356840D02*
X-285750Y-384977D01*
X-363220Y-332740D02*
X-339120Y-356840D01*
X-313887D01*
X-304800Y-420370D02*
Y-406400D01*
X-383540Y-327660D02*
X-304800Y-406400D01*
X-567690Y-419100D02*
X-548640Y-400050D01*
X-567690Y-516890D02*
Y-419100D01*
X-486410Y-483870D02*
X-469900Y-500380D01*
D14*
X-746760Y-30480D02*
X-702089Y14191D01*
X-746760Y-267970D02*
X-647700Y-367030D01*
Y-386080D02*
Y-367030D01*
X-746760Y-267970D02*
Y-30480D01*
X-196480Y15240D02*
X49530D01*
X-210450Y1270D02*
X-196480Y15240D01*
X-185050Y1270D02*
X38100D01*
X49530Y-10160D01*
X-57150Y-529590D02*
Y-484750D01*
X-55880Y-483480D01*
X-82550Y-554990D02*
X-57150Y-529590D01*
X-92953Y-554990D02*
X-82550D01*
X-702089Y14191D02*
X-655977D01*
X-560070Y-477650D02*
X-523509Y-441090D01*
X-560070Y-520700D02*
Y-477650D01*
X-175880Y-232066D02*
Y-230848D01*
Y-232066D02*
X-171450Y-236496D01*
Y-284480D02*
Y-236496D01*
D16*
X-120920Y-115110D02*
X-95520D01*
D17*
X-23401Y-628650D02*
X-10701Y-615950D01*
X-130810Y-628650D02*
X-23401D01*
X-288290Y-471170D02*
X-130810Y-628650D01*
X-10701Y-615950D02*
X-10160D01*
X-769620Y-267970D02*
Y-172720D01*
X-661670Y-670560D02*
Y-375920D01*
X-769620Y-267970D02*
X-661670Y-375920D01*
X-139700Y-538480D02*
Y-458470D01*
Y-538480D02*
X-109220Y-568960D01*
X-661670Y-673100D02*
Y-670560D01*
Y-673100D02*
X-636270Y-698500D01*
X-567690D01*
X-559690Y-728435D02*
Y-706500D01*
X-567690Y-698500D02*
X-559690Y-706500D01*
D18*
X-478790Y-439420D02*
D03*
X-647700Y-386080D02*
D03*
X-472749Y-365370D02*
D03*
X-467749Y-375370D02*
D03*
X-472749Y-385370D02*
D03*
X-467749Y-395370D02*
D03*
X-482749Y-365370D02*
D03*
X-477749Y-375370D02*
D03*
X-482749Y-385370D02*
D03*
X-477749Y-395370D02*
D03*
X-492749Y-365370D02*
D03*
X-487749Y-375370D02*
D03*
X-492749Y-385370D02*
D03*
X-487749Y-395370D02*
D03*
X-502749Y-365370D02*
D03*
X-497749Y-375370D02*
D03*
X-502749Y-385370D02*
D03*
X-497749Y-395370D02*
D03*
X42250Y-650290D02*
D03*
X17250Y-700290D02*
D03*
X-7750Y-650290D02*
D03*
X-32750Y-700290D02*
D03*
X-57750Y-650290D02*
D03*
X-132750Y-600290D02*
D03*
X-107750Y-650290D02*
D03*
X-132750Y-700290D02*
D03*
X-182750Y-500290D02*
D03*
Y-600290D02*
D03*
X-157750Y-650290D02*
D03*
X-182750Y-700290D02*
D03*
X-232750Y-500290D02*
D03*
Y-600290D02*
D03*
X-207750Y-650290D02*
D03*
X-232750Y-700290D02*
D03*
X-282750Y-500290D02*
D03*
X-257750Y-550290D02*
D03*
X-282750Y-600290D02*
D03*
X-257750Y-650290D02*
D03*
X-282750Y-700290D02*
D03*
X-332750Y-400290D02*
D03*
Y-500290D02*
D03*
X-307750Y-550290D02*
D03*
X-332750Y-600290D02*
D03*
X-307750Y-650290D02*
D03*
X-382750Y-200290D02*
D03*
X-357750Y-550290D02*
D03*
X-382750Y-600290D02*
D03*
X-357750Y-650290D02*
D03*
X-382750Y-700290D02*
D03*
X-432750Y-200290D02*
D03*
X-407750Y-550290D02*
D03*
X-432750Y-600290D02*
D03*
X-482750Y-200290D02*
D03*
X-457750Y-550290D02*
D03*
X-482750Y-600290D02*
D03*
X-532750Y-290D02*
D03*
X-507750Y-150290D02*
D03*
X-532750Y-200290D02*
D03*
Y-600290D02*
D03*
X-507750Y-650290D02*
D03*
X-532750Y-700290D02*
D03*
X-582750Y-100290D02*
D03*
Y-200290D02*
D03*
Y-300290D02*
D03*
X-557750Y-550290D02*
D03*
Y-650290D02*
D03*
X-607750Y-50290D02*
D03*
X-632750Y-100290D02*
D03*
Y-400290D02*
D03*
X-607750Y-450290D02*
D03*
X-632750Y-500290D02*
D03*
X-607750Y-650290D02*
D03*
X-657750Y-150290D02*
D03*
X-682750Y-400290D02*
D03*
Y-500290D02*
D03*
Y-600290D02*
D03*
Y-700290D02*
D03*
X-732750Y-400290D02*
D03*
X-707750Y-450290D02*
D03*
X-732750Y-500290D02*
D03*
X-707750Y-550290D02*
D03*
X-732750Y-600290D02*
D03*
X-707750Y-650290D02*
D03*
X-757750Y-50290D02*
D03*
Y-350290D02*
D03*
X-782750Y-400290D02*
D03*
X-757750Y-450290D02*
D03*
X-782750Y-500290D02*
D03*
X-757750Y-550290D02*
D03*
X-782750Y-600290D02*
D03*
X-757750Y-650290D02*
D03*
X-782750Y-700290D02*
D03*
X-832750Y-200290D02*
D03*
X-807750Y-250290D02*
D03*
X-832750Y-300290D02*
D03*
X-807750Y-350290D02*
D03*
X-832750Y-400290D02*
D03*
X-807750Y-450290D02*
D03*
X-832750Y-500290D02*
D03*
X-807750Y-550290D02*
D03*
X-832750Y-600290D02*
D03*
X-807750Y-650290D02*
D03*
X-832750Y-700290D02*
D03*
X-402749Y-305370D02*
D03*
Y-385370D02*
D03*
Y-485370D02*
D03*
X-407749Y-315370D02*
D03*
X-412749Y-385370D02*
D03*
X-407749Y-395370D02*
D03*
X-412749Y-425370D02*
D03*
Y-445370D02*
D03*
Y-465370D02*
D03*
X-422749Y-485370D02*
D03*
X-432749Y-265370D02*
D03*
Y-425370D02*
D03*
Y-465370D02*
D03*
Y-485370D02*
D03*
X-442749Y-265370D02*
D03*
X-437749Y-275370D02*
D03*
X-442749Y-305370D02*
D03*
X-437749Y-415370D02*
D03*
X-442749Y-425370D02*
D03*
X-437749Y-475370D02*
D03*
X-442749Y-485370D02*
D03*
X-452749Y-425370D02*
D03*
X-447749Y-475370D02*
D03*
X-452749Y-485370D02*
D03*
X-457749Y-315370D02*
D03*
X-462749Y-325370D02*
D03*
Y-485370D02*
D03*
X-472749Y-305370D02*
D03*
X-467749Y-315370D02*
D03*
X-472749Y-325370D02*
D03*
Y-485370D02*
D03*
X-482749Y-265370D02*
D03*
Y-285370D02*
D03*
X-477749Y-315370D02*
D03*
X-482749Y-505370D02*
D03*
X-492749Y-265370D02*
D03*
X-487749Y-275370D02*
D03*
X-492749Y-445370D02*
D03*
X-487749Y-495370D02*
D03*
X-492749Y-505370D02*
D03*
X-497749Y-295370D02*
D03*
X-512749Y-465370D02*
D03*
Y-485370D02*
D03*
Y-505370D02*
D03*
X-522749Y-325370D02*
D03*
Y-425370D02*
D03*
Y-485370D02*
D03*
X-517749Y-495370D02*
D03*
X-522749Y-505370D02*
D03*
X-532749Y-265370D02*
D03*
Y-285370D02*
D03*
X-527749Y-295370D02*
D03*
Y-435370D02*
D03*
Y-495370D02*
D03*
X-532749Y-505370D02*
D03*
X-542749Y-265370D02*
D03*
X-537749Y-275370D02*
D03*
Y-295370D02*
D03*
X-542749Y-305370D02*
D03*
Y-445370D02*
D03*
X-537749Y-495370D02*
D03*
X-542749Y-505370D02*
D03*
X-547749Y-295370D02*
D03*
Y-315370D02*
D03*
X-552749Y-325370D02*
D03*
X-547749Y-435370D02*
D03*
X-552749Y-445370D02*
D03*
X-547749Y-455370D02*
D03*
X-557749Y-295370D02*
D03*
Y-315370D02*
D03*
Y-335370D02*
D03*
Y-435370D02*
D03*
X-567749Y-295370D02*
D03*
X-582749Y-265370D02*
D03*
Y-285370D02*
D03*
X-577749Y-295370D02*
D03*
X-592749Y-265370D02*
D03*
X-587749Y-275370D02*
D03*
X-602749Y-285370D02*
D03*
X-607749Y-275370D02*
D03*
X-612749Y-285370D02*
D03*
X-622749Y-265370D02*
D03*
X-632749D02*
D03*
X-627749Y-275370D02*
D03*
X-632749Y-285370D02*
D03*
X-642749Y-265370D02*
D03*
X-637749Y-275370D02*
D03*
X-652749Y-265370D02*
D03*
Y-285370D02*
D03*
X-662749D02*
D03*
X-672749D02*
D03*
X-682749D02*
D03*
X-692749Y-265370D02*
D03*
X-687749Y-275370D02*
D03*
X-692749Y-285370D02*
D03*
X-129540Y-582930D02*
D03*
X-109220Y-568960D02*
D03*
X-445250Y-280370D02*
D03*
X-457750Y-305370D02*
D03*
X-482750D02*
D03*
X-495250Y-280370D02*
D03*
X-545250D02*
D03*
X-557750Y-305370D02*
D03*
X-545250Y-330370D02*
D03*
X-557750Y-455370D02*
D03*
X-595250Y-280370D02*
D03*
X-620250D02*
D03*
X-645250D02*
D03*
X-551180Y-499110D02*
D03*
X-661670Y-670560D02*
D03*
X-560070Y-520700D02*
D03*
X-567690Y-516890D02*
D03*
X-482600Y-323850D02*
D03*
X-487680Y-317500D02*
D03*
X-494030Y-312420D02*
D03*
X-416560Y-641350D02*
D03*
X-397510D02*
D03*
X-378460D02*
D03*
X-295910Y-382270D02*
D03*
X-486410Y-483870D02*
D03*
X-147320Y-308610D02*
D03*
X-144780Y-219710D02*
D03*
X-175880Y-230848D02*
D03*
X-171450Y-284480D02*
D03*
X-548640Y-400050D02*
D03*
X-425389Y-380130D02*
D03*
X-523509Y-441090D02*
D03*
X-797560Y-160020D02*
D03*
X-33020Y-585850D02*
D03*
X12700Y-607060D02*
D03*
X-742397Y2069D02*
D03*
X-663828Y2761D02*
D03*
X-655977Y14191D02*
D03*
X-783590Y-160020D02*
D03*
X-797560Y-172720D02*
D03*
X-783590D02*
D03*
X-769620Y-160020D02*
D03*
Y-172720D02*
D03*
X-755650Y-160020D02*
D03*
Y-172720D02*
D03*
X-651808Y-44450D02*
D03*
X-604443Y-44609D02*
D03*
D53*
X41910Y-538480D02*
D03*
Y-468480D02*
D03*
D58*
X-104180Y-372441D02*
D03*
Y-350730D02*
D03*
Y-328883D02*
D03*
X-120920Y-137110D02*
D03*
Y-159110D02*
D03*
Y-181110D02*
D03*
X-95520Y-115110D02*
D03*
Y-137110D02*
D03*
Y-159110D02*
D03*
Y-181110D02*
D03*
X-746990Y-495100D02*
D03*
Y-470100D02*
D03*
D87*
X-221260Y-339090D02*
D03*
Y-416560D02*
D03*
Y-360680D02*
D03*
Y-386080D02*
D03*
D99*
X-144780Y-305258D02*
Y-219710D01*
X-147320Y-307798D02*
X-144780Y-305258D01*
X-147320Y-308610D02*
Y-307798D01*
D101*
X-135780Y-368190D02*
Y-210820D01*
X-138430Y-370840D02*
X-135780Y-368190D01*
X-120340Y-322890D02*
X-104180Y-306730D01*
X-133350Y-386080D02*
X-120340Y-373070D01*
Y-322890D01*
X-152400Y-194200D02*
X-135780Y-210820D01*
X-152400Y-194200D02*
Y-146590D01*
X-330200Y-347980D02*
X-312112D01*
X-278230Y-381862D01*
X-455930Y-222250D02*
X-330200Y-347980D01*
X-455930Y-222250D02*
Y-168010D01*
X-439050Y-151130D01*
X-278130Y-422910D02*
Y-383540D01*
X-278230Y-383440D02*
Y-381862D01*
Y-383440D02*
X-278130Y-383540D01*
Y-422910D02*
X-260350Y-440690D01*
X-104180Y-451302D02*
Y-440690D01*
X-260350D02*
X-104180D01*
Y-372441D01*
X-55880Y-483480D02*
X20910D01*
X-72002D02*
X-55880D01*
X-87487Y-467995D02*
X-72002Y-483480D01*
X-91051Y-464431D02*
X-87487Y-467995D01*
X-99552Y-455930D02*
X-91051Y-464431D01*
X-104180Y-451302D02*
X-99552Y-455930D01*
X-345440Y-306070D02*
Y-158750D01*
X-370840Y-133350D02*
X-345440Y-158750D01*
X-730250Y-163830D02*
X-699770Y-133350D01*
X-370840D01*
X-104180Y-328883D02*
X-102649Y-327353D01*
X-88593D01*
X-83820Y-322580D01*
X-116840Y-260350D02*
X-83820Y-293370D01*
Y-322580D02*
Y-293370D01*
X-116840Y-260350D02*
Y-201930D01*
X-96020Y-181110D01*
X-95520D01*
X-210450Y-102500D02*
X-116840Y-8890D01*
X-210450Y-151130D02*
Y-102500D01*
X-235850Y-151130D02*
X-210450D01*
X-152400Y-146590D02*
X-120920Y-115110D01*
X-235850Y1270D02*
X-210450D01*
X-221260Y-386080D02*
Y-384790D01*
X-220010Y-383540D01*
X-205740D01*
X-220030Y-359410D02*
X-205740D01*
X-221260Y-358180D02*
X-220030Y-359410D01*
X-221260Y-359390D02*
Y-358180D01*
Y-359390D02*
Y-339090D01*
Y-360680D02*
Y-359390D01*
X-192760Y-386080D02*
Y-339090D01*
Y-386080D02*
X-133350D01*
X-192760Y-416560D02*
Y-386080D01*
X-221260Y-416560D02*
Y-386080D01*
D103*
X0Y30000D02*
D03*
X-850000D02*
D03*
Y-730000D02*
D03*
X60000D02*
D03*
D104*
X-104180Y-306730D02*
D03*
X-120920Y-115110D02*
D03*
D105*
X-43180Y-379730D02*
D03*
Y-299730D02*
D03*
X-89020Y-73110D02*
D03*
Y-223110D02*
D03*
D106*
X-33020Y-118110D02*
D03*
D107*
X-818790Y-495100D02*
D03*
Y-470100D02*
D03*
X-585090Y-728435D02*
D03*
X-610490D02*
D03*
X-635890D02*
D03*
X-559690D02*
D03*
X-534290D02*
D03*
D108*
X49530Y-10160D02*
D03*
D109*
Y15240D02*
D03*
D110*
X-185050Y1270D02*
D03*
D111*
X-388250D02*
D03*
X-235850Y-151130D02*
D03*
Y1270D02*
D03*
X-439050Y-151130D02*
D03*
X-388250D02*
D03*
X-210450D02*
D03*
X-439050Y1270D02*
D03*
X-210450D02*
D03*
D112*
X-622200Y-210320D02*
D03*
X-410110D02*
D03*
X-95860Y-700320D02*
D03*
X0Y-20320D02*
D03*
X-725860Y-700320D02*
D03*
X-830860Y9680D02*
D03*
X-305970Y-720320D02*
D03*
D113*
X-626309Y-20080D02*
D03*
X-635308D02*
D03*
X-630808Y-14080D02*
D03*
X-626309Y-8080D02*
D03*
X-635308D02*
D03*
D114*
X-661290Y-728435D02*
D03*
D115*
X-806450Y-708560D02*
D03*
D116*
Y-632560D02*
D03*
D117*
X20910Y-503480D02*
D03*
Y-523480D02*
D03*
Y-483480D02*
D03*
D118*
X-29210Y-496570D02*
D03*
X-323850Y-313690D02*
D03*
X-389890Y-339090D02*
D03*
X25400Y-436880D02*
D03*
X-67310Y-461010D02*
D03*
X-54610Y-614680D02*
D03*
X-20320Y-582930D02*
D03*
X-40640Y-550290D02*
D03*
X-400050Y-335280D02*
D03*
X-730250Y-163830D02*
D03*
X-345440Y-306070D02*
D03*
X-10160Y-615950D02*
D03*
X-288290Y-471170D02*
D03*
X-139700Y-458470D02*
D03*
X-83820Y-441960D02*
D03*
X-116840Y-8890D02*
D03*
X-363220Y-332740D02*
D03*
X-304800Y-420370D02*
D03*
X-383540Y-327660D02*
D03*
X-205740Y-359410D02*
D03*
X-138430Y-370840D02*
D03*
X-384700Y-482600D02*
D03*
X-530860Y-331470D02*
D03*
X-363110Y-422148D02*
D03*
X-785422Y15461D02*
D03*
X-717550Y-21590D02*
D03*
X-335280Y-692537D02*
D03*
X-483870Y-722630D02*
D03*
X-205740Y-383540D02*
D03*
X-92953Y-554990D02*
D03*
X-81530Y-524400D02*
D03*
D119*
X-192760Y-339090D02*
D03*
Y-416560D02*
D03*
Y-360680D02*
D03*
Y-386080D02*
D03*
M02*
