G04*
G04 #@! TF.GenerationSoftware,Altium Limited,Altium Designer,21.0.9 (235)*
G04*
G04 Layer_Color=16711935*
%FSLAX44Y44*%
%MOMM*%
G71*
G04*
G04 #@! TF.SameCoordinates,E0471EC4-B756-4BE5-A2E1-81CF5BFFD595*
G04*
G04*
G04 #@! TF.FilePolarity,Negative*
G04*
G01*
G75*
%ADD43R,1.3500X1.8500*%
%ADD54C,1.1000*%
%ADD55C,1.9000*%
%ADD56R,1.9000X1.9000*%
%ADD57C,4.1000*%
%ADD58C,1.7500*%
%ADD59C,1.8000*%
%ADD60R,2.1000X2.1000*%
%ADD61C,2.1000*%
%ADD62R,1.2500X1.2500*%
%ADD63C,1.2500*%
%ADD64C,3.6000*%
%ADD65R,1.8000X1.8000*%
G04:AMPARAMS|DCode=66|XSize=1.6mm|YSize=1.6mm|CornerRadius=0.125mm|HoleSize=0mm|Usage=FLASHONLY|Rotation=180.000|XOffset=0mm|YOffset=0mm|HoleType=Round|Shape=RoundedRectangle|*
%AMROUNDEDRECTD66*
21,1,1.6000,1.3500,0,0,180.0*
21,1,1.3500,1.6000,0,0,180.0*
1,1,0.2500,-0.6750,0.6750*
1,1,0.2500,0.6750,0.6750*
1,1,0.2500,0.6750,-0.6750*
1,1,0.2500,-0.6750,-0.6750*
%
%ADD66ROUNDEDRECTD66*%
%ADD67C,1.6000*%
%ADD68O,2.7160X1.4080*%
%ADD69C,1.2000*%
%ADD70C,0.6000*%
%ADD122R,1.3000X1.8500*%
D43*
X-221260Y-339090D02*
D03*
Y-416560D02*
D03*
Y-360680D02*
D03*
Y-386080D02*
D03*
D54*
X0Y30000D02*
D03*
X-850000D02*
D03*
Y-730000D02*
D03*
X60000D02*
D03*
D55*
X-105450Y-369891D02*
D03*
Y-348180D02*
D03*
Y-326333D02*
D03*
X-120920Y-137110D02*
D03*
Y-159110D02*
D03*
Y-181110D02*
D03*
X-95520Y-115110D02*
D03*
Y-137110D02*
D03*
Y-159110D02*
D03*
Y-181110D02*
D03*
X-746990Y-495100D02*
D03*
Y-470100D02*
D03*
D56*
X-105450Y-304180D02*
D03*
X-120920Y-115110D02*
D03*
D57*
X-44450Y-377180D02*
D03*
Y-297180D02*
D03*
X-89020Y-73110D02*
D03*
Y-223110D02*
D03*
D58*
X-33020Y-118110D02*
D03*
D59*
X-818790Y-495100D02*
D03*
Y-470100D02*
D03*
X-574930Y-587465D02*
D03*
X-600330D02*
D03*
X-625730D02*
D03*
X-549530D02*
D03*
X-524130D02*
D03*
D60*
X49530Y-10160D02*
D03*
D61*
Y15240D02*
D03*
D62*
X-185050Y1270D02*
D03*
D63*
X-388250D02*
D03*
X-235850Y-151130D02*
D03*
Y1270D02*
D03*
X-439050Y-151130D02*
D03*
X-388250D02*
D03*
X-210450D02*
D03*
X-439050Y1270D02*
D03*
X-210450D02*
D03*
D64*
X-622200Y-210320D02*
D03*
X-410110D02*
D03*
X-95860Y-700320D02*
D03*
X0Y-20320D02*
D03*
X-725860Y-700320D02*
D03*
X-830860Y9680D02*
D03*
X-305970Y-720320D02*
D03*
D65*
X-651130Y-587465D02*
D03*
D66*
X-806450Y-708560D02*
D03*
D67*
Y-632560D02*
D03*
D68*
X29800Y-452830D02*
D03*
Y-472830D02*
D03*
Y-432830D02*
D03*
D69*
X50800Y-487830D02*
D03*
Y-417830D02*
D03*
D70*
X-472749Y-365370D02*
D03*
X-467749Y-375370D02*
D03*
X-472749Y-385370D02*
D03*
X-467749Y-395370D02*
D03*
X-482749Y-365370D02*
D03*
X-477749Y-375370D02*
D03*
X-482749Y-385370D02*
D03*
X-477749Y-395370D02*
D03*
X-492749Y-365370D02*
D03*
X-487749Y-375370D02*
D03*
X-492749Y-385370D02*
D03*
X-487749Y-395370D02*
D03*
X-502749Y-365370D02*
D03*
X-497749Y-375370D02*
D03*
X-502749Y-385370D02*
D03*
X-497749Y-395370D02*
D03*
X42250Y-650290D02*
D03*
X17250Y-700290D02*
D03*
X-7750Y-650290D02*
D03*
X-32750Y-700290D02*
D03*
X-57750Y-650290D02*
D03*
X-132750Y-600290D02*
D03*
X-107750Y-650290D02*
D03*
X-132750Y-700290D02*
D03*
X-182750Y-500290D02*
D03*
Y-600290D02*
D03*
X-157750Y-650290D02*
D03*
X-182750Y-700290D02*
D03*
X-232750Y-500290D02*
D03*
Y-600290D02*
D03*
X-207750Y-650290D02*
D03*
X-232750Y-700290D02*
D03*
X-282750Y-500290D02*
D03*
X-257750Y-550290D02*
D03*
X-282750Y-600290D02*
D03*
X-257750Y-650290D02*
D03*
X-282750Y-700290D02*
D03*
X-332750Y-400290D02*
D03*
Y-500290D02*
D03*
X-307750Y-550290D02*
D03*
X-332750Y-600290D02*
D03*
X-307750Y-650290D02*
D03*
X-382750Y-200290D02*
D03*
X-357750Y-550290D02*
D03*
X-382750Y-600290D02*
D03*
X-432750Y-200290D02*
D03*
X-407750Y-550290D02*
D03*
X-432750Y-600290D02*
D03*
X-482750Y-200290D02*
D03*
X-457750Y-550290D02*
D03*
X-482750Y-600290D02*
D03*
X-532750Y-290D02*
D03*
X-507750Y-150290D02*
D03*
X-532750Y-200290D02*
D03*
Y-600290D02*
D03*
X-582750Y-100290D02*
D03*
Y-200290D02*
D03*
Y-300290D02*
D03*
X-557750Y-550290D02*
D03*
X-607750Y-50290D02*
D03*
X-632750Y-100290D02*
D03*
Y-400290D02*
D03*
X-607750Y-450290D02*
D03*
X-632750Y-500290D02*
D03*
X-657750Y-150290D02*
D03*
X-682750Y-400290D02*
D03*
Y-500290D02*
D03*
Y-600290D02*
D03*
X-732750Y-400290D02*
D03*
X-707750Y-450290D02*
D03*
X-732750Y-500290D02*
D03*
X-707750Y-550290D02*
D03*
X-732750Y-600290D02*
D03*
X-707750Y-650290D02*
D03*
X-757750Y-50290D02*
D03*
Y-350290D02*
D03*
X-782750Y-400290D02*
D03*
X-757750Y-450290D02*
D03*
X-782750Y-500290D02*
D03*
X-757750Y-550290D02*
D03*
X-782750Y-600290D02*
D03*
X-757750Y-650290D02*
D03*
X-782750Y-700290D02*
D03*
X-832750Y-200290D02*
D03*
X-807750Y-250290D02*
D03*
X-832750Y-300290D02*
D03*
X-807750Y-350290D02*
D03*
X-832750Y-400290D02*
D03*
X-807750Y-450290D02*
D03*
X-832750Y-500290D02*
D03*
X-807750Y-550290D02*
D03*
X-832750Y-600290D02*
D03*
X-807750Y-650290D02*
D03*
X-832750Y-700290D02*
D03*
X-402749Y-305370D02*
D03*
Y-385370D02*
D03*
Y-485370D02*
D03*
X-407749Y-315370D02*
D03*
X-412749Y-385370D02*
D03*
X-407749Y-395370D02*
D03*
X-412749Y-425370D02*
D03*
Y-445370D02*
D03*
Y-465370D02*
D03*
X-422749Y-485370D02*
D03*
X-432749Y-265370D02*
D03*
Y-425370D02*
D03*
Y-465370D02*
D03*
Y-485370D02*
D03*
X-442749Y-265370D02*
D03*
X-437749Y-275370D02*
D03*
X-442749Y-305370D02*
D03*
X-437749Y-415370D02*
D03*
X-442749Y-425370D02*
D03*
X-437749Y-475370D02*
D03*
X-442749Y-485370D02*
D03*
X-452749Y-425370D02*
D03*
X-447749Y-475370D02*
D03*
X-452749Y-485370D02*
D03*
X-457749Y-315370D02*
D03*
X-462749Y-325370D02*
D03*
Y-485370D02*
D03*
X-472749Y-305370D02*
D03*
X-467749Y-315370D02*
D03*
X-472749Y-325370D02*
D03*
Y-485370D02*
D03*
X-482749Y-265370D02*
D03*
Y-285370D02*
D03*
X-477749Y-315370D02*
D03*
X-482749Y-505370D02*
D03*
X-492749Y-265370D02*
D03*
X-487749Y-275370D02*
D03*
X-492749Y-445370D02*
D03*
X-487749Y-495370D02*
D03*
X-492749Y-505370D02*
D03*
X-497749Y-295370D02*
D03*
X-512749Y-465370D02*
D03*
Y-485370D02*
D03*
Y-505370D02*
D03*
X-522749Y-325370D02*
D03*
Y-425370D02*
D03*
Y-485370D02*
D03*
X-517749Y-495370D02*
D03*
X-522749Y-505370D02*
D03*
X-532749Y-265370D02*
D03*
Y-285370D02*
D03*
X-527749Y-295370D02*
D03*
Y-435370D02*
D03*
Y-495370D02*
D03*
X-532749Y-505370D02*
D03*
X-542749Y-265370D02*
D03*
X-537749Y-275370D02*
D03*
Y-295370D02*
D03*
X-542749Y-305370D02*
D03*
Y-445370D02*
D03*
X-537749Y-495370D02*
D03*
X-542749Y-505370D02*
D03*
X-547749Y-295370D02*
D03*
Y-315370D02*
D03*
X-552749Y-325370D02*
D03*
X-547749Y-435370D02*
D03*
X-552749Y-445370D02*
D03*
X-547749Y-455370D02*
D03*
X-557749Y-295370D02*
D03*
Y-315370D02*
D03*
Y-335370D02*
D03*
Y-435370D02*
D03*
X-567749Y-295370D02*
D03*
X-582749Y-265370D02*
D03*
Y-285370D02*
D03*
X-577749Y-295370D02*
D03*
X-592749Y-265370D02*
D03*
X-587749Y-275370D02*
D03*
X-602749Y-285370D02*
D03*
X-607749Y-275370D02*
D03*
X-612749Y-285370D02*
D03*
X-622749Y-265370D02*
D03*
X-632749D02*
D03*
X-627749Y-275370D02*
D03*
X-632749Y-285370D02*
D03*
X-642749Y-265370D02*
D03*
X-637749Y-275370D02*
D03*
X-652749Y-265370D02*
D03*
Y-285370D02*
D03*
X-662749D02*
D03*
X-672749D02*
D03*
X-682749D02*
D03*
X-692749Y-265370D02*
D03*
X-687749Y-275370D02*
D03*
X-692749Y-285370D02*
D03*
X-445250Y-280370D02*
D03*
X-457750Y-305370D02*
D03*
X-482750D02*
D03*
X-495250Y-280370D02*
D03*
X-545250D02*
D03*
X-557750Y-305370D02*
D03*
X-545250Y-330370D02*
D03*
X-557750Y-455370D02*
D03*
X-595250Y-280370D02*
D03*
X-620250D02*
D03*
X-645250D02*
D03*
D122*
X-192760Y-339090D02*
D03*
Y-416560D02*
D03*
Y-360680D02*
D03*
Y-386080D02*
D03*
M02*
